<?xml version="1.0" encoding="UTF-8" standalone="no"?>
<!-- Created with Inkscape (http://www.inkscape.org/) -->

<svg
   xmlns:dc="http://purl.org/dc/elements/1.1/"
   xmlns:cc="http://creativecommons.org/ns#"
   xmlns:rdf="http://www.w3.org/1999/02/22-rdf-syntax-ns#"
   xmlns:svg="http://www.w3.org/2000/svg"
   xmlns="http://www.w3.org/2000/svg"
   xmlns:sodipodi="http://sodipodi.sourceforge.net/DTD/sodipodi-0.dtd"
   xmlns:inkscape="http://www.inkscape.org/namespaces/inkscape"
   id="svg2"
   version="1.1"
   inkscape:version="0.48.5 r10040"
   width="744.095"
   height="1052.3625"
   xml:space="preserve"
   sodipodi:docname="tmp.pdf"><metadata
     id="metadata8"><rdf:RDF><cc:Work
         rdf:about=""><dc:format>image/svg+xml</dc:format><dc:type
           rdf:resource="http://purl.org/dc/dcmitype/StillImage" /><dc:title></dc:title></cc:Work></rdf:RDF></metadata><defs
     id="defs6"><clipPath
       clipPathUnits="userSpaceOnUse"
       id="clipPath20"><path
         d="M 0,0 612,0 612,792 0,792 0,0 z"
         id="path22" /></clipPath><clipPath
       clipPathUnits="userSpaceOnUse"
       id="clipPath30"><path
         d="m 0,-2.69413e-5 612,0 0,791.9998969413 -612,0 L 0,-2.69413e-5 z"
         id="path32" /></clipPath></defs><sodipodi:namedview
     pagecolor="#ffffff"
     bordercolor="#666666"
     borderopacity="1"
     objecttolerance="10"
     gridtolerance="10"
     guidetolerance="10"
     inkscape:pageopacity="0"
     inkscape:pageshadow="2"
     inkscape:window-width="640"
     inkscape:window-height="480"
     id="namedview4"
     showgrid="false"
     inkscape:zoom="0.22425732"
     inkscape:cx="372.04749"
     inkscape:cy="526.18127"
     inkscape:window-x="0"
     inkscape:window-y="31"
     inkscape:window-maximized="0"
     inkscape:current-layer="g10" /><g
     id="g10"
     inkscape:groupmode="layer"
     inkscape:label="tmp"
     transform="matrix(1.25,0,0,-1.25,-0.17375,1007.8787)"><g
       id="g12"
       transform="scale(0.97313,0.97313)"><g
         id="g14"><g
           id="g16"><g
             id="g18"
             clip-path="url(#clipPath20)"><g
               id="g24" /><g
               id="g26"><g
                 id="g28"
                 clip-path="url(#clipPath30)"><path
                   d="m 0,791.9999 611.9999,0 0,-791.9998873878 -611.9999,0 L 0,791.9999 z"
                   style="fill:#ffffff;fill-opacity:1;fill-rule:evenodd;stroke:none"
                   id="path34" /><g
                   id="g36"
                   transform="translate(163.1879,694.2126)"><text
                     transform="matrix(1,0,0,-1,0,-12)"
                     id="text38"><tspan
                       style="fill:#000000;fill-opacity:1;fill-rule:nonzero;stroke:none;font-family:Futura Black Narrow;font-variant:normal;font-weight:500;font-size:12;writing-mode:lr;-inkscape-font-specification:Futura-CondensedMedium"
                       x="0 5.3844 7.5648 10.8972 14.1216 18.798 22.1304 25.4628 27.7512 31.8876 36.312 40.9884 43.9968 46.2852 50.8176 55.038 58.3704 60.5508 65.0952 69.7476 72.036 76.5684 79.6128 84.0372 88.5576 91.602 95.8224 99.1548 102.4872 104.7756 110.664 112.8444 115.3128 119.9652 122.2536 126.39 130.8144 135.4908 138.4992 140.7876 143.244 147.4644 151.9968 159.1212 161.4096 165.942 170.5944 175.1268 177.4152 181.8396 186.516 188.9844 191.1768 193.3572 198.0096 202.23 204.5184 209.0508 211.3392 215.8716 218.064 222.5964 227.2488 229.5372 232.2936 236.718 239.7264 242.0148 246.6672 250.8036 255.12 257.5884 259.8768 263.2572 265.7136 269.934 274.4664 277.7988 280.0872 284.6196 289.152 292.4844 296.7048 301.2372 303.5256 307.95 312.6024 314.8908 317.6472 321.8676 326.088 330.6204 335.1528 339.6852 342.8376 347.442"
                       y="0"
                       sodipodi:role="line"
                       id="tspan40">Discuss your design progress with your team and outline a plan for next steps based on feedback.</tspan></text>
</g><g
                   id="g42"
                   transform="translate(163.1879,694.2126)"><text
                     transform="matrix(1,0,0,-1,349.7065,-12)"
                     id="text44"><tspan
                       style="fill:#000000;fill-opacity:1;fill-rule:nonzero;stroke:none;font-family:Futura Black Narrow;font-variant:normal;font-weight:500;font-size:12;writing-mode:lr;-inkscape-font-specification:Futura-CondensedMedium"
                       x="0"
                       y="0"
                       id="tspan46"></tspan></text>
</g><g
                   id="g48"
                   transform="matrix(7.874014e-5,0,0,-7.874014e-5,43.92873,275.1525)"><path
                     d="M 0.00538449,0.1215283 3047842,0.1215283 3047842,2978109 0.00538449,2978109 l 0,-2978108.8784717 z"
                     style="fill:none;stroke:#000000;stroke-opacity:1;stroke-width:4156.364;stroke-linecap:butt;stroke-linejoin:round;stroke-miterlimit:10;stroke-dasharray:16625.46,12469.09;stroke-dashoffset:0"
                     id="path50" /></g><g
                   id="g52"
                   transform="matrix(7.874014e-5,0,0,-7.874014e-5,303.4055,275.1525)"><path
                     d="M 0.05340439,0.1215283 3047842,0.1215283 3047842,2978109 0.05340439,2978109 l 0,-2978108.8784717 z"
                     style="fill:none;stroke:#000000;stroke-opacity:1;stroke-width:4156.364;stroke-linecap:butt;stroke-linejoin:round;stroke-miterlimit:10;stroke-dasharray:16625.46,12469.09;stroke-dashoffset:0"
                     id="path54" /></g><g
                   id="g56"
                   transform="translate(51.12865,270.8736)"><text
                     transform="matrix(1,0,0,-1,0,-11)"
                     id="text58"><tspan
                       style="fill:#000000;fill-opacity:1;fill-rule:nonzero;stroke:none;font-family:Futura Black Narrow;font-variant:normal;font-weight:500;font-size:11;writing-mode:lr;-inkscape-font-specification:Futura-CondensedMedium"
                       x="0 6.5208 10.9736 15.3131 17.7573 20.0343 24.3738 28.7133 31.8824 34.3266 37.5595 39.8365 44.0748 46.7709 49.0479 53.0277 57.266 61.7353 64.6734 66.9504 71.2899 74.2599 78.4982 80.6839 84.7396 87.8812 90.3254 92.6024 98.1827 100.3684 102.5596 104.7508 107.0278 111.0835 115.423 118.5008 122.9536 125.2306 129.5547 132.5247 136.763 141.2323 145.5718 147.8488 154.5676 158.6233 165.3421 169.6816 173.7373 176.6754 178.9524 183.2919 187.3476 189.6246 195.1301 199.3684 202.3274 206.6295 208.8152 213.268 217.613"
                       y="0"
                       sodipodi:role="line"
                       id="tspan60">What parts of your project will each group member be working </tspan></text>
</g><g
                   id="g62"
                   transform="translate(51.12865,257.8736)"><text
                     transform="matrix(1,0,0,-1,0,-11)"
                     id="text64"><tspan
                       style="fill:#000000;fill-opacity:1;fill-rule:nonzero;stroke:none;font-family:Futura Black Narrow;font-variant:normal;font-weight:500;font-size:11;writing-mode:lr;-inkscape-font-specification:Futura-CondensedMedium"
                       x="0 4.2383 8.6911 10.9681 15.4209 19.4007 23.5367 25.9809"
                       y="0"
                       sodipodi:role="line"
                       id="tspan66">on next?</tspan></text>
<text
                     transform="matrix(1,0,0,-1,30.0685,-11)"
                     id="text68"><tspan
                       style="fill:#000000;fill-opacity:1;fill-rule:nonzero;stroke:none;font-family:Futura Black Narrow;font-variant:normal;font-weight:500;font-size:11;writing-mode:lr;-inkscape-font-specification:Futura-CondensedMedium"
                       x="0"
                       y="0"
                       id="tspan70"></tspan></text>
</g><g
                   id="g72"
                   transform="translate(310.6056,270.8736)"><text
                     transform="matrix(1,0,0,-1,0,-11)"
                     id="text74"><tspan
                       style="fill:#000000;fill-opacity:1;fill-rule:nonzero;stroke:none;font-family:Futura Black Narrow;font-variant:normal;font-weight:500;font-size:11;writing-mode:lr;-inkscape-font-specification:Futura-CondensedMedium"
                       x="0 6.5208 10.9736 15.3131 17.7573 20.0343 26.7531 28.9388 33.2838 37.7366 40.1808 42.4578 46.4376 50.6759 55.1452 57.4222 61.875 65.9307 69.9864 74.3259 76.6029 81.0557 85.1114 87.3026 91.6421 93.9191 99.4994 101.6851 104.1293 108.5821 110.8591 113.0448 117.4976 119.7746 124.0129 127.0148 131.3543 135.41 138.3481 140.6251 143.0473 147.2856 149.5626 156.2814 160.6209 164.7569 168.8126 171.0896 175.4291 178.3991 182.6374 186.9615 189.9315 193.9872 197.2201 200.453"
                       y="0"
                       sodipodi:role="line"
                       id="tspan76">What might you need help with in order to make progress?</tspan></text>
<text
                     transform="matrix(1,0,0,-1,204.5406,-11)"
                     id="text78"><tspan
                       style="fill:#000000;fill-opacity:1;fill-rule:nonzero;stroke:none;font-family:Futura Black Narrow;font-variant:normal;font-weight:500;font-size:11;writing-mode:lr;-inkscape-font-specification:Futura-CondensedMedium"
                       x="0"
                       y="0"
                       id="tspan80"></tspan></text>
</g><path
                   d="m 575.062,325.263 -648.91742,0 0,-37.5096 648.91742,0 0,37.5096 z"
                   style="fill:#f07f02;fill-opacity:1;fill-rule:evenodd;stroke:none"
                   id="path82" /><g
                   id="g84"
                   transform="translate(43.18787,320.8335)"><text
                     transform="matrix(1,0,0,-1,0,-24)"
                     id="text86"><tspan
                       style="fill:#ffffff;fill-opacity:1;fill-rule:nonzero;stroke:none;font-family:Futura Black Narrow;font-variant:normal;font-weight:500;font-size:24;writing-mode:lr;-inkscape-font-specification:Futura-CondensedMedium"
                       x="0 11.2272 19.9464 28.9584 36.7992 41.7672 51.0144 58.8552 67.5744 77.0904"
                       y="0"
                       sodipodi:role="line"
                       id="tspan88">NEXT STEPS</tspan></text>
<text
                     transform="matrix(1,0,0,-1,86.0424,-24)"
                     id="text90"><tspan
                       style="fill:#ffffff;fill-opacity:1;fill-rule:nonzero;stroke:none;font-family:Futura Black Narrow;font-variant:normal;font-weight:500;font-size:24;writing-mode:lr;-inkscape-font-specification:Futura-CondensedMedium"
                       x="0"
                       y="0"
                       id="tspan92"></tspan></text>
</g><path
                   d="m 575.8083,287.7534 -19.2051,19.184 19.2051,18.3257 0,-37.5097 z"
                   style="fill:#ffffff;fill-opacity:1;fill-rule:evenodd;stroke:none"
                   id="path94" /><g
                   id="g96"
                   transform="matrix(0,7.874014e-5,7.874014e-5,0,556.6032,287.7534)"><path
                     d="M -0.1422052,243905.2 243635.8,-0.1401793 476372,243905.2 l -476372.1422052,0 z"
                     style="fill:none;stroke:#ffffff;stroke-opacity:1;stroke-width:9525;stroke-linecap:butt;stroke-linejoin:round;stroke-miterlimit:10;stroke-dasharray:none"
                     id="path98" /></g><g
                   id="g100"
                   transform="matrix(7.874014e-5,0,0,-7.874014e-5,163.268,728.6674)"><path
                     d="m -0.01290429,0.1251614 4986033.012904291,0 0,353942.7748386 -4986033.012904291,0 0,-353942.7748386 z"
                     style="fill:none;stroke:#000000;stroke-opacity:1;stroke-width:6350;stroke-linecap:butt;stroke-linejoin:round;stroke-miterlimit:10;stroke-dasharray:25400,19050;stroke-dashoffset:0"
                     id="path102" /></g><g
                   id="g104"
                   transform="translate(170.468,721.3326)"><text
                     transform="matrix(1,0,0,-1,0,-11)"
                     id="text106"><tspan
                       style="fill:#000000;fill-opacity:1;fill-rule:nonzero;stroke:none;font-family:Futura Black Narrow;font-variant:normal;font-weight:500;font-size:11;writing-mode:lr;-inkscape-font-specification:Futura-CondensedMedium"
                       x="0 4.1943 9.3456 13.3419 17.5362 22.198 24.1527 26.5485 31.6943 33.9713 38.4351 42.4314 44.7084 46.9854 53.2048 59.4242 65.6436 71.863 78.0824 84.3018 90.5212 96.7406 102.96 109.1794 115.3988 121.6182 127.8376 134.057 140.2764 146.4958 152.7152 158.9346 165.154 171.3734 177.5928 183.8122 190.0316 196.251 202.4704 208.6898 214.9092 221.1286 227.348 233.5674 239.7868 246.0062 252.2256 258.445 264.6644 270.8838 277.1032 283.3226 289.542 295.7614 301.9808 308.2002 314.4196 320.639 326.8584 333.0778 339.2972 345.5166 351.736 357.9554 364.1748 370.3942"
                       y="0"
                       sodipodi:role="line"
                       id="tspan108">CHECK-IN BY: _____________________________________________________</tspan></text>
<text
                     transform="matrix(1,0,0,-1,376.6136,-11)"
                     id="text110"><tspan
                       style="fill:#000000;fill-opacity:1;fill-rule:nonzero;stroke:none;font-family:Futura Black Narrow;font-variant:normal;font-weight:500;font-size:11;writing-mode:lr;-inkscape-font-specification:Futura-CondensedMedium"
                       x="0"
                       y="0"
                       id="tspan112"></tspan></text>
</g><g
                   id="g114"
                   transform="matrix(7.874014e-5,0,0,-7.874014e-5,44.67503,573.426)"><path
                     d="M 0.01358649,0.132713 3047842,0.132713 3047842,2978109 0.01358649,2978109 l 0,-2978108.867287 z"
                     style="fill:none;stroke:#000000;stroke-opacity:1;stroke-width:4156.364;stroke-linecap:butt;stroke-linejoin:round;stroke-miterlimit:10;stroke-dasharray:16625.46,12469.09;stroke-dashoffset:0"
                     id="path116" /></g><g
                   id="g118"
                   transform="matrix(7.874014e-5,0,0,-7.874014e-5,304.1518,573.426)"><path
                     d="M 0.02092642,0.132713 3047842,0.132713 3047842,2978109 0.02092642,2978109 l 0,-2978108.867287 z"
                     style="fill:none;stroke:#000000;stroke-opacity:1;stroke-width:4156.364;stroke-linecap:butt;stroke-linejoin:round;stroke-miterlimit:10;stroke-dasharray:16625.46,12469.09;stroke-dashoffset:0"
                     id="path120" /></g><g
                   id="g122"
                   transform="translate(51.87495,569.147)"><text
                     transform="matrix(1,0,0,-1,0,-11)"
                     id="text124"><tspan
                       style="fill:#000000;fill-opacity:1;fill-rule:nonzero;stroke:none;font-family:Futura Black Narrow;font-variant:normal;font-weight:500;font-size:11;writing-mode:lr;-inkscape-font-specification:Futura-CondensedMedium"
                       x="0 6.5208 10.9736 15.3131 17.7573 20.0343 24.4871 28.8266 32.0595 34.3365 38.676 42.7317 46.7874 51.2402 53.5172 57.497 61.7353 66.2046 69.1427 71.4197 74.1697 78.5741 82.2426 86.4809 89.4399 91.6256 94.0588 98.1145 100.3915 104.731 109.0705 112.2396 114.6838 116.9608 121.1991 123.8952 126.1722 128.6164 133.0692 137.1249 139.4019 143.7414 146.7114 150.9497 154.0913 158.147 161.3799 164.6128 166.8898 170.1227 174.361 176.638 179.388 183.7275 186.6656"
                       y="0"
                       sodipodi:role="line"
                       id="tspan126">What has been your favorite part of the process so far?</tspan></text>
<text
                     transform="matrix(1,0,0,-1,190.7532,-11)"
                     id="text128"><tspan
                       style="fill:#000000;fill-opacity:1;fill-rule:nonzero;stroke:none;font-family:Futura Black Narrow;font-variant:normal;font-weight:500;font-size:11;writing-mode:lr;-inkscape-font-specification:Futura-CondensedMedium"
                       x="0"
                       y="0"
                       id="tspan130"></tspan></text>
</g><g
                   id="g132"
                   transform="translate(311.3518,569.147)"><text
                     transform="matrix(1,0,0,-1,0,-11)"
                     id="text134"><tspan
                       style="fill:#000000;fill-opacity:1;fill-rule:nonzero;stroke:none;font-family:Futura Black Narrow;font-variant:normal;font-weight:500;font-size:11;writing-mode:lr;-inkscape-font-specification:Futura-CondensedMedium"
                       x="0 6.5208 10.9736 15.3131 17.7573 20.0343 24.3738 28.7133 31.8824 34.3266 37.5595 39.8365 44.0748 46.7709 49.0479 53.0277 57.266 61.7353 64.6734 66.9504 71.2899 74.2599 78.4982 80.6839 84.7396 87.8812 90.3254 92.6024 95.8892 98.3334 100.5191 102.7103 104.9015 107.1785 111.6313 115.687 119.7427 124.0822 126.3592 128.7814 133.0197 135.2967 139.6362 143.6919 145.9689 151.4744 155.7127 158.6717 162.8077 166.8634 171.2029 173.4799 177.7182 182.171"
                       y="0"
                       sodipodi:role="line"
                       id="tspan136">What parts of your project still need to be worked on?</tspan></text>
<text
                     transform="matrix(1,0,0,-1,186.2586,-11)"
                     id="text138"><tspan
                       style="fill:#000000;fill-opacity:1;fill-rule:nonzero;stroke:none;font-family:Futura Black Narrow;font-variant:normal;font-weight:500;font-size:11;writing-mode:lr;-inkscape-font-specification:Futura-CondensedMedium"
                       x="0"
                       y="0"
                       id="tspan140"></tspan></text>
</g><path
                   d="m 575.8083,623.5364 -649.66368,0 0,-37.0052 649.66368,0 0,37.0052 z"
                   style="fill:#f07f02;fill-opacity:1;fill-rule:evenodd;stroke:none"
                   id="path142" /><g
                   id="g144"
                   transform="translate(43.93417,619.1069)"><text
                     transform="matrix(1,0,0,-1,0,-24)"
                     id="text146"><tspan
                       style="fill:#ffffff;fill-opacity:1;fill-rule:nonzero;stroke:none;font-family:Futura Black Narrow;font-variant:normal;font-weight:500;font-size:24;writing-mode:lr;-inkscape-font-specification:Futura-CondensedMedium"
                       x="0 9.516 19.4184 30.8904 37.9104 46.6296 55.7808 63.6216 68.5896 78.1056 88.008 99.48 110.6712 120.7848 129.504 138.456"
                       y="0"
                       sodipodi:role="line"
                       id="tspan148">PROJECT PROGRESS</tspan></text>
<text
                     transform="matrix(1,0,0,-1,147.408,-24)"
                     id="text150"><tspan
                       style="fill:#ffffff;fill-opacity:1;fill-rule:nonzero;stroke:none;font-family:Futura Black Narrow;font-variant:normal;font-weight:500;font-size:24;writing-mode:lr;-inkscape-font-specification:Futura-CondensedMedium"
                       x="0"
                       y="0"
                       id="tspan152"></tspan></text>
</g><path
                   d="m 576.5546,586.0269 -19.2051,19.1839 19.2051,18.3256 0,-37.5095 z"
                   style="fill:#ffffff;fill-opacity:1;fill-rule:evenodd;stroke:none"
                   id="path154" /><g
                   id="g156"
                   transform="matrix(0,7.874014e-5,7.874014e-5,0,557.3495,586.0269)"><path
                     d="M -0.2909632,243905.4 243636,0.07734275 476371.5,243905.4 l -476371.7909632,0 z"
                     style="fill:none;stroke:#ffffff;stroke-opacity:1;stroke-width:9525;stroke-linecap:butt;stroke-linejoin:round;stroke-miterlimit:10;stroke-dasharray:none"
                     id="path158" /></g><g
                   id="g160"
                   transform="translate(43.19999,741.4833)"><text
                     transform="matrix(1,0,0,-1,0,-34)"
                     id="text162"><tspan
                       style="fill:#000000;fill-opacity:1;fill-rule:nonzero;stroke:none;font-family:Futura Black Narrow;font-variant:normal;font-weight:500;font-size:34;writing-mode:lr;-inkscape-font-specification:Futura-CondensedMedium"
                       x="0 13.481 27.5094 43.7614 53.7064 66.0586 79.0228"
                       y="0"
                       sodipodi:role="line"
                       id="tspan164">PROJECT</tspan></text>
<text
                     transform="matrix(1,0,0,-1,90.1306,-34)"
                     id="text166"><tspan
                       style="fill:#000000;fill-opacity:1;fill-rule:nonzero;stroke:none;font-family:Futura Black Narrow;font-variant:normal;font-weight:500;font-size:34;writing-mode:lr;-inkscape-font-specification:Futura-CondensedMedium"
                       x="0"
                       y="0"
                       id="tspan168"></tspan></text>
</g><g
                   id="g170"
                   transform="translate(43.19999,701.4833)"><text
                     transform="matrix(1,0,0,-1,0,-34)"
                     id="text172"><tspan
                       style="fill:#000000;fill-opacity:1;fill-rule:nonzero;stroke:none;font-family:Futura Black Narrow;font-variant:normal;font-weight:500;font-size:34;writing-mode:lr;-inkscape-font-specification:Futura-CondensedMedium"
                       x="0 12.9642 28.8864 41.2386 54.2028 68.629 74.6572 82.0454"
                       y="0"
                       sodipodi:role="line"
                       id="tspan174">CHECK-IN</tspan></text>
<text
                     transform="matrix(1,0,0,-1,97.9336,-34)"
                     id="text176"><tspan
                       style="fill:#000000;fill-opacity:1;fill-rule:nonzero;stroke:none;font-family:Futura Black Narrow;font-variant:normal;font-weight:500;font-size:34;writing-mode:lr;-inkscape-font-specification:Futura-CondensedMedium"
                       x="0"
                       y="0"
                       id="tspan178"></tspan></text>
</g></g></g></g></g></g></g></g></svg>