<?xml version="1.0" encoding="UTF-8" standalone="no"?>
<!-- Created with Inkscape (http://www.inkscape.org/) -->

<svg
   xmlns:dc="http://purl.org/dc/elements/1.1/"
   xmlns:cc="http://creativecommons.org/ns#"
   xmlns:rdf="http://www.w3.org/1999/02/22-rdf-syntax-ns#"
   xmlns:svg="http://www.w3.org/2000/svg"
   xmlns="http://www.w3.org/2000/svg"
   xmlns:sodipodi="http://sodipodi.sourceforge.net/DTD/sodipodi-0.dtd"
   xmlns:inkscape="http://www.inkscape.org/namespaces/inkscape"
   id="svg2"
   version="1.1"
   inkscape:version="0.48.5 r10040"
   width="744.095"
   height="1052.3625"
   xml:space="preserve"
   sodipodi:docname="tmp.pdf"><metadata
     id="metadata8"><rdf:RDF><cc:Work
         rdf:about=""><dc:format>image/svg+xml</dc:format><dc:type
           rdf:resource="http://purl.org/dc/dcmitype/StillImage" /><dc:title></dc:title></cc:Work></rdf:RDF></metadata><defs
     id="defs6"><clipPath
       clipPathUnits="userSpaceOnUse"
       id="clipPath20"><path
         d="M 0,0 612,0 612,792 0,792 0,0 z"
         id="path22" /></clipPath><clipPath
       clipPathUnits="userSpaceOnUse"
       id="clipPath30"><path
         d="m 0,-2.69413e-5 612,0 0,791.9998969413 -612,0 L 0,-2.69413e-5 z"
         id="path32" /></clipPath></defs><sodipodi:namedview
     pagecolor="#ffffff"
     bordercolor="#666666"
     borderopacity="1"
     objecttolerance="10"
     gridtolerance="10"
     guidetolerance="10"
     inkscape:pageopacity="0"
     inkscape:pageshadow="2"
     inkscape:window-width="640"
     inkscape:window-height="480"
     id="namedview4"
     showgrid="false"
     inkscape:zoom="0.22425732"
     inkscape:cx="372.04749"
     inkscape:cy="526.18127"
     inkscape:window-x="0"
     inkscape:window-y="31"
     inkscape:window-maximized="0"
     inkscape:current-layer="g10" /><g
     id="g10"
     inkscape:groupmode="layer"
     inkscape:label="tmp"
     transform="matrix(1.25,0,0,-1.25,-0.17375,1007.8787)"><g
       id="g12"
       transform="scale(0.97313,0.97313)"><g
         id="g14"><g
           id="g16"><g
             id="g18"
             clip-path="url(#clipPath20)"><g
               id="g24" /><g
               id="g26"><g
                 id="g28"
                 clip-path="url(#clipPath30)"><path
                   d="m 0,791.9999 611.9999,0 0,-791.9998873878 -611.9999,0 L 0,791.9999 z"
                   style="fill:#ffffff;fill-opacity:1;fill-rule:evenodd;stroke:none"
                   id="path34" /><g
                   id="g36"
                   transform="matrix(7.874014e-5,0,0,-7.874014e-5,323.6474,188.3717)"><path
                     d="M -0.02668971,-0.01000333 1.13603,2115597"
                     style="fill:none;stroke:#f07f02;stroke-opacity:1;stroke-width:4156.364;stroke-linecap:butt;stroke-linejoin:round;stroke-miterlimit:10;stroke-dasharray:16625.46,12469.09;stroke-dashoffset:0"
                     id="path38" /></g><g
                   id="g40"
                   transform="matrix(-7.874014e-5,0,0,-7.874014e-5,558.1261,22.37358)"><path
                     d="M -0.04272676,0.00268069 2980582,0.9958373"
                     style="fill:none;stroke:#f07f02;stroke-opacity:1;stroke-width:4156.364;stroke-linecap:butt;stroke-linejoin:round;stroke-miterlimit:10;stroke-dasharray:16625.46,12469.09;stroke-dashoffset:0"
                     id="path42" /></g><g
                   id="g44"
                   transform="matrix(-7.874014e-5,0,0,-7.874014e-5,559.3983,136.2856)"><path
                     d="M 282.23,25398.47 16156.46,1454103"
                     style="fill:none;stroke:#f07f02;stroke-opacity:1;stroke-width:8312.728;stroke-linecap:butt;stroke-linejoin:round;stroke-miterlimit:10;stroke-dasharray:33250.91,24938.18;stroke-dashoffset:0"
                     id="path46" /></g><path
                   d="m 562.3314,130.2526 -2.9331,6.033 -3.0665,-5.9663 5.9996,-0.0667 z"
                   style="fill:#f07f02;fill-opacity:1;fill-rule:evenodd;stroke:none"
                   id="path48" /><g
                   id="g50"
                   transform="matrix(7.874014e-5,0,0,-7.874014e-5,35.99992,742.3679)"><path
                     d="M 0.00448592,-0.03294516 1699197,-0.03294516 1699197,954107 0.00448592,954107 l 0,-954107.03294516 z"
                     style="fill:none;stroke:#ffffff;stroke-opacity:1;stroke-width:9525;stroke-linecap:butt;stroke-linejoin:round;stroke-miterlimit:10;stroke-dasharray:none"
                     id="path52" /></g><g
                   id="g54"
                   transform="translate(43.19991,738.7679)"><text
                     transform="matrix(1,0,0,-1,0,-28)"
                     id="text56"><tspan
                       style="fill:#000000;fill-opacity:1;fill-rule:nonzero;stroke:none;font-family:Futura Black Narrow;font-variant:normal;font-weight:500;font-size:28;writing-mode:lr;-inkscape-font-specification:Futura-CondensedMedium"
                       x="0 11.102 22.6548 36.0388 44.2288 54.4012 65.0776 74.2252"
                       y="0"
                       sodipodi:role="line"
                       id="tspan58">PROJECT </tspan></text>
</g><g
                   id="g60"
                   transform="translate(43.19991,705.7679)"><text
                     transform="matrix(1,0,0,-1,0,-28)"
                     id="text62"><tspan
                       style="fill:#000000;fill-opacity:1;fill-rule:nonzero;stroke:none;font-family:Futura Black Narrow;font-variant:normal;font-weight:500;font-size:28;writing-mode:lr;-inkscape-font-specification:Futura-CondensedMedium"
                       x="0 11.7992 21.9716 31.7604 41.0312 51.2036 61.88 71.0276 77.126 90.51 103.6084"
                       y="0"
                       sodipodi:role="line"
                       id="tspan64">REFLECTIONS</tspan></text>
<text
                     transform="matrix(1,0,0,-1,114.0524,-28)"
                     id="text66"><tspan
                       style="fill:#000000;fill-opacity:1;fill-rule:nonzero;stroke:none;font-family:Futura Black Narrow;font-variant:normal;font-weight:500;font-size:28;writing-mode:lr;-inkscape-font-specification:Futura-CondensedMedium"
                       x="0"
                       y="0"
                       id="tspan68"></tspan></text>
</g><g
                   id="g70"
                   transform="translate(42.53307,634.5814)"><text
                     transform="matrix(1,0,0,-1,0,-24)"
                     id="text72"><tspan
                       style="fill:#ffffff;fill-opacity:1;fill-rule:nonzero;stroke:none;font-family:Futura Black Narrow;font-variant:normal;font-weight:500;font-size:24;writing-mode:lr;-inkscape-font-specification:Futura-CondensedMedium"
                       x="0 8.3904 17.1096 25.8288 36.996 46.9464 56.568 65.7192 75.8208 80.7888 89.2488 100.7208 110.8344"
                       y="0"
                       sodipodi:role="line"
                       id="tspan74">FEEDBACK FOR:</tspan></text>
<text
                     transform="matrix(1,0,0,-1,115.8024,-24)"
                     id="text76"><tspan
                       style="fill:#ffffff;fill-opacity:1;fill-rule:nonzero;stroke:none;font-family:Futura Black Narrow;font-variant:normal;font-weight:500;font-size:24;writing-mode:lr;-inkscape-font-specification:Futura-CondensedMedium"
                       x="0"
                       y="0"
                       id="tspan78"></tspan></text>
</g><g
                   id="g80"
                   transform="matrix(7.874014e-5,0,0,-7.874014e-5,169.795,611.098)"><path
                     d="M 0.00216311,-0.07880473 4740255,0.6963419"
                     style="fill:none;stroke:#ffffff;stroke-opacity:1;stroke-width:9525;stroke-linecap:butt;stroke-linejoin:round;stroke-miterlimit:10;stroke-dasharray:none"
                     id="path82" /></g><path
                   d="m 574.4075,651.2282 -626.72173,0 0,-37.0052 626.72173,0 0,37.0052 z"
                   style="fill:#f07f02;fill-opacity:1;fill-rule:evenodd;stroke:none"
                   id="path84" /><g
                   id="g86"
                   transform="translate(42.53338,646.7988)"><text
                     transform="matrix(1,0,0,-1,0,-24)"
                     id="text88"><tspan
                       style="fill:#ffffff;fill-opacity:1;fill-rule:nonzero;stroke:none;font-family:Futura Black Narrow;font-variant:normal;font-weight:500;font-size:24;writing-mode:lr;-inkscape-font-specification:Futura-CondensedMedium"
                       x="0 14.2272 25.4784 34.8816 42.7248"
                       y="0"
                       sodipodi:role="line"
                       id="tspan90">WHAT?</tspan></text>
<text
                     transform="matrix(1,0,0,-1,51.648,-24)"
                     id="text92"><tspan
                       style="fill:#ffffff;fill-opacity:1;fill-rule:nonzero;stroke:none;font-family:Futura Black Narrow;font-variant:normal;font-weight:500;font-size:24;writing-mode:lr;-inkscape-font-specification:Futura-CondensedMedium"
                       x="0"
                       y="0"
                       id="tspan94"></tspan></text>
</g><path
                   d="m 575.9463,613.7187 -19.2052,19.1839 19.2052,18.3257 0,-37.5096 z"
                   style="fill:#ffffff;fill-opacity:1;fill-rule:evenodd;stroke:none"
                   id="path96" /><g
                   id="g98"
                   transform="matrix(0,7.874014e-5,7.874014e-5,0,556.7411,613.7187)"><path
                     d="M 0.04852283,243905 243636.4,-0.3088552 476371.8,243905 0.04852283,243905 z"
                     style="fill:none;stroke:#ffffff;stroke-opacity:1;stroke-width:9525;stroke-linecap:butt;stroke-linejoin:round;stroke-miterlimit:10;stroke-dasharray:none"
                     id="path100" /></g><g
                   id="g102"
                   transform="translate(42.5333,603.6041)"><text
                     transform="matrix(1,0,0,-1,0,-11)"
                     id="text104"><tspan
                       style="fill:#000000;fill-opacity:1;fill-rule:nonzero;stroke:none;font-family:Futura Black Narrow;font-variant:normal;font-weight:500;font-size:11;writing-mode:lr;-inkscape-font-specification:Futura-CondensedMedium"
                       x="0 6.5208 10.9736 15.3131 17.7573 20.0343 22.22 25.4529 27.7299 31.7097 35.948 40.4173 43.3554 45.6324 49.9719 52.9419 57.1802 59.3659 63.4216 66.5632 69.0074"
                       y="0"
                       sodipodi:role="line"
                       id="tspan106">What is your project?</tspan></text>
<text
                     transform="matrix(1,0,0,-1,73.095,-11)"
                     id="text108"><tspan
                       style="fill:#000000;fill-opacity:1;fill-rule:nonzero;stroke:none;font-family:Futura Black Narrow;font-variant:normal;font-weight:500;font-size:11;writing-mode:lr;-inkscape-font-specification:Futura-CondensedMedium"
                       x="0"
                       y="0"
                       id="tspan110"></tspan></text>
</g><g
                   id="g112"
                   transform="translate(42.5333,590.6041)"><text
                     transform="matrix(1,0,0,-1,0,-11)"
                     id="text114"><tspan
                       style="fill:#000000;fill-opacity:1;fill-rule:nonzero;stroke:none;font-family:Futura Black Narrow;font-variant:normal;font-weight:500;font-size:11;writing-mode:lr;-inkscape-font-specification:Futura-CondensedMedium"
                       x="0 5.1513 9.3137 14.894 17.171 21.5105 25.7488 29.8045 33.0374 35.3144 37.5001 39.9443 42.2213 47.7268 51.9651 54.9241 59.2262 63.3138 65.5908 70.7421 74.9045 80.4848 82.7618 87.1013 89.287 93.6265 95.9035 99.8833 104.1216 108.5909 110.8679 114.0095 118.2478 124.9666 129.0223 131.2993 135.7686 140.1081 142.3851 147.9654 150.1511 152.5953 157.0481 159.3251 161.7693 166.2221 170.2778 172.5548 174.7405 179.08 183.1357 187.4752"
                       y="0"
                       sodipodi:role="line"
                       id="tspan116">How does it work? How did you come up with the idea?</tspan></text>
<text
                     transform="matrix(1,0,0,-1,191.5628,-11)"
                     id="text118"><tspan
                       style="fill:#000000;fill-opacity:1;fill-rule:nonzero;stroke:none;font-family:Futura Black Narrow;font-variant:normal;font-weight:500;font-size:11;writing-mode:lr;-inkscape-font-specification:Futura-CondensedMedium"
                       x="0"
                       y="0"
                       id="tspan120"></tspan></text>
</g><path
                   d="m 575.4303,438.2184 -627.74454,0 0,-37.0052 627.74454,0 0,37.0052 z"
                   style="fill:#f07f02;fill-opacity:1;fill-rule:evenodd;stroke:none"
                   id="path122" /><path
                   d="m 576.2569,400.7089 -19.2051,19.1839 19.2051,18.3257 0,-37.5096 z"
                   style="fill:#ffffff;fill-opacity:1;fill-rule:evenodd;stroke:none"
                   id="path124" /><g
                   id="g126"
                   transform="matrix(0,7.874014e-5,7.874014e-5,0,557.0518,400.7089)"><path
                     d="M -0.166096,243905.2 243635.8,-0.08778954 476372,243905.2 l -476372.166096,0 z"
                     style="fill:none;stroke:#ffffff;stroke-opacity:1;stroke-width:9525;stroke-linecap:butt;stroke-linejoin:round;stroke-miterlimit:10;stroke-dasharray:none"
                     id="path128" /></g><g
                   id="g130"
                   transform="translate(42.0896,433.789)"><text
                     transform="matrix(1,0,0,-1,0,-24)"
                     id="text132"><tspan
                       style="fill:#ffffff;fill-opacity:1;fill-rule:nonzero;stroke:none;font-family:Futura Black Narrow;font-variant:normal;font-weight:500;font-size:24;writing-mode:lr;-inkscape-font-specification:Futura-CondensedMedium"
                       x="0 8.952 20.424 25.392 39.6192 50.8584 60.2568 68.0976"
                       y="0"
                       sodipodi:role="line"
                       id="tspan134">SO WHAT?</tspan></text>
<text
                     transform="matrix(1,0,0,-1,77.016,-24)"
                     id="text136"><tspan
                       style="fill:#ffffff;fill-opacity:1;fill-rule:nonzero;stroke:none;font-family:Futura Black Narrow;font-variant:normal;font-weight:500;font-size:24;writing-mode:lr;-inkscape-font-specification:Futura-CondensedMedium"
                       x="0"
                       y="0"
                       id="tspan138"></tspan></text>
</g><g
                   id="g140"
                   transform="translate(41.83401,390.4391)"><text
                     transform="matrix(1,0,0,-1,0,-11)"
                     id="text142"><tspan
                       style="fill:#000000;fill-opacity:1;fill-rule:nonzero;stroke:none;font-family:Futura Black Narrow;font-variant:normal;font-weight:500;font-size:11;writing-mode:lr;-inkscape-font-specification:Futura-CondensedMedium"
                       x="0 6.5208 10.9736 15.3131 17.7573 20.0343 25.5607 29.9002 33.1331 35.4101 39.3899 43.6282 48.0975 51.0356 53.3126 57.6521 60.6221 64.8604 68.002 72.0577 75.2906 78.5235 80.8005 83.5076 87.7459 90.684 92.961 97.3005 101.2913 104.9598 109.0155 111.2067 115.445 119.7845 121.9702 126.423 130.768 133.045 135.4892 139.942 143.9977 146.2747 150.6142 153.5842 157.8225 160.0082 164.0639 167.2055 169.6497"
                       y="0"
                       sodipodi:role="line"
                       id="tspan144">What was your process for developing the project?</tspan></text>
<text
                     transform="matrix(1,0,0,-1,173.7373,-11)"
                     id="text146"><tspan
                       style="fill:#000000;fill-opacity:1;fill-rule:nonzero;stroke:none;font-family:Futura Black Narrow;font-variant:normal;font-weight:500;font-size:11;writing-mode:lr;-inkscape-font-specification:Futura-CondensedMedium"
                       x="0"
                       y="0"
                       id="tspan148"></tspan></text>
</g><g
                   id="g150"
                   transform="translate(41.83401,377.4391)"><text
                     transform="matrix(1,0,0,-1,0,-11)"
                     id="text152"><tspan
                       style="fill:#000000;fill-opacity:1;fill-rule:nonzero;stroke:none;font-family:Futura Black Narrow;font-variant:normal;font-weight:500;font-size:11;writing-mode:lr;-inkscape-font-specification:Futura-CondensedMedium"
                       x="0 6.5208 10.9736 15.3131 17.7573 20.0343 25.5607 29.9002 33.1331 35.4101 37.5958 42.0486 44.4818 48.5375 51.5075 55.5632 58.85 61.2942 63.4799 67.9327 72.2777 74.5547 76.8317 79.9095 84.3623 88.7018 90.893 93.0842 97.1399 101.5927 105.9377 108.1234 112.5762 116.9212 119.1982 121.4752 125.8147 130.2675 134.607 136.884 140.1169 144.5862 147.5452 151.8847 154.8437 157.0294 160.2623 162.448 166.9008 171.2458 175.3334 177.6104 184.1312 188.5301 192.5858"
                       y="0"
                       sodipodi:role="line"
                       id="tspan154">What was interesting, challenging, and surprising? Why?</tspan></text>
<text
                     transform="matrix(1,0,0,-1,196.6734,-11)"
                     id="text156"><tspan
                       style="fill:#000000;fill-opacity:1;fill-rule:nonzero;stroke:none;font-family:Futura Black Narrow;font-variant:normal;font-weight:500;font-size:11;writing-mode:lr;-inkscape-font-specification:Futura-CondensedMedium"
                       x="0"
                       y="0"
                       id="tspan158"></tspan></text>
</g><g
                   id="g160"
                   transform="translate(41.83401,364.4391)"><text
                     transform="matrix(1,0,0,-1,0,-11)"
                     id="text162"><tspan
                       style="fill:#000000;fill-opacity:1;fill-rule:nonzero;stroke:none;font-family:Futura Black Narrow;font-variant:normal;font-weight:500;font-size:11;writing-mode:lr;-inkscape-font-specification:Futura-CondensedMedium"
                       x="0 6.5208 10.9736 15.3131 17.7573 20.0343 24.3738 26.5595 30.899 33.176 37.1558 41.3941 45.8634 48.1404 50.3316 54.3873 58.7268 61.6858 66.1386"
                       y="0"
                       sodipodi:role="line"
                       id="tspan164">What did you learn?</tspan></text>
<text
                     transform="matrix(1,0,0,-1,70.2262,-11)"
                     id="text166"><tspan
                       style="fill:#000000;fill-opacity:1;fill-rule:nonzero;stroke:none;font-family:Futura Black Narrow;font-variant:normal;font-weight:500;font-size:11;writing-mode:lr;-inkscape-font-specification:Futura-CondensedMedium"
                       x="0"
                       y="0"
                       id="tspan168"></tspan></text>
</g><g
                   id="g170"
                   transform="translate(41.80117,178.1584)"><text
                     transform="matrix(1,0,0,-1,0,-11)"
                     id="text172"><tspan
                       style="fill:#000000;fill-opacity:1;fill-rule:nonzero;stroke:none;font-family:Futura Black Narrow;font-variant:normal;font-weight:500;font-size:11;writing-mode:lr;-inkscape-font-specification:Futura-CondensedMedium"
                       x="0 6.5208 10.9736 15.3131 17.7573 20.0343 24.3738 27.3438 31.3995 33.6765 37.6563 41.8946 46.3639 48.6409 55.3597 59.598 62.8848 65.329 67.606 71.9455 74.9155 79.1538 83.6231 87.9626 90.2396 94.4779 97.174 99.451 103.7905 108.13 112.3683 116.8376 119.2818 121.5588 125.5386 129.7769 134.2462 137.1843 139.4613 143.8008 146.7708 151.0091 153.1948 157.2505 160.3921 162.8363 166.9239"
                       y="0"
                       sodipodi:role="line"
                       id="tspan174">What are you most proud of about your project? </tspan></text>
<text
                     transform="matrix(1,0,0,-1,169.2009,-11)"
                     id="text176"><tspan
                       style="fill:#000000;fill-opacity:1;fill-rule:nonzero;stroke:none;font-family:Futura Black Narrow;font-variant:normal;font-weight:500;font-size:11;writing-mode:lr;-inkscape-font-specification:Futura-CondensedMedium"
                       x="0"
                       y="0"
                       id="tspan178"></tspan></text>
</g><g
                   id="g180"
                   transform="translate(41.80117,165.1584)"><text
                     transform="matrix(1,0,0,-1,0,-11)"
                     id="text182"><tspan
                       style="fill:#000000;fill-opacity:1;fill-rule:nonzero;stroke:none;font-family:Futura Black Narrow;font-variant:normal;font-weight:500;font-size:11;writing-mode:lr;-inkscape-font-specification:Futura-CondensedMedium"
                       x="0 6.5208 10.9736 15.3131 17.7573 20.0343 25.5398 29.7781 34.2474 36.4386 40.7781 43.0551 47.0349 51.2732 55.7425 58.0195 61.0973 65.5501 69.8896 74.3424 78.6874 82.7431"
                       y="0"
                       sodipodi:role="line"
                       id="tspan184">What would you change?</tspan></text>
<text
                     transform="matrix(1,0,0,-1,86.8307,-11)"
                     id="text186"><tspan
                       style="fill:#000000;fill-opacity:1;fill-rule:nonzero;stroke:none;font-family:Futura Black Narrow;font-variant:normal;font-weight:500;font-size:11;writing-mode:lr;-inkscape-font-specification:Futura-CondensedMedium"
                       x="0"
                       y="0"
                       id="tspan188"></tspan></text>
</g><path
                   d="m 665.9999,223.9007 -719.99984,0 0,-37.5096 719.99984,0 0,37.5096 z"
                   style="fill:#f07f02;fill-opacity:1;fill-rule:evenodd;stroke:none"
                   id="path190" /><g
                   id="g192"
                   transform="translate(41.80117,221.2829)"><text
                     transform="matrix(1,0,0,-1,0,-24)"
                     id="text194"><tspan
                       style="fill:#ffffff;fill-opacity:1;fill-rule:nonzero;stroke:none;font-family:Futura Black Narrow;font-variant:normal;font-weight:500;font-size:24;writing-mode:lr;-inkscape-font-specification:Futura-CondensedMedium"
                       x="0 11.2512 22.7232 36.9504 41.9184 56.1456 67.3848 76.7832 84.624"
                       y="0"
                       sodipodi:role="line"
                       id="tspan196">NOW WHAT?</tspan></text>
<text
                     transform="matrix(1,0,0,-1,93.5424,-24)"
                     id="text198"><tspan
                       style="fill:#ffffff;fill-opacity:1;fill-rule:nonzero;stroke:none;font-family:Futura Black Narrow;font-variant:normal;font-weight:500;font-size:24;writing-mode:lr;-inkscape-font-specification:Futura-CondensedMedium"
                       x="0"
                       y="0"
                       id="tspan200"></tspan></text>
</g><path
                   d="m 566.7549,187.5491 -19.2051,19.1839 19.2051,18.3257 0,-37.5096 z"
                   style="fill:#ffffff;fill-opacity:1;fill-rule:evenodd;stroke:none"
                   id="path202" /><g
                   id="g204"
                   transform="matrix(0,7.874014e-5,7.874014e-5,0,547.5498,187.5491)"><path
                     d="M -0.08455983,243905.4 243635.9,0.08896446 476371.9,243905.4 l -476371.98455983,0 z"
                     style="fill:none;stroke:#ffffff;stroke-opacity:1;stroke-width:9525;stroke-linecap:butt;stroke-linejoin:round;stroke-miterlimit:10;stroke-dasharray:none"
                     id="path206" /></g><path
                   d="m 574.4646,140.2968 -21.078,3.9733 c -33.7643,-16.589 -77.2123,-4.5891 -97.0438,26.8023 -19.8315,31.3914 -8.5368,70.2872 25.2276,86.8761 33.7643,16.589 77.2123,4.5892 97.0438,-26.8023 14.6376,-23.17 12.6829,-51.4529 -4.9404,-71.4853 l 0.7908,-19.3641 z"
                   style="fill:#feeee1;fill-opacity:1;fill-rule:evenodd;stroke:none"
                   id="path208" /><g
                   id="g210"
                   transform="matrix(1.677375e-5,7.693277e-5,7.693277e-5,-1.677375e-5,434.2772,153.8079)"><path
                     d="m 211616,1776068 -7722.8,-272296 C -93297.84,1129688 -61944.24,558099.2 273923.2,227092.8 609790.8,-103914 1122986,-68993.1 1420177,305091.1 1717368,679175.3 1686015,1250764 1350147,1581770 1102244,1826086 746005.9,1878349 449756,1713866 l -238140,62202 z"
                     style="fill:none;stroke:#ffffff;stroke-opacity:1;stroke-width:12700;stroke-linecap:round;stroke-linejoin:bevel;stroke-miterlimit:10;stroke-dasharray:none"
                     id="path212" /></g><g
                   id="g214"
                   transform="matrix(0.9770463,-0.2130267,0.2130267,0.9770463,478.7397,242.9214)"><text
                     transform="matrix(1,0,0,-1,2.429688,-18)"
                     id="text216"><tspan
                       style="fill:#ea6a09;fill-opacity:1;fill-rule:nonzero;stroke:none;font-family:Futura Black Narrow;font-variant:normal;font-weight:500;font-size:20;writing-mode:lr;-inkscape-font-specification:Futura-CondensedMedium"
                       x="0 11.856 21.222 29.054 35.588 39.728 49.034 58.594 62.734 70.322 79.882 89.14"
                       y="0"
                       sodipodi:role="line"
                       id="tspan218">WHAT DO YOU </tspan></text>
</g><g
                   id="g220"
                   transform="matrix(0.9770463,-0.2130267,0.2130267,0.9770463,474.2662,222.4034)"><text
                     transform="matrix(1,0,0,-1,19.03613,-18)"
                     id="text222"><tspan
                       style="fill:#ea6a09;fill-opacity:1;fill-rule:nonzero;stroke:none;font-family:Futura Black Narrow;font-variant:normal;font-weight:500;font-size:20;writing-mode:lr;-inkscape-font-specification:Futura-CondensedMedium"
                       x="0 11.514 19.668 29.024 35.558 39.698 46.368 55.928"
                       y="0"
                       sodipodi:role="line"
                       id="tspan224">WANT TO </tspan></text>
</g><g
                   id="g226"
                   transform="matrix(0.9770463,-0.2130267,0.2130267,0.9770463,469.5796,200.9084)"><text
                     transform="matrix(1,0,0,-1,3.40625,-18)"
                     id="text228"><tspan
                       style="fill:#ea6a09;fill-opacity:1;fill-rule:nonzero;stroke:none;font-family:Futura Black Narrow;font-variant:normal;font-weight:500;font-size:20;writing-mode:lr;-inkscape-font-specification:Futura-CondensedMedium"
                       x="0 7.626 16.054 23.32 31.152 37.686 44.952 49.092 58.448 65.714 73.224 79.758"
                       y="0"
                       sodipodi:role="line"
                       id="tspan230">CREATE NEXT?</tspan></text>
</g><g
                   id="g232"
                   transform="matrix(0.9770463,-0.2130267,0.2130267,0.9770463,469.5796,200.9084)"><text
                     transform="matrix(1,0,0,-1,90.59375,-23)"
                     id="text234"><tspan
                       style="fill:#f07f02;fill-opacity:1;fill-rule:nonzero;stroke:none;font-family:Futura Black Narrow;font-variant:normal;font-weight:500;font-size:13.33333;writing-mode:lr;-inkscape-font-specification:Futura-CondensedMedium"
                       x="0"
                       y="0"
                       id="tspan236"></tspan></text>
</g><g
                   id="g238"
                   transform="matrix(7.874014e-5,0,0,-7.874014e-5,176.6947,728.6674)"><path
                     d="m 0.062392,0.1251614 4815512.937608,0 0,353942.7748386 -4815512.937608,0 0,-353942.7748386 z"
                     style="fill:none;stroke:#000000;stroke-opacity:1;stroke-width:6350;stroke-linecap:butt;stroke-linejoin:round;stroke-miterlimit:10;stroke-dasharray:25400,19050;stroke-dashoffset:0"
                     id="path240" /></g><g
                   id="g242"
                   transform="translate(183.8947,721.3326)"><text
                     transform="matrix(1,0,0,-1,0,-11)"
                     id="text244"><tspan
                       style="fill:#000000;fill-opacity:1;fill-rule:nonzero;stroke:none;font-family:Futura Black Narrow;font-variant:normal;font-weight:500;font-size:11;writing-mode:lr;-inkscape-font-specification:Futura-CondensedMedium"
                       x="0 4.3615 8.9001 14.1581 17.3756 21.3719 25.5662 29.1599 31.4369 36.0723 40.0686 43.9142 47.5563 51.5526 55.7469 59.3406 61.7364 66.9944 72.1402 76.2432 78.5202 82.984 86.9803 89.2573 91.5343 97.7537 103.9731 110.1925 116.4119 122.6313 128.8507 135.0701 141.2895 147.5089 153.7283 159.9477 166.1671 172.3865 178.6059 184.8253 191.0447 197.2641 203.4835 209.7029 215.9223 222.1417 228.3611 234.5805 240.7999 247.0193 253.2387 259.4581 265.6775 271.8969 278.1163 284.3357 290.5551 296.7745 302.9939 309.2133 315.4327 321.6521 327.8715 334.0909 340.3103 346.5297 352.7491 358.9685"
                       y="0"
                       sodipodi:role="line"
                       id="tspan246">PROJECT REFLECTIONS BY: ____________________________________________</tspan></text>
<text
                     transform="matrix(1,0,0,-1,365.1879,-11)"
                     id="text248"><tspan
                       style="fill:#000000;fill-opacity:1;fill-rule:nonzero;stroke:none;font-family:Futura Black Narrow;font-variant:normal;font-weight:500;font-size:11;writing-mode:lr;-inkscape-font-specification:Futura-CondensedMedium"
                       x="0"
                       y="0"
                       id="tspan250"></tspan></text>
</g><g
                   id="g252"
                   transform="translate(176.4172,694.2126)"><text
                     transform="matrix(1,0,0,-1,0,-12)"
                     id="text254"><tspan
                       style="fill:#000000;fill-opacity:1;fill-rule:nonzero;stroke:none;font-family:Futura Black Narrow;font-variant:normal;font-weight:500;font-size:12;writing-mode:lr;-inkscape-font-specification:Futura-CondensedMedium"
                       x="0 5.5548 9.0816 13.506 15.99 18.6564 23.514 27.9384 30.4224 35.1564 38.3964 43.02 50.3268 55.0728 57.7392 61.266 63.75 68.484 72.9084 75.2988 79.8396 85.9272 88.4112 91.0536 95.6772 98.1612 101.4012 105.8256 110.8824 115.3068 118.734 121.4004 123.8844 128.508 133.3656 135.8496 140.1912 144.8148 149.6904 152.8956 155.3796 160.1136 164.538 168.0648 170.4492 175.1892 180.0468 182.5308 187.2648 190.5048 195.1284 198.5556 202.98 206.5068 210.0336 212.5176"
                       y="0"
                       sodipodi:role="line"
                       id="tspan256">Use the prompts below to refect on your design process. </tspan></text>
<text
                     transform="matrix(1,0,0,-1,215.0016,-12)"
                     id="text258"><tspan
                       style="fill:#000000;fill-opacity:1;fill-rule:nonzero;stroke:none;font-family:Futura Black Narrow;font-variant:normal;font-weight:500;font-size:12;writing-mode:lr;-inkscape-font-specification:Futura-CondensedMedium"
                       x="0"
                       y="0"
                       id="tspan260"></tspan></text>
</g></g></g></g></g></g></g></g></svg>