<?xml version="1.0" encoding="UTF-8" standalone="no"?>
<!-- Created with Inkscape (http://www.inkscape.org/) -->

<svg
   xmlns:dc="http://purl.org/dc/elements/1.1/"
   xmlns:cc="http://creativecommons.org/ns#"
   xmlns:rdf="http://www.w3.org/1999/02/22-rdf-syntax-ns#"
   xmlns:svg="http://www.w3.org/2000/svg"
   xmlns="http://www.w3.org/2000/svg"
   xmlns:sodipodi="http://sodipodi.sourceforge.net/DTD/sodipodi-0.dtd"
   xmlns:inkscape="http://www.inkscape.org/namespaces/inkscape"
   id="svg2"
   version="1.1"
   inkscape:version="0.48.5 r10040"
   width="744.095"
   height="1052.3625"
   xml:space="preserve"
   sodipodi:docname="tmp.pdf"><metadata
     id="metadata8"><rdf:RDF><cc:Work
         rdf:about=""><dc:format>image/svg+xml</dc:format><dc:type
           rdf:resource="http://purl.org/dc/dcmitype/StillImage" /><dc:title></dc:title></cc:Work></rdf:RDF></metadata><defs
     id="defs6"><clipPath
       clipPathUnits="userSpaceOnUse"
       id="clipPath20"><path
         d="M 0,0 612,0 612,792 0,792 0,0 z"
         id="path22" /></clipPath><clipPath
       clipPathUnits="userSpaceOnUse"
       id="clipPath30"><path
         d="m 0,-2.69413e-5 612,0 0,791.9998969413 -612,0 L 0,-2.69413e-5 z"
         id="path32" /></clipPath></defs><sodipodi:namedview
     pagecolor="#ffffff"
     bordercolor="#666666"
     borderopacity="1"
     objecttolerance="10"
     gridtolerance="10"
     guidetolerance="10"
     inkscape:pageopacity="0"
     inkscape:pageshadow="2"
     inkscape:window-width="640"
     inkscape:window-height="480"
     id="namedview4"
     showgrid="false"
     inkscape:zoom="0.22425732"
     inkscape:cx="372.04749"
     inkscape:cy="526.18127"
     inkscape:window-x="0"
     inkscape:window-y="31"
     inkscape:window-maximized="0"
     inkscape:current-layer="g10" /><g
     id="g10"
     inkscape:groupmode="layer"
     inkscape:label="tmp"
     transform="matrix(1.25,0,0,-1.25,-0.17375,1007.8787)"><g
       id="g12"
       transform="scale(0.97313,0.97313)"><g
         id="g14"><g
           id="g16"><g
             id="g18"
             clip-path="url(#clipPath20)"><g
               id="g24" /><g
               id="g26"><g
                 id="g28"
                 clip-path="url(#clipPath30)"><path
                   d="m 0,791.9999 611.9999,0 0,-791.9998873878 -611.9999,0 L 0,791.9999 z"
                   style="fill:#ffffff;fill-opacity:1;fill-rule:evenodd;stroke:none"
                   id="path34" /><g
                   id="g36"
                   transform="matrix(7.874014e-5,0,0,-7.874014e-5,199.4701,728.6674)"><path
                     d="m -0.04461402,0.3500148 4526266.04461402,0 0,353942.8499852 -4526266.04461402,0 0,-353942.8499852 z"
                     style="fill:none;stroke:#000000;stroke-opacity:1;stroke-width:6350;stroke-linecap:butt;stroke-linejoin:round;stroke-miterlimit:10;stroke-dasharray:25400,19050;stroke-dashoffset:0"
                     id="path38" /></g><g
                   id="g40"
                   transform="translate(206.6701,721.3327)"><text
                     transform="matrix(1,0,0,-1,3.082993,-11)"
                     id="text42"><tspan
                       style="fill:#000000;fill-opacity:1;fill-rule:nonzero;stroke:none;font-family:Futura Black Narrow;font-variant:normal;font-weight:500;font-size:11;writing-mode:lr;-inkscape-font-specification:Futura-CondensedMedium"
                       x="0 5.3009 9.7856 16.0589 20.0552 22.3322 31.4402 37.6596 43.879 50.0984 56.3178 62.5372 68.7566 74.976 81.1954 87.4148 93.6342 99.8536 106.073 112.2924 118.5118 124.7312 130.9506 137.17 143.3894 149.6088 155.8282 162.0476 168.267 174.4864 180.7058 186.9252 193.1446 199.364 205.5834 211.8028 218.0222 224.2416 230.461 236.6804 242.8998 249.1192 255.3386 261.558 267.7774 273.9968 280.2162 286.4356 292.655 298.8744 305.0938 311.3132 317.5326 323.752 329.9714"
                       y="0"
                       sodipodi:role="line"
                       id="tspan44">NAME: _________________________________________________</tspan></text>
<text
                     transform="matrix(1,0,0,-1,339.27379,-11)"
                     id="text46"><tspan
                       style="fill:#000000;fill-opacity:1;fill-rule:nonzero;stroke:none;font-family:Futura Black Narrow;font-variant:normal;font-weight:500;font-size:11;writing-mode:lr;-inkscape-font-specification:Futura-CondensedMedium"
                       x="0"
                       y="0"
                       id="tspan48"></tspan></text>
</g><g
                   id="g50"
                   transform="translate(198.7325,692.8457)"><text
                     transform="matrix(1,0,0,-1,0,-12)"
                     id="text52"><tspan
                       style="fill:#000000;fill-opacity:1;fill-rule:nonzero;stroke:none;font-family:Futura Black Narrow;font-variant:normal;font-weight:500;font-size:12;writing-mode:lr;-inkscape-font-specification:Futura-CondensedMedium"
                       x="0 5.6196 10.1604 16.248 18.732 22.1592 26.8932 31.7508 34.2348 38.5764 43.2 48.0756 50.5596 55.4172 59.8416 62.232 66.966 69.45 74.0616 76.728 81.5856 86.01 89.3856 92.9124 95.3964 97.7868 102.2112 106.9452 110.1732 115.0308 117.5148 124.8444 129.468 132.708 137.1324 139.6164 144.3504 149.0844 153.708 158.5836 161.25 163.734 168.21 171.6372 174.912 179.646 182.3124 185.67 190.5276 193.0116 197.7456 202.6032 207.3372 209.8212 213.2484 216.4884 220.9128 225.6468 228.3132 230.6976 234.6996 239.124 241.608 245.0352 249.6588 256.9656 261.6996 266.5752 269.2416 271.626 276.4836 281.2236 285.6828 288.1668 293.7504 298.1748 301.7016 304.086 308.826 313.6836 316.1676 320.9016 325.7592 328.2432 332.9772 336.4044 339.0708 341.4552 345.528 347.9124 350.5788 355.0032"
                       y="0"
                       sodipodi:role="line"
                       id="tspan54">How can you help others learn more about Scratch and creative computing? Design an activity </tspan></text>
</g><g
                   id="g56"
                   transform="translate(198.7325,678.8457)"><text
                     transform="matrix(1,0,0,-1,0,-12)"
                     id="text58"><tspan
                       style="fill:#000000;fill-opacity:1;fill-rule:nonzero;stroke:none;font-family:Futura Black Narrow;font-variant:normal;font-weight:500;font-size:12;writing-mode:lr;-inkscape-font-specification:Futura-CondensedMedium"
                       x="0 2.6664 7.524 12.258 14.9244 17.4084 22.266 26.6904 29.0808 33.8148 37.3416 39.8256 44.4372 47.1036 51.9612 56.3856 59.5908 62.0748 66.8088 71.2332 75.8568 80.5908 82.9812 87.4056 89.8896 92.28 96.7044 101.4384 104.6664 109.524 112.008 116.484 119.9112 123.186 127.92 130.5864 133.944 138.8016 141.2856 143.7696 146.3832 149.0496 151.5336 154.9608 159.6948 164.5524 167.0364 171.7704 176.1948 178.6788 183.4128 188.2704 190.7544 195.378 198.5712 201.5124 203.6448 207.072 211.6956 219.0024 223.7364 228.612 231.2664 235.6908 238.896 241.38 246.114 249.5412 252.2076 254.592 258.6648 261.0492 263.7156 268.14 270.624 274.146 276.5364 278.9208 283.4328 287.8572 290.3412 294.9168 298.1568 302.5812 307.3152 309.9816 314.8572 318.0972 322.5216"
                       y="0"
                       sodipodi:role="line"
                       id="tspan60">that helps other people learn Scratch. It can be an off-computer activity (like Creature </tspan></text>
</g><g
                   id="g62"
                   transform="translate(198.7325,664.8457)"><text
                     transform="matrix(1,0,0,-1,0,-12)"
                     id="text64"><tspan
                       style="fill:#000000;fill-opacity:1;fill-rule:nonzero;stroke:none;font-family:Futura Black Narrow;font-variant:normal;font-weight:500;font-size:12;writing-mode:lr;-inkscape-font-specification:Futura-CondensedMedium"
                       x="0 4.5756 9.1992 14.0568 17.6424 20.3088 23.5368 28.4124 31.8396 34.506 36.8904 41.514 46.3716 49.8936 52.3776 54.8616 59.5956 62.8356 67.4592 69.8436 74.268 77.6952 80.3616 82.8456 85.23 89.964 94.3884 99.1224 101.6064 105.1284 107.5188 109.9032 114.4152 118.8396 121.3236 126.2628 131.1384 133.5228 135.9132 140.6472 142.7796 147.5136 149.646 154.5852 159.3192 164.1768 168.9108 172.4328 174.9168 177.4008 182.0244 185.2296 187.7136 191.0712 195.9288 200.6628 203.0532 205.4436 209.868 214.7256 219.4656 223.89 226.374 231.108 234.5352 237.2016 239.586 243.6588 246.0432 248.7096 253.134 255.618 259.14 261.5304 263.9148 268.4268 272.8512 275.3352 280.9188 285.3432 290.0772 294.9528 299.6928 302.1768 304.7904 307.4568 310.8024 314.3244 316.8084 319.2924 323.5176 328.1412 333.0168 335.5008 338.928 343.5516 348.4272 350.8176 355.5516"
                       y="0"
                       sodipodi:role="line"
                       id="tspan66">Construction), project idea (like Build-a-Band), or challenge activity (like Debug It!). You could </tspan></text>
</g><g
                   id="g68"
                   transform="translate(198.7325,649.8457)"><text
                     transform="matrix(1,0,0,-1,0,-12)"
                     id="text70"><tspan
                       style="fill:#000000;fill-opacity:1;fill-rule:nonzero;stroke:none;font-family:Futura Black Narrow;font-variant:normal;font-weight:500;font-size:12;writing-mode:lr;-inkscape-font-specification:Futura-CondensedMedium"
                       x="0 4.3536 8.3556 12.78 17.6376 20.1216 24.8556 29.2092 33.2112 37.6356 40.026 44.6496 49.3836 51.8676 56.6016 59.0856 63.9432 68.2968 74.3844 76.8684 79.5348 83.9592 88.6932 93.1176 95.6016 100.2252 103.1664 105.6504 110.3844 113.8116 116.478 118.8624 122.9352 125.3196 127.986 132.4104 134.8944 139.518 142.7232 145.2072 150.0648 154.7988 159.6564 164.3904 169.014 173.8896 176.556 179.9016 182.3856 187.3248 190.5996 195.3336 197.718 202.5756 206.1612 208.8036 213.4272 216.6552 223.9848 226.4688 231.3444 234.8712 237.2556 242.1132 246.8532 249.3372 252.0036 256.8612 261.2856 263.7696 268.4688 273.3444 277.7688 281.3544 284.0208 286.4052 291.0288 295.8864 299.4132 301.8972 306.6312 311.0556 313.446 317.9868 323.706 326.19 328.674 333.408 338.2656 342.9996"
                       y="0"
                       sodipodi:role="line"
                       id="tspan72">even develop a new type of activity or handout! Brainstorm using the questions below, and </tspan></text>
</g><g
                   id="g74"
                   transform="translate(198.7325,635.8457)"><text
                     transform="matrix(1,0,0,-1,0,-12)"
                     id="text76"><tspan
                       style="fill:#000000;fill-opacity:1;fill-rule:nonzero;stroke:none;font-family:Futura Black Narrow;font-variant:normal;font-weight:500;font-size:12;writing-mode:lr;-inkscape-font-specification:Futura-CondensedMedium"
                       x="0 2.6664 7.524 11.9484 16.806 19.29 24.1656 27.6924 32.1168 34.6008 37.2672 42.1248 46.5492 49.0332 53.7672 57.1944 59.8608 62.2452 66.318 68.7024 71.3688 75.7932 78.2772 83.0112 87.8688 92.6028 95.0868 99.9444 104.6784 109.536 114.27 118.8936 123.7692 126.4356 128.9196 133.6536 136.044 140.778 145.6356 150.4932 154.9176 158.2932 161.82 164.304 166.9464 171.57 174.054 178.794 181.1784 185.1804 189.6048 192.0888 199.4184 204.042 207.282 211.7064 214.1904 218.9244 223.3488 226.026 230.76 233.1444 235.5348 238.0188"
                       y="0"
                       sodipodi:role="line"
                       id="tspan78">then use the activity and handout planners to give more detail. </tspan></text>
<text
                     transform="matrix(1,0,0,-1,240.5028,-12)"
                     id="text80"><tspan
                       style="fill:#000000;fill-opacity:1;fill-rule:nonzero;stroke:none;font-family:Futura Black Narrow;font-variant:normal;font-weight:500;font-size:12;writing-mode:lr;-inkscape-font-specification:Futura-CondensedMedium"
                       x="0"
                       y="0"
                       id="tspan82"></tspan></text>
</g><g
                   id="g84"
                   transform="translate(47.79401,193.4)"><text
                     transform="matrix(1,0,0,-1,0,-28)"
                     id="text86"><tspan
                       style="fill:#ffffff;fill-opacity:1;fill-rule:nonzero;stroke:none;font-family:Futura Black Narrow;font-variant:normal;font-weight:500;font-size:28;writing-mode:lr;-inkscape-font-specification:Futura-CondensedMedium"
                       x="0 9.1476 15.246 26.348 36.792 42.588 56.9576 62.7536 71.9012 83.7004 89.7988 100.4752 112.4788"
                       y="0"
                       sodipodi:role="line"
                       id="tspan88">TIPS &amp; TRICKS</tspan></text>
<text
                     transform="matrix(1,0,0,-1,122.9228,-28)"
                     id="text90"><tspan
                       style="fill:#ffffff;fill-opacity:1;fill-rule:nonzero;stroke:none;font-family:Futura Black Narrow;font-variant:normal;font-weight:500;font-size:28;writing-mode:lr;-inkscape-font-specification:Futura-CondensedMedium"
                       x="0"
                       y="0"
                       id="tspan92"></tspan></text>
</g><path
                   d="m 575.0741,608.497 -575.07415749532,0 0,-44.7548 575.07415749532,0 0,44.7548 z"
                   style="fill:#fab566;fill-opacity:1;fill-rule:evenodd;stroke:none"
                   id="path94" /><g
                   id="g96"
                   transform="translate(43.19991,600.6174)"><text
                     transform="matrix(1,0,0,-1,0,-24)"
                     id="text98"><tspan
                       style="fill:#ffffff;fill-opacity:1;fill-rule:nonzero;stroke:none;font-family:Futura Black Narrow;font-variant:normal;font-weight:500;font-size:24;writing-mode:lr;-inkscape-font-specification:Futura-CondensedMedium"
                       x="0 14.2272 25.4664 36.9384 41.9064 47.1336 56.0856 61.0536 68.8944 80.1336 85.3608 94.3128 99.2808 107.7408 119.2128 129.3264"
                       y="0"
                       sodipodi:role="line"
                       id="tspan100">WHO IS THIS FOR?</tspan></text>
<text
                     transform="matrix(1,0,0,-1,138.2448,-24)"
                     id="text102"><tspan
                       style="fill:#ffffff;fill-opacity:1;fill-rule:nonzero;stroke:none;font-family:Futura Black Narrow;font-variant:normal;font-weight:500;font-size:24;writing-mode:lr;-inkscape-font-specification:Futura-CondensedMedium"
                       x="0"
                       y="0"
                       id="tspan104"></tspan></text>
</g><path
                   d="m 575.0742,563.7422 -19.2051,22.8894 19.2051,21.8655 0,-44.7549 z"
                   style="fill:#ffffff;fill-opacity:1;fill-rule:evenodd;stroke:none"
                   id="path106" /><g
                   id="g108"
                   transform="matrix(0,7.874014e-5,7.874014e-5,0,555.8691,563.7422)"><path
                     d="M -0.3425444,243905.2 290694.4,-0.1035272 568386,243905.2 l -568386.3425444,0 z"
                     style="fill:none;stroke:#ffffff;stroke-opacity:1;stroke-width:9525;stroke-linecap:butt;stroke-linejoin:round;stroke-miterlimit:10;stroke-dasharray:none"
                     id="path110" /></g><g
                   id="g112"
                   transform="translate(43.19991,556.9509)"><text
                     transform="matrix(1,0,0,-1,0,-14.29999)"
                     id="text114"><tspan
                       style="fill:#000000;fill-opacity:1;fill-rule:nonzero;stroke:none;font-family:Futura Black Narrow;font-variant:normal;font-weight:500;font-size:11;writing-mode:lr;-inkscape-font-specification:Futura-CondensedMedium"
                       x="0 6.5208 10.9736 15.2119 17.4889 19.6746 22.9075 25.1845 29.1643 33.4026 37.8719 40.81 43.087 47.4265 51.8958 56.2353 58.421 62.4767 66.9295 70.0711 74.1268 78.2144 80.4914 87.0122 91.465 95.7033 97.9803 102.3198 106.5581 108.8351 112.8149 117.0532 121.5225 123.7995 129.3259 133.6654 138.1182 140.5624 142.8394 145.2616 149.4999 151.7769 156.2297 160.2854 162.4766 166.8161 169.0931 171.2843 175.34 179.6795 182.6385 187.0913 189.3683 196.0871 200.3254 203.2954 207.3511 209.6281 213.9676 218.3071 222.5454 227.0147 229.4589 231.7359 235.8389 238.9805 241.9824 246.3219 248.7661 251.8439 256.2967 258.5737 262.9132 267.366 271.7055 273.9825 277.1241 280.0941 284.1498 288.4893 290.9335 293.1192 296.7877 300.8434 303.1204 306.262 310.5003 317.1982 321.5377 326.007 328.4512 330.6369 335.0897 339.4347"
                       y="0"
                       sodipodi:role="line"
                       id="tspan116">Who is your audience? Who do you want to help learn more about Scratch and creative computing?</tspan></text>
<text
                     transform="matrix(1,0,0,-1,343.5223,-14.29999)"
                     id="text118"><tspan
                       style="fill:#000000;fill-opacity:1;fill-rule:nonzero;stroke:none;font-family:Futura Black Narrow;font-variant:normal;font-weight:500;font-size:11;writing-mode:lr;-inkscape-font-specification:Futura-CondensedMedium"
                       x="0"
                       y="0"
                       id="tspan120"></tspan></text>
</g><path
                   d="m 576.0969,399.9924 -576.09696481862,0 0,-44.7548 576.09696481862,0 0,44.7548 z"
                   style="fill:#fab566;fill-opacity:1;fill-rule:evenodd;stroke:none"
                   id="path122" /><path
                   d="m 576.0971,355.2376 -19.2051,22.8894 19.2051,21.8654 0,-44.7548 z"
                   style="fill:#ffffff;fill-opacity:1;fill-rule:evenodd;stroke:none"
                   id="path124" /><g
                   id="g126"
                   transform="matrix(0,7.874014e-5,7.874014e-5,0,556.892,355.2376)"><path
                     d="M -0.1609129,243905.4 290694.9,0.07840228 568385.8,243905.4 l -568385.9609129,0 z"
                     style="fill:none;stroke:#ffffff;stroke-opacity:1;stroke-width:9525;stroke-linecap:butt;stroke-linejoin:round;stroke-miterlimit:10;stroke-dasharray:none"
                     id="path128" /></g><g
                   id="g130"
                   transform="translate(43.19999,392.1128)"><text
                     transform="matrix(1,0,0,-1,0,-24)"
                     id="text132"><tspan
                       style="fill:#ffffff;fill-opacity:1;fill-rule:nonzero;stroke:none;font-family:Futura Black Narrow;font-variant:normal;font-weight:500;font-size:24;writing-mode:lr;-inkscape-font-specification:Futura-CondensedMedium"
                       x="0 14.2272 25.4664 34.8648 42.7056 47.6736 61.9008 67.128 75.0744 83.0208 87.9888 95.8296 107.0688 115.788 125.0568 130.0248 137.9712 146.6904 156.4752 166.5888 177.816"
                       y="0"
                       sodipodi:role="line"
                       id="tspan134">WHAT WILL THEY LEARN?</tspan></text>
<text
                     transform="matrix(1,0,0,-1,186.7344,-24)"
                     id="text136"><tspan
                       style="fill:#ffffff;fill-opacity:1;fill-rule:nonzero;stroke:none;font-family:Futura Black Narrow;font-variant:normal;font-weight:500;font-size:24;writing-mode:lr;-inkscape-font-specification:Futura-CondensedMedium"
                       x="0"
                       y="0"
                       id="tspan138"></tspan></text>
</g><g
                   id="g140"
                   transform="translate(43.19999,348.291)"><text
                     transform="matrix(1,0,0,-1,0,-11)"
                     id="text142"><tspan
                       style="fill:#000000;fill-opacity:1;fill-rule:nonzero;stroke:none;font-family:Futura Black Narrow;font-variant:normal;font-weight:500;font-size:11;writing-mode:lr;-inkscape-font-specification:Futura-CondensedMedium"
                       x="0 6.5208 10.9736 15.3131 17.7573 20.0343 24.3738 27.3438 31.3995 33.6765 36.1207 40.5735 44.6292 46.9062 49.0974 53.1531 57.4926 60.4516 64.9044 67.0901 71.5429 75.8879 78.1649 82.5099 86.7482 91.0877 93.2789 96.5118 100.5994 102.8764 109.3972 113.85 118.1895 120.6337 122.9107 127.3635 131.3543 136.9346 139.2116 141.6558 146.1086 148.2943 152.7471 157.0921 160.325 162.602 166.9415 171.1798 173.4568 177.4366 181.6749 186.1442 188.4212 192.874 197.1123 201.4518 205.5075 207.7845 212.124 216.1797 220.418 224.7575 226.9487 231.0044 233.2814 238.8617 241.0474 243.2386 245.4298 247.7068 249.898 253.9537 258.2932 261.2522 265.705 267.982 270.6781 273.6481 277.8864 284.6052 286.8822 291.3515 294.5844 296.7701 301.2229 305.5679 307.8449 311.8247 316.063 320.5323 323.4704 325.7474 330.0869 333.2285 335.6727 337.8584 341.5918 343.7775 346.2217 350.2774"
                       y="0"
                       sodipodi:role="line"
                       id="tspan144">What are the learning goals? What new things do you hope people will learn from using your activity?</tspan></text>
<text
                     transform="matrix(1,0,0,-1,354.365,-11)"
                     id="text146"><tspan
                       style="fill:#000000;fill-opacity:1;fill-rule:nonzero;stroke:none;font-family:Futura Black Narrow;font-variant:normal;font-weight:500;font-size:11;writing-mode:lr;-inkscape-font-specification:Futura-CondensedMedium"
                       x="0"
                       y="0"
                       id="tspan148"></tspan></text>
</g><path
                   d="m 575.074,199.3298 -575.07403979033,0 0,-44.7548 575.07403979033,0 0,44.7548 z"
                   style="fill:#fab566;fill-opacity:1;fill-rule:evenodd;stroke:none"
                   id="path150" /><g
                   id="g152"
                   transform="translate(43.19999,191.4503)"><text
                     transform="matrix(1,0,0,-1,0,-24)"
                     id="text154"><tspan
                       style="fill:#ffffff;fill-opacity:1;fill-rule:nonzero;stroke:none;font-family:Futura Black Narrow;font-variant:normal;font-weight:500;font-size:24;writing-mode:lr;-inkscape-font-specification:Futura-CondensedMedium"
                       x="0 14.2272 25.4664 34.8648 42.7056 47.6736 58.8408 70.3128 75.2808 83.1216 94.3608 103.08 112.3488 117.3168 128.544 137.2632 145.9824 157.1496"
                       y="0"
                       sodipodi:role="line"
                       id="tspan156">WHAT DO THEY NEED?</tspan></text>
<text
                     transform="matrix(1,0,0,-1,166.068,-24)"
                     id="text158"><tspan
                       style="fill:#ffffff;fill-opacity:1;fill-rule:nonzero;stroke:none;font-family:Futura Black Narrow;font-variant:normal;font-weight:500;font-size:24;writing-mode:lr;-inkscape-font-specification:Futura-CondensedMedium"
                       x="0"
                       y="0"
                       id="tspan160"></tspan></text>
</g><path
                   d="m 575.0739,154.2604 -19.2051,22.8894 19.2051,21.8654 0,-44.7548 z"
                   style="fill:#ffffff;fill-opacity:1;fill-rule:evenodd;stroke:none"
                   id="path162" /><g
                   id="g164"
                   transform="matrix(0,7.874014e-5,7.874014e-5,0,555.8688,154.2604)"><path
                     d="M 0.01997879,243905.3 290695.1,0.02073979 568385.9,243905.3 0.01997879,243905.3 z"
                     style="fill:none;stroke:#ffffff;stroke-opacity:1;stroke-width:9525;stroke-linecap:butt;stroke-linejoin:round;stroke-miterlimit:10;stroke-dasharray:none"
                     id="path166" /></g><g
                   id="g168"
                   transform="translate(43.19999,147.6792)"><text
                     transform="matrix(1,0,0,-1,0,-11)"
                     id="text170"><tspan
                       style="fill:#000000;fill-opacity:1;fill-rule:nonzero;stroke:none;font-family:Futura Black Narrow;font-variant:normal;font-weight:500;font-size:11;writing-mode:lr;-inkscape-font-specification:Futura-CondensedMedium"
                       x="0 6.5208 10.9736 15.3131 17.7573 20.0343 23.2672 27.7365 32.076 36.4155 38.6067 40.7924 44.8481 48.081 50.358 55.9383 58.124 60.3152 62.5064 64.7834 69.1229 73.1786 77.4169 81.7564 83.9476 88.0033 90.2803 94.7331 98.7888 102.8445 107.184 111.2716 113.5486 120.0694 124.5222 128.8617 131.3059 133.5829 137.8102 140.2544 144.7072 148.7629 151.701 153.978 156.4222 160.4779 164.8174 168.8731 172.106 174.383 178.6213 181.3174 183.5944 186.8273 191.2966 195.6361 199.9756 204.2139 207.383 209.8272 212.1042 217.6845 219.8702 222.0614 224.2526 226.5296 230.9824 235.0381 237.2293 241.5688 243.8458 248.1853 252.241 256.4793 260.8188 263.01 267.0657 269.3427 272.5756 277.0449 280.1865 283.3281 287.3838 290.6167 293.8496 296.5457 301.015 303.2062 305.4623 309.518 311.795 315.8507 320.3035 324.6595 328.999 333.344 337.3997 339.6767 341.8624 346.3152 348.5922 352.572 356.8103 361.2796 364.2177 366.4947 370.8342 373.9758 376.42 378.6057 382.3391 384.5248 386.969 391.0247"
                       y="0"
                       sodipodi:role="line"
                       id="tspan172">What supplies will people need? What other types of support will help people successfully engage in your activity?</tspan></text>
</g><g
                   id="g174"
                   transform="translate(43.19999,147.6792)"><text
                     transform="matrix(1,0,0,-1,395.1138,-11)"
                     id="text176"><tspan
                       style="fill:#000000;fill-opacity:1;fill-rule:nonzero;stroke:none;font-family:Calibri;font-variant:normal;font-weight:normal;font-size:11;writing-mode:lr;-inkscape-font-specification:Calibri"
                       x="0"
                       y="0"
                       id="tspan178">	</tspan></text>
</g><g
                   id="g180"
                   transform="translate(43.26259,737.402)"><text
                     transform="matrix(1,0,0,-1,0,-34)"
                     id="text182"><tspan
                       style="fill:#000000;fill-opacity:1;fill-rule:nonzero;stroke:none;font-family:Futura Black Narrow;font-variant:normal;font-weight:500;font-size:34;writing-mode:lr;-inkscape-font-specification:Futura-CondensedMedium"
                       x="0 13.6306 26.5812 37.6958 45.1044 57.681 65.0896 77.7342"
                       y="0"
                       sodipodi:role="line"
                       id="tspan184">ACTIVITY</tspan></text>
<text
                     transform="matrix(1,0,0,-1,90.8548,-34)"
                     id="text186"><tspan
                       style="fill:#000000;fill-opacity:1;fill-rule:nonzero;stroke:none;font-family:Futura Black Narrow;font-variant:normal;font-weight:500;font-size:34;writing-mode:lr;-inkscape-font-specification:Futura-CondensedMedium"
                       x="0"
                       y="0"
                       id="tspan188"></tspan></text>
</g><g
                   id="g190"
                   transform="translate(43.26259,697.402)"><text
                     transform="matrix(1,0,0,-1,0,-34)"
                     id="text192"><tspan
                       style="fill:#000000;fill-opacity:1;fill-rule:nonzero;stroke:none;font-family:Futura Black Narrow;font-variant:normal;font-weight:500;font-size:34;writing-mode:lr;-inkscape-font-specification:Futura-CondensedMedium"
                       x="0 15.8202 28.1724 40.8544 48.2596 64.1138"
                       y="0"
                       sodipodi:role="line"
                       id="tspan194">DESIGN</tspan></text>
<text
                     transform="matrix(1,0,0,-1,80.019,-34)"
                     id="text196"><tspan
                       style="fill:#000000;fill-opacity:1;fill-rule:nonzero;stroke:none;font-family:Futura Black Narrow;font-variant:normal;font-weight:500;font-size:34;writing-mode:lr;-inkscape-font-specification:Futura-CondensedMedium"
                       x="0"
                       y="0"
                       id="tspan198"></tspan></text>
</g></g></g></g></g></g></g></g></svg>