<?xml version="1.0" encoding="UTF-8" standalone="no"?>
<!-- Created with Inkscape (http://www.inkscape.org/) -->

<svg
   xmlns:dc="http://purl.org/dc/elements/1.1/"
   xmlns:cc="http://creativecommons.org/ns#"
   xmlns:rdf="http://www.w3.org/1999/02/22-rdf-syntax-ns#"
   xmlns:svg="http://www.w3.org/2000/svg"
   xmlns="http://www.w3.org/2000/svg"
   xmlns:sodipodi="http://sodipodi.sourceforge.net/DTD/sodipodi-0.dtd"
   xmlns:inkscape="http://www.inkscape.org/namespaces/inkscape"
   id="svg2"
   version="1.1"
   inkscape:version="0.48.5 r10040"
   width="744.095"
   height="1052.3625"
   xml:space="preserve"
   sodipodi:docname="tmp.pdf"><metadata
     id="metadata8"><rdf:RDF><cc:Work
         rdf:about=""><dc:format>image/svg+xml</dc:format><dc:type
           rdf:resource="http://purl.org/dc/dcmitype/StillImage" /><dc:title></dc:title></cc:Work></rdf:RDF></metadata><defs
     id="defs6"><clipPath
       clipPathUnits="userSpaceOnUse"
       id="clipPath20"><path
         d="M 0,0 612,0 612,792 0,792 0,0 z"
         id="path22" /></clipPath><clipPath
       clipPathUnits="userSpaceOnUse"
       id="clipPath30"><path
         d="m 0,-2.69413e-5 612,0 0,791.9998969413 -612,0 L 0,-2.69413e-5 z"
         id="path32" /></clipPath></defs><sodipodi:namedview
     pagecolor="#ffffff"
     bordercolor="#666666"
     borderopacity="1"
     objecttolerance="10"
     gridtolerance="10"
     guidetolerance="10"
     inkscape:pageopacity="0"
     inkscape:pageshadow="2"
     inkscape:window-width="640"
     inkscape:window-height="480"
     id="namedview4"
     showgrid="false"
     inkscape:zoom="0.22425732"
     inkscape:cx="372.04749"
     inkscape:cy="526.18127"
     inkscape:window-x="0"
     inkscape:window-y="31"
     inkscape:window-maximized="0"
     inkscape:current-layer="g10" /><g
     id="g10"
     inkscape:groupmode="layer"
     inkscape:label="tmp"
     transform="matrix(1.25,0,0,-1.25,-0.17375,1007.8787)"><g
       id="g12"
       transform="scale(0.97313,0.97313)"><g
         id="g14"><g
           id="g16"><g
             id="g18"
             clip-path="url(#clipPath20)"><g
               id="g24" /><g
               id="g26"><g
                 id="g28"
                 clip-path="url(#clipPath30)"><path
                   d="m 0,791.9999 611.9999,0 0,-791.9998873878 -611.9999,0 L 0,791.9999 z"
                   style="fill:#ffffff;fill-opacity:1;fill-rule:evenodd;stroke:none"
                   id="path34" /><g
                   id="g36"
                   transform="translate(283.126,168.5578)"><text
                     transform="matrix(1,0,0,-1,0,-36)"
                     id="text38"><tspan
                       style="fill:#000000;fill-opacity:1;fill-rule:nonzero;stroke:none;font-family:Futura Black Narrow;font-variant:normal;font-weight:500;font-size:36;writing-mode:lr;-inkscape-font-specification:Futura-CondensedMedium"
                       x="0 13.7268 28.8972 41.976 56.0736 67.8348 75.6756 88.9812 102.06 109.512 123.03 140.238 160.7688 175.0428 191.7072 203.4684 211.3092 228.15"
                       y="0"
                       sodipodi:role="line"
                       id="tspan40">CREATIVE COMPUTING</tspan></text>
<text
                     transform="matrix(1,0,0,-1,244.9368,-36)"
                     id="text42"><tspan
                       style="fill:#000000;fill-opacity:1;fill-rule:nonzero;stroke:none;font-family:Futura Black Narrow;font-variant:normal;font-weight:500;font-size:36;writing-mode:lr;-inkscape-font-specification:Futura-CondensedMedium"
                       x="0"
                       y="0"
                       id="tspan44"></tspan></text>
</g><g
                   id="g46"
                   transform="translate(305.1131,117.7573)"><text
                     transform="matrix(1,0,0,-1,0,-14)"
                     id="text48"><tspan
                       style="fill:#000000;fill-opacity:1;fill-rule:nonzero;stroke:none;font-family:Futura Black Narrow;font-variant:normal;font-weight:500;font-size:14;writing-mode:lr;-inkscape-font-specification:Futura-CondensedMedium"
                       x="0 5.824 11.347 15.127 20.2888 25.956 28.854 34.6164 38.3964 43.5582 49.2254 54.8926 60.4156 66.0828 68.9808 76.8964"
                       y="0"
                       sodipodi:role="line"
                       id="tspan50">Karen Brennan | </tspan></text>
</g><g
                   id="g52"
                   transform="translate(305.1131,117.7573)"><text
                     transform="matrix(1,0,0,-1,79.7959,-14)"
                     id="text54"><tspan
                       style="fill:#000000;fill-opacity:1;fill-rule:nonzero;stroke:none;font-family:Futura Black Narrow;font-variant:normal;font-weight:500;font-size:14;writing-mode:lr;-inkscape-font-specification:Futura-CondensedMedium"
                       x="0 5.3382 10.9984 14.7686 17.5448 21.735 24.8612 30.3814"
                       y="0"
                       sodipodi:role="line"
                       id="tspan56">Christan</tspan></text>
</g><g
                   id="g58"
                   transform="translate(305.1131,117.7573)"><text
                     transform="matrix(1,0,0,-1,118.7466,-14)"
                     id="text60"><tspan
                       style="fill:#000000;fill-opacity:1;fill-rule:nonzero;stroke:none;font-family:Futura Black Narrow;font-variant:normal;font-weight:500;font-size:14;writing-mode:lr;-inkscape-font-specification:Futura-CondensedMedium"
                       x="0 5.7624 11.2854 14.0742 17.9914 23.6586 26.5566 34.4722 37.3702 45.3544 48.1362 52.0534 57.7206 62.8824 65.6712 68.46 73.6218 76.5198 81.858 87.5252 93.2134 98.8806"
                       y="0"
                       sodipodi:role="line"
                       id="tspan62">Balch | Michelle Chung</tspan></text>
<text
                     transform="matrix(1,0,0,-1,223.1572,-14)"
                     id="text64"><tspan
                       style="fill:#000000;fill-opacity:1;fill-rule:nonzero;stroke:none;font-family:Futura Black Narrow;font-variant:normal;font-weight:500;font-size:14;writing-mode:lr;-inkscape-font-specification:Futura-CondensedMedium"
                       x="0"
                       y="0"
                       id="tspan66"></tspan></text>
</g><g
                   id="g68"
                   transform="translate(360.3192,95.80427)"><text
                     transform="matrix(1,0,0,-1,0,-14)"
                     id="text70"><tspan
                       style="fill:#000000;fill-opacity:1;fill-rule:nonzero;stroke:none;font-family:Futura Black Narrow;font-variant:normal;font-weight:500;font-size:14;writing-mode:lr;-inkscape-font-specification:Futura-CondensedMedium"
                       x="0 6.5562 12.0792 16.1812 20.8908 26.4138 30.2344 35.7574 38.6554 45.1836 49.0042 54.5272 60.0502 65.7384 71.2614 74.3582 79.52 82.418 87.64 91.5572 97.2244 102.6186 108.0128 110.8016 113.6996 119.0938 122.5252 125.4232 130.5094 136.0324 141.7206 145.719 151.242 154.3528 157.1346 162.5288"
                       y="0"
                       sodipodi:role="line"
                       id="tspan72">Harvard Graduate School of Education</tspan></text>
<text
                     transform="matrix(1,0,0,-1,168.196,-14)"
                     id="text74"><tspan
                       style="fill:#000000;fill-opacity:1;fill-rule:nonzero;stroke:none;font-family:Futura Black Narrow;font-variant:normal;font-weight:500;font-size:14;writing-mode:lr;-inkscape-font-specification:Futura-CondensedMedium"
                       x="0"
                       y="0"
                       id="tspan76"></tspan></text>
</g><path
                   d="m -0.5931067,267.4443 527.7018067,0 c 0.5477,-1.181 -46.4183,-40.8749 -45.2767,-42.0559 -1.5374,0.4277 46.2202,-42.1227 45.2767,-42.2531 L -0.9857479,182.7607 c 0.005986,28.103 0.3866552,56.5805 0.3926412,84.6836 z"
                   style="fill:#f07f02;fill-opacity:1;fill-rule:evenodd;stroke:none"
                   id="path78" /></g></g></g></g></g></g></g></svg>