<?xml version="1.0" encoding="UTF-8" standalone="no"?>
<!-- Created with Inkscape (http://www.inkscape.org/) -->

<svg
   xmlns:dc="http://purl.org/dc/elements/1.1/"
   xmlns:cc="http://creativecommons.org/ns#"
   xmlns:rdf="http://www.w3.org/1999/02/22-rdf-syntax-ns#"
   xmlns:svg="http://www.w3.org/2000/svg"
   xmlns="http://www.w3.org/2000/svg"
   xmlns:sodipodi="http://sodipodi.sourceforge.net/DTD/sodipodi-0.dtd"
   xmlns:inkscape="http://www.inkscape.org/namespaces/inkscape"
   id="svg2"
   version="1.1"
   inkscape:version="0.48.5 r10040"
   width="744.095"
   height="1052.3625"
   xml:space="preserve"
   sodipodi:docname="tmp.pdf"><metadata
     id="metadata8"><rdf:RDF><cc:Work
         rdf:about=""><dc:format>image/svg+xml</dc:format><dc:type
           rdf:resource="http://purl.org/dc/dcmitype/StillImage" /><dc:title></dc:title></cc:Work></rdf:RDF></metadata><defs
     id="defs6"><clipPath
       clipPathUnits="userSpaceOnUse"
       id="clipPath20"><path
         d="M 0,0 612,0 612,792 0,792 0,0 z"
         id="path22" /></clipPath><clipPath
       clipPathUnits="userSpaceOnUse"
       id="clipPath30"><path
         d="m 0,-2.69413e-5 612,0 0,791.9998969413 -612,0 L 0,-2.69413e-5 z"
         id="path32" /></clipPath></defs><sodipodi:namedview
     pagecolor="#ffffff"
     bordercolor="#666666"
     borderopacity="1"
     objecttolerance="10"
     gridtolerance="10"
     guidetolerance="10"
     inkscape:pageopacity="0"
     inkscape:pageshadow="2"
     inkscape:window-width="640"
     inkscape:window-height="480"
     id="namedview4"
     showgrid="false"
     inkscape:zoom="0.22425732"
     inkscape:cx="372.04749"
     inkscape:cy="526.18127"
     inkscape:window-x="0"
     inkscape:window-y="31"
     inkscape:window-maximized="0"
     inkscape:current-layer="g10" /><g
     id="g10"
     inkscape:groupmode="layer"
     inkscape:label="tmp"
     transform="matrix(1.25,0,0,-1.25,-0.17375,1007.8787)"><g
       id="g12"
       transform="scale(0.97313,0.97313)"><g
         id="g14"><g
           id="g16"><g
             id="g18"
             clip-path="url(#clipPath20)"><g
               id="g24" /><g
               id="g26"><g
                 id="g28"
                 clip-path="url(#clipPath30)"><path
                   d="m 0,791.9999 611.9999,0 0,-791.9998873878 -611.9999,0 L 0,791.9999 z"
                   style="fill:#ffffff;fill-opacity:1;fill-rule:evenodd;stroke:none"
                   id="path34" /><g
                   id="g36"
                   transform="matrix(7.874014e-5,0,0,-7.874014e-5,163.268,728.6674)"><path
                     d="m -0.01290429,0.1251614 4986033.012904291,0 0,353942.7748386 -4986033.012904291,0 0,-353942.7748386 z"
                     style="fill:none;stroke:#000000;stroke-opacity:1;stroke-width:6350;stroke-linecap:butt;stroke-linejoin:round;stroke-miterlimit:10;stroke-dasharray:25400,19050;stroke-dashoffset:0"
                     id="path38" /></g><g
                   id="g40"
                   transform="translate(170.468,721.3326)"><text
                     transform="matrix(1,0,0,-1,0,-11)"
                     id="text42"><tspan
                       style="fill:#000000;fill-opacity:1;fill-rule:nonzero;stroke:none;font-family:Futura Black Narrow;font-variant:normal;font-weight:500;font-size:11;writing-mode:lr;-inkscape-font-specification:Futura-CondensedMedium"
                       x="0 4.3615 8.9001 14.1581 17.3756 21.3719 25.5662 29.1599 31.4369 35.7984 38.1942 41.7879 45.9822 51.1335 53.4105 57.8743 61.8706 64.1476 66.4246 72.644 78.8634 85.0828 91.3022 97.5216 103.741 109.9604 116.1798 122.3992 128.6186 134.838 141.0574 147.2768 153.4962 159.7156 165.935 172.1544 178.3738 184.5932 190.8126 197.032 203.2514 209.4708 215.6902 221.9096 228.129 234.3484 240.5678 246.7872 253.0066 259.226 265.4454 271.6648 277.8842 284.1036 290.323 296.5424 302.7618 308.9812 315.2006 321.42 327.6394 333.8588 340.0782 346.2976 352.517 358.7364 364.9558 371.1752"
                       y="0"
                       sodipodi:role="line"
                       id="tspan44">PROJECT PITCH BY: __________________________________________________</tspan></text>
<text
                     transform="matrix(1,0,0,-1,377.3946,-11)"
                     id="text46"><tspan
                       style="fill:#000000;fill-opacity:1;fill-rule:nonzero;stroke:none;font-family:Futura Black Narrow;font-variant:normal;font-weight:500;font-size:11;writing-mode:lr;-inkscape-font-specification:Futura-CondensedMedium"
                       x="0"
                       y="0"
                       id="tspan48"></tspan></text>
</g><g
                   id="g50"
                   transform="translate(42.5333,575.9912)"><text
                     transform="matrix(1,0,0,-1,0,-11)"
                     id="text52"><tspan
                       style="fill:#000000;fill-opacity:1;fill-rule:nonzero;stroke:none;font-family:Futura Black Narrow;font-variant:normal;font-weight:500;font-size:11;writing-mode:lr;-inkscape-font-specification:Futura-CondensedMedium"
                       x="0 6.5208 10.9736 15.3131 17.7573 20.0343 24.4871 28.8266 32.0595 34.3365 38.676 42.7317 46.7874 51.2402 53.5172 57.497 61.7353 66.2046 69.1427 71.4197 74.1697 78.5741 82.2426 86.4809 89.4399 91.6256 94.0588 98.1145 100.3915 104.731 107.701 111.9393 114.125 118.1807 121.3223 123.7665 126.0435 128.4657 132.704 134.981 140.4865 144.7248 147.6838 151.9859 154.2629 158.5012 162.954 165.231 168.4639 172.7022 174.9792 177.7292 182.0687 185.0068 189.0944 191.3714 197.8922 202.345 206.6845 209.1287 211.4057 218.1245 222.464 226.8035 230.8592 233.1362 235.5804 240.0332 242.2189 245.4518 247.7288 252.0683 255.0383 259.2766 261.4623 265.518 268.6596 271.1038 273.3808 276.6676 279.1217 283.4612 287.914 292.2535 294.5305 298.7688 303.2381 305.6823 307.9593 310.6664 314.9047 317.8428 320.1198 324.0996 328.3379 332.8072"
                       y="0"
                       sodipodi:role="line"
                       id="tspan54">What has been your favorite project to work on so far? What made this project stand out for you?</tspan></text>
<text
                     transform="matrix(1,0,0,-1,336.8948,-11)"
                     id="text56"><tspan
                       style="fill:#000000;fill-opacity:1;fill-rule:nonzero;stroke:none;font-family:Futura Black Narrow;font-variant:normal;font-weight:500;font-size:11;writing-mode:lr;-inkscape-font-specification:Futura-CondensedMedium"
                       x="0"
                       y="0"
                       id="tspan58"></tspan></text>
</g><g
                   id="g60"
                   transform="translate(42.5333,373.9211)"><text
                     transform="matrix(1,0,0,-1,0,-11)"
                     id="text62"><tspan
                       style="fill:#000000;fill-opacity:1;fill-rule:nonzero;stroke:none;font-family:Futura Black Narrow;font-variant:normal;font-weight:500;font-size:11;writing-mode:lr;-inkscape-font-specification:Futura-CondensedMedium"
                       x="0 6.5208 10.9736 15.3131 17.7573 20.0343 24.3364 26.5221 30.9749 35.3144 38.5473 40.8243 45.0626 47.7587 50.0357 54.3752 57.3452 61.5835 63.7692 67.8249 70.9665 73.4107 76.6436 78.9206 83.2601 86.2301 90.2858 92.5628 96.5426 100.7809 105.2502 107.5272 109.7129 114.1657 116.5989 120.6546 123.6246 127.6803 130.9671 133.4003 137.456 141.7955 144.0725 146.2582 150.711 152.988 156.1296 159.0996 163.1553 167.4948 169.939 172.1247 176.5775 180.9225 183.1995 187.6523 191.6321 195.7681 198.2123"
                       y="0"
                       sodipodi:role="line"
                       id="tspan64">What kinds of projects are you interested in creating next?</tspan></text>
<text
                     transform="matrix(1,0,0,-1,202.2999,-11)"
                     id="text66"><tspan
                       style="fill:#000000;fill-opacity:1;fill-rule:nonzero;stroke:none;font-family:Futura Black Narrow;font-variant:normal;font-weight:500;font-size:11;writing-mode:lr;-inkscape-font-specification:Futura-CondensedMedium"
                       x="0"
                       y="0"
                       id="tspan68"></tspan></text>
</g><g
                   id="g70"
                   transform="translate(42.5333,211.4978)"><text
                     transform="matrix(1,0,0,-1,0,-24)"
                     id="text72"><tspan
                       style="fill:#ffffff;fill-opacity:1;fill-rule:nonzero;stroke:none;font-family:Futura Black Narrow;font-variant:normal;font-weight:500;font-size:24;writing-mode:lr;-inkscape-font-specification:Futura-CondensedMedium"
                       x="0 8.952 19.0536 24.2808 32.2272 40.4424 49.3944 54.3624 59.5896 70.8168 75.7848 84.7368 93.888 104.0016 113.4 121.2408 130.392"
                       y="0"
                       sodipodi:role="line"
                       id="tspan74">SKILLS IN SCRATCH</tspan></text>
<text
                     transform="matrix(1,0,0,-1,141.6312,-24)"
                     id="text76"><tspan
                       style="fill:#ffffff;fill-opacity:1;fill-rule:nonzero;stroke:none;font-family:Futura Black Narrow;font-variant:normal;font-weight:500;font-size:24;writing-mode:lr;-inkscape-font-specification:Futura-CondensedMedium"
                       x="0"
                       y="0"
                       id="tspan78"></tspan></text>
</g><g
                   id="g80"
                   transform="translate(42.977,172.1679)"><text
                     transform="matrix(1,0,0,-1,0,-11)"
                     id="text82"><tspan
                       style="fill:#000000;fill-opacity:1;fill-rule:nonzero;stroke:none;font-family:Futura Black Narrow;font-variant:normal;font-weight:500;font-size:11;writing-mode:lr;-inkscape-font-specification:Futura-CondensedMedium"
                       x="0 6.5208 10.9736 15.3131 17.7573 20.0343 24.3364 28.7892 32.9516 38.5649 40.7561 44.8118 49.1513 53.4963 57.552 59.829 62.106 65.3389 69.641 71.8267 74.0179 76.2091 79.442 81.719 83.996 88.2343 91.1724 93.4494 95.9035 100.243 102.4342 106.4899 110.9427 113.3869 116.6198 118.8968 124.4023 128.6406 133.1099 135.3011 139.6406 141.9176 145.8974 150.1357 154.605 156.882 159.0732 161.2589 165.3949 169.4506 171.7276 174.1498 178.3881 180.6651 183.8067 188.045 192.4978 194.942 197.901 200.0867 204.4262 208.8955 211.3287 215.3844 217.6614 220.0836 224.3219 226.5989 230.9384 233.2154 237.5549 240.5249 244.7632 246.9489 251.0046 254.1462 256.5904"
                       y="0"
                       sodipodi:role="line"
                       id="tspan84">What knowledge, skills, or talents would you like to contribute to a project?</tspan></text>
</g><g
                   id="g86"
                   transform="translate(42.977,172.1679)"><text
                     transform="matrix(1,0,0,-1,260.6807,-11)"
                     id="text88"><tspan
                       style="fill:#000000;fill-opacity:1;fill-rule:nonzero;stroke:none;font-family:Futura Black Narrow;font-variant:normal;font-weight:500;font-size:11;writing-mode:lr;-inkscape-font-specification:Futura-CondensedMedium"
                       x="0"
                       y="0"
                       id="tspan90"></tspan></text>
</g><g
                   id="g92"
                   transform="translate(163.1879,694.2126)"><text
                     transform="matrix(1,0,0,-1,0,-12)"
                     id="text94"><tspan
                       style="fill:#000000;fill-opacity:1;fill-rule:nonzero;stroke:none;font-family:Futura Black Narrow;font-variant:normal;font-weight:500;font-size:12;writing-mode:lr;-inkscape-font-specification:Futura-CondensedMedium"
                       x="0 5.5548 9.0816 13.506 17.4444 20.1108 24.9684 29.3928 33.3312 38.0652 41.3052 45.9288 53.2356 57.9816 60.648 64.1748 68.1132 72.8472 77.2716 79.662 84.2028 90.2904 94.2288 96.8712 101.4948 105.4332 110.1672 113.442 118.176 120.5604 125.418 129.0036 131.646 136.2696 139.4976 146.8272 150.7656 153.15 157.884 162.3084 167.0424 170.5692 174.5076 177.4608 182.0844 185.2896 189.228 193.962 197.202 201.8256 204.21 208.6344 212.0616 214.728 218.2548 222.1932 226.5348 231.1584 236.022 238.542 241.782 246.2064 250.1448 252.5292 257.3868 260.0412 264.4656 267.7056 272.13 275.7156 278.37 282.7944 287.5284 291.4668 293.8512 298.7088 302.6472 308.6532 313.2768 316.5048 321.198 323.5824 328.44 333.18 337.1184 341.742 346.5996 350.538 355.272 360.1476 363.3756 365.76 370.6176 375.3576 379.296 381.9624 386.82 391.2444"
                       y="0"
                       sodipodi:role="line"
                       id="tspan96">Use the prompts below to brainstorm ideas for projects you’re interested in working on during the </tspan></text>
</g><g
                   id="g98"
                   transform="translate(163.1879,680.2126)"><text
                     transform="matrix(1,0,0,-1,0,-12)"
                     id="text100"><tspan
                       style="fill:#000000;fill-opacity:1;fill-rule:nonzero;stroke:none;font-family:Futura Black Narrow;font-variant:normal;font-weight:500;font-size:12;writing-mode:lr;-inkscape-font-specification:Futura-CondensedMedium"
                       x="0 4.8576 9.5952 12.9528 17.5224 22.26 24.9216 29.7792 34.4088"
                       y="0"
                       sodipodi:role="line"
                       id="tspan102">hackathon</tspan></text>
</g><g
                   id="g104"
                   transform="translate(163.1879,680.2126)"><text
                     transform="matrix(1,0,0,-1,39.26367,-12)"
                     id="text106"><tspan
                       style="fill:#000000;fill-opacity:1;fill-rule:nonzero;stroke:none;font-family:Futura Black Narrow;font-variant:normal;font-weight:500;font-size:12;writing-mode:lr;-inkscape-font-specification:Futura-CondensedMedium"
                       x="0 2.484 4.968 9.1932 13.8168 18.6924 21.1764 27.264 29.6484 32.0388 34.4292 36.9132 41.7708 46.5756 50.5776 55.002 57.486 62.4552 67.4244 69.9084 73.4352 77.8596 81.2868 85.9104 90.768 95.502 99.0288 101.5128 104.1552 108.7788 111.2628 115.9968 118.3812 121.0476 124.4052 129.2628 131.7468 136.0884 140.712 145.5876 148.7928 151.2768 153.6612 158.3952 162.8196 167.5536 171.0804 173.5644 176.0484 178.4328 183.2904 185.9448 190.3692 193.6092 198.0336 201.6192 204.2856 207.8124 210.2964 212.7804 217.5144 222.372 227.106 229.59 233.1168 237.81 240.1944 242.5848 244.9752 248.502 250.986 253.6284 258.252 260.736 263.4024 268.26 272.6844 275.1684 278.4084 282.8328 286.4184 289.0848 291.5688 296.1924 299.1336 301.6176 304.284 309.1416 313.566 316.05 320.7672 324.0072 328.6308 333.5064 338.2404"
                       y="0"
                       sodipodi:role="line"
                       id="tspan108">. You will have 30 seconds to pitch your ideas, interests, and skills to the rest of the group!</tspan></text>
<text
                     transform="matrix(1,0,0,-1,380.84967,-12)"
                     id="text110"><tspan
                       style="fill:#000000;fill-opacity:1;fill-rule:nonzero;stroke:none;font-family:Futura Black Narrow;font-variant:normal;font-weight:500;font-size:12;writing-mode:lr;-inkscape-font-specification:Futura-CondensedMedium"
                       x="0"
                       y="0"
                       id="tspan112"></tspan></text>
</g><g
                   id="g114"
                   transform="translate(43.19999,741.4833)"><text
                     transform="matrix(1,0,0,-1,0,-34)"
                     id="text116"><tspan
                       style="fill:#000000;fill-opacity:1;fill-rule:nonzero;stroke:none;font-family:Futura Black Narrow;font-variant:normal;font-weight:500;font-size:34;writing-mode:lr;-inkscape-font-specification:Futura-CondensedMedium"
                       x="0 13.481 27.5094 43.7614 53.7064 66.0586 79.0228"
                       y="0"
                       sodipodi:role="line"
                       id="tspan118">PROJECT</tspan></text>
<text
                     transform="matrix(1,0,0,-1,90.1306,-34)"
                     id="text120"><tspan
                       style="fill:#000000;fill-opacity:1;fill-rule:nonzero;stroke:none;font-family:Futura Black Narrow;font-variant:normal;font-weight:500;font-size:34;writing-mode:lr;-inkscape-font-specification:Futura-CondensedMedium"
                       x="0"
                       y="0"
                       id="tspan122"></tspan></text>
</g><g
                   id="g124"
                   transform="translate(43.19999,701.4833)"><text
                     transform="matrix(1,0,0,-1,0,-34)"
                     id="text126"><tspan
                       style="fill:#000000;fill-opacity:1;fill-rule:nonzero;stroke:none;font-family:Futura Black Narrow;font-variant:normal;font-weight:500;font-size:34;writing-mode:lr;-inkscape-font-specification:Futura-CondensedMedium"
                       x="0 13.481 20.876 31.977 44.948"
                       y="0"
                       sodipodi:role="line"
                       id="tspan128">PITCH</tspan></text>
<text
                     transform="matrix(1,0,0,-1,60.877,-34)"
                     id="text130"><tspan
                       style="fill:#000000;fill-opacity:1;fill-rule:nonzero;stroke:none;font-family:Futura Black Narrow;font-variant:normal;font-weight:500;font-size:34;writing-mode:lr;-inkscape-font-specification:Futura-CondensedMedium"
                       x="0"
                       y="0"
                       id="tspan132"></tspan></text>
</g><path
                   d="m -7.874014e-5,624.3725 597.01327874014,0 c 0.2325,-0.529 -19.7081,-18.308 -19.2233,-18.837 -0.6528,0.1916 19.6239,-18.8669 19.2233,-18.9253 l -597.01327874014,0 0,37.7623 z"
                   style="fill:#f07f02;fill-opacity:1;fill-rule:evenodd;stroke:none"
                   id="path134" /><g
                   id="g136"
                   transform="translate(43.19999,620.5967)"><text
                     transform="matrix(1,0,0,-1,0,-24)"
                     id="text138"><tspan
                       style="fill:#ffffff;fill-opacity:1;fill-rule:nonzero;stroke:none;font-family:Futura Black Narrow;font-variant:normal;font-weight:500;font-size:24;writing-mode:lr;-inkscape-font-specification:Futura-CondensedMedium"
                       x="0 13.6872 22.956 27.924 36.0216 45.396 54.2904 65.7624 75.876 81.1032 88.944 97.6632 102.6312 112.1472 122.0496 133.5216 140.5416 149.2608 158.412"
                       y="0"
                       sodipodi:role="line"
                       id="tspan140">MY FAVORITE PROJECT</tspan></text>
<text
                     transform="matrix(1,0,0,-1,166.2528,-24)"
                     id="text142"><tspan
                       style="fill:#ffffff;fill-opacity:1;fill-rule:nonzero;stroke:none;font-family:Futura Black Narrow;font-variant:normal;font-weight:500;font-size:24;writing-mode:lr;-inkscape-font-specification:Futura-CondensedMedium"
                       x="0"
                       y="0"
                       id="tspan144"></tspan></text>
</g><path
                   d="m -7.874014e-5,422.4576 597.01327874014,0 c 0.2325,-0.529 -19.7081,-18.3081 -19.2233,-18.8371 -0.6528,0.1916 19.6239,-18.8669 19.2233,-18.9253 l -597.01327874014,0 0,37.7624 z"
                   style="fill:#f07f02;fill-opacity:1;fill-rule:evenodd;stroke:none"
                   id="path146" /><g
                   id="g148"
                   transform="translate(43.19999,418.6818)"><text
                     transform="matrix(1,0,0,-1,0,-24)"
                     id="text150"><tspan
                       style="fill:#ffffff;fill-opacity:1;fill-rule:nonzero;stroke:none;font-family:Futura Black Narrow;font-variant:normal;font-weight:500;font-size:24;writing-mode:lr;-inkscape-font-specification:Futura-CondensedMedium"
                       x="0 13.6872 22.956 27.924 39.1632 48.7848 57.936 68.0376 77.436 85.2768 96.516 107.988 119.2152 124.1832 133.6992 143.6016 155.0736 162.0936 170.8128 179.964 187.8048 192.7728 198 209.1672 217.8864"
                       y="0"
                       sodipodi:role="line"
                       id="tspan152">MY HACKATHON PROJECT IDEA</tspan></text>
<text
                     transform="matrix(1,0,0,-1,227.6712,-24)"
                     id="text154"><tspan
                       style="fill:#ffffff;fill-opacity:1;fill-rule:nonzero;stroke:none;font-family:Futura Black Narrow;font-variant:normal;font-weight:500;font-size:24;writing-mode:lr;-inkscape-font-specification:Futura-CondensedMedium"
                       x="0"
                       y="0"
                       id="tspan156"></tspan></text>
</g><path
                   d="m -7.874014e-5,221.2661 597.01327874014,0 c 0.2325,-0.529 -19.7081,-18.308 -19.2233,-18.837 -0.6528,0.1916 19.6239,-18.867 19.2233,-18.9254 l -597.01327874014,0 0,37.7624 z"
                   style="fill:#f07f02;fill-opacity:1;fill-rule:evenodd;stroke:none"
                   id="path158" /><g
                   id="g160"
                   transform="translate(43.19999,217.4903)"><text
                     transform="matrix(1,0,0,-1,0,-24)"
                     id="text162"><tspan
                       style="fill:#ffffff;fill-opacity:1;fill-rule:nonzero;stroke:none;font-family:Futura Black Narrow;font-variant:normal;font-weight:500;font-size:24;writing-mode:lr;-inkscape-font-specification:Futura-CondensedMedium"
                       x="0 13.6872 22.956 27.924 36.876 46.9776 52.2048 60.1512 68.3664 77.3184 82.2864 92.0712 103.2984 114.4656 119.4336 124.6608 135.888 143.7288 152.448 162.5616 171.2808 180.528 188.8728"
                       y="0"
                       sodipodi:role="line"
                       id="tspan164">MY SKILLS AND INTERESTS</tspan></text>
<text
                     transform="matrix(1,0,0,-1,197.8248,-24)"
                     id="text166"><tspan
                       style="fill:#ffffff;fill-opacity:1;fill-rule:nonzero;stroke:none;font-family:Futura Black Narrow;font-variant:normal;font-weight:500;font-size:24;writing-mode:lr;-inkscape-font-specification:Futura-CondensedMedium"
                       x="0"
                       y="0"
                       id="tspan168"></tspan></text>
</g></g></g></g></g></g></g></g></svg>