<?xml version="1.0" encoding="UTF-8" standalone="no"?>
<!-- Created with Inkscape (http://www.inkscape.org/) -->

<svg
   xmlns:dc="http://purl.org/dc/elements/1.1/"
   xmlns:cc="http://creativecommons.org/ns#"
   xmlns:rdf="http://www.w3.org/1999/02/22-rdf-syntax-ns#"
   xmlns:svg="http://www.w3.org/2000/svg"
   xmlns="http://www.w3.org/2000/svg"
   xmlns:sodipodi="http://sodipodi.sourceforge.net/DTD/sodipodi-0.dtd"
   xmlns:inkscape="http://www.inkscape.org/namespaces/inkscape"
   id="svg2"
   version="1.1"
   inkscape:version="0.48.5 r10040"
   width="744.095"
   height="1052.3625"
   xml:space="preserve"
   sodipodi:docname="tmp.pdf"><metadata
     id="metadata8"><rdf:RDF><cc:Work
         rdf:about=""><dc:format>image/svg+xml</dc:format><dc:type
           rdf:resource="http://purl.org/dc/dcmitype/StillImage" /><dc:title></dc:title></cc:Work></rdf:RDF></metadata><defs
     id="defs6"><clipPath
       clipPathUnits="userSpaceOnUse"
       id="clipPath20"><path
         d="M 0,0 612,0 612,792 0,792 0,0 z"
         id="path22" /></clipPath><clipPath
       clipPathUnits="userSpaceOnUse"
       id="clipPath30"><path
         d="m 0,-2.69413e-5 612,0 0,791.9998969413 -612,0 L 0,-2.69413e-5 z"
         id="path32" /></clipPath></defs><sodipodi:namedview
     pagecolor="#ffffff"
     bordercolor="#666666"
     borderopacity="1"
     objecttolerance="10"
     gridtolerance="10"
     guidetolerance="10"
     inkscape:pageopacity="0"
     inkscape:pageshadow="2"
     inkscape:window-width="640"
     inkscape:window-height="480"
     id="namedview4"
     showgrid="false"
     inkscape:zoom="0.22425732"
     inkscape:cx="372.04749"
     inkscape:cy="526.18127"
     inkscape:window-x="0"
     inkscape:window-y="31"
     inkscape:window-maximized="0"
     inkscape:current-layer="g10" /><g
     id="g10"
     inkscape:groupmode="layer"
     inkscape:label="tmp"
     transform="matrix(1.25,0,0,-1.25,-0.17375,1007.8787)"><g
       id="g12"
       transform="scale(0.97313,0.97313)"><g
         id="g14"><g
           id="g16"><g
             id="g18"
             clip-path="url(#clipPath20)"><g
               id="g24" /><g
               id="g26"><g
                 id="g28"
                 clip-path="url(#clipPath30)"><path
                   d="m 0,791.9999 611.9999,0 0,-791.9998873878 -611.9999,0 L 0,791.9999 z"
                   style="fill:#ffffff;fill-opacity:1;fill-rule:evenodd;stroke:none"
                   id="path34" /><path
                   d="m 612.3351,612.0228 -598.44099,0 c -0.24535,-0.529 20.79279,-18.308 20.28138,-18.8369 0.6887,0.1915 -20.70401,-18.867 -20.28138,-18.9254 l 598.56209,0 c -0.0404,12.5875 -0.0807,25.1749 -0.1211,37.7623 z"
                   style="fill:#000000;fill-opacity:1;fill-rule:evenodd;stroke:none"
                   id="path36" /><g
                   id="g38"
                   transform="translate(42.92559,548.6336)"><text
                     transform="matrix(1,0,0,-1,0,-10.308)"
                     id="text40"><tspan
                       style="fill:#000000;fill-opacity:1;fill-rule:nonzero;stroke:none;font-family:Futura Black Narrow;font-variant:normal;font-weight:800;font-size:12;writing-mode:lr;-inkscape-font-specification:Futura-CondensedExtraBold"
                       x="0 7.1016 14.3232 20.5728 27.6624 35.268 42.3936 50.0832 57.4848 65.1144 72.408 76.1736 79.7832 83.5488 87.1584 90.924 94.5336 98.2992 101.9088 105.6744 109.284 113.0496 116.6592 120.4248 124.0344 127.8 131.4096 135.1752 138.7848 142.5504 146.16 149.9256 153.5352 157.3008 160.9104 164.676 168.2856 172.0512 175.6608 179.4264 183.036 186.8016 190.4112 194.1768 197.7864 201.552 205.1616 208.9272 212.5368 216.3024 219.912 223.6776 227.2872 231.0528 234.6624 238.428 242.0376 245.8032 249.4128 253.1784 256.788 260.5536 264.1632 267.9288 271.5384 275.304 278.9136 282.6792 286.2888 290.0544 293.664 297.4296 301.0392 304.8048 308.4144 312.18 315.7896 319.5552 323.1648 326.9304 330.54 334.3056 337.9152 341.6808 345.2904 349.056 352.6656 356.4312 360.0408 363.8064 367.416 371.1816 374.7912 378.5568 382.1664 385.932 389.5416 393.3072 396.9168 400.6824 404.292 408.0576 411.6672 415.4328 419.0424 422.808 426.4176 430.1832 433.7928 437.5584 441.168 444.9336 448.5432 452.3088 455.9184 459.684 463.2936 467.0592 470.6688 474.4344 478.044 481.8096 485.4192 489.1848 492.7944 496.56 500.1696 503.9352 507.5448 511.3104 514.92 518.6856"
                       y="0"
                       sodipodi:role="line"
                       id="tspan42">BACKGROUND . . . . . . . . . . . . . . . . . . . . . . . . . . . . . . . . . . . . . . . . . . . . . . . . . . . . . . . . . . . . 1</tspan></text>
<text
                     transform="matrix(1,0,0,-1,525.9072,-10.308)"
                     id="text44"><tspan
                       style="fill:#000000;fill-opacity:1;fill-rule:nonzero;stroke:none;font-family:Futura Black Narrow;font-variant:normal;font-weight:800;font-size:12;writing-mode:lr;-inkscape-font-specification:Futura-CondensedExtraBold"
                       x="0"
                       y="0"
                       id="tspan46"></tspan></text>
</g><g
                   id="g48"
                   transform="translate(78.92558,533.6336)"><text
                     transform="matrix(1,0,0,-1,0,-10.308)"
                     id="text50"><tspan
                       style="fill:#000000;fill-opacity:1;fill-rule:nonzero;stroke:none;font-family:Futura Black Narrow;font-variant:normal;font-weight:500;font-size:12;writing-mode:lr;-inkscape-font-specification:Futura-CondensedMedium"
                       x="0 7.1136 11.9712 16.7052 19.3716 22.4388 24.8232 28.35 31.4172 35.9928 39.2328 43.6572 48.3912 51.0576 53.442 57.444 61.8684 64.9356 69.5112 74.1348 81.4416 86.1756 91.0512 93.7176 96.102 100.9596 105.6996 110.1588 113.226 115.71 118.7772 121.2612 124.3284 126.8124 129.8796 132.3636 135.4308 137.9148 140.982 143.466 146.5332 149.0172 152.0844 154.5684 157.6356 160.1196 163.1868 165.6708 168.738 171.222 174.2892 176.7732 179.8404 182.3244 185.3916 187.8756 190.9428 193.4268 196.494 198.978 202.0452 204.5292 207.5964 210.0804 213.1476 215.6316 218.6988 221.1828 224.25 226.734 229.8012 232.2852 235.3524 237.8364 240.9036 243.3876 246.4548 248.9388 252.006 254.49 257.5572 260.0412 263.1084 265.5924 268.6596 271.1436 274.2108 276.6948 279.762 282.246 285.3132 287.7972 290.8644 293.3484 296.4156 298.8996 301.9668 304.4508 307.518 310.002 313.0692 315.5532 318.6204 321.1044 324.1716 326.6556 329.7228 332.2068 335.274 337.758 340.8252 343.3092 346.3764 348.8604 351.9276 354.4116 357.4788 359.9628 363.03 365.514 368.5812 371.0652 374.1324 376.6164 379.6836 382.1676 385.2348 387.7188 390.786 393.27 396.3372 398.8212 401.8884 404.3724 407.4396 409.9236 412.9908 415.4748 418.542 421.026 424.0932 426.5772 429.6444 432.1284 435.1956 437.6796 440.7468 443.2308 446.298 448.782 451.8492 454.3332 457.4004 459.8844 462.9516 465.4356 468.5028 470.9868 474.054 476.538 479.6052 482.0892 485.1564"
                       y="0"
                       sodipodi:role="line"
                       id="tspan52">What is Creative Computing? . . . . . . . . . . . . . . . . . . . . . . . . . . . . . . . . . . . . . . . . . . . . . . . . . . . . . . . . . . . . . . . . . . . 1</tspan></text>
<text
                     transform="matrix(1,0,0,-1,490.1256,-10.308)"
                     id="text54"><tspan
                       style="fill:#000000;fill-opacity:1;fill-rule:nonzero;stroke:none;font-family:Futura Black Narrow;font-variant:normal;font-weight:500;font-size:12;writing-mode:lr;-inkscape-font-specification:Futura-CondensedMedium"
                       x="0"
                       y="0"
                       id="tspan56"></tspan></text>
</g><g
                   id="g58"
                   transform="translate(78.92558,517.6336)"><text
                     transform="matrix(1,0,0,-1,0,-10.308)"
                     id="text60"><tspan
                       style="fill:#000000;fill-opacity:1;fill-rule:nonzero;stroke:none;font-family:Futura Black Narrow;font-variant:normal;font-weight:500;font-size:12;writing-mode:lr;-inkscape-font-specification:Futura-CondensedMedium"
                       x="0 7.1136 11.9712 16.7052 19.3716 22.1412 24.5256 28.0524 30.822 35.298 38.7252 42 46.734 49.4004 52.758 57.6156 62.0748 64.8444 67.3284 70.098 72.582 75.3516 77.8356 80.6052 83.0892 85.8588 88.3428 91.1124 93.5964 96.366 98.85 101.6196 104.1036 106.8732 109.3572 112.1268 114.6108 117.3804 119.8644 122.634 125.118 127.8876 130.3716 133.1412 135.6252 138.3948 140.8788 143.6484 146.1324 148.902 151.386 154.1556 156.6396 159.4092 161.8932 164.6628 167.1468 169.9164 172.4004 175.17 177.654 180.4236 182.9076 185.6772 188.1612 190.9308 193.4148 196.1844 198.6684 201.438 203.922 206.6916 209.1756 211.9452 214.4292 217.1988 219.6828 222.4524 224.9364 227.706 230.19 232.9596 235.4436 238.2132 240.6972 243.4668 245.9508 248.7204 251.2044 253.974 256.458 259.2276 261.7116 264.4812 266.9652 269.7348 272.2188 274.9884 277.4724 280.242 282.726 285.4956 287.9796 290.7492 293.2332 296.0028 298.4868 301.2564 303.7404 306.51 308.994 311.7636 314.2476 317.0172 319.5012 322.2708 324.7548 327.5244 330.0084 332.778 335.262 338.0316 340.5156 343.2852 345.7692 348.5388 351.0228 353.7924 356.2764 359.046 361.53 364.2996 366.7836 369.5532 372.0372 374.8068 377.2908 380.0604 382.5444 385.314 387.798 390.5676 393.0516 395.8212 398.3052 401.0748 403.5588 406.3284 408.8124 411.582 414.066 416.8356 419.3196 422.0892 424.5732 427.3428 429.8268 432.5964 435.0804 437.85 440.334 443.1036 445.5876 448.3572 450.8412 453.6108 456.0948 458.8644 461.3484 464.118 466.602 469.3716 471.8556 474.6252 477.1092 479.8788 482.3628 485.1324"
                       y="0"
                       sodipodi:role="line"
                       id="tspan62">What is Scratch? . . . . . . . . . . . . . . . . . . . . . . . . . . . . . . . . . . . . . . . . . . . . . . . . . . . . . . . . . . . . . . . . . . . . . . . . . . . . . . . . 2</tspan></text>
<text
                     transform="matrix(1,0,0,-1,490.1016,-10.308)"
                     id="text64"><tspan
                       style="fill:#000000;fill-opacity:1;fill-rule:nonzero;stroke:none;font-family:Futura Black Narrow;font-variant:normal;font-weight:500;font-size:12;writing-mode:lr;-inkscape-font-specification:Futura-CondensedMedium"
                       x="0"
                       y="0"
                       id="tspan66"></tspan></text>
</g><g
                   id="g68"
                   transform="translate(78.92558,501.6336)"><text
                     transform="matrix(1,0,0,-1,0,-10.308)"
                     id="text70"><tspan
                       style="fill:#000000;fill-opacity:1;fill-rule:nonzero;stroke:none;font-family:Futura Black Narrow;font-variant:normal;font-weight:500;font-size:12;writing-mode:lr;-inkscape-font-specification:Futura-CondensedMedium"
                       x="0 7.1136 11.9712 16.7052 19.3716 22.2048 24.5892 28.116 30.9492 33.6156 38.4732 40.8576 44.3844 47.2176 51.9576 56.8332 59.2176 63.9516 68.376 72.8352 75.6684 78.1524 80.9856 83.4696 86.3028 88.7868 91.62 94.104 96.9372 99.4212 102.2544 104.7384 107.5716 110.0556 112.8888 115.3728 118.206 120.69 123.5232 126.0072 128.8404 131.3244 134.1576 136.6416 139.4748 141.9588 144.792 147.276 150.1092 152.5932 155.4264 157.9104 160.7436 163.2276 166.0608 168.5448 171.378 173.862 176.6952 179.1792 182.0124 184.4964 187.3296 189.8136 192.6468 195.1308 197.964 200.448 203.2812 205.7652 208.5984 211.0824 213.9156 216.3996 219.2328 221.7168 224.55 227.034 229.8672 232.3512 235.1844 237.6684 240.5016 242.9856 245.8188 248.3028 251.136 253.62 256.4532 258.9372 261.7704 264.2544 267.0876 269.5716 272.4048 274.8888 277.722 280.206 283.0392 285.5232 288.3564 290.8404 293.6736 296.1576 298.9908 301.4748 304.308 306.792 309.6252 312.1092 314.9424 317.4264 320.2596 322.7436 325.5768 328.0608 330.894 333.378 336.2112 338.6952 341.5284 344.0124 346.8456 349.3296 352.1628 354.6468 357.48 359.964 362.7972 365.2812 368.1144 370.5984 373.4316 375.9156 378.7488 381.2328 384.066 386.55 389.3832 391.8672 394.7004 397.1844 400.0176 402.5016 405.3348 407.8188 410.652 413.136 415.9692 418.4532 421.2864 423.7704 426.6036 429.0876 431.9208 434.4048 437.238 439.722 442.5552 445.0392 447.8724 450.3564 453.1896 455.6736 458.5068 460.9908 463.824 466.308 469.1412 471.6252 474.4584 476.9424 479.7756 482.2596 485.0928"
                       y="0"
                       sodipodi:role="line"
                       id="tspan72">What is this guide? . . . . . . . . . . . . . . . . . . . . . . . . . . . . . . . . . . . . . . . . . . . . . . . . . . . . . . . . . . . . . . . . . . . . . . . . . . . . . 2</tspan></text>
<text
                     transform="matrix(1,0,0,-1,490.062,-10.308)"
                     id="text74"><tspan
                       style="fill:#000000;fill-opacity:1;fill-rule:nonzero;stroke:none;font-family:Futura Black Narrow;font-variant:normal;font-weight:500;font-size:12;writing-mode:lr;-inkscape-font-specification:Futura-CondensedMedium"
                       x="0"
                       y="0"
                       id="tspan76"></tspan></text>
</g><g
                   id="g78"
                   transform="translate(78.92558,485.6336)"><text
                     transform="matrix(1,0,0,-1,0,-10.308)"
                     id="text80"><tspan
                       style="fill:#000000;fill-opacity:1;fill-rule:nonzero;stroke:none;font-family:Futura Black Narrow;font-variant:normal;font-weight:500;font-size:12;writing-mode:lr;-inkscape-font-specification:Futura-CondensedMedium"
                       x="0 7.1136 11.9712 16.5948 19.4928 21.8772 25.404 28.302 30.9684 35.826 38.2104 41.7372 44.6352 49.3752 54.2508 56.6352 61.3692 65.7936 68.6916 71.6448 76.2684 79.4736 83.9328 86.8308 89.3148 92.2128 94.6968 97.5948 100.0788 102.9768 105.4608 108.3588 110.8428 113.7408 116.2248 119.1228 121.6068 124.5048 126.9888 129.8868 132.3708 135.2688 137.7528 140.6508 143.1348 146.0328 148.5168 151.4148 153.8988 156.7968 159.2808 162.1788 164.6628 167.5608 170.0448 172.9428 175.4268 178.3248 180.8088 183.7068 186.1908 189.0888 191.5728 194.4708 196.9548 199.8528 202.3368 205.2348 207.7188 210.6168 213.1008 215.9988 218.4828 221.3808 223.8648 226.7628 229.2468 232.1448 234.6288 237.5268 240.0108 242.9088 245.3928 248.2908 250.7748 253.6728 256.1568 259.0548 261.5388 264.4368 266.9208 269.8188 272.3028 275.2008 277.6848 280.5828 283.0668 285.9648 288.4488 291.3468 293.8308 296.7288 299.2128 302.1108 304.5948 307.4928 309.9768 312.8748 315.3588 318.2568 320.7408 323.6388 326.1228 329.0208 331.5048 334.4028 336.8868 339.7848 342.2688 345.1668 347.6508 350.5488 353.0328 355.9308 358.4148 361.3128 363.7968 366.6948 369.1788 372.0768 374.5608 377.4588 379.9428 382.8408 385.3248 388.2228 390.7068 393.6048 396.0888 398.9868 401.4708 404.3688 406.8528 409.7508 412.2348 415.1328 417.6168 420.5148 422.9988 425.8968 428.3808 431.2788 433.7628 436.6608 439.1448 442.0428 444.5268 447.4248 449.9088 452.8068 455.2908 458.1888 460.6728 463.5708 466.0548 468.9528 471.4368 474.3348 476.8188 479.7168 482.2008 485.0988"
                       y="0"
                       sodipodi:role="line"
                       id="tspan82">Who is this guide for? . . . . . . . . . . . . . . . . . . . . . . . . . . . . . . . . . . . . . . . . . . . . . . . . . . . . . . . . . . . . . . . . . . . . . . . . . . 3</tspan></text>
<text
                     transform="matrix(1,0,0,-1,490.068,-10.308)"
                     id="text84"><tspan
                       style="fill:#000000;fill-opacity:1;fill-rule:nonzero;stroke:none;font-family:Futura Black Narrow;font-variant:normal;font-weight:500;font-size:12;writing-mode:lr;-inkscape-font-specification:Futura-CondensedMedium"
                       x="0"
                       y="0"
                       id="tspan86"></tspan></text>
</g><g
                   id="g88"
                   transform="translate(78.92558,469.6336)"><text
                     transform="matrix(1,0,0,-1,0,-10.308)"
                     id="text90"><tspan
                       style="fill:#000000;fill-opacity:1;fill-rule:nonzero;stroke:none;font-family:Futura Black Narrow;font-variant:normal;font-weight:500;font-size:12;writing-mode:lr;-inkscape-font-specification:Futura-CondensedMedium"
                       x="0 7.1136 11.9712 16.7052 19.3716 22.8168 27.5508 32.1744 35.6196 38.2332 41.6784 46.536 50.9604 55.3848 60.1188 63.564 65.9484 70.806 74.2512 78.8748 82.1496 86.8836 91.308 94.5132 97.9584 100.6008 105.2244 108.6696 113.5452 117.072 121.4964 124.9416 127.608 132.4656 134.85 138.3768 141.822 146.562 151.4376 153.822 158.556 162.9804 167.4396 170.8848 173.3688 176.814 179.298 182.7432 185.2272 188.6724 191.1564 194.6016 197.0856 200.5308 203.0148 206.46 208.944 212.3892 214.8732 218.3184 220.8024 224.2476 226.7316 230.1768 232.6608 236.106 238.59 242.0352 244.5192 247.9644 250.4484 253.8936 256.3776 259.8228 262.3068 265.752 268.236 271.6812 274.1652 277.6104 280.0944 283.5396 286.0236 289.4688 291.9528 295.398 297.882 301.3272 303.8112 307.2564 309.7404 313.1856 315.6696 319.1148 321.5988 325.044 327.528 330.9732 333.4572 336.9024 339.3864 342.8316 345.3156 348.7608 351.2448 354.69 357.174 360.6192 363.1032 366.5484 369.0324 372.4776 374.9616 378.4068 380.8908 384.336 386.82 390.2652 392.7492 396.1944 398.6784 402.1236 404.6076 408.0528 410.5368 413.982 416.466 419.9112 422.3952 425.8404 428.3244 431.7696 434.2536 437.6988 440.1828 443.628 446.112 449.5572 452.0412 455.4864 457.9704 461.4156 463.8996 467.3448 469.8288 473.274 475.758 479.2032 481.6872 485.1324"
                       y="0"
                       sodipodi:role="line"
                       id="tspan92">What do I need in order to use this guide? . . . . . . . . . . . . . . . . . . . . . . . . . . . . . . . . . . . . . . . . . . . . . . . . . . . . . 3</tspan></text>
<text
                     transform="matrix(1,0,0,-1,490.1016,-10.308)"
                     id="text94"><tspan
                       style="fill:#000000;fill-opacity:1;fill-rule:nonzero;stroke:none;font-family:Futura Black Narrow;font-variant:normal;font-weight:500;font-size:12;writing-mode:lr;-inkscape-font-specification:Futura-CondensedMedium"
                       x="0"
                       y="0"
                       id="tspan96"></tspan></text>
</g><g
                   id="g98"
                   transform="translate(78.92558,453.6336)"><text
                     transform="matrix(1,0,0,-1,0,-10.308)"
                     id="text100"><tspan
                       style="fill:#000000;fill-opacity:1;fill-rule:nonzero;stroke:none;font-family:Futura Black Narrow;font-variant:normal;font-weight:500;font-size:12;writing-mode:lr;-inkscape-font-specification:Futura-CondensedMedium"
                       x="0 7.1136 11.9712 16.7052 19.3716 22.6356 25.02 28.5468 31.8108 34.1952 39.0528 42.48 44.8704 49.746 54.48 58.9044 63.6384 66.9024 69.2868 74.1444 77.4084 80.0748 84.9324 87.3168 90.8436 94.1076 98.8476 103.7232 106.1076 110.8416 115.266 119.7252 122.9892 125.4732 128.7372 131.2212 134.4852 136.9692 140.2332 142.7172 145.9812 148.4652 151.7292 154.2132 157.4772 159.9612 163.2252 165.7092 168.9732 171.4572 174.7212 177.2052 180.4692 182.9532 186.2172 188.7012 191.9652 194.4492 197.7132 200.1972 203.4612 205.9452 209.2092 211.6932 214.9572 217.4412 220.7052 223.1892 226.4532 228.9372 232.2012 234.6852 237.9492 240.4332 243.6972 246.1812 249.4452 251.9292 255.1932 257.6772 260.9412 263.4252 266.6892 269.1732 272.4372 274.9212 278.1852 280.6692 283.9332 286.4172 289.6812 292.1652 295.4292 297.9132 301.1772 303.6612 306.9252 309.4092 312.6732 315.1572 318.4212 320.9052 324.1692 326.6532 329.9172 332.4012 335.6652 338.1492 341.4132 343.8972 347.1612 349.6452 352.9092 355.3932 358.6572 361.1412 364.4052 366.8892 370.1532 372.6372 375.9012 378.3852 381.6492 384.1332 387.3972 389.8812 393.1452 395.6292 398.8932 401.3772 404.6412 407.1252 410.3892 412.8732 416.1372 418.6212 421.8852 424.3692 427.6332 430.1172 433.3812 435.8652 439.1292 441.6132 444.8772 447.3612 450.6252 453.1092 456.3732 458.8572 462.1212 464.6052 467.8692 470.3532 473.6172 476.1012 479.3652 481.8492 485.1132"
                       y="0"
                       sodipodi:role="line"
                       id="tspan102">What is included in this guide? . . . . . . . . . . . . . . . . . . . . . . . . . . . . . . . . . . . . . . . . . . . . . . . . . . . . . . . . . . . . . . . 4</tspan></text>
<text
                     transform="matrix(1,0,0,-1,490.0824,-10.308)"
                     id="text104"><tspan
                       style="fill:#000000;fill-opacity:1;fill-rule:nonzero;stroke:none;font-family:Futura Black Narrow;font-variant:normal;font-weight:500;font-size:12;writing-mode:lr;-inkscape-font-specification:Futura-CondensedMedium"
                       x="0"
                       y="0"
                       id="tspan106"></tspan></text>
</g><g
                   id="g108"
                   transform="translate(78.92558,438.6336)"><text
                     transform="matrix(1,0,0,-1,0,-10.308)"
                     id="text110"><tspan
                       style="fill:#000000;fill-opacity:1;fill-rule:nonzero;stroke:none;font-family:Futura Black Narrow;font-variant:normal;font-weight:500;font-size:12;writing-mode:lr;-inkscape-font-specification:Futura-CondensedMedium"
                       x="0 5.6196 10.1604 16.248 19.302 22.8288 27.6864 32.31 37.1856 39.576 44.31 47.364 49.9776 53.0316 57.9072 61.434 65.8584 68.9124 71.5788 76.4364 78.8208 82.3476 85.4016 90.1416 95.0172 97.4016 102.1356 106.56 111.0192 114.0732 116.5572 119.6112 122.0952 125.1492 127.6332 130.6872 133.1712 136.2252 138.7092 141.7632 144.2472 147.3012 149.7852 152.8392 155.3232 158.3772 160.8612 163.9152 166.3992 169.4532 171.9372 174.9912 177.4752 180.5292 183.0132 186.0672 188.5512 191.6052 194.0892 197.1432 199.6272 202.6812 205.1652 208.2192 210.7032 213.7572 216.2412 219.2952 221.7792 224.8332 227.3172 230.3712 232.8552 235.9092 238.3932 241.4472 243.9312 246.9852 249.4692 252.5232 255.0072 258.0612 260.5452 263.5992 266.0832 269.1372 271.6212 274.6752 277.1592 280.2132 282.6972 285.7512 288.2352 291.2892 293.7732 296.8272 299.3112 302.3652 304.8492 307.9032 310.3872 313.4412 315.9252 318.9792 321.4632 324.5172 327.0012 330.0552 332.5392 335.5932 338.0772 341.1312 343.6152 346.6692 349.1532 352.2072 354.6912 357.7452 360.2292 363.2832 365.7672 368.8212 371.3052 374.3592 376.8432 379.8972 382.3812 385.4352 387.9192 390.9732 393.4572 396.5112 398.9952 402.0492 404.5332 407.5872 410.0712 413.1252 415.6092 418.6632 421.1472 424.2012 426.6852 429.7392 432.2232 435.2772 437.7612 440.8152 443.2992 446.3532 448.8372 451.8912 454.3752 457.4292 459.9132 462.9672 465.4512 468.5052 470.9892 474.0432 476.5272 479.5812 482.0652 485.1192"
                       y="0"
                       sodipodi:role="line"
                       id="tspan112">How should I use this guide? . . . . . . . . . . . . . . . . . . . . . . . . . . . . . . . . . . . . . . . . . . . . . . . . . . . . . . . . . . . . . . . . . . . 5</tspan></text>
<text
                     transform="matrix(1,0,0,-1,490.0884,-10.308)"
                     id="text114"><tspan
                       style="fill:#000000;fill-opacity:1;fill-rule:nonzero;stroke:none;font-family:Futura Black Narrow;font-variant:normal;font-weight:500;font-size:12;writing-mode:lr;-inkscape-font-specification:Futura-CondensedMedium"
                       x="0"
                       y="0"
                       id="tspan116"></tspan></text>
</g><g
                   id="g118"
                   transform="translate(78.92558,422.6336)"><text
                     transform="matrix(1,0,0,-1,0,-10.308)"
                     id="text120"><tspan
                       style="fill:#000000;fill-opacity:1;fill-rule:nonzero;stroke:none;font-family:Futura Black Narrow;font-variant:normal;font-weight:500;font-size:12;writing-mode:lr;-inkscape-font-specification:Futura-CondensedMedium"
                       x="0 7.1136 11.9712 16.3956 19.6356 24.06 27.2688 32.0028 34.3872 39.1212 42.33 44.9964 49.854 52.2384 55.7652 58.974 63.714 68.5896 70.974 75.708 80.1324 83.3412 86.7684 91.392 98.7216 103.146 106.3548 109.296 112.536 117.1596 124.4892 128.9484 132.1572 134.6412 137.85 140.334 143.5428 146.0268 149.2356 151.7196 154.9284 157.4124 160.6212 163.1052 166.314 168.798 172.0068 174.4908 177.6996 180.1836 183.3924 185.8764 189.0852 191.5692 194.778 197.262 200.4708 202.9548 206.1636 208.6476 211.8564 214.3404 217.5492 220.0332 223.242 225.726 228.9348 231.4188 234.6276 237.1116 240.3204 242.8044 246.0132 248.4972 251.706 254.19 257.3988 259.8828 263.0916 265.5756 268.7844 271.2684 274.4772 276.9612 280.17 282.654 285.8628 288.3468 291.5556 294.0396 297.2484 299.7324 302.9412 305.4252 308.634 311.118 314.3268 316.8108 320.0196 322.5036 325.7124 328.1964 331.4052 333.8892 337.098 339.582 342.7908 345.2748 348.4836 350.9676 354.1764 356.6604 359.8692 362.3532 365.562 368.046 371.2548 373.7388 376.9476 379.4316 382.6404 385.1244 388.3332 390.8172 394.026 396.51 399.7188 402.2028 405.4116 407.8956 411.1044 413.5884 416.7972 419.2812 422.49 424.974 428.1828 430.6668 433.8756 436.3596 439.5684 442.0524 445.2612 447.7452 450.954 453.438 456.6468 459.1308 462.3396 464.8236 468.0324 470.5164 473.7252 476.2092 479.418 481.902 485.1108"
                       y="0"
                       sodipodi:role="line"
                       id="tspan122">Where did this guide come from? . . . . . . . . . . . . . . . . . . . . . . . . . . . . . . . . . . . . . . . . . . . . . . . . . . . . . . . . . . . . . . 5</tspan></text>
</g><g
                   id="g124"
                   transform="translate(78.92558,422.6336)"><text
                     transform="matrix(1,0,0,-1,490.1246,-13.2)"
                     id="text126"><tspan
                       style="fill:#000000;fill-opacity:1;fill-rule:nonzero;stroke:none;font-family:Futura Black Narrow;font-variant:normal;font-weight:800;font-size:7;writing-mode:lr;-inkscape-font-specification:Futura-CondensedExtraBold"
                       x="0"
                       y="0"
                       id="tspan128"></tspan></text>
</g><g
                   id="g130"
                   transform="translate(42.92559,406.6336)"><text
                     transform="matrix(1,0,0,-1,263.0625,-13.2)"
                     id="text132"><tspan
                       style="fill:#000000;fill-opacity:1;fill-rule:nonzero;stroke:none;font-family:Futura Black Narrow;font-variant:normal;font-weight:800;font-size:12;writing-mode:lr;-inkscape-font-specification:Futura-CondensedExtraBold"
                       x="0"
                       y="0"
                       id="tspan134"></tspan></text>
</g><g
                   id="g136"
                   transform="translate(42.92559,390.6336)"><text
                     transform="matrix(1,0,0,-1,0,-13.2)"
                     id="text138"><tspan
                       style="fill:#000000;fill-opacity:1;fill-rule:nonzero;stroke:none;font-family:Futura Black Narrow;font-variant:normal;font-weight:800;font-size:12;writing-mode:lr;-inkscape-font-specification:Futura-CondensedExtraBold"
                       x="0 7.4004 15.0408 18.7452 23.9376 27.978 35.1984 39.2388 46.4592 50.4996 58.104 63.6924 68.8848 74.0772 77.7816 85.518 93.1224 97.1628 102.7632 107.7396 114.96 122.2884 127.4808 133.0692 140.3616 144.402 148.0104 152.0508 155.6592 159.6996 163.308 167.3484 170.9568 174.9972 178.6056 182.646 186.2544 190.2948 193.9032 197.9436 201.552 205.5924 209.2008 213.2412 216.8496 220.89 224.4984 228.5388 232.1472 236.1876 239.796 243.8364 247.4448 251.4852 255.0936 259.134 262.7424 266.7828 270.3912 274.4316 278.04 282.0804 285.6888 289.7292 293.3376 297.378 300.9864 305.0268 308.6352 312.6756 316.284 320.3244 323.9328 327.9732 331.5816 335.622 339.2304 343.2708 346.8792 350.9196 354.528 358.5684 362.1768 366.2172 369.8256 373.866 377.4744 381.5148 385.1232 389.1636 392.772 396.8124 400.4208 404.4612 408.0696 412.11 415.7184 419.7588 423.3672 427.4076 431.016 435.0564 438.6648 442.7052 446.3136 450.354 453.9624 458.0028 461.6112 465.6516 469.26 473.3004 476.9088 480.9492 484.5576 488.598 492.2064 496.2468 499.8552 503.8956 507.504 511.5444 515.1528 519.1932"
                       y="0"
                       sodipodi:role="line"
                       id="tspan140">UNIT 0 – GETTING STARTED . . . . . . . . . . . . . . . . . . . . . . . . . . . . . . . . . . . . . . . . . . . . . . . . . 7</tspan></text>
<text
                     transform="matrix(1,0,0,-1,526.4136,-13.2)"
                     id="text142"><tspan
                       style="fill:#000000;fill-opacity:1;fill-rule:nonzero;stroke:none;font-family:Futura Black Narrow;font-variant:normal;font-weight:800;font-size:12;writing-mode:lr;-inkscape-font-specification:Futura-CondensedExtraBold"
                       x="0"
                       y="0"
                       id="tspan144"></tspan></text>
</g><g
                   id="g146"
                   transform="translate(78.92558,374.6336)"><text
                     transform="matrix(1,0,0,-1,0,-13.2)"
                     id="text148"><tspan
                       style="fill:#000000;fill-opacity:1;fill-rule:nonzero;stroke:none;font-family:Futura Black Narrow;font-variant:normal;font-weight:500;font-size:12;writing-mode:lr;-inkscape-font-specification:Futura-CondensedMedium"
                       x="0 2.6136 7.4712 10.1376 13.3776 18.0012 22.7352 27.6108 31.038 33.4224 38.28 43.02 46.2336 50.7096 54.1368 57.4116 62.1456 64.812 68.1696 73.0272 76.2408 78.7248 81.9384 84.4224 87.636 90.12 93.3336 95.8176 99.0312 101.5152 104.7288 107.2128 110.4264 112.9104 116.124 118.608 121.8216 124.3056 127.5192 130.0032 133.2168 135.7008 138.9144 141.3984 144.612 147.096 150.3096 152.7936 156.0072 158.4912 161.7048 164.1888 167.4024 169.8864 173.1 175.584 178.7976 181.2816 184.4952 186.9792 190.1928 192.6768 195.8904 198.3744 201.588 204.072 207.2856 209.7696 212.9832 215.4672 218.6808 221.1648 224.3784 226.8624 230.076 232.56 235.7736 238.2576 241.4712 243.9552 247.1688 249.6528 252.8664 255.3504 258.564 261.048 264.2616 266.7456 269.9592 272.4432 275.6568 278.1408 281.3544 283.8384 287.052 289.536 292.7496 295.2336 298.4472 300.9312 304.1448 306.6288 309.8424 312.3264 315.54 318.024 321.2376 323.7216 326.9352 329.4192 332.6328 335.1168 338.3304 340.8144 344.028 346.512 349.7256 352.2096 355.4232 357.9072 361.1208 363.6048 366.8184 369.3024 372.516 375 378.2136 380.6976 383.9112 386.3952 389.6088 392.0928 395.3064 397.7904 401.004 403.488 406.7016 409.1856 412.3992 414.8832 418.0968 420.5808 423.7944 426.2784 429.492 431.976 435.1896 437.6736 440.8872 443.3712 446.5848 449.0688 452.2824 454.7664 457.98 460.464 463.6776 466.1616 469.3752 471.8592 475.0728 477.5568 480.7704 485.13"
                       y="0"
                       sodipodi:role="line"
                       id="tspan150">Introducing Scratch . . . . . . . . . . . . . . . . . . . . . . . . . . . . . . . . . . . . . . . . . . . . . . . . . . . . . . . . . . . . . . . . . . . . . . . 10</tspan></text>
<text
                     transform="matrix(1,0,0,-1,490.0992,-13.2)"
                     id="text152"><tspan
                       style="fill:#000000;fill-opacity:1;fill-rule:nonzero;stroke:none;font-family:Futura Black Narrow;font-variant:normal;font-weight:500;font-size:12;writing-mode:lr;-inkscape-font-specification:Futura-CondensedMedium"
                       x="0"
                       y="0"
                       id="tspan154"></tspan></text>
</g><g
                   id="g156"
                   transform="translate(78.92558,358.6336)"><text
                     transform="matrix(1,0,0,-1,0,-13.2)"
                     id="text158"><tspan
                       style="fill:#000000;fill-opacity:1;fill-rule:nonzero;stroke:none;font-family:Futura Black Narrow;font-variant:normal;font-weight:500;font-size:12;writing-mode:lr;-inkscape-font-specification:Futura-CondensedMedium"
                       x="0 4.476 7.9032 11.178 15.912 18.5784 21.936 26.7936 30.204 35.1312 38.5584 41.9856 46.6092 51.4848 56.3424 59.0088 62.4192 64.9032 68.3136 70.7976 74.208 76.692 80.1024 82.5864 85.9968 88.4808 91.8912 94.3752 97.7856 100.2696 103.68 106.164 109.5744 112.0584 115.4688 117.9528 121.3632 123.8472 127.2576 129.7416 133.152 135.636 139.0464 141.5304 144.9408 147.4248 150.8352 153.3192 156.7296 159.2136 162.624 165.108 168.5184 171.0024 174.4128 176.8968 180.3072 182.7912 186.2016 188.6856 192.096 194.58 197.9904 200.4744 203.8848 206.3688 209.7792 212.2632 215.6736 218.1576 221.568 224.052 227.4624 229.9464 233.3568 235.8408 239.2512 241.7352 245.1456 247.6296 251.04 253.524 256.9344 259.4184 262.8288 265.3128 268.7232 271.2072 274.6176 277.1016 280.512 282.996 286.4064 288.8904 292.3008 294.7848 298.1952 300.6792 304.0896 306.5736 309.984 312.468 315.8784 318.3624 321.7728 324.2568 327.6672 330.1512 333.5616 336.0456 339.456 341.94 345.3504 347.8344 351.2448 353.7288 357.1392 359.6232 363.0336 365.5176 368.928 371.412 374.8224 377.3064 380.7168 383.2008 386.6112 389.0952 392.5056 394.9896 398.4 400.884 404.2944 406.7784 410.1888 412.6728 416.0832 418.5672 421.9776 424.4616 427.872 430.356 433.7664 436.2504 439.6608 442.1448 445.5552 448.0392 451.4496 453.9336 457.344 459.828 463.2384 465.7224 469.1328 471.6168 475.0272 477.5112 480.9216 485.1696"
                       y="0"
                       sodipodi:role="line"
                       id="tspan160">Scratch Account . . . . . . . . . . . . . . . . . . . . . . . . . . . . . . . . . . . . . . . . . . . . . . . . . . . . . . . . . . . . . . . . . . . . . . . 12</tspan></text>
<text
                     transform="matrix(1,0,0,-1,490.1388,-13.2)"
                     id="text162"><tspan
                       style="fill:#000000;fill-opacity:1;fill-rule:nonzero;stroke:none;font-family:Futura Black Narrow;font-variant:normal;font-weight:500;font-size:12;writing-mode:lr;-inkscape-font-specification:Futura-CondensedMedium"
                       x="0"
                       y="0"
                       id="tspan164"></tspan></text>
</g><g
                   id="g166"
                   transform="translate(78.92558,343.6336)"><text
                     transform="matrix(1,0,0,-1,0,-13.2)"
                     id="text168"><tspan
                       style="fill:#000000;fill-opacity:1;fill-rule:nonzero;stroke:none;font-family:Futura Black Narrow;font-variant:normal;font-weight:500;font-size:12;writing-mode:lr;-inkscape-font-specification:Futura-CondensedMedium"
                       x="0 5.5836 10.008 13.5348 15.9192 20.6592 25.5168 28.9512 32.4612 37.0848 41.9604 45.1884 50.046 54.78 57.1704 60.6048 63.0888 66.5232 69.0072 72.4416 74.9256 78.36 80.844 84.2784 86.7624 90.1968 92.6808 96.1152 98.5992 102.0336 104.5176 107.952 110.436 113.8704 116.3544 119.7888 122.2728 125.7072 128.1912 131.6256 134.1096 137.544 140.028 143.4624 145.9464 149.3808 151.8648 155.2992 157.7832 161.2176 163.7016 167.136 169.62 173.0544 175.5384 178.9728 181.4568 184.8912 187.3752 190.8096 193.2936 196.728 199.212 202.6464 205.1304 208.5648 211.0488 214.4832 216.9672 220.4016 222.8856 226.32 228.804 232.2384 234.7224 238.1568 240.6408 244.0752 246.5592 249.9936 252.4776 255.912 258.396 261.8304 264.3144 267.7488 270.2328 273.6672 276.1512 279.5856 282.0696 285.504 287.988 291.4224 293.9064 297.3408 299.8248 303.2592 305.7432 309.1776 311.6616 315.096 317.58 321.0144 323.4984 326.9328 329.4168 332.8512 335.3352 338.7696 341.2536 344.688 347.172 350.6064 353.0904 356.5248 359.0088 362.4432 364.9272 368.3616 370.8456 374.28 376.764 380.1984 382.6824 386.1168 388.6008 392.0352 394.5192 397.9536 400.4376 403.872 406.356 409.7904 412.2744 415.7088 418.1928 421.6272 424.1112 427.5456 430.0296 433.464 435.948 439.3824 441.8664 445.3008 447.7848 451.2192 453.7032 457.1376 459.6216 463.056 465.54 468.9744 471.4584 474.8928 477.3768 480.8112 485.118"
                       y="0"
                       sodipodi:role="line"
                       id="tspan170">Design Journal . . . . . . . . . . . . . . . . . . . . . . . . . . . . . . . . . . . . . . . . . . . . . . . . . . . . . . . . . . . . . . . . . . . . . . . 14</tspan></text>
<text
                     transform="matrix(1,0,0,-1,490.0872,-13.2)"
                     id="text172"><tspan
                       style="fill:#000000;fill-opacity:1;fill-rule:nonzero;stroke:none;font-family:Futura Black Narrow;font-variant:normal;font-weight:500;font-size:12;writing-mode:lr;-inkscape-font-specification:Futura-CondensedMedium"
                       x="0"
                       y="0"
                       id="tspan174"></tspan></text>
</g><g
                   id="g176"
                   transform="translate(78.92558,327.6336)"><text
                     transform="matrix(1,0,0,-1,0,-13.2)"
                     id="text178"><tspan
                       style="fill:#000000;fill-opacity:1;fill-rule:nonzero;stroke:none;font-family:Futura Black Narrow;font-variant:normal;font-weight:500;font-size:12;writing-mode:lr;-inkscape-font-specification:Futura-CondensedMedium"
                       x="0 4.476 7.9032 11.178 15.912 18.5784 21.936 26.7936 30.1752 34.6512 39.5268 42.7548 47.4888 50.7168 53.1012 56.628 61.0524 64.434 66.918 70.2996 72.7836 76.1652 78.6492 82.0308 84.5148 87.8964 90.3804 93.762 96.246 99.6276 102.1116 105.4932 107.9772 111.3588 113.8428 117.2244 119.7084 123.09 125.574 128.9556 131.4396 134.8212 137.3052 140.6868 143.1708 146.5524 149.0364 152.418 154.902 158.2836 160.7676 164.1492 166.6332 170.0148 172.4988 175.8804 178.3644 181.746 184.23 187.6116 190.0956 193.4772 195.9612 199.3428 201.8268 205.2084 207.6924 211.074 213.558 216.9396 219.4236 222.8052 225.2892 228.6708 231.1548 234.5364 237.0204 240.402 242.886 246.2676 248.7516 252.1332 254.6172 257.9988 260.4828 263.8644 266.3484 269.73 272.214 275.5956 278.0796 281.4612 283.9452 287.3268 289.8108 293.1924 295.6764 299.058 301.542 304.9236 307.4076 310.7892 313.2732 316.6548 319.1388 322.5204 325.0044 328.386 330.87 334.2516 336.7356 340.1172 342.6012 345.9828 348.4668 351.8484 354.3324 357.714 360.198 363.5796 366.0636 369.4452 371.9292 375.3108 377.7948 381.1764 383.6604 387.042 389.526 392.9076 395.3916 398.7732 401.2572 404.6388 407.1228 410.5044 412.9884 416.37 418.854 422.2356 424.7196 428.1012 430.5852 433.9668 436.4508 439.8324 442.3164 445.698 448.182 451.5636 454.0476 457.4292 459.9132 463.2948 465.7788 469.1604 471.6444 475.026 477.51 480.8916 485.1168"
                       y="0"
                       sodipodi:role="line"
                       id="tspan180">Scratch Surprise . . . . . . . . . . . . . . . . . . . . . . . . . . . . . . . . . . . . . . . . . . . . . . . . . . . . . . . . . . . . . . . . . . . . . . . 16</tspan></text>
<text
                     transform="matrix(1,0,0,-1,490.086,-13.2)"
                     id="text182"><tspan
                       style="fill:#000000;fill-opacity:1;fill-rule:nonzero;stroke:none;font-family:Futura Black Narrow;font-variant:normal;font-weight:500;font-size:12;writing-mode:lr;-inkscape-font-specification:Futura-CondensedMedium"
                       x="0"
                       y="0"
                       id="tspan184"></tspan></text>
</g><g
                   id="g186"
                   transform="translate(78.92558,311.6336)"><text
                     transform="matrix(1,0,0,-1,0,-13.2)"
                     id="text188"><tspan
                       style="fill:#000000;fill-opacity:1;fill-rule:nonzero;stroke:none;font-family:Futura Black Narrow;font-variant:normal;font-weight:500;font-size:12;writing-mode:lr;-inkscape-font-specification:Futura-CondensedMedium"
                       x="0 4.476 7.9032 11.178 15.912 18.5784 21.936 26.7936 30.2736 34.656 37.3224 42.198 46.932 49.3164 53.94 57.42 59.904 63.384 65.868 69.348 71.832 75.312 77.796 81.276 83.76 87.24 89.724 93.204 95.688 99.168 101.652 105.132 107.616 111.096 113.58 117.06 119.544 123.024 125.508 128.988 131.472 134.952 137.436 140.916 143.4 146.88 149.364 152.844 155.328 158.808 161.292 164.772 167.256 170.736 173.22 176.7 179.184 182.664 185.148 188.628 191.112 194.592 197.076 200.556 203.04 206.52 209.004 212.484 214.968 218.448 220.932 224.412 226.896 230.376 232.86 236.34 238.824 242.304 244.788 248.268 250.752 254.232 256.716 260.196 262.68 266.16 268.644 272.124 274.608 278.088 280.572 284.052 286.536 290.016 292.5 295.98 298.464 301.944 304.428 307.908 310.392 313.872 316.356 319.836 322.32 325.8 328.284 331.764 334.248 337.728 340.212 343.692 346.176 349.656 352.14 355.62 358.104 361.584 364.068 367.548 370.032 373.512 375.996 379.476 381.96 385.44 387.924 391.404 393.888 397.368 399.852 403.332 405.816 409.296 411.78 415.26 417.744 421.224 423.708 427.188 429.672 433.152 435.636 439.116 441.6 445.08 447.564 451.044 453.528 457.008 459.492 462.972 465.456 468.936 471.42 474.9 477.384 480.864 485.1708"
                       y="0"
                       sodipodi:role="line"
                       id="tspan190">Scratch Studio . . . . . . . . . . . . . . . . . . . . . . . . . . . . . . . . . . . . . . . . . . . . . . . . . . . . . . . . . . . . . . . . . . . . . . . 18</tspan></text>
<text
                     transform="matrix(1,0,0,-1,490.14,-13.2)"
                     id="text192"><tspan
                       style="fill:#000000;fill-opacity:1;fill-rule:nonzero;stroke:none;font-family:Futura Black Narrow;font-variant:normal;font-weight:500;font-size:12;writing-mode:lr;-inkscape-font-specification:Futura-CondensedMedium"
                       x="0"
                       y="0"
                       id="tspan194"></tspan></text>
</g><g
                   id="g196"
                   transform="translate(78.92558,295.6336)"><text
                     transform="matrix(1,0,0,-1,0,-13.2)"
                     id="text198"><tspan
                       style="fill:#000000;fill-opacity:1;fill-rule:nonzero;stroke:none;font-family:Futura Black Narrow;font-variant:normal;font-weight:500;font-size:12;writing-mode:lr;-inkscape-font-specification:Futura-CondensedMedium"
                       x="0 4.5756 7.8036 10.188 12.8544 15.2388 19.938 24.8136 29.238 32.6832 38.2788 41.5188 46.1424 51.018 55.752 59.1972 61.6812 65.1264 67.6104 71.0556 73.5396 76.9848 79.4688 82.914 85.398 88.8432 91.3272 94.7724 97.2564 100.7016 103.1856 106.6308 109.1148 112.56 115.044 118.4892 120.9732 124.4184 126.9024 130.3476 132.8316 136.2768 138.7608 142.206 144.69 148.1352 150.6192 154.0644 156.5484 159.9936 162.4776 165.9228 168.4068 171.852 174.336 177.7812 180.2652 183.7104 186.1944 189.6396 192.1236 195.5688 198.0528 201.498 203.982 207.4272 209.9112 213.3564 215.8404 219.2856 221.7696 225.2148 227.6988 231.144 233.628 237.0732 239.5572 243.0024 245.4864 248.9316 251.4156 254.8608 257.3448 260.79 263.274 266.7192 269.2032 272.6484 275.1324 278.5776 281.0616 284.5068 286.9908 290.436 292.92 296.3652 298.8492 302.2944 304.7784 308.2236 310.7076 314.1528 316.6368 320.082 322.566 326.0112 328.4952 331.9404 334.4244 337.8696 340.3536 343.7988 346.2828 349.728 352.212 355.6572 358.1412 361.5864 364.0704 367.5156 369.9996 373.4448 375.9288 379.374 381.858 385.3032 387.7872 391.2324 393.7164 397.1616 399.6456 403.0908 405.5748 409.02 411.504 414.9492 417.4332 420.8784 423.3624 426.8076 429.2916 432.7368 435.2208 438.666 441.15 444.5952 447.0792 450.5244 453.0084 456.4536 458.9376 462.3828 464.8668 468.312 470.796 474.2412 476.7252 480.1704 485.1396"
                       y="0"
                       sodipodi:role="line"
                       id="tspan200">Critique Group . . . . . . . . . . . . . . . . . . . . . . . . . . . . . . . . . . . . . . . . . . . . . . . . . . . . . . . . . . . . . . . . . . . . . . . 20</tspan></text>
</g><g
                   id="g202"
                   transform="translate(78.92558,295.6336)"><text
                     transform="matrix(1,0,0,-1,490.1248,-13.2)"
                     id="text204"><tspan
                       style="fill:#000000;fill-opacity:1;fill-rule:nonzero;stroke:none;font-family:Futura Black Narrow;font-variant:normal;font-weight:500;font-size:7;writing-mode:lr;-inkscape-font-specification:Futura-CondensedMedium"
                       x="0"
                       y="0"
                       id="tspan206"></tspan></text>
</g><g
                   id="g208"
                   transform="translate(42.92559,279.6336)"><text
                     transform="matrix(1,0,0,-1,263.0625,-13.2)"
                     id="text210"><tspan
                       style="fill:#000000;fill-opacity:1;fill-rule:nonzero;stroke:none;font-family:Futura Black Narrow;font-variant:normal;font-weight:800;font-size:12;writing-mode:lr;-inkscape-font-specification:Futura-CondensedExtraBold"
                       x="0"
                       y="0"
                       id="tspan212"></tspan></text>
</g><g
                   id="g214"
                   transform="translate(42.92559,263.6336)"><text
                     transform="matrix(1,0,0,-1,0,-13.2)"
                     id="text216"><tspan
                       style="fill:#000000;fill-opacity:1;fill-rule:nonzero;stroke:none;font-family:Futura Black Narrow;font-variant:normal;font-weight:800;font-size:12;writing-mode:lr;-inkscape-font-specification:Futura-CondensedExtraBold"
                       x="0 7.4004 15.0408 18.7452 23.9376 28.434 35.6544 40.1508 47.3712 51.8676 57.456 64.4724 71.3328 76.2972 83.9856 91.23 94.9344 102.6708 110.2752 114.7716 118.38 122.8764 126.4848 130.9812 134.5896 139.086 142.6944 147.1908 150.7992 155.2956 158.904 163.4004 167.0088 171.5052 175.1136 179.61 183.2184 187.7148 191.3232 195.8196 199.428 203.9244 207.5328 212.0292 215.6376 220.134 223.7424 228.2388 231.8472 236.3436 239.952 244.4484 248.0568 252.5532 256.1616 260.658 264.2664 268.7628 272.3712 276.8676 280.476 284.9724 288.5808 293.0772 296.6856 301.182 304.7904 309.2868 312.8952 317.3916 321 325.4964 329.1048 333.6012 337.2096 341.706 345.3144 349.8108 353.4192 357.9156 361.524 366.0204 369.6288 374.1252 377.7336 382.23 385.8384 390.3348 393.9432 398.4396 402.048 406.5444 410.1528 414.6492 418.2576 422.754 426.3624 430.8588 434.4672 438.9636 442.572 447.0684 450.6768 455.1732 458.7816 463.278 466.8864 471.3828 474.9912 479.4876 483.096 487.5924 491.2008 495.6972 499.3056 503.802 507.4104 511.9068 519.1272"
                       y="0"
                       sodipodi:role="line"
                       id="tspan218">UNIT 1 – EXPLORING . . . . . . . . . . . . . . . . . . . . . . . . . . . . . . . . . . . . . . . . . . . . . . . . . 23</tspan></text>
<text
                     transform="matrix(1,0,0,-1,526.3476,-13.2)"
                     id="text220"><tspan
                       style="fill:#000000;fill-opacity:1;fill-rule:nonzero;stroke:none;font-family:Futura Black Narrow;font-variant:normal;font-weight:800;font-size:12;writing-mode:lr;-inkscape-font-specification:Futura-CondensedExtraBold"
                       x="0"
                       y="0"
                       id="tspan222"></tspan></text>
</g><g
                   id="g224"
                   transform="translate(78.92558,248.6337)"><text
                     transform="matrix(1,0,0,-1,0,-13.2)"
                     id="text226"><tspan
                       style="fill:#000000;fill-opacity:1;fill-rule:nonzero;stroke:none;font-family:Futura Black Narrow;font-variant:normal;font-weight:500;font-size:12;writing-mode:lr;-inkscape-font-specification:Futura-CondensedMedium"
                       x="0 4.758 7.998 12.6216 17.3388 20.6136 25.3476 32.6772 40.0068 44.4312 49.1652 52.1964 54.8388 59.4624 62.4936 68.0772 72.8112 77.6688 81.096 85.5204 88.5516 91.0356 94.0668 96.5508 99.582 102.066 105.0972 107.5812 110.6124 113.0964 116.1276 118.6116 121.6428 124.1268 127.158 129.642 132.6732 135.1572 138.1884 140.6724 143.7036 146.1876 149.2188 151.7028 154.734 157.218 160.2492 162.7332 165.7644 168.2484 171.2796 173.7636 176.7948 179.2788 182.31 184.794 187.8252 190.3092 193.3404 195.8244 198.8556 201.3396 204.3708 206.8548 209.886 212.37 215.4012 217.8852 220.9164 223.4004 226.4316 228.9156 231.9468 234.4308 237.462 239.946 242.9772 245.4612 248.4924 250.9764 254.0076 256.4916 259.5228 262.0068 265.038 267.522 270.5532 273.0372 276.0684 278.5524 281.5836 284.0676 287.0988 289.5828 292.614 295.098 298.1292 300.6132 303.6444 306.1284 309.1596 311.6436 314.6748 317.1588 320.19 322.674 325.7052 328.1892 331.2204 333.7044 336.7356 339.2196 342.2508 344.7348 347.766 350.25 353.2812 355.7652 358.7964 361.2804 364.3116 366.7956 369.8268 372.3108 375.342 377.826 380.8572 383.3412 386.3724 388.8564 391.8876 394.3716 397.4028 399.8868 402.918 405.402 408.4332 410.9172 413.9484 416.4324 419.4636 421.9476 424.9788 427.4628 430.494 432.978 436.0092 438.4932 441.5244 444.0084 447.0396 449.5236 452.5548 455.0388 458.07 460.554 463.5852 466.0692 469.1004 471.5844 474.6156 477.0996 480.1308 485.1"
                       y="0"
                       sodipodi:role="line"
                       id="tspan228">Programmed to Dance . . . . . . . . . . . . . . . . . . . . . . . . . . . . . . . . . . . . . . . . . . . . . . . . . . . . . . . . . . . . . . . . . . . . . . . 26</tspan></text>
<text
                     transform="matrix(1,0,0,-1,490.0692,-13.2)"
                     id="text230"><tspan
                       style="fill:#000000;fill-opacity:1;fill-rule:nonzero;stroke:none;font-family:Futura Black Narrow;font-variant:normal;font-weight:500;font-size:12;writing-mode:lr;-inkscape-font-specification:Futura-CondensedMedium"
                       x="0"
                       y="0"
                       id="tspan232"></tspan></text>
</g><g
                   id="g234"
                   transform="translate(78.92558,232.6337)"><text
                     transform="matrix(1,0,0,-1,0,-13.2)"
                     id="text236"><tspan
                       style="fill:#000000;fill-opacity:1;fill-rule:nonzero;stroke:none;font-family:Futura Black Narrow;font-variant:normal;font-weight:500;font-size:12;writing-mode:lr;-inkscape-font-specification:Futura-CondensedMedium"
                       x="0 4.3824 7.0368 11.4612 16.1952 18.3276 23.2668 27.8952 30.0276 34.41 37.0644 41.4888 46.2228 49.8 52.284 55.8612 58.3452 61.9224 64.4064 67.9836 70.4676 74.0448 76.5288 80.106 82.59 86.1672 88.6512 92.2284 94.7124 98.2896 100.7736 104.3508 106.8348 110.412 112.896 116.4732 118.9572 122.5344 125.0184 128.5956 131.0796 134.6568 137.1408 140.718 143.202 146.7792 149.2632 152.8404 155.3244 158.9016 161.3856 164.9628 167.4468 171.024 173.508 177.0852 179.5692 183.1464 185.6304 189.2076 191.6916 195.2688 197.7528 201.33 203.814 207.3912 209.8752 213.4524 215.9364 219.5136 221.9976 225.5748 228.0588 231.636 234.12 237.6972 240.1812 243.7584 246.2424 249.8196 252.3036 255.8808 258.3648 261.942 264.426 268.0032 270.4872 274.0644 276.5484 280.1256 282.6096 286.1868 288.6708 292.248 294.732 298.3092 300.7932 304.3704 306.8544 310.4316 312.9156 316.4928 318.9768 322.554 325.038 328.6152 331.0992 334.6764 337.1604 340.7376 343.2216 346.7988 349.2828 352.86 355.344 358.9212 361.4052 364.9824 367.4664 371.0436 373.5276 377.1048 379.5888 383.166 385.65 389.2272 391.7112 395.2884 397.7724 401.3496 403.8336 407.4108 409.8948 413.472 415.956 419.5332 422.0172 425.5944 428.0784 431.6556 434.1396 437.7168 440.2008 443.778 446.262 449.8392 452.3232 455.9004 458.3844 461.9616 464.4456 468.0228 470.5068 474.084 476.568 480.1452 485.1144"
                       y="0"
                       sodipodi:role="line"
                       id="tspan238">Step-By-Step . . . . . . . . . . . . . . . . . . . . . . . . . . . . . . . . . . . . . . . . . . . . . . . . . . . . . . . . . . . . . . . . . . . . . . . 28</tspan></text>
<text
                     transform="matrix(1,0,0,-1,490.0836,-13.2)"
                     id="text240"><tspan
                       style="fill:#000000;fill-opacity:1;fill-rule:nonzero;stroke:none;font-family:Futura Black Narrow;font-variant:normal;font-weight:500;font-size:12;writing-mode:lr;-inkscape-font-specification:Futura-CondensedMedium"
                       x="0"
                       y="0"
                       id="tspan242"></tspan></text>
</g><g
                   id="g244"
                   transform="translate(78.92558,216.6337)"><text
                     transform="matrix(1,0,0,-1,0,-13.2)"
                     id="text246"><tspan
                       style="fill:#000000;fill-opacity:1;fill-rule:nonzero;stroke:none;font-family:Futura Black Narrow;font-variant:normal;font-weight:500;font-size:12;writing-mode:lr;-inkscape-font-specification:Futura-CondensedMedium"
                       x="0 4.3596 9.3288 13.0392 17.9784 20.3688 24.9924 28.35 33.1368 36.6636 40.374 42.858 46.5684 49.0524 52.7628 55.2468 58.9572 61.4412 65.1516 67.6356 71.346 73.83 77.5404 80.0244 83.7348 86.2188 89.9292 92.4132 96.1236 98.6076 102.318 104.802 108.5124 110.9964 114.7068 117.1908 120.9012 123.3852 127.0956 129.5796 133.29 135.774 139.4844 141.9684 145.6788 148.1628 151.8732 154.3572 158.0676 160.5516 164.262 166.746 170.4564 172.9404 176.6508 179.1348 182.8452 185.3292 189.0396 191.5236 195.234 197.718 201.4284 203.9124 207.6228 210.1068 213.8172 216.3012 220.0116 222.4956 226.206 228.69 232.4004 234.8844 238.5948 241.0788 244.7892 247.2732 250.9836 253.4676 257.178 259.662 263.3724 265.8564 269.5668 272.0508 275.7612 278.2452 281.9556 284.4396 288.15 290.634 294.3444 296.8284 300.5388 303.0228 306.7332 309.2172 312.9276 315.4116 319.122 321.606 325.3164 327.8004 331.5108 333.9948 337.7052 340.1892 343.8996 346.3836 350.094 352.578 356.2884 358.7724 362.4828 364.9668 368.6772 371.1612 374.8716 377.3556 381.066 383.55 387.2604 389.7444 393.4548 395.9388 399.6492 402.1332 405.8436 408.3276 412.038 414.522 418.2324 420.7164 424.4268 426.9108 430.6212 433.1052 436.8156 439.2996 443.01 445.494 449.2044 451.6884 455.3988 457.8828 461.5932 464.0772 467.7876 470.2716 473.982 476.466 480.1764 485.1456"
                       y="0"
                       sodipodi:role="line"
                       id="tspan248">10 Blocks . . . . . . . . . . . . . . . . . . . . . . . . . . . . . . . . . . . . . . . . . . . . . . . . . . . . . . . . . . . . . . . . . . . . . . . 30</tspan></text>
<text
                     transform="matrix(1,0,0,-1,490.1148,-13.2)"
                     id="text250"><tspan
                       style="fill:#000000;fill-opacity:1;fill-rule:nonzero;stroke:none;font-family:Futura Black Narrow;font-variant:normal;font-weight:500;font-size:12;writing-mode:lr;-inkscape-font-specification:Futura-CondensedMedium"
                       x="0"
                       y="0"
                       id="tspan252"></tspan></text>
</g><g
                   id="g254"
                   transform="translate(78.92558,200.6336)"><text
                     transform="matrix(1,0,0,-1,0,-13.2)"
                     id="text256"><tspan
                       style="fill:#000000;fill-opacity:1;fill-rule:nonzero;stroke:none;font-family:Futura Black Narrow;font-variant:normal;font-weight:500;font-size:12;writing-mode:lr;-inkscape-font-specification:Futura-CondensedMedium"
                       x="0 6.8436 11.268 14.9508 19.3332 21.9996 26.8752 31.6092 33.9936 38.6172 42.3 44.784 48.4668 50.9508 54.6336 57.1176 60.8004 63.2844 66.9672 69.4512 73.134 75.618 79.3008 81.7848 85.4676 87.9516 91.6344 94.1184 97.8012 100.2852 103.968 106.452 110.1348 112.6188 116.3016 118.7856 122.4684 124.9524 128.6352 131.1192 134.802 137.286 140.9688 143.4528 147.1356 149.6196 153.3024 155.7864 159.4692 161.9532 165.636 168.12 171.8028 174.2868 177.9696 180.4536 184.1364 186.6204 190.3032 192.7872 196.47 198.954 202.6368 205.1208 208.8036 211.2876 214.9704 217.4544 221.1372 223.6212 227.304 229.788 233.4708 235.9548 239.6376 242.1216 245.8044 248.2884 251.9712 254.4552 258.138 260.622 264.3048 266.7888 270.4716 272.9556 276.6384 279.1224 282.8052 285.2892 288.972 291.456 295.1388 297.6228 301.3056 303.7896 307.4724 309.9564 313.6392 316.1232 319.806 322.29 325.9728 328.4568 332.1396 334.6236 338.3064 340.7904 344.4732 346.9572 350.64 353.124 356.8068 359.2908 362.9736 365.4576 369.1404 371.6244 375.3072 377.7912 381.474 383.958 387.6408 390.1248 393.8076 396.2916 399.9744 402.4584 406.1412 408.6252 412.308 414.792 418.4748 420.9588 424.6416 427.1256 430.8084 433.2924 436.9752 439.4592 443.142 445.626 449.3088 451.7928 455.4756 457.9596 461.6424 464.1264 467.8092 470.2932 473.976 476.46 480.1428 485.112"
                       y="0"
                       sodipodi:role="line"
                       id="tspan258">My Studio . . . . . . . . . . . . . . . . . . . . . . . . . . . . . . . . . . . . . . . . . . . . . . . . . . . . . . . . . . . . . . . . . . . . . . . 32</tspan></text>
<text
                     transform="matrix(1,0,0,-1,490.0812,-13.2)"
                     id="text260"><tspan
                       style="fill:#000000;fill-opacity:1;fill-rule:nonzero;stroke:none;font-family:Futura Black Narrow;font-variant:normal;font-weight:500;font-size:12;writing-mode:lr;-inkscape-font-specification:Futura-CondensedMedium"
                       x="0"
                       y="0"
                       id="tspan262"></tspan></text>
</g><g
                   id="g264"
                   transform="translate(78.92558,184.6337)"><text
                     transform="matrix(1,0,0,-1,0,-13.2)"
                     id="text266"><tspan
                       style="fill:#000000;fill-opacity:1;fill-rule:nonzero;stroke:none;font-family:Futura Black Narrow;font-variant:normal;font-weight:500;font-size:12;writing-mode:lr;-inkscape-font-specification:Futura-CondensedMedium"
                       x="0 5.5836 10.008 14.742 19.6176 24.3576 27.6708 30.2844 32.9508 36.2964 39.6096 42.0936 45.4068 47.8908 51.204 53.688 57.0012 59.4852 62.7984 65.2824 68.5956 71.0796 74.3928 76.8768 80.19 82.674 85.9872 88.4712 91.7844 94.2684 97.5816 100.0656 103.3788 105.8628 109.176 111.66 114.9732 117.4572 120.7704 123.2544 126.5676 129.0516 132.3648 134.8488 138.162 140.646 143.9592 146.4432 149.7564 152.2404 155.5536 158.0376 161.3508 163.8348 167.148 169.632 172.9452 175.4292 178.7424 181.2264 184.5396 187.0236 190.3368 192.8208 196.134 198.618 201.9312 204.4152 207.7284 210.2124 213.5256 216.0096 219.3228 221.8068 225.12 227.604 230.9172 233.4012 236.7144 239.1984 242.5116 244.9956 248.3088 250.7928 254.106 256.59 259.9032 262.3872 265.7004 268.1844 271.4976 273.9816 277.2948 279.7788 283.092 285.576 288.8892 291.3732 294.6864 297.1704 300.4836 302.9676 306.2808 308.7648 312.078 314.562 317.8752 320.3592 323.6724 326.1564 329.4696 331.9536 335.2668 337.7508 341.064 343.548 346.8612 349.3452 352.6584 355.1424 358.4556 360.9396 364.2528 366.7368 370.05 372.534 375.8472 378.3312 381.6444 384.1284 387.4416 389.9256 393.2388 395.7228 399.036 401.52 404.8332 407.3172 410.6304 413.1144 416.4276 418.9116 422.2248 424.7088 428.022 430.506 433.8192 436.3032 439.6164 442.1004 445.4136 447.8976 451.2108 453.6948 457.008 459.492 462.8052 465.2892 468.6024 471.0864 474.3996 476.8836 480.1968 485.166"
                       y="0"
                       sodipodi:role="line"
                       id="tspan268">Debug It! . . . . . . . . . . . . . . . . . . . . . . . . . . . . . . . . . . . . . . . . . . . . . . . . . . . . . . . . . . . . . . . . . . . . . . . . . . . . 34</tspan></text>
</g><g
                   id="g270"
                   transform="translate(78.92558,184.6337)"><text
                     transform="matrix(1,0,0,-1,490.1241,-13.2)"
                     id="text272"><tspan
                       style="fill:#000000;fill-opacity:1;fill-rule:nonzero;stroke:none;font-family:Futura Black Narrow;font-variant:normal;font-weight:800;font-size:7;writing-mode:lr;-inkscape-font-specification:Futura-CondensedExtraBold"
                       x="0"
                       y="0"
                       id="tspan274"></tspan></text>
</g><g
                   id="g276"
                   transform="translate(78.92558,168.6337)"><text
                     transform="matrix(1,0,0,-1,0,-13.2)"
                     id="text278"><tspan
                       style="fill:#000000;fill-opacity:1;fill-rule:nonzero;stroke:none;font-family:Futura Black Narrow;font-variant:normal;font-weight:500;font-size:12;writing-mode:lr;-inkscape-font-specification:Futura-CondensedMedium"
                       x="0 5.0268 9.7608 14.3844 19.26 21.9264 25.6332 32.4768 36.9012 40.608 43.092 46.7988 49.2828 52.9896 55.4736 59.1804 61.6644 65.3712 67.8552 71.562 74.046 77.7528 80.2368 83.9436 86.4276 90.1344 92.6184 96.3252 98.8092 102.516 105 108.7068 111.1908 114.8976 117.3816 121.0884 123.5724 127.2792 129.7632 133.47 135.954 139.6608 142.1448 145.8516 148.3356 152.0424 154.5264 158.2332 160.7172 164.424 166.908 170.6148 173.0988 176.8056 179.2896 182.9964 185.4804 189.1872 191.6712 195.378 197.862 201.5688 204.0528 207.7596 210.2436 213.9504 216.4344 220.1412 222.6252 226.332 228.816 232.5228 235.0068 238.7136 241.1976 244.9044 247.3884 251.0952 253.5792 257.286 259.77 263.4768 265.9608 269.6676 272.1516 275.8584 278.3424 282.0492 284.5332 288.24 290.724 294.4308 296.9148 300.6216 303.1056 306.8124 309.2964 313.0032 315.4872 319.194 321.678 325.3848 327.8688 331.5756 334.0596 337.7664 340.2504 343.9572 346.4412 350.148 352.632 356.3388 358.8228 362.5296 365.0136 368.7204 371.2044 374.9112 377.3952 381.102 383.586 387.2928 389.7768 393.4836 395.9676 399.6744 402.1584 405.8652 408.3492 412.056 414.54 418.2468 420.7308 424.4376 426.9216 430.6284 433.1124 436.8192 439.3032 443.01 445.494 449.2008 451.6848 455.3916 457.8756 461.5824 464.0664 467.7732 470.2572 473.964 476.448 480.1548 485.124"
                       y="0"
                       sodipodi:role="line"
                       id="tspan280">About Me . . . . . . . . . . . . . . . . . . . . . . . . . . . . . . . . . . . . . . . . . . . . . . . . . . . . . . . . . . . . . . . . . . . . . . . 36</tspan></text>
</g><g
                   id="g282"
                   transform="translate(78.92558,168.6337)"><text
                     transform="matrix(1,0,0,-1,490.1248,-13.2)"
                     id="text284"><tspan
                       style="fill:#000000;fill-opacity:1;fill-rule:nonzero;stroke:none;font-family:Futura Black Narrow;font-variant:normal;font-weight:800;font-size:7;writing-mode:lr;-inkscape-font-specification:Futura-CondensedExtraBold"
                       x="0"
                       y="0"
                       id="tspan286"></tspan></text>
</g><g
                   id="g288"
                   transform="translate(42.92559,152.6337)"><text
                     transform="matrix(1,0,0,-1,263.0625,-13.2)"
                     id="text290"><tspan
                       style="fill:#000000;fill-opacity:1;fill-rule:nonzero;stroke:none;font-family:Futura Black Narrow;font-variant:normal;font-weight:800;font-size:12;writing-mode:lr;-inkscape-font-specification:Futura-CondensedExtraBold"
                       x="0"
                       y="0"
                       id="tspan292"></tspan></text>
</g><g
                   id="g294"
                   transform="translate(42.92559,137.6337)"><text
                     transform="matrix(1,0,0,-1,0,-13.2)"
                     id="text296"><tspan
                       style="fill:#000000;fill-opacity:1;fill-rule:nonzero;stroke:none;font-family:Futura Black Narrow;font-variant:normal;font-weight:800;font-size:12;writing-mode:lr;-inkscape-font-specification:Futura-CondensedExtraBold"
                       x="0 7.4004 15.0348 18.744 23.9352 27.8592 35.0784 39.0024 46.2276 50.1516 57.3768 65.0112 68.7204 79.1148 86.34 91.5312 95.2404 102.9336 110.568 116.052 119.976 123.5856 127.5096 131.1192 135.0432 138.6528 142.5768 146.1864 150.1104 153.72 157.644 161.2536 165.1776 168.7872 172.7112 176.3208 180.2448 183.8544 187.7784 191.388 195.312 198.9216 202.8456 206.4552 210.3792 213.9888 217.9128 221.5224 225.4464 229.056 232.98 236.5896 240.5136 244.1232 248.0472 251.6568 255.5808 259.1904 263.1144 266.724 270.648 274.2576 278.1816 281.7912 285.7152 289.3248 293.2488 296.8584 300.7824 304.392 308.316 311.9256 315.8496 319.4592 323.3832 326.9928 330.9168 334.5264 338.4504 342.06 345.984 349.5936 353.5176 357.1272 361.0512 364.6608 368.5848 372.1944 376.1184 379.728 383.652 387.2616 391.1856 394.7952 398.7192 402.3288 406.2528 409.8624 413.7864 417.396 421.32 424.9296 428.8536 432.4632 436.3872 439.9968 443.9208 447.5304 451.4544 455.064 458.988 462.5976 466.5216 470.1312 474.0552 477.6648 481.5888 485.1984 489.1224 492.732 496.656 500.2656 504.1896 507.7992 511.7232 518.9424"
                       y="0"
                       sodipodi:role="line"
                       id="tspan298">UNIT 2 – ANIMATIONS . . . . . . . . . . . . . . . . . . . . . . . . . . . . . . . . . . . . . . . . . . . . . . . . . . . . 39</tspan></text>
<text
                     transform="matrix(1,0,0,-1,526.1616,-13.2)"
                     id="text300"><tspan
                       style="fill:#000000;fill-opacity:1;fill-rule:nonzero;stroke:none;font-family:Futura Black Narrow;font-variant:normal;font-weight:800;font-size:12;writing-mode:lr;-inkscape-font-specification:Futura-CondensedExtraBold"
                       x="0"
                       y="0"
                       id="tspan302"></tspan></text>
</g><g
                   id="g304"
                   transform="translate(78.92558,121.6336)"><text
                     transform="matrix(1,0,0,-1,0,-13.2)"
                     id="text306"><tspan
                       style="fill:#000000;fill-opacity:1;fill-rule:nonzero;stroke:none;font-family:Futura Black Narrow;font-variant:normal;font-weight:500;font-size:12;writing-mode:lr;-inkscape-font-specification:Futura-CondensedMedium"
                       x="0 4.6404 9.0648 12.498 15.4512 20.0748 23.3028 30.6324 33.0168 37.8744 42.6144 45.8568 50.3328 53.76 56.988 59.3724 64.1184 66.7848 70.3116 73.554 76.038 79.2804 81.7644 85.0068 87.4908 90.7332 93.2172 96.4596 98.9436 102.186 104.67 107.9124 110.3964 113.6388 116.1228 119.3652 121.8492 125.0916 127.5756 130.818 133.302 136.5444 139.0284 142.2708 144.7548 147.9972 150.4812 153.7236 156.2076 159.45 161.934 165.1764 167.6604 170.9028 173.3868 176.6292 179.1132 182.3556 184.8396 188.082 190.566 193.8084 196.2924 199.5348 202.0188 205.2612 207.7452 210.9876 213.4716 216.714 219.198 222.4404 224.9244 228.1668 230.6508 233.8932 236.3772 239.6196 242.1036 245.346 247.83 251.0724 253.5564 256.7988 259.2828 262.5252 265.0092 268.2516 270.7356 273.978 276.462 279.7044 282.1884 285.4308 287.9148 291.1572 293.6412 296.8836 299.3676 302.61 305.094 308.3364 310.8204 314.0628 316.5468 319.7892 322.2732 325.5156 327.9996 331.242 333.726 336.9684 339.4524 342.6948 345.1788 348.4212 350.9052 354.1476 356.6316 359.874 362.358 365.6004 368.0844 371.3268 373.8108 377.0532 379.5372 382.7796 385.2636 388.506 390.99 394.2324 396.7164 399.9588 402.4428 405.6852 408.1692 411.4116 413.8956 417.138 419.622 422.8644 425.3484 428.5908 431.0748 434.3172 436.8012 440.0436 442.5276 445.77 448.254 451.4964 453.9804 457.2228 459.7068 462.9492 465.4332 468.6756 471.1596 474.402 476.886 480.1284 485.0976"
                       y="0"
                       sodipodi:role="line"
                       id="tspan308">Performing Scripts . . . . . . . . . . . . . . . . . . . . . . . . . . . . . . . . . . . . . . . . . . . . . . . . . . . . . . . . . . . . . . . . . . . . . . . 42</tspan></text>
<text
                     transform="matrix(1,0,0,-1,490.0668,-13.2)"
                     id="text310"><tspan
                       style="fill:#000000;fill-opacity:1;fill-rule:nonzero;stroke:none;font-family:Futura Black Narrow;font-variant:normal;font-weight:500;font-size:12;writing-mode:lr;-inkscape-font-specification:Futura-CondensedMedium"
                       x="0"
                       y="0"
                       id="tspan312"></tspan></text>
</g><g
                   id="g314"
                   transform="translate(78.92558,105.6336)"><text
                     transform="matrix(1,0,0,-1,0,-13.2)"
                     id="text316"><tspan
                       style="fill:#000000;fill-opacity:1;fill-rule:nonzero;stroke:none;font-family:Futura Black Narrow;font-variant:normal;font-weight:500;font-size:12;writing-mode:lr;-inkscape-font-specification:Futura-CondensedMedium"
                       x="0 4.9392 9.8148 12.1992 14.5896 19.3236 21.8016 27.0396 29.172 34.1112 38.8452 43.7028 48.4368 51.9828 54.4668 58.0128 60.4968 64.0428 66.5268 70.0728 72.5568 76.1028 78.5868 82.1328 84.6168 88.1628 90.6468 94.1928 96.6768 100.2228 102.7068 106.2528 108.7368 112.2828 114.7668 118.3128 120.7968 124.3428 126.8268 130.3728 132.8568 136.4028 138.8868 142.4328 144.9168 148.4628 150.9468 154.4928 156.9768 160.5228 163.0068 166.5528 169.0368 172.5828 175.0668 178.6128 181.0968 184.6428 187.1268 190.6728 193.1568 196.7028 199.1868 202.7328 205.2168 208.7628 211.2468 214.7928 217.2768 220.8228 223.3068 226.8528 229.3368 232.8828 235.3668 238.9128 241.3968 244.9428 247.4268 250.9728 253.4568 257.0028 259.4868 263.0328 265.5168 269.0628 271.5468 275.0928 277.5768 281.1228 283.6068 287.1528 289.6368 293.1828 295.6668 299.2128 301.6968 305.2428 307.7268 311.2728 313.7568 317.3028 319.7868 323.3328 325.8168 329.3628 331.8468 335.3928 337.8768 341.4228 343.9068 347.4528 349.9368 353.4828 355.9668 359.5128 361.9968 365.5428 368.0268 371.5728 374.0568 377.6028 380.0868 383.6328 386.1168 389.6628 392.1468 395.6928 398.1768 401.7228 404.2068 407.7528 410.2368 413.7828 416.2668 419.8128 422.2968 425.8428 428.3268 431.8728 434.3568 437.9028 440.3868 443.9328 446.4168 449.9628 452.4468 455.9928 458.4768 462.0228 464.5068 468.0528 470.5368 474.0828 476.5668 480.1128 485.1168"
                       y="0"
                       sodipodi:role="line"
                       id="tspan318">Build-A-Band . . . . . . . . . . . . . . . . . . . . . . . . . . . . . . . . . . . . . . . . . . . . . . . . . . . . . . . . . . . . . . . . . . . . . . . 44</tspan></text>
<text
                     transform="matrix(1,0,0,-1,490.086,-13.2)"
                     id="text320"><tspan
                       style="fill:#000000;fill-opacity:1;fill-rule:nonzero;stroke:none;font-family:Futura Black Narrow;font-variant:normal;font-weight:500;font-size:12;writing-mode:lr;-inkscape-font-specification:Futura-CondensedMedium"
                       x="0"
                       y="0"
                       id="tspan322"></tspan></text>
</g><g
                   id="g324"
                   transform="translate(78.92558,89.63363)"><text
                     transform="matrix(1,0,0,-1,0,-13.2)"
                     id="text326"><tspan
                       style="fill:#000000;fill-opacity:1;fill-rule:nonzero;stroke:none;font-family:Futura Black Narrow;font-variant:normal;font-weight:500;font-size:12;writing-mode:lr;-inkscape-font-specification:Futura-CondensedMedium"
                       x="0 5.736 9.0108 13.7448 18.6024 23.3424 27.7668 30.4632 34.9392 39.6384 44.514 49.248 52.488 56.9124 59.3964 62.0928 66.8508 71.7264 74.9544 79.6884 82.0788 86.5032 89.1996 93.7752 96.1596 99.3996 102.8268 105.2172 109.6416 112.338 114.822 117.5184 120.0024 122.6988 125.1828 127.8792 130.3632 133.0596 135.5436 138.24 140.724 143.4204 145.9044 148.6008 151.0848 153.7812 156.2652 158.9616 161.4456 164.142 166.626 169.3224 171.8064 174.5028 176.9868 179.6832 182.1672 184.8636 187.3476 190.044 192.528 195.2244 197.7084 200.4048 202.8888 205.5852 208.0692 210.7656 213.2496 215.946 218.43 221.1264 223.6104 226.3068 228.7908 231.4872 233.9712 236.6676 239.1516 241.848 244.332 247.0284 249.5124 252.2088 254.6928 257.3892 259.8732 262.5696 265.0536 267.75 270.234 272.9304 275.4144 278.1108 280.5948 283.2912 285.7752 288.4716 290.9556 293.652 296.136 298.8324 301.3164 304.0128 306.4968 309.1932 311.6772 314.3736 316.8576 319.554 322.038 324.7344 327.2184 329.9148 332.3988 335.0952 337.5792 340.2756 342.7596 345.456 347.94 350.6364 353.1204 355.8168 358.3008 360.9972 363.4812 366.1776 368.6616 371.358 373.842 376.5384 379.0224 381.7188 384.2028 386.8992 389.3832 392.0796 394.5636 397.26 399.744 402.4404 404.9244 407.6208 410.1048 412.8012 415.2852 417.9816 420.4656 423.162 425.646 428.3424 430.8264 433.5228 436.0068 438.7032 441.1872 443.8836 446.3676 449.064 451.548 454.2444 456.7284 459.4248 461.9088 464.6052 467.0892 469.7856 472.2696 474.966 477.45 480.1464 485.1156"
                       y="0"
                       sodipodi:role="line"
                       id="tspan328">Orange Square, Purple Circle . . . . . . . . . . . . . . . . . . . . . . . . . . . . . . . . . . . . . . . . . . . . . . . . . . . . . . . . . . . . . . . . . . . . . . . 46</tspan></text>
<text
                     transform="matrix(1,0,0,-1,490.0848,-13.2)"
                     id="text330"><tspan
                       style="fill:#000000;fill-opacity:1;fill-rule:nonzero;stroke:none;font-family:Futura Black Narrow;font-variant:normal;font-weight:500;font-size:12;writing-mode:lr;-inkscape-font-specification:Futura-CondensedMedium"
                       x="0"
                       y="0"
                       id="tspan332"></tspan></text>
</g><g
                   id="g334"
                   transform="translate(78.92558,73.6337)"><text
                     transform="matrix(1,0,0,-1,0,-13.2)"
                     id="text336"><tspan
                       style="fill:#000000;fill-opacity:1;fill-rule:nonzero;stroke:none;font-family:Futura Black Narrow;font-variant:normal;font-weight:500;font-size:12;writing-mode:lr;-inkscape-font-specification:Futura-CondensedMedium"
                       x="0 2.6136 5.3964 7.9512 11.478 15.1884 20.0808 22.4712 24.8556 28.8576 33.282 36.6276 40.338 42.822 46.5324 49.0164 52.7268 55.2108 58.9212 61.4052 65.1156 67.5996 71.31 73.794 77.5044 79.9884 83.6988 86.1828 89.8932 92.3772 96.0876 98.5716 102.282 104.766 108.4764 110.9604 114.6708 117.1548 120.8652 123.3492 127.0596 129.5436 133.254 135.738 139.4484 141.9324 145.6428 148.1268 151.8372 154.3212 158.0316 160.5156 164.226 166.71 170.4204 172.9044 176.6148 179.0988 182.8092 185.2932 189.0036 191.4876 195.198 197.682 201.3924 203.8764 207.5868 210.0708 213.7812 216.2652 219.9756 222.4596 226.17 228.654 232.3644 234.8484 238.5588 241.0428 244.7532 247.2372 250.9476 253.4316 257.142 259.626 263.3364 265.8204 269.5308 272.0148 275.7252 278.2092 281.9196 284.4036 288.114 290.598 294.3084 296.7924 300.5028 302.9868 306.6972 309.1812 312.8916 315.3756 319.086 321.57 325.2804 327.7644 331.4748 333.9588 337.6692 340.1532 343.8636 346.3476 350.058 352.542 356.2524 358.7364 362.4468 364.9308 368.6412 371.1252 374.8356 377.3196 381.03 383.514 387.2244 389.7084 393.4188 395.9028 399.6132 402.0972 405.8076 408.2916 412.002 414.486 418.1964 420.6804 424.3908 426.8748 430.5852 433.0692 436.7796 439.2636 442.974 445.458 449.1684 451.6524 455.3628 457.8468 461.5572 464.0412 467.7516 470.2356 473.946 476.43 480.1404 485.1096"
                       y="0"
                       sodipodi:role="line"
                       id="tspan338">It’s Alive! . . . . . . . . . . . . . . . . . . . . . . . . . . . . . . . . . . . . . . . . . . . . . . . . . . . . . . . . . . . . . . . . . . . . . . . 48</tspan></text>
<text
                     transform="matrix(1,0,0,-1,490.0788,-13.2)"
                     id="text340"><tspan
                       style="fill:#000000;fill-opacity:1;fill-rule:nonzero;stroke:none;font-family:Futura Black Narrow;font-variant:normal;font-weight:500;font-size:12;writing-mode:lr;-inkscape-font-specification:Futura-CondensedMedium"
                       x="0"
                       y="0"
                       id="tspan342"></tspan></text>
</g><g
                   id="g344"
                   transform="translate(78.92558,57.63369)"><text
                     transform="matrix(1,0,0,-1,0,-13.2)"
                     id="text346"><tspan
                       style="fill:#000000;fill-opacity:1;fill-rule:nonzero;stroke:none;font-family:Futura Black Narrow;font-variant:normal;font-weight:500;font-size:12;writing-mode:lr;-inkscape-font-specification:Futura-CondensedMedium"
                       x="0 5.5836 10.008 14.742 19.6176 24.3576 27.6708 30.2844 32.9508 36.2964 39.6096 42.0936 45.4068 47.8908 51.204 53.688 57.0012 59.4852 62.7984 65.2824 68.5956 71.0796 74.3928 76.8768 80.19 82.674 85.9872 88.4712 91.7844 94.2684 97.5816 100.0656 103.3788 105.8628 109.176 111.66 114.9732 117.4572 120.7704 123.2544 126.5676 129.0516 132.3648 134.8488 138.162 140.646 143.9592 146.4432 149.7564 152.2404 155.5536 158.0376 161.3508 163.8348 167.148 169.632 172.9452 175.4292 178.7424 181.2264 184.5396 187.0236 190.3368 192.8208 196.134 198.618 201.9312 204.4152 207.7284 210.2124 213.5256 216.0096 219.3228 221.8068 225.12 227.604 230.9172 233.4012 236.7144 239.1984 242.5116 244.9956 248.3088 250.7928 254.106 256.59 259.9032 262.3872 265.7004 268.1844 271.4976 273.9816 277.2948 279.7788 283.092 285.576 288.8892 291.3732 294.6864 297.1704 300.4836 302.9676 306.2808 308.7648 312.078 314.562 317.8752 320.3592 323.6724 326.1564 329.4696 331.9536 335.2668 337.7508 341.064 343.548 346.8612 349.3452 352.6584 355.1424 358.4556 360.9396 364.2528 366.7368 370.05 372.534 375.8472 378.3312 381.6444 384.1284 387.4416 389.9256 393.2388 395.7228 399.036 401.52 404.8332 407.3172 410.6304 413.1144 416.4276 418.9116 422.2248 424.7088 428.022 430.506 433.8192 436.3032 439.6164 442.1004 445.4136 447.8976 451.2108 453.6948 457.008 459.492 462.8052 465.2892 468.6024 471.0864 474.3996 476.8836 480.1968 485.166"
                       y="0"
                       sodipodi:role="line"
                       id="tspan348">Debug It! . . . . . . . . . . . . . . . . . . . . . . . . . . . . . . . . . . . . . . . . . . . . . . . . . . . . . . . . . . . . . . . . . . . . . . . . . . . . 50</tspan></text>
</g><g
                   id="g350"
                   transform="translate(78.92558,57.63369)"><text
                     transform="matrix(1,0,0,-1,490.1241,-13.2)"
                     id="text352"><tspan
                       style="fill:#000000;fill-opacity:1;fill-rule:nonzero;stroke:none;font-family:Futura Black Narrow;font-variant:normal;font-weight:800;font-size:7;writing-mode:lr;-inkscape-font-specification:Futura-CondensedExtraBold"
                       x="0"
                       y="0"
                       id="tspan354"></tspan></text>
</g><g
                   id="g356"
                   transform="translate(78.92558,42.63364)"><text
                     transform="matrix(1,0,0,-1,0,-13.2)"
                     id="text358"><tspan
                       style="fill:#000000;fill-opacity:1;fill-rule:nonzero;stroke:none;font-family:Futura Black Narrow;font-variant:normal;font-weight:500;font-size:12;writing-mode:lr;-inkscape-font-specification:Futura-CondensedMedium"
                       x="0 6.8436 11.7192 15.246 17.6304 21.0576 24.6456 29.274 31.6584 36.3924 40.8168 45.4404 49.0284 51.5124 55.1004 57.5844 61.1724 63.6564 67.2444 69.7284 73.3164 75.8004 79.3884 81.8724 85.4604 87.9444 91.5324 94.0164 97.6044 100.0884 103.6764 106.1604 109.7484 112.2324 115.8204 118.3044 121.8924 124.3764 127.9644 130.4484 134.0364 136.5204 140.1084 142.5924 146.1804 148.6644 152.2524 154.7364 158.3244 160.8084 164.3964 166.8804 170.4684 172.9524 176.5404 179.0244 182.6124 185.0964 188.6844 191.1684 194.7564 197.2404 200.8284 203.3124 206.9004 209.3844 212.9724 215.4564 219.0444 221.5284 225.1164 227.6004 231.1884 233.6724 237.2604 239.7444 243.3324 245.8164 249.4044 251.8884 255.4764 257.9604 261.5484 264.0324 267.6204 270.1044 273.6924 276.1764 279.7644 282.2484 285.8364 288.3204 291.9084 294.3924 297.9804 300.4644 304.0524 306.5364 310.1244 312.6084 316.1964 318.6804 322.2684 324.7524 328.3404 330.8244 334.4124 336.8964 340.4844 342.9684 346.5564 349.0404 352.6284 355.1124 358.7004 361.1844 364.7724 367.2564 370.8444 373.3284 376.9164 379.4004 382.9884 385.4724 389.0604 391.5444 395.1324 397.6164 401.2044 403.6884 407.2764 409.7604 413.3484 415.8324 419.4204 421.9044 425.4924 427.9764 431.5644 434.0484 437.6364 440.1204 443.7084 446.1924 449.7804 452.2644 455.8524 458.3364 461.9244 464.4084 467.9964 470.4804 474.0684 476.5524 480.1404 485.1096"
                       y="0"
                       sodipodi:role="line"
                       id="tspan360">Music Video . . . . . . . . . . . . . . . . . . . . . . . . . . . . . . . . . . . . . . . . . . . . . . . . . . . . . . . . . . . . . . . . . . . . . . . 52</tspan></text>
<text
                     transform="matrix(1,0,0,-1,490.0788,-13.2)"
                     id="text362"><tspan
                       style="fill:#000000;fill-opacity:1;fill-rule:nonzero;stroke:none;font-family:Futura Black Narrow;font-variant:normal;font-weight:500;font-size:12;writing-mode:lr;-inkscape-font-specification:Futura-CondensedMedium"
                       x="0"
                       y="0"
                       id="tspan364"></tspan></text>
</g><g
                   id="g366"
                   transform="translate(43.19999,751.864)"><text
                     transform="matrix(1,0,0,-1,0,-53)"
                     id="text368"><tspan
                       style="fill:#000000;fill-opacity:1;fill-rule:nonzero;stroke:none;font-family:Futura Black Narrow;font-variant:normal;font-weight:500;font-size:53;writing-mode:lr;-inkscape-font-specification:Futura-CondensedMedium"
                       x="0 16.5625 38.1706 59.9854 77.5337 96.7886 107.7596 133.0936 151.6224"
                       y="0"
                       sodipodi:role="line"
                       id="tspan370">TABLE OF </tspan></text>
</g><g
                   id="g372"
                   transform="translate(43.19999,688.864)"><text
                     transform="matrix(1,0,0,-1,0,-53)"
                     id="text374"><tspan
                       style="fill:#000000;fill-opacity:1;fill-rule:nonzero;stroke:none;font-family:Futura Black Narrow;font-variant:normal;font-weight:500;font-size:53;writing-mode:lr;-inkscape-font-specification:Futura-CondensedMedium"
                       x="0 19.9015 45.2355 70.0289 87.344 106.5989 131.3923 149.8204"
                       y="0"
                       sodipodi:role="line"
                       id="tspan376">CONTENTS</tspan></text>
<text
                     transform="matrix(1,0,0,-1,169.5894,-53)"
                     id="text378"><tspan
                       style="fill:#000000;fill-opacity:1;fill-rule:nonzero;stroke:none;font-family:Futura Black Narrow;font-variant:normal;font-weight:500;font-size:53;writing-mode:lr;-inkscape-font-specification:Futura-CondensedMedium"
                       x="0"
                       y="0"
                       id="tspan380"></tspan></text>
</g></g></g></g></g></g></g></g></svg>