<?xml version="1.0" encoding="UTF-8" standalone="no"?>
<!-- Created with Inkscape (http://www.inkscape.org/) -->

<svg
   xmlns:dc="http://purl.org/dc/elements/1.1/"
   xmlns:cc="http://creativecommons.org/ns#"
   xmlns:rdf="http://www.w3.org/1999/02/22-rdf-syntax-ns#"
   xmlns:svg="http://www.w3.org/2000/svg"
   xmlns="http://www.w3.org/2000/svg"
   xmlns:sodipodi="http://sodipodi.sourceforge.net/DTD/sodipodi-0.dtd"
   xmlns:inkscape="http://www.inkscape.org/namespaces/inkscape"
   id="svg2"
   version="1.1"
   inkscape:version="0.48.5 r10040"
   width="744.095"
   height="1052.3625"
   xml:space="preserve"
   sodipodi:docname="tmp.pdf"><metadata
     id="metadata8"><rdf:RDF><cc:Work
         rdf:about=""><dc:format>image/svg+xml</dc:format><dc:type
           rdf:resource="http://purl.org/dc/dcmitype/StillImage" /><dc:title></dc:title></cc:Work></rdf:RDF></metadata><defs
     id="defs6"><clipPath
       clipPathUnits="userSpaceOnUse"
       id="clipPath20"><path
         d="M 0,0 612,0 612,792 0,792 0,0 z"
         id="path22" /></clipPath><clipPath
       clipPathUnits="userSpaceOnUse"
       id="clipPath30"><path
         d="m 0,-2.69413e-5 612,0 0,791.9998969413 -612,0 L 0,-2.69413e-5 z"
         id="path32" /></clipPath></defs><sodipodi:namedview
     pagecolor="#ffffff"
     bordercolor="#666666"
     borderopacity="1"
     objecttolerance="10"
     gridtolerance="10"
     guidetolerance="10"
     inkscape:pageopacity="0"
     inkscape:pageshadow="2"
     inkscape:window-width="640"
     inkscape:window-height="480"
     id="namedview4"
     showgrid="false"
     inkscape:zoom="0.22425732"
     inkscape:cx="372.04749"
     inkscape:cy="526.18127"
     inkscape:window-x="0"
     inkscape:window-y="31"
     inkscape:window-maximized="0"
     inkscape:current-layer="g10" /><g
     id="g10"
     inkscape:groupmode="layer"
     inkscape:label="tmp"
     transform="matrix(1.25,0,0,-1.25,-0.17375,1007.8787)"><g
       id="g12"
       transform="scale(0.97313,0.97313)"><g
         id="g14"><g
           id="g16"><g
             id="g18"
             clip-path="url(#clipPath20)"><g
               id="g24" /><g
               id="g26"><g
                 id="g28"
                 clip-path="url(#clipPath30)"><path
                   d="m 0,791.9999 611.9999,0 0,-791.9998873878 -611.9999,0 L 0,791.9999 z"
                   style="fill:#ffffff;fill-opacity:1;fill-rule:evenodd;stroke:none"
                   id="path34" /><g
                   id="g36"
                   transform="matrix(7.874014e-5,0,0,-7.874014e-5,199.4701,720.8105)"><path
                     d="m -0.04461402,0.6468544 4526266.04461402,0 0,346248.6531456 -4526266.04461402,0 0,-346248.6531456 z"
                     style="fill:none;stroke:#000000;stroke-opacity:1;stroke-width:6350;stroke-linecap:butt;stroke-linejoin:round;stroke-miterlimit:10;stroke-dasharray:25400,19050;stroke-dashoffset:0"
                     id="path38" /></g><g
                   id="g40"
                   transform="translate(206.6701,713.4787)"><text
                     transform="matrix(1,0,0,-1,1.818588,-10.5)"
                     id="text42"><tspan
                       style="fill:#000000;fill-opacity:1;fill-rule:nonzero;stroke:none;font-family:Futura Black Narrow;font-variant:normal;font-weight:500;font-size:10.5;writing-mode:lr;-inkscape-font-specification:Futura-CondensedMedium"
                       x="0 5.05995 9.3408 15.32895 19.1436 21.3171 30.0111 35.9478 41.8845 47.8212 53.7579 59.6946 65.6313 71.568 77.5047 83.4414 89.3781 95.3148 101.2515 107.1882 113.1249 119.0616 124.9983 130.935 136.8717 142.8084 148.7451 154.6818 160.6185 166.5552 172.4919 178.4286 184.3653 190.302 196.2387 202.1754 208.1121 214.0488 219.9855 225.9222 231.8589 237.7956 243.7323 249.669 255.6057 261.5424 267.4791 273.4158 279.3525 285.2892 291.2259 297.1626 303.0993 309.036 314.9727 320.9094 326.8461 332.7828"
                       y="0"
                       sodipodi:role="line"
                       id="tspan44">NAME: ____________________________________________________</tspan></text>
<text
                     transform="matrix(1,0,0,-1,340.53809,-10.5)"
                     id="text46"><tspan
                       style="fill:#000000;fill-opacity:1;fill-rule:nonzero;stroke:none;font-family:Futura Black Narrow;font-variant:normal;font-weight:500;font-size:10.5;writing-mode:lr;-inkscape-font-specification:Futura-CondensedMedium"
                       x="0"
                       y="0"
                       id="tspan48"></tspan></text>
</g><g
                   id="g50"
                   transform="translate(200.5508,680.0932)"><text
                     transform="matrix(1,0,0,-1,0,-12)"
                     id="text52"><tspan
                       style="fill:#000000;fill-opacity:1;fill-rule:nonzero;stroke:none;font-family:Futura Black Narrow;font-variant:normal;font-weight:500;font-size:12;writing-mode:lr;-inkscape-font-specification:Futura-CondensedMedium"
                       x="0 7.1136 11.9712 16.7052 19.3716 21.8892 26.6232 31.2468 33.7644 38.106 42.7296 47.6052 50.1228 54.816 59.6736 64.2144 70.302 72.8196 77.5536 82.2876 86.9112 91.7868 94.4532 96.9708 100.398 103.638 108.0624 112.7964 115.4628 117.8472 121.8492 126.2736 128.7912 132.2184 136.842 144.1488 148.8828 153.7584 156.4248 158.8092 163.6668 168.4068 170.9244 177.0828 179.6004 183.1272 186.5544 189.8292 194.5632 197.2296 200.5872 205.4448 209.904 212.4216 219.5352 224.3928 229.1268 231.7932 234.3108 239.0448 243.6684 246.186 250.5276 255.1512 260.0256 262.5432 268.572 273.306 278.1636 280.83 283.3476 285.99 290.6136 293.1312 297.8244 302.682 307.2228 313.3104 315.828 320.6856 325.0272 329.5392 332.2056 336.6648 339.1824 343.1028 347.9604 350.3448 353.8716"
                       y="0"
                       sodipodi:role="line"
                       id="tspan54">What do you know about creative computing &amp; scratch? What do you want to know next? This </tspan></text>
</g><g
                   id="g56"
                   transform="translate(200.5508,666.0932)"><text
                     transform="matrix(1,0,0,-1,0,-12)"
                     id="text58"><tspan
                       style="fill:#000000;fill-opacity:1;fill-rule:nonzero;stroke:none;font-family:Futura Black Narrow;font-variant:normal;font-weight:500;font-size:12;writing-mode:lr;-inkscape-font-specification:Futura-CondensedMedium"
                       x="0 4.734 8.1612 10.8276 13.212 17.2848 19.6692 22.3356 26.76 30.6552 33.0396 36.5664 40.4616 45.1956 50.0532 53.9484 58.572 63.306 68.04 72.6636 76.1208 78.7872 83.6628 88.5204 90.9048 93.5712 97.9956 101.8908 104.844 109.4676 112.6728 116.568 120.9096 125.5332 130.4088 134.304 136.9464 141.57 145.4652 148.8924 153.516 158.3736 161.9004 164.2848 169.0188 173.4432 176.6484 180.5436 186.6312 191.4888 193.8732 197.2308 202.0884 205.9836 210.7176 213.9576 218.382 223.116 226.6428 230.538 235.1616 238.1028 241.998 246.474 249.9012 253.176 257.91 260.5764 263.934 268.7916 272.6868 277.0284 281.652 286.5276 290.4228 293.376 297.8004 302.2248 304.6152 308.5104 311.9376 316.5612 323.8908 326.844 331.4676 334.9248 337.602 342.336 347.07 349.4604 353.8848"
                       y="0"
                       sodipodi:role="line"
                       id="tspan60">activity is an opportunity for you to consider which areas of Scratch you feel comfortable </tspan></text>
</g><g
                   id="g62"
                   transform="translate(200.5508,652.0932)"><text
                     transform="matrix(1,0,0,-1,0,-12)"
                     id="text64"><tspan
                       style="fill:#000000;fill-opacity:1;fill-rule:nonzero;stroke:none;font-family:Futura Black Narrow;font-variant:normal;font-weight:500;font-size:12;writing-mode:lr;-inkscape-font-specification:Futura-CondensedMedium"
                       x="0 4.8576 9.6624 13.7352 16.1196 20.8716 25.6056 28.272 30.6564 35.514 40.254 43.1952 46.7172 53.8308 58.6884 63.4224 66.0888 69.03 73.764 78.3876 81.3288 83.9424 86.8836 91.5768 96.4344 100.9752 107.0628 111.522 115.044 117.9852 122.7192 127.5768 132.3108 135.252 141.3396 146.1972 148.5816 151.9392 156.7968 159.738 164.472 167.712 172.1364 176.8704 180.3972 183.3384 187.68 192.3036 197.1792 200.1204 206.1264 210.75 215.6256 218.016 222.75 225.6912 228.0816 230.466 234.978 239.4024 242.3436 244.986 249.6096 252.5508 256.8924 261.4044 266.1384 268.5288 273.1524 276.3924 280.8168 283.758 286.6992 291.5748 295.032 297.6984 302.556 306.9804 310.1856 313.1268 316.6488 323.7624 328.62 333.354 336.0204 338.9616 343.6956 348.3192 351.2604 353.874"
                       y="0"
                       sodipodi:role="line"
                       id="tspan66">navigating (What do I know?) and which areas you would like to explore further (What do I </tspan></text>
</g><g
                   id="g68"
                   transform="translate(200.5508,637.0932)"><text
                     transform="matrix(1,0,0,-1,0,-12)"
                     id="text70"><tspan
                       style="fill:#000000;fill-opacity:1;fill-rule:nonzero;stroke:none;font-family:Futura Black Narrow;font-variant:normal;font-weight:500;font-size:12;writing-mode:lr;-inkscape-font-specification:Futura-CondensedMedium"
                       x="0 6.0288 10.7628 15.6204 18.2868 21.642 24.2844 28.908 32.2632 36.9564 41.814 46.3548 52.4424 56.9016 60.4236 62.9076 66.2628 71.8176 75.3444 79.7688 83.124 87.858 90.2424 93.4356 96.3888 100.8132 104.0532 108.4776 113.3352 116.0016 119.3568 122.5968 127.0212 130.548 135.1716 140.0472 143.2872 146.7144 151.1388 154.6656 158.0208 162.7548 165.9948 170.6184 175.494 180.3516 185.0856 188.4408 192.7824 197.406 202.2816 205.6368 208.2792 212.9028 216.258 218.6424 223.4412 227.4432 231.8676 235.4532 238.1196 240.504 245.256 249.99 252.6444 257.0688 260.424 266.5116 271.3692 276.1032 278.7696 282.1248 286.4664 291.09 295.9656 299.3208 305.3496 310.0836 314.9412 317.6076 320.9628 323.6052 328.2288 331.584 336.2772 341.1348 345.6756 351.3948 353.8788"
                       y="0"
                       sodipodi:role="line"
                       id="tspan72">want to know?). Use different resources around you to investigate what you want to know, </tspan></text>
</g><g
                   id="g74"
                   transform="translate(200.5508,623.0932)"><text
                     transform="matrix(1,0,0,-1,0,-12)"
                     id="text76"><tspan
                       style="fill:#000000;fill-opacity:1;fill-rule:nonzero;stroke:none;font-family:Futura Black Narrow;font-variant:normal;font-weight:500;font-size:12;writing-mode:lr;-inkscape-font-specification:Futura-CondensedMedium"
                       x="0 4.734 9.5916 14.3256 16.8096 19.476 24.3336 28.758 33.6156 36.0996 39.6264 44.484 49.218 52.458 56.8824 59.3664 63.708 68.3316 73.2072 76.4124 78.8964 83.9532 88.8108 93.5448 95.9292 100.7868 105.5268 109.0536 111.5376 115.0596 122.1732 127.0308 131.7648 134.4312 136.9152 141.6492 144.0336 148.7676 151.2516 153.8652 156.3492 158.7396 163.164 167.898 171.126 175.9836 180.4428 183.9648"
                       y="0"
                       sodipodi:role="line"
                       id="tspan78">and then share your fndings (What did I learn?).</tspan></text>
<text
                     transform="matrix(1,0,0,-1,186.4488,-12)"
                     id="text80"><tspan
                       style="fill:#000000;fill-opacity:1;fill-rule:nonzero;stroke:none;font-family:Futura Black Narrow;font-variant:normal;font-weight:500;font-size:12;writing-mode:lr;-inkscape-font-specification:Futura-CondensedMedium"
                       x="0"
                       y="0"
                       id="tspan82"></tspan></text>
</g><g
                   id="g84"
                   transform="translate(47.79401,193.4)"><text
                     transform="matrix(1,0,0,-1,0,-28)"
                     id="text86"><tspan
                       style="fill:#ffffff;fill-opacity:1;fill-rule:nonzero;stroke:none;font-family:Futura Black Narrow;font-variant:normal;font-weight:500;font-size:28;writing-mode:lr;-inkscape-font-specification:Futura-CondensedMedium"
                       x="0 9.1476 15.246 26.348 36.792 42.588 56.9576 62.7536 71.9012 83.7004 89.7988 100.4752 112.4788"
                       y="0"
                       sodipodi:role="line"
                       id="tspan88">TIPS &amp; TRICKS</tspan></text>
<text
                     transform="matrix(1,0,0,-1,122.9228,-28)"
                     id="text90"><tspan
                       style="fill:#ffffff;fill-opacity:1;fill-rule:nonzero;stroke:none;font-family:Futura Black Narrow;font-variant:normal;font-weight:500;font-size:28;writing-mode:lr;-inkscape-font-specification:Futura-CondensedMedium"
                       x="0"
                       y="0"
                       id="tspan92"></tspan></text>
</g><path
                   d="m 575.0741,600.0831 -575.07415749532,0 0,-44.7549 575.07415749532,0 0,44.7549 z"
                   style="fill:#fab566;fill-opacity:1;fill-rule:evenodd;stroke:none"
                   id="path94" /><g
                   id="g96"
                   transform="translate(43.20007,592.2034)"><text
                     transform="matrix(1,0,0,-1,0,-24)"
                     id="text98"><tspan
                       style="fill:#ffffff;fill-opacity:1;fill-rule:nonzero;stroke:none;font-family:Futura Black Narrow;font-variant:normal;font-weight:500;font-size:24;writing-mode:lr;-inkscape-font-specification:Futura-CondensedMedium"
                       x="0 14.2272 25.4664 34.8648 42.7056 47.6736 58.8408 70.3128 75.2808 80.508 85.476 95.5776 106.8288 118.3008 132.528"
                       y="0"
                       sodipodi:role="line"
                       id="tspan100">WHAT DO I KNOW?</tspan></text>
<text
                     transform="matrix(1,0,0,-1,141.4464,-24)"
                     id="text102"><tspan
                       style="fill:#ffffff;fill-opacity:1;fill-rule:nonzero;stroke:none;font-family:Futura Black Narrow;font-variant:normal;font-weight:500;font-size:24;writing-mode:lr;-inkscape-font-specification:Futura-CondensedMedium"
                       x="0"
                       y="0"
                       id="tspan104"></tspan></text>
</g><path
                   d="m 575.0742,555.3283 -19.2051,22.8894 19.2051,21.8654 0,-44.7548 z"
                   style="fill:#ffffff;fill-opacity:1;fill-rule:evenodd;stroke:none"
                   id="path106" /><g
                   id="g108"
                   transform="matrix(0,7.874014e-5,7.874014e-5,0,555.8691,555.3283)"><path
                     d="M 0.09756505,243905.2 290694.8,-0.1035272 568386.4,243905.2 0.09756505,243905.2 z"
                     style="fill:none;stroke:#ffffff;stroke-opacity:1;stroke-width:9525;stroke-linecap:butt;stroke-linejoin:round;stroke-miterlimit:10;stroke-dasharray:none"
                     id="path110" /></g><g
                   id="g112"
                   transform="translate(43.19999,548.5369)"><text
                     transform="matrix(1,0,0,-1,0,-11)"
                     id="text114"><tspan
                       style="fill:#000000;fill-opacity:1;fill-rule:nonzero;stroke:none;font-family:Futura Black Narrow;font-variant:normal;font-weight:500;font-size:11;writing-mode:lr;-inkscape-font-specification:Futura-CondensedMedium"
                       x="0 4.4792 8.5349 13.1703 17.226 20.3676 22.8118 24.9975 29.4503 33.7953 36.0723 40.3106 44.7634 47.0404 51.0202 55.2585 59.7278 62.6659 64.9429 69.2824 73.3381 76.571 78.7567 83.1017 87.5545 89.8315 93.8113 97.9473 102.2868 106.3425 109.3015 111.4872 115.5429 119.9957 123.1373 127.193 130.4259 132.7029 135.9358 140.1741 142.4511 145.2011 149.5406 152.0816 154.3586 156.6356 162.2159 165.1749 167.3606 169.7938 173.8495 176.1265 180.466 184.6284 190.2087 194.6615 196.9385 202.5188 206.9716 211.3111 213.7553 216.0323 220.0121 224.2504 228.7197 230.9967 235.2988 239.7516 243.914 249.4943 251.7713 256.1108 260.4503 264.6886 269.1579 271.6021 273.8791 277.9821 281.1237 284.1256 288.4651 290.9093 293.9871 298.4399 300.7169 305.0564 309.5092 313.8487 316.1257 319.2673 322.2373 326.293 330.6325 333.0767 335.2624 338.9309 342.9866 345.2636 348.4052 352.6435 359.3414 363.6809 368.1502 370.5944 372.7801 377.2329 381.5779"
                       y="0"
                       sodipodi:role="line"
                       id="tspan116">Refecting on your design experiences so far, write down what you know about Scratch and creative computing.</tspan></text>
<text
                     transform="matrix(1,0,0,-1,383.8549,-11)"
                     id="text118"><tspan
                       style="fill:#000000;fill-opacity:1;fill-rule:nonzero;stroke:none;font-family:Futura Black Narrow;font-variant:normal;font-weight:500;font-size:11;writing-mode:lr;-inkscape-font-specification:Futura-CondensedMedium"
                       x="0"
                       y="0"
                       id="tspan120"></tspan></text>
</g><path
                   d="m 576.0969,409.7303 -576.0970435588,0 0,-44.7548 576.0970435588,0 0,44.7548 z"
                   style="fill:#fab566;fill-opacity:1;fill-rule:evenodd;stroke:none"
                   id="path122" /><path
                   d="m 576.097,364.9755 -17.2267,22.8894 17.2267,21.8654 0,-44.7548 z"
                   style="fill:#ffffff;fill-opacity:1;fill-rule:evenodd;stroke:none"
                   id="path124" /><g
                   id="g126"
                   transform="matrix(0,7.874014e-5,7.874014e-5,0,558.8703,364.9755)"><path
                     d="M -0.00847072,218778.8 290695.1,-0.09473574 568385.9,218778.8 l -568385.90847072,0 z"
                     style="fill:none;stroke:#ffffff;stroke-opacity:1;stroke-width:9525;stroke-linecap:butt;stroke-linejoin:round;stroke-miterlimit:10;stroke-dasharray:none"
                     id="path128" /></g><g
                   id="g130"
                   transform="translate(43.20007,401.8507)"><text
                     transform="matrix(1,0,0,-1,0,-24)"
                     id="text132"><tspan
                       style="fill:#ffffff;fill-opacity:1;fill-rule:nonzero;stroke:none;font-family:Futura Black Narrow;font-variant:normal;font-weight:500;font-size:24;writing-mode:lr;-inkscape-font-specification:Futura-CondensedMedium"
                       x="0 14.2272 25.4664 34.8648 42.7056 47.6736 58.8408 70.3128 75.2808 80.508 85.476 99.2928 109.0776 120.3048 128.1456 133.1136 141.1176 152.5896 157.5576 167.6592 178.9104 190.3824 204.6096"
                       y="0"
                       sodipodi:role="line"
                       id="tspan134">WHAT DO I WANT TO KNOW?</tspan></text>
<text
                     transform="matrix(1,0,0,-1,213.528,-24)"
                     id="text136"><tspan
                       style="fill:#ffffff;fill-opacity:1;fill-rule:nonzero;stroke:none;font-family:Futura Black Narrow;font-variant:normal;font-weight:500;font-size:24;writing-mode:lr;-inkscape-font-specification:Futura-CondensedMedium"
                       x="0"
                       y="0"
                       id="tspan138"></tspan></text>
</g><g
                   id="g140"
                   transform="translate(43.19999,358.0288)"><text
                     transform="matrix(1,0,0,-1,0,-11)"
                     id="text142"><tspan
                       style="fill:#000000;fill-opacity:1;fill-rule:nonzero;stroke:none;font-family:Futura Black Narrow;font-variant:normal;font-weight:500;font-size:11;writing-mode:lr;-inkscape-font-specification:Futura-CondensedMedium"
                       x="0 4.5276 8.8671 12.1 16.1557 20.4952 22.7722 27.0105 31.4633 33.7403 37.7201 41.9584 46.4277 49.3658 51.6428 55.9823 60.038 63.1323 66.3652 70.6035 75.0563 79.3958 81.587 83.864 86.0497 90.5025 92.9357 96.9914 99.9614 104.0171 107.3039 109.7481 112.981 115.258 117.535 121.88 125.9357 130.3885 134.4442 137.4461 141.7856 144.2188 148.2745 150.5515 154.891 157.168 159.3592 161.5449 164.8317 167.2759 169.5529 173.7912 176.4873 178.7643 181.2085 185.6613 187.847 192.2998 196.6448 199.8777 202.1547 206.1345 210.3728 214.8421 217.1191 222.6455 226.985 231.4378 233.882 236.159 238.5812 242.8195 245.0965 249.7319 254.1847 258.5242 260.8012 265.0395 269.5088 271.953 274.23 280.9488 285.1871 288.1571 292.2128 294.4898 298.8293 303.1688 307.4071 311.8764 314.3206 316.5976 320.8359 323.774 326.051 330.3905 332.5762 335.8091 338.9507 343.1241 346.7926 350.8483 353.7864 356.0634 360.5162 364.496 368.632 371.0762"
                       y="0"
                       sodipodi:role="line"
                       id="tspan144">Based on your personal interests, generate a list of things you want to fnd out more about or discover next.</tspan></text>
<text
                     transform="matrix(1,0,0,-1,373.3532,-11)"
                     id="text146"><tspan
                       style="fill:#000000;fill-opacity:1;fill-rule:nonzero;stroke:none;font-family:Futura Black Narrow;font-variant:normal;font-weight:500;font-size:11;writing-mode:lr;-inkscape-font-specification:Futura-CondensedMedium"
                       x="0"
                       y="0"
                       id="tspan148"></tspan></text>
</g><g
                   id="g150"
                   transform="translate(43.19999,167.7268)"><text
                     transform="matrix(1,0,0,-1,0,-11)"
                     id="text152"><tspan
                       style="fill:#000000;fill-opacity:1;fill-rule:nonzero;stroke:none;font-family:Futura Black Narrow;font-variant:normal;font-weight:500;font-size:11;writing-mode:lr;-inkscape-font-specification:Futura-CondensedMedium"
                       x="0 5.1293 9.4688 11.913 16.3658 20.4215 23.3596 25.6366 28.6066 32.6623 35.8952 40.1335 44.6028 47.5728 50.7144 54.7701 58.003 60.28 62.7022 66.9405 69.2175 71.4032 75.8021 79.4706 83.5263 86.8131 89.2573 91.443 95.799 100.1385 102.5717 106.6274 108.9044 111.0901 113.5233 117.579 124.2978 127.5307 129.8077 132.5038 135.4738 139.7121 146.4309 148.7079 151.1521 155.6049 159.6606 161.9376 164.1288 166.3145 169.6013 172.0455 174.3225 178.3023 182.5406 187.0099 189.2869 192.4285 195.3985 199.4542 203.7937 206.2269 210.2826 214.6221 216.8991 221.2386 225.5781 229.7515 233.42 237.4757 239.7527 242.0297 246.3692 250.822 255.1615 257.4385 259.8827 264.3355 268.3912 272.844 275.121 278.3539 282.8067 287.1462 290.1162 294.1719 296.4489 302.0292 306.482 310.8215 313.2657 315.5427 319.5225 323.7608 328.2301 330.5071 332.6983 336.754 341.0935 344.0525 348.5053 352.561 356.9005 359.1775 361.8736 364.8436 369.0819 375.8007 378.0777 382.0575 386.2958 390.7651 393.7032 395.9802 398.9502 403.0059 406.2388 410.2945 414.634 417.604 420.6818 425.1346"
                       y="0"
                       sodipodi:role="line"
                       id="tspan154">Gather resources to investigate items from the list you created above, and then share what you learned from your research.</tspan></text>
</g><g
                   id="g156"
                   transform="translate(43.19999,167.7268)"><text
                     transform="matrix(1,0,0,-1,427.4155,-11)"
                     id="text158"><tspan
                       style="fill:#000000;fill-opacity:1;fill-rule:nonzero;stroke:none;font-family:Calibri;font-variant:normal;font-weight:normal;font-size:11;writing-mode:lr;-inkscape-font-specification:Calibri"
                       x="0"
                       y="0"
                       id="tspan160">	</tspan></text>
</g><g
                   id="g162"
                   transform="translate(43.26259,737.402)"><text
                     transform="matrix(1,0,0,-1,0,-37)"
                     id="text164"><tspan
                       style="fill:#000000;fill-opacity:1;fill-rule:nonzero;stroke:none;font-family:Futura Black Narrow;font-variant:normal;font-weight:500;font-size:37;writing-mode:lr;-inkscape-font-specification:Futura-CondensedMedium"
                       x="0 15.5733 32.9189 50.6049 72.5385 80.1975 101.4984 116.5833 133.8919 145.9798"
                       y="0"
                       sodipodi:role="line"
                       id="tspan166">KNOW WANT </tspan></text>
<text
                     transform="matrix(1,0,0,-1,153.6388,-37)"
                     id="text168"><tspan
                       style="fill:#000000;fill-opacity:1;fill-rule:nonzero;stroke:none;font-family:Futura Black Narrow;font-variant:normal;font-weight:500;font-size:37;writing-mode:lr;-inkscape-font-specification:Futura-CondensedMedium"
                       x="0"
                       y="0"
                       id="tspan170"></tspan></text>
</g><g
                   id="g172"
                   transform="translate(43.26259,693.402)"><text
                     transform="matrix(1,0,0,-1,0,-37)"
                     id="text174"><tspan
                       style="fill:#000000;fill-opacity:1;fill-rule:nonzero;stroke:none;font-family:Futura Black Narrow;font-variant:normal;font-weight:500;font-size:37;writing-mode:lr;-inkscape-font-specification:Futura-CondensedMedium"
                       x="0 12.2507 25.6854 40.7851 56.3658"
                       y="0"
                       sodipodi:role="line"
                       id="tspan176">LEARN</tspan></text>
<text
                     transform="matrix(1,0,0,-1,73.6855,-37)"
                     id="text178"><tspan
                       style="fill:#000000;fill-opacity:1;fill-rule:nonzero;stroke:none;font-family:Futura Black Narrow;font-variant:normal;font-weight:500;font-size:37;writing-mode:lr;-inkscape-font-specification:Futura-CondensedMedium"
                       x="0"
                       y="0"
                       id="tspan180"></tspan></text>
</g><path
                   d="m 576.097,219.3773 -576.09708252361,0 0,-44.7547 576.09708252361,0 0,44.7547 z"
                   style="fill:#fab566;fill-opacity:1;fill-rule:evenodd;stroke:none"
                   id="path182" /><path
                   d="m 576.097,174.6226 -17.2266,22.8894 17.2266,21.8654 0,-44.7548 z"
                   style="fill:#ffffff;fill-opacity:1;fill-rule:evenodd;stroke:none"
                   id="path184" /><g
                   id="g186"
                   transform="matrix(0,7.874014e-5,7.874014e-5,0,558.8704,174.6226)"><path
                     d="M -0.1396531,218778.6 290694.9,-0.3195891 568385.8,218778.6 l -568385.9396531,0 z"
                     style="fill:none;stroke:#ffffff;stroke-opacity:1;stroke-width:9525;stroke-linecap:butt;stroke-linejoin:round;stroke-miterlimit:10;stroke-dasharray:none"
                     id="path188" /></g><g
                   id="g190"
                   transform="translate(43.20015,211.4978)"><text
                     transform="matrix(1,0,0,-1,0,-24)"
                     id="text192"><tspan
                       style="fill:#ffffff;fill-opacity:1;fill-rule:nonzero;stroke:none;font-family:Futura Black Narrow;font-variant:normal;font-weight:500;font-size:24;writing-mode:lr;-inkscape-font-specification:Futura-CondensedMedium"
                       x="0 14.2272 25.4664 34.8648 42.7056 47.6736 58.8408 64.068 75.2352 80.2032 85.4304 90.3984 98.3448 107.064 116.8488 126.9624 138.1896"
                       y="0"
                       sodipodi:role="line"
                       id="tspan194">WHAT DID I LEARN?</tspan></text>
<text
                     transform="matrix(1,0,0,-1,147.108,-24)"
                     id="text196"><tspan
                       style="fill:#ffffff;fill-opacity:1;fill-rule:nonzero;stroke:none;font-family:Futura Black Narrow;font-variant:normal;font-weight:500;font-size:24;writing-mode:lr;-inkscape-font-specification:Futura-CondensedMedium"
                       x="0"
                       y="0"
                       id="tspan198"></tspan></text>
</g></g></g></g></g></g></g></g></svg>