<?xml version="1.0" encoding="UTF-8" standalone="no"?>
<!-- Created with Inkscape (http://www.inkscape.org/) -->

<svg
   xmlns:dc="http://purl.org/dc/elements/1.1/"
   xmlns:cc="http://creativecommons.org/ns#"
   xmlns:rdf="http://www.w3.org/1999/02/22-rdf-syntax-ns#"
   xmlns:svg="http://www.w3.org/2000/svg"
   xmlns="http://www.w3.org/2000/svg"
   xmlns:sodipodi="http://sodipodi.sourceforge.net/DTD/sodipodi-0.dtd"
   xmlns:inkscape="http://www.inkscape.org/namespaces/inkscape"
   id="svg2"
   version="1.1"
   inkscape:version="0.48.5 r10040"
   width="744.095"
   height="1052.3625"
   xml:space="preserve"
   sodipodi:docname="tmp.pdf"><metadata
     id="metadata8"><rdf:RDF><cc:Work
         rdf:about=""><dc:format>image/svg+xml</dc:format><dc:type
           rdf:resource="http://purl.org/dc/dcmitype/StillImage" /><dc:title></dc:title></cc:Work></rdf:RDF></metadata><defs
     id="defs6"><clipPath
       clipPathUnits="userSpaceOnUse"
       id="clipPath20"><path
         d="M 0,0 612,0 612,792 0,792 0,0 z"
         id="path22" /></clipPath><clipPath
       clipPathUnits="userSpaceOnUse"
       id="clipPath30"><path
         d="m 0,-2.69413e-5 612,0 0,791.9998969413 -612,0 L 0,-2.69413e-5 z"
         id="path32" /></clipPath></defs><sodipodi:namedview
     pagecolor="#ffffff"
     bordercolor="#666666"
     borderopacity="1"
     objecttolerance="10"
     gridtolerance="10"
     guidetolerance="10"
     inkscape:pageopacity="0"
     inkscape:pageshadow="2"
     inkscape:window-width="640"
     inkscape:window-height="480"
     id="namedview4"
     showgrid="false"
     inkscape:zoom="0.22425732"
     inkscape:cx="372.04749"
     inkscape:cy="526.18127"
     inkscape:window-x="0"
     inkscape:window-y="31"
     inkscape:window-maximized="0"
     inkscape:current-layer="g10" /><g
     id="g10"
     inkscape:groupmode="layer"
     inkscape:label="tmp"
     transform="matrix(1.25,0,0,-1.25,-0.17375,1007.8787)"><g
       id="g12"
       transform="scale(0.97313,0.97313)"><g
         id="g14"><g
           id="g16"><g
             id="g18"
             clip-path="url(#clipPath20)"><g
               id="g24" /><g
               id="g26"><g
                 id="g28"
                 clip-path="url(#clipPath30)"><path
                   d="m 0,791.9999 611.9999,0 0,-791.9998873878 -611.9999,0 L 0,791.9999 z"
                   style="fill:#ffffff;fill-opacity:1;fill-rule:evenodd;stroke:none"
                   id="path34" /><g
                   id="g36"
                   transform="translate(42.53299,618.7535)"><text
                     transform="matrix(1,0,0,-1,0,-24)"
                     id="text38"><tspan
                       style="fill:#ffffff;fill-opacity:1;fill-rule:nonzero;stroke:none;font-family:Futura Black Narrow;font-variant:normal;font-weight:500;font-size:24;writing-mode:lr;-inkscape-font-specification:Futura-CondensedMedium"
                       x="0 9.516 19.4184 30.8904 37.9104 46.6296 55.7808 63.6216 68.5896 76.98 85.6992 94.4184 105.5856 115.536 125.1576 134.3088"
                       y="0"
                       sodipodi:role="line"
                       id="tspan40">PROJECT FEEDBACK</tspan></text>
<text
                     transform="matrix(1,0,0,-1,144.4104,-24)"
                     id="text42"><tspan
                       style="fill:#ffffff;fill-opacity:1;fill-rule:nonzero;stroke:none;font-family:Futura Black Narrow;font-variant:normal;font-weight:500;font-size:24;writing-mode:lr;-inkscape-font-specification:Futura-CondensedMedium"
                       x="0"
                       y="0"
                       id="tspan44"></tspan></text>
</g><g
                   id="g46"
                   transform="translate(42.47472,128.517)"><text
                     transform="matrix(1,0,0,-1,0,-12)"
                     id="text48"><tspan
                       style="fill:#000000;fill-opacity:1;fill-rule:nonzero;stroke:none;font-family:Futura Black Narrow;font-variant:normal;font-weight:500;font-size:12;writing-mode:lr;-inkscape-font-specification:Futura-CondensedMedium"
                       x="0 4.482 9.3744 14.5488 18.7212 23.1972 25.6812 31.4172 35.6124 38.0964 42.0168 47.6364 51.996 54.48 59.238 64.1892 69.9252 73.4352 77.7948 82.3704 86.2908 88.7748 92.6952 98.3148 103.014 106.9344 109.4184 116.262 118.8756 124.4712 130.0908 134.0112 136.4952 141.4344 145.794 148.278 153.8976 158.2572 162.2304 166.9884 171.1836 176.7384 180.7116 183.1956 187.1976 192.9336 195.4176 199.338 204.9576 207.5712 213.1848 218.2356 220.7196 225.612 230.5164 236.2524 241.8072 245.4756 247.9596"
                       y="0"
                       sodipodi:role="line"
                       id="tspan50">PARTS OF THE PROJECT THAT MIGHT BE HELPFUL TO THINK ABOUT: </tspan></text>
<text
                     transform="matrix(1,0,0,-1,250.4436,-12)"
                     id="text52"><tspan
                       style="fill:#000000;fill-opacity:1;fill-rule:nonzero;stroke:none;font-family:Futura Black Narrow;font-variant:normal;font-weight:500;font-size:12;writing-mode:lr;-inkscape-font-specification:Futura-CondensedMedium"
                       x="0"
                       y="0"
                       id="tspan54"></tspan></text>
</g><g
                   id="g56"
                   transform="translate(42.47472,114.517)"><text
                     transform="matrix(1,0,0,-1,0,-3)"
                     id="text58"><tspan
                       style="fill:#000000;fill-opacity:1;fill-rule:nonzero;stroke:none;font-family:Futura Black Narrow;font-variant:normal;font-weight:500;font-size:3;writing-mode:lr;-inkscape-font-specification:Futura-CondensedMedium"
                       x="0"
                       y="0"
                       id="tspan60"></tspan></text>
</g><g
                   id="g62"
                   transform="translate(42.47472,110.517)"><text
                     transform="matrix(1,0,0,-1,0,-11)"
                     id="text64"><tspan
                       style="fill:#000000;fill-opacity:1;fill-rule:nonzero;stroke:none;font-family:LucidaGrande;font-variant:normal;font-weight:normal;font-size:11;writing-mode:lr;-inkscape-font-specification:LucidaGrande"
                       x="0"
                       y="0"
                       id="tspan66">+</tspan></text>
</g><g
                   id="g68"
                   transform="translate(42.47472,110.517)"><text
                     transform="matrix(1,0,0,-1,8.744141,-11)"
                     id="text70"><tspan
                       style="fill:#000000;fill-opacity:1;fill-rule:nonzero;stroke:none;font-family:Helvetica;font-variant:normal;font-weight:normal;font-size:11;writing-mode:lr;-inkscape-font-specification:Helvetica"
                       x="0"
                       y="0"
                       id="tspan72"> </tspan></text>
</g><g
                   id="g74"
                   transform="translate(42.47472,110.517)"><text
                     transform="matrix(1,0,0,-1,13.50002,-11)"
                     id="text76"><tspan
                       style="fill:#000000;fill-opacity:1;fill-rule:nonzero;stroke:none;font-family:Futura Black Narrow;font-variant:normal;font-weight:500;font-size:11;writing-mode:lr;-inkscape-font-specification:Futura-CondensedMedium"
                       x="0 4.1943 6.3855 10.725 13.684 15.8697 18.3139 22.4653 24.7423 27.0193 32.1376 34.3233 38.6628 40.9398 44.9196 49.1579 53.6272 55.9042 60.3735 64.8263 69.1658 73.2215 76.3158 79.6026 82.0567 86.3962 90.849 95.1885 97.4655 103.0458 107.4986 111.8381 114.2823 116.5593 119.0035 123.4563 127.512 129.789 134.1285 137.0985 141.3368 143.5225 147.5782 150.7198 153.164 155.441 157.6267 160.8596 163.1366 166.3695 170.8388 175.1783 179.5178 183.7561 186.989 191.0447 195.3842 197.6612 200.0834 204.3217 206.5987 210.9382 215.1765 219.2641"
                       y="0"
                       sodipodi:role="line"
                       id="tspan78">Clarity: Did you understand what the project is supposed to do? </tspan></text>
<text
                     transform="matrix(1,0,0,-1,235.04112,-11)"
                     id="text80"><tspan
                       style="fill:#000000;fill-opacity:1;fill-rule:nonzero;stroke:none;font-family:Futura Black Narrow;font-variant:normal;font-weight:500;font-size:11;writing-mode:lr;-inkscape-font-specification:Futura-CondensedMedium"
                       x="0"
                       y="0"
                       id="tspan82"></tspan></text>
</g><g
                   id="g84"
                   transform="translate(42.47472,97.51701)"><text
                     transform="matrix(1,0,0,-1,0,-11)"
                     id="text86"><tspan
                       style="fill:#000000;fill-opacity:1;fill-rule:nonzero;stroke:none;font-family:LucidaGrande;font-variant:normal;font-weight:normal;font-size:11;writing-mode:lr;-inkscape-font-specification:LucidaGrande"
                       x="0"
                       y="0"
                       id="tspan88">+</tspan></text>
</g><g
                   id="g90"
                   transform="translate(42.47472,97.51701)"><text
                     transform="matrix(1,0,0,-1,8.744141,-11)"
                     id="text92"><tspan
                       style="fill:#000000;fill-opacity:1;fill-rule:nonzero;stroke:none;font-family:Helvetica;font-variant:normal;font-weight:normal;font-size:11;writing-mode:lr;-inkscape-font-specification:Helvetica"
                       x="0"
                       y="0"
                       id="tspan94"> </tspan></text>
</g><g
                   id="g96"
                   transform="translate(42.47472,97.51701)"><text
                     transform="matrix(1,0,0,-1,13.50002,-11)"
                     id="text98"><tspan
                       style="fill:#000000;fill-opacity:1;fill-rule:nonzero;stroke:none;font-family:Futura Black Narrow;font-variant:normal;font-weight:500;font-size:11;writing-mode:lr;-inkscape-font-specification:Futura-CondensedMedium"
                       x="0 3.8566 7.9123 12.2518 14.696 19.1653 22.1353 26.191 29.4239 31.7009 33.9779 40.4987 44.9515 49.291 51.7352 54.0122 56.7193 60.775 65.1145 67.5587 72.028 74.998 79.0537 82.2866 84.5636 88.9031 93.1414 97.1971 100.43 102.707 105.1512 109.604 113.6597 115.9367 120.2762 123.2462 127.4845 129.6702 133.7259 136.8675 139.3117 141.5887 146.0415 150.4459 154.1144 158.1701 162.2577 164.5347 169.653 173.8913 177.947 181.1799 183.4569 185.9011 190.3539 194.4096 196.6866 201.0261 203.9961 208.2344 210.4201 214.4758 217.6174 220.0616 222.3386 227.8441 232.0824 235.0414 239.3435 241.6205 245.96 249.1929 251.4699 255.4497 259.5857 263.9252 267.9809 271.1225 273.5557 277.6114 281.9509 286.0385"
                       y="0"
                       sodipodi:role="line"
                       id="tspan100">Features: What features does the project have? Does the project work as expected? </tspan></text>
<text
                     transform="matrix(1,0,0,-1,301.81552,-11)"
                     id="text102"><tspan
                       style="fill:#000000;fill-opacity:1;fill-rule:nonzero;stroke:none;font-family:Futura Black Narrow;font-variant:normal;font-weight:500;font-size:11;writing-mode:lr;-inkscape-font-specification:Futura-CondensedMedium"
                       x="0"
                       y="0"
                       id="tspan104"></tspan></text>
</g><g
                   id="g106"
                   transform="translate(42.47472,84.51695)"><text
                     transform="matrix(1,0,0,-1,0,-11)"
                     id="text108"><tspan
                       style="fill:#000000;fill-opacity:1;fill-rule:nonzero;stroke:none;font-family:LucidaGrande;font-variant:normal;font-weight:normal;font-size:11;writing-mode:lr;-inkscape-font-specification:LucidaGrande"
                       x="0"
                       y="0"
                       id="tspan110">+</tspan></text>
</g><g
                   id="g112"
                   transform="translate(42.47472,84.51695)"><text
                     transform="matrix(1,0,0,-1,8.744141,-11)"
                     id="text114"><tspan
                       style="fill:#000000;fill-opacity:1;fill-rule:nonzero;stroke:none;font-family:Helvetica;font-variant:normal;font-weight:normal;font-size:11;writing-mode:lr;-inkscape-font-specification:Helvetica"
                       x="0"
                       y="0"
                       id="tspan116"> </tspan></text>
</g><g
                   id="g118"
                   transform="translate(42.47472,84.51695)"><text
                     transform="matrix(1,0,0,-1,13.50002,-11)"
                     id="text120"><tspan
                       style="fill:#000000;fill-opacity:1;fill-rule:nonzero;stroke:none;font-family:Futura Black Narrow;font-variant:normal;font-weight:500;font-size:11;writing-mode:lr;-inkscape-font-specification:Futura-CondensedMedium"
                       x="0 4.4847 8.8242 13.1637 17.2194 21.5589 23.7501 26.0271 28.3041 33.4554 37.6178 43.1981 45.4751 49.5308 53.9836 58.3396 62.6791 67.0241 69.2098 73.6626 78.0076 80.2846 82.4703 85.7032 87.9802 90.4244 94.8772 98.9329 101.2099 105.5494 108.5194 112.7577 114.9434 118.9991 122.1407 124.5849 128.6725 130.9495 133.3453 136.5782 138.8552 141.0409 143.4851 145.7621 147.9478 152.4006 154.8338 158.8895 161.8914 166.2309 169.3725 171.8167 174.0024 177.6709 181.7266 184.0036 186.2806 190.5189 193.4779 195.6636 200.0086 202.1943 206.6471 210.9866 213.1778 215.4548 217.7318 220.9647 225.203 229.5425 233.9953 236.181 239.4678 241.912 244.0977 247.2393 251.5788 254.012 258.0677 262.4072 264.6842 266.9612 269.6573 274.1266 278.5794 282.9783 286.5929 288.8699 291.1469 295.3852 298.3233 300.6003 302.786 307.2388 309.672 313.7277 316.6977 320.7534 324.0402 326.4844 328.6701 333.1229 337.4679 341.5555 343.8325 348.9838 353.1462 358.7265 361.0035 365.343 367.5287 371.8682 374.1452 378.125 382.3633 386.8326 389.1096 391.8167 395.8724 399.9281 402.1193 404.3963 408.7358 411.9687 414.2457 418.2255 422.4638 426.9331 429.2101 431.3958 435.8486 438.2818 442.3375 445.3394 449.6789 452.8205 455.2537 459.3094 463.6489 465.9259 471.5062 473.6919 476.1361 480.5889 482.8659 485.0516 487.4958"
                       y="0"
                       sodipodi:role="line"
                       id="tspan122">Appeal: How engaging is the project? Is it interactive, original, sophisticated, funny, or interesting? How did you feel as you interacted with it?</tspan></text>
<text
                     transform="matrix(1,0,0,-1,505.08342,-11)"
                     id="text124"><tspan
                       style="fill:#000000;fill-opacity:1;fill-rule:nonzero;stroke:none;font-family:Futura Black Narrow;font-variant:normal;font-weight:500;font-size:11;writing-mode:lr;-inkscape-font-specification:Futura-CondensedMedium"
                       x="0"
                       y="0"
                       id="tspan126"></tspan></text>
</g><g
                   id="g128"
                   transform="matrix(7.874014e-5,0,0,-7.874014e-5,43.39527,636.7588)"><path
                     d="m -0.03221749,0.1352367 6508417.03221749,0 0,793806.6647633 -6508417.03221749,0 0,-793806.6647633 z"
                     style="fill:none;stroke:#000000;stroke-opacity:1;stroke-width:6350;stroke-linecap:butt;stroke-linejoin:round;stroke-miterlimit:10;stroke-dasharray:25400,19050;stroke-dashoffset:0"
                     id="path130" /></g><g
                   id="g132"
                   transform="translate(50.59527,629.2565)"><text
                     transform="matrix(1,0,0,-1,0,-16.5)"
                     id="text134"><tspan
                       style="fill:#000000;fill-opacity:1;fill-rule:nonzero;stroke:none;font-family:Futura Black Narrow;font-variant:normal;font-weight:500;font-size:11;writing-mode:lr;-inkscape-font-specification:Futura-CondensedMedium"
                       x="0 3.8456 7.8419 11.8382 16.9565 21.5171 25.927 30.1213 34.7512 37.0282 40.9057 46.1637 50.7991 53.0761 57.6301 63.8495 70.0689 76.2883 82.5077 88.7271 94.9465 101.1659 107.3853 113.6047 119.8241 126.0435 132.2629 138.4823 144.7017 150.9211 157.1405 163.3599 169.5793 175.7987 182.0181 188.2375 194.4569 200.6763 206.8957 213.1151 219.3345 225.5539 231.7733 237.9927 244.2121 250.4315 256.6509 262.8703 269.0897 275.3091 281.5285 287.7479 293.9673 300.1867 306.4061 312.6255 318.8449 325.0643 331.2837 337.5031 343.7225 349.9419 356.1613 362.3807 368.6001 374.8195 381.0389 387.2583 393.4777 399.6971 405.9165 412.1359 418.3553 424.5747 430.7941 437.0135 443.2329 449.4523 455.6717 461.8911 468.1105 474.3299 480.5493 486.7687"
                       y="0"
                       sodipodi:role="line"
                       id="tspan136">FEEDBACK FOR: ______________________________________________________________________</tspan></text>
<text
                     transform="matrix(1,0,0,-1,492.9881,-16.5)"
                     id="text138"><tspan
                       style="fill:#000000;fill-opacity:1;fill-rule:nonzero;stroke:none;font-family:Futura Black Narrow;font-variant:normal;font-weight:500;font-size:11;writing-mode:lr;-inkscape-font-specification:Futura-CondensedMedium"
                       x="0"
                       y="0"
                       id="tspan140"></tspan></text>
</g><g
                   id="g142"
                   transform="translate(50.59527,610.2565)"><text
                     transform="matrix(1,0,0,-1,0,-7.5)"
                     id="text144"><tspan
                       style="fill:#000000;fill-opacity:1;fill-rule:nonzero;stroke:none;font-family:Futura Black Narrow;font-variant:normal;font-weight:500;font-size:5;writing-mode:lr;-inkscape-font-specification:Futura-CondensedMedium"
                       x="0"
                       y="0"
                       id="tspan146"></tspan></text>
</g><g
                   id="g148"
                   transform="translate(50.59527,601.2565)"><text
                     transform="matrix(1,0,0,-1,0,-16.5)"
                     id="text150"><tspan
                       style="fill:#000000;fill-opacity:1;fill-rule:nonzero;stroke:none;font-family:Futura Black Narrow;font-variant:normal;font-weight:500;font-size:11;writing-mode:lr;-inkscape-font-specification:Futura-CondensedMedium"
                       x="0 4.3615 8.9001 14.1581 17.3756 21.3719 25.5662 29.1599 31.4369 35.0306 37.4264 41.0201 44.6622 48.6585 50.9355 57.7665 63.9859 70.2053 76.4247 82.6441 88.8635 95.0829 101.3023 107.5217 113.7411 119.9605 126.1799 132.3993 138.6187 144.8381 151.0575 157.2769 163.4963 169.7157 175.9351 182.1545 188.3739 194.5933 200.8127 207.0321 213.2515 219.4709 225.6903 231.9097 238.1291 244.3485 250.5679 256.7873 263.0067 269.2261 275.4455 281.6649 287.8843 294.1037 300.3231 306.5425 312.7619 318.9813 325.2007 331.4201 337.6395 343.8589 350.0783 356.2977 362.5171 368.7365 374.9559 381.1753 387.3947 393.6141 399.8335 406.0529 412.2723 418.4917 424.7111 430.9305 437.1499 443.3693 449.5887 455.8081 462.0275 468.2469 474.4663 480.6857 486.9051"
                       y="0"
                       sodipodi:role="line"
                       id="tspan152">PROJECT TITLE: ______________________________________________________________________</tspan></text>
<text
                     transform="matrix(1,0,0,-1,493.1245,-16.5)"
                     id="text154"><tspan
                       style="fill:#000000;fill-opacity:1;fill-rule:nonzero;stroke:none;font-family:Futura Black Narrow;font-variant:normal;font-weight:500;font-size:11;writing-mode:lr;-inkscape-font-specification:Futura-CondensedMedium"
                       x="0"
                       y="0"
                       id="tspan156"></tspan></text>
</g><path
                   d="m 132.3126,539.4856 145.7601,0 0,-367.4367 -145.7601,0 0,367.4367 z"
                   style="fill:#ffcec8;fill-opacity:1;fill-rule:evenodd;stroke:none"
                   id="path158" /><g
                   id="g160"
                   transform="matrix(7.874014e-5,0,0,-7.874014e-5,132.3126,539.4856)"><path
                     d="m -0.02264389,-0.1191125 1851154.02264389,0 0,4666447.1191125 -1851154.02264389,0 0,-4666447.1191125 z"
                     style="fill:none;stroke:#000000;stroke-opacity:1;stroke-width:4156.364;stroke-linecap:butt;stroke-linejoin:round;stroke-miterlimit:10;stroke-dasharray:none"
                     id="path162" /></g><path
                   d="m 278.0727,539.4856 145.7602,0 0,-367.4367 -145.7602,0 0,367.4367 z"
                   style="fill:#fffed4;fill-opacity:1;fill-rule:evenodd;stroke:none"
                   id="path164" /><g
                   id="g166"
                   transform="matrix(7.874014e-5,0,0,-7.874014e-5,278.0727,539.4856)"><path
                     d="m -0.1198531,-0.1191125 1851154.1198531,0 0,4666447.1191125 -1851154.1198531,0 0,-4666447.1191125 z"
                     style="fill:none;stroke:#000000;stroke-opacity:1;stroke-width:4156.364;stroke-linecap:butt;stroke-linejoin:round;stroke-miterlimit:10;stroke-dasharray:none"
                     id="path168" /></g><path
                   d="m 423.8329,539.4856 145.7601,0 0,-367.4367 -145.7601,0 0,367.4367 z"
                   style="fill:#ccfdd2;fill-opacity:1;fill-rule:evenodd;stroke:none"
                   id="path170" /><g
                   id="g172"
                   transform="matrix(7.874014e-5,0,0,-7.874014e-5,423.8329,539.4856)"><path
                     d="M 0.08915108,-0.1191125 1851154,-0.1191125 1851154,4666447 0.08915108,4666447 l 0,-4666447.1191125 z"
                     style="fill:none;stroke:#000000;stroke-opacity:1;stroke-width:4156.364;stroke-linecap:butt;stroke-linejoin:round;stroke-miterlimit:10;stroke-dasharray:none"
                     id="path174" /></g><g
                   id="g176"
                   transform="matrix(7.874014e-5,0,0,-7.874014e-5,43.27433,539.4856)"><path
                     d="m -0.03365915,-0.1191125 1130786.03365915,0 0,4666447.1191125 -1130786.03365915,0 0,-4666447.1191125 z"
                     style="fill:none;stroke:#000000;stroke-opacity:1;stroke-width:4156.364;stroke-linecap:butt;stroke-linejoin:round;stroke-miterlimit:10;stroke-dasharray:none"
                     id="path178" /></g><g
                   id="g180"
                   transform="matrix(7.874014e-5,0,0,-7.874014e-5,43.39519,395.4488)"><path
                     d="M 0.0129026,0.1879662 6682712,1.350686"
                     style="fill:none;stroke:#000000;stroke-opacity:1;stroke-width:4156.364;stroke-linecap:butt;stroke-linejoin:round;stroke-miterlimit:10;stroke-dasharray:none"
                     id="path182" /></g><g
                   id="g184"
                   transform="matrix(7.874014e-5,0,0,-7.874014e-5,43.39519,283.7489)"><path
                     d="M 0.0129026,0.1484396 6682712,1.31116"
                     style="fill:none;stroke:#000000;stroke-opacity:1;stroke-width:4156.364;stroke-linecap:butt;stroke-linejoin:round;stroke-miterlimit:10;stroke-dasharray:none"
                     id="path186" /></g><g
                   id="g188"
                   transform="matrix(7.874014e-5,0,0,-7.874014e-5,42.50047,172.0489)"><path
                     d="M -0.00649934,0.1592063 6694075,1.12814"
                     style="fill:none;stroke:#000000;stroke-opacity:1;stroke-width:4156.364;stroke-linecap:butt;stroke-linejoin:round;stroke-miterlimit:10;stroke-dasharray:none"
                     id="path190" /></g><g
                   id="g192"
                   transform="matrix(7.874014e-5,0,0,-7.874014e-5,43.39527,507.149)"><path
                     d="M -0.03221749,-0.1230937 6682712,1.039626"
                     style="fill:none;stroke:#000000;stroke-opacity:1;stroke-width:4156.364;stroke-linecap:butt;stroke-linejoin:round;stroke-miterlimit:10;stroke-dasharray:none"
                     id="path194" /></g><g
                   id="g196"
                   transform="translate(50.59527,530.9802)"><text
                     transform="matrix(1,0,0,-1,0,-11)"
                     id="text198"><tspan
                       style="fill:#000000;fill-opacity:1;fill-rule:nonzero;stroke:none;font-family:Futura Black Narrow;font-variant:normal;font-weight:500;font-size:11;writing-mode:lr;-inkscape-font-specification:Futura-CondensedMedium"
                       x="0 3.8456 7.8419 11.8382 16.9565 21.5171 25.927 30.1213 34.7512 37.0282 41.492"
                       y="0"
                       sodipodi:role="line"
                       id="tspan200">FEEDBACK BY</tspan></text>
<text
                     transform="matrix(1,0,0,-1,45.7402,-11)"
                     id="text202"><tspan
                       style="fill:#000000;fill-opacity:1;fill-rule:nonzero;stroke:none;font-family:Futura Black Narrow;font-variant:normal;font-weight:500;font-size:11;writing-mode:lr;-inkscape-font-specification:Futura-CondensedMedium"
                       x="0"
                       y="0"
                       id="tspan204"></tspan></text>
</g><g
                   id="g206"
                   transform="translate(282.8727,535.0947)"><text
                     transform="matrix(1,0,0,-1,0,-10)"
                     id="text208"><tspan
                       style="fill:#000000;fill-opacity:1;fill-rule:nonzero;stroke:none;font-family:Futura Black Narrow;font-variant:normal;font-weight:500;font-size:10;writing-mode:lr;-inkscape-font-specification:Futura-CondensedMedium"
                       x="0 3.53 7.392 11.025 14.336 17.647 22.427 28.355 31.885 38.103 44.031 48.079 52.024 54.246 60.464 62.451 65.39 71.608 74.547 78.4 84.508 88.195 90.417 94.465 96.452 100.5 104.45 110.668 112.89 116.938 120.883 123.105 129.323 131.31 134.249"
                       y="0"
                       sodipodi:role="line"
                       id="tspan210">[YELLOW] What is something that is </tspan></text>
</g><g
                   id="g212"
                   transform="translate(282.8727,523.0946)"><text
                     transform="matrix(1,0,0,-1,0,-10)"
                     id="text214"><tspan
                       style="fill:#000000;fill-opacity:1;fill-rule:nonzero;stroke:none;font-family:Futura Black Narrow;font-variant:normal;font-weight:500;font-size:10;writing-mode:lr;-inkscape-font-specification:Futura-CondensedMedium"
                       x="0 2.856 6.709 10.757 13.208 17.271 20.21 22.197 26.245 30.195 32.265 36.118 38.789 40.859 43.715 47.568 51.631 53.623 57.568 59.638 63.583 67.27 69.34 73.285 77.138 81.186 84.873 86.943 90.888 92.875 95.536 97.997 101.684 104.384 108.071 112.119 114.341 116.392 120.079"
                       y="0"
                       sodipodi:role="line"
                       id="tspan216">confusing or could be done differently?</tspan></text>
<text
                     transform="matrix(1,0,0,-1,123.795,-10)"
                     id="text218"><tspan
                       style="fill:#000000;fill-opacity:1;fill-rule:nonzero;stroke:none;font-family:Futura Black Narrow;font-variant:normal;font-weight:500;font-size:10;writing-mode:lr;-inkscape-font-specification:Futura-CondensedMedium"
                       x="0"
                       y="0"
                       id="tspan220"></tspan></text>
</g><g
                   id="g222"
                   transform="translate(136.8283,534.6593)"><text
                     transform="matrix(1,0,0,-1,0,-10)"
                     id="text224"><tspan
                       style="fill:#000000;fill-opacity:1;fill-rule:nonzero;stroke:none;font-family:Futura Black Narrow;font-variant:normal;font-weight:500;font-size:10;writing-mode:lr;-inkscape-font-specification:Futura-CondensedMedium"
                       x="0 3.53 7.744 11.377 16.03 19.56 21.816 27.744 31.792 35.737 37.959 40.215 42.202 45.141 47.397 50.336 54.189 60.297 63.984 66.206 70.254 72.241 76.289 80.239 82.495 84.717 88.765 92.71 94.932 97.188 101.133 104.986 108.673 111.612 115.591 117.813 120.035 122.291 127.296 131.149 133.839 137.75"
                       y="0"
                       sodipodi:role="line"
                       id="tspan226">[RED] What is something that doesn’t work </tspan></text>
</g><g
                   id="g228"
                   transform="translate(136.8283,522.6593)"><text
                     transform="matrix(1,0,0,-1,0,-10)"
                     id="text230"><tspan
                       style="fill:#000000;fill-opacity:1;fill-rule:nonzero;stroke:none;font-family:Futura Black Narrow;font-variant:normal;font-weight:500;font-size:10;writing-mode:lr;-inkscape-font-specification:Futura-CondensedMedium"
                       x="0 3.853 6.524 8.594 11.45 15.303 19.366 21.358 25.303 27.373 31.318 35.005 37.075 39.062 45.151 49.096 51.796 55.59 58.925 62.612 66.557"
                       y="0"
                       sodipodi:role="line"
                       id="tspan232">or could be improved?</tspan></text>
<text
                     transform="matrix(1,0,0,-1,70.273,-10)"
                     id="text234"><tspan
                       style="fill:#000000;fill-opacity:1;fill-rule:nonzero;stroke:none;font-family:Futura Black Narrow;font-variant:normal;font-weight:500;font-size:10;writing-mode:lr;-inkscape-font-specification:Futura-CondensedMedium"
                       x="0"
                       y="0"
                       id="tspan236"></tspan></text>
</g><g
                   id="g238"
                   transform="translate(429.4327,535.0947)"><text
                     transform="matrix(1,0,0,-1,0,-10)"
                     id="text240"><tspan
                       style="fill:#000000;fill-opacity:1;fill-rule:nonzero;stroke:none;font-family:Futura Black Narrow;font-variant:normal;font-weight:500;font-size:10;writing-mode:lr;-inkscape-font-specification:Futura-CondensedMedium"
                       x="0 3.53 8.193 12.407 16.04 19.673 24.351 27.881 32.015 37.943 41.991 45.936 48.158 52.292 54.279 57.218 61.352 64.291 68.144 74.252 77.939 80.161 84.209 86.196 90.244 94.194 98.328 100.55 104.598 108.543 110.765 114.899 119.904 123.757 126.447 130.436 133.375"
                       y="0"
                       sodipodi:role="line"
                       id="tspan242">[GREEN] What is something that works </tspan></text>
</g><g
                   id="g244"
                   transform="translate(429.4327,523.0946)"><text
                     transform="matrix(1,0,0,-1,0,-10)"
                     id="text246"><tspan
                       style="fill:#000000;fill-opacity:1;fill-rule:nonzero;stroke:none;font-family:Futura Black Narrow;font-variant:normal;font-weight:500;font-size:10;writing-mode:lr;-inkscape-font-specification:Futura-CondensedMedium"
                       x="0 5.015 8.702 10.694 12.686 14.756 18.609 21.28 23.35 26.968 30.821 34.884 36.954 39.654 43.341 47.286 49.278 51.329 55.016 57.086 59.078 61.065 64.825 68.512 70.582 74.527 78.472 82.325 86.388 88.61 90.68 92.902 96.95 100.637 102.707 106.652 109.352 113.205 115.192 118.879 121.735 123.957"
                       y="0"
                       sodipodi:role="line"
                       id="tspan248">well or you really like about the project?</tspan></text>
<text
                     transform="matrix(1,0,0,-1,127.673,-10)"
                     id="text250"><tspan
                       style="fill:#000000;fill-opacity:1;fill-rule:nonzero;stroke:none;font-family:Futura Black Narrow;font-variant:normal;font-weight:500;font-size:10;writing-mode:lr;-inkscape-font-specification:Futura-CondensedMedium"
                       x="0"
                       y="0"
                       id="tspan252"></tspan></text>
</g><g
                   id="g254"
                   transform="translate(429.4327,511.0946)"><text
                     transform="matrix(1,0,0,-1,0,-10)"
                     id="text256"><tspan
                       style="fill:#000000;fill-opacity:1;fill-rule:nonzero;stroke:none;font-family:Futura Black Narrow;font-variant:normal;font-weight:500;font-size:10;writing-mode:lr;-inkscape-font-specification:Futura-CondensedMedium"
                       x="0"
                       y="0"
                       id="tspan258"></tspan></text>
</g><g
                   id="g260"
                   transform="translate(43.26259,736.8783)"><text
                     transform="matrix(1,0,0,-1,0,-33)"
                     id="text262"><tspan
                       style="fill:#000000;fill-opacity:1;fill-rule:nonzero;stroke:none;font-family:Futura Black Narrow;font-variant:normal;font-weight:500;font-size:33;writing-mode:lr;-inkscape-font-specification:Futura-CondensedMedium"
                       x="0 12.5829 26.4891 33.6765 44.4576 51.645 67.419 82.6947 94.6836 101.5146 116.9025 130.5183 146.2923 161.568"
                       y="0"
                       sodipodi:role="line"
                       id="tspan264">CRITIQUE GROUP</tspan></text>
<text
                     transform="matrix(1,0,0,-1,174.6525,-33)"
                     id="text266"><tspan
                       style="fill:#000000;fill-opacity:1;fill-rule:nonzero;stroke:none;font-family:Futura Black Narrow;font-variant:normal;font-weight:500;font-size:33;writing-mode:lr;-inkscape-font-specification:Futura-CondensedMedium"
                       x="0"
                       y="0"
                       id="tspan268"></tspan></text>
</g></g></g></g></g></g></g></g></svg>