<?xml version="1.0" encoding="UTF-8" standalone="no"?>
<!-- Created with Inkscape (http://www.inkscape.org/) -->

<svg
   xmlns:dc="http://purl.org/dc/elements/1.1/"
   xmlns:cc="http://creativecommons.org/ns#"
   xmlns:rdf="http://www.w3.org/1999/02/22-rdf-syntax-ns#"
   xmlns:svg="http://www.w3.org/2000/svg"
   xmlns="http://www.w3.org/2000/svg"
   xmlns:sodipodi="http://sodipodi.sourceforge.net/DTD/sodipodi-0.dtd"
   xmlns:inkscape="http://www.inkscape.org/namespaces/inkscape"
   id="svg2"
   version="1.1"
   inkscape:version="0.48.5 r10040"
   width="744.095"
   height="1052.3625"
   xml:space="preserve"
   sodipodi:docname="tmp.pdf"><metadata
     id="metadata8"><rdf:RDF><cc:Work
         rdf:about=""><dc:format>image/svg+xml</dc:format><dc:type
           rdf:resource="http://purl.org/dc/dcmitype/StillImage" /><dc:title></dc:title></cc:Work></rdf:RDF></metadata><defs
     id="defs6"><clipPath
       clipPathUnits="userSpaceOnUse"
       id="clipPath20"><path
         d="M 0,0 612,0 612,792 0,792 0,0 z"
         id="path22" /></clipPath><clipPath
       clipPathUnits="userSpaceOnUse"
       id="clipPath30"><path
         d="m 0,-2.69413e-5 612,0 0,791.9998969413 -612,0 L 0,-2.69413e-5 z"
         id="path32" /></clipPath></defs><sodipodi:namedview
     pagecolor="#ffffff"
     bordercolor="#666666"
     borderopacity="1"
     objecttolerance="10"
     gridtolerance="10"
     guidetolerance="10"
     inkscape:pageopacity="0"
     inkscape:pageshadow="2"
     inkscape:window-width="640"
     inkscape:window-height="480"
     id="namedview4"
     showgrid="false"
     inkscape:zoom="0.22425732"
     inkscape:cx="372.04749"
     inkscape:cy="526.18127"
     inkscape:window-x="0"
     inkscape:window-y="31"
     inkscape:window-maximized="0"
     inkscape:current-layer="g10" /><g
     id="g10"
     inkscape:groupmode="layer"
     inkscape:label="tmp"
     transform="matrix(1.25,0,0,-1.25,-0.17375,1007.8787)"><g
       id="g12"
       transform="scale(0.97313,0.97313)"><g
         id="g14"><g
           id="g16"><g
             id="g18"
             clip-path="url(#clipPath20)"><g
               id="g24" /><g
               id="g26"><g
                 id="g28"
                 clip-path="url(#clipPath30)"><path
                   d="m 0,791.9999 611.9999,0 0,-791.9998873878 -611.9999,0 L 0,791.9999 z"
                   style="fill:#ffffff;fill-opacity:1;fill-rule:evenodd;stroke:none"
                   id="path34" /><g
                   id="g36"
                   transform="translate(163.1879,694.2126)"><text
                     transform="matrix(1,0,0,-1,0,-12)"
                     id="text38"><tspan
                       style="fill:#000000;fill-opacity:1;fill-rule:nonzero;stroke:none;font-family:Futura Black Narrow;font-variant:normal;font-weight:500;font-size:12;writing-mode:lr;-inkscape-font-specification:Futura-CondensedMedium"
                       x="0 5.5548 9.0816 13.506 15.99 18.6564 23.514 27.9384 30.4224 35.1564 38.3964 43.02 50.3268 55.0728 57.7392 61.266 63.75 68.484 72.9084 75.2988 79.8396 85.9272 88.4112 91.0536 95.6772 98.1612 101.7468 104.424 109.158 112.6152 115.2816 117.7656 120.432 125.2896 127.674 132.5316 137.2248 139.6092 144.4668 149.2068 151.6908 156.4248 161.1588 165.7824 170.658 173.3244 175.8084 178.4748 183.3324 187.7568 190.2408 194.6652 197.0556 201.48 208.8096 213.234 218.0916 220.758 224.2848 226.7688 231.6264 236.0508 240.4752 245.2092 249.6336 254.3676 256.8516 259.494 264.1176 266.6016 271.3356 275.6892 279.6912 284.1156 286.506 291.1296 295.8636 298.3476 302.6892 307.3128 312.1884 315.3936 317.8776 322.6116 325.8516 330.4752 332.8596 337.284 340.7112 343.3776"
                       y="0"
                       sodipodi:role="line"
                       id="tspan40">Use the prompts below to start thinking about the elements needed to develop your project.</tspan></text>
<text
                     transform="matrix(1,0,0,-1,345.8616,-12)"
                     id="text42"><tspan
                       style="fill:#000000;fill-opacity:1;fill-rule:nonzero;stroke:none;font-family:Futura Black Narrow;font-variant:normal;font-weight:500;font-size:12;writing-mode:lr;-inkscape-font-specification:Futura-CondensedMedium"
                       x="0"
                       y="0"
                       id="tspan44"></tspan></text>
</g><g
                   id="g46"
                   transform="translate(42.50142,572.5799)"><text
                     transform="matrix(1,0,0,-1,0,-11)"
                     id="text48"><tspan
                       style="fill:#000000;fill-opacity:1;fill-rule:nonzero;stroke:none;font-family:Futura Black Narrow;font-variant:normal;font-weight:500;font-size:11;writing-mode:lr;-inkscape-font-specification:Futura-CondensedMedium"
                       x="0 5.1183 9.174 12.4069 15.5485 18.5075 20.6932 25.0327 29.0884 31.3654 33.8096 38.2624 42.3181 44.5951 48.9346 51.9046 56.1429 58.3286 62.3843 65.5259 67.9701 70.2471 74.2269 78.4652 82.9345 85.2115 90.7379 95.0774 99.5302 101.9744 104.2514 106.6736 110.9119 113.1889 116.3305 119.3005 123.3562 127.6957 130.1289 134.1846"
                       y="0"
                       sodipodi:role="line"
                       id="tspan50">Describe the project you want to create.</tspan></text>
<text
                     transform="matrix(1,0,0,-1,136.4616,-11)"
                     id="text52"><tspan
                       style="fill:#000000;fill-opacity:1;fill-rule:nonzero;stroke:none;font-family:Futura Black Narrow;font-variant:normal;font-weight:500;font-size:11;writing-mode:lr;-inkscape-font-specification:Futura-CondensedMedium"
                       x="0"
                       y="0"
                       id="tspan54"></tspan></text>
</g><g
                   id="g56"
                   transform="translate(42.50142,446.6958)"><text
                     transform="matrix(1,0,0,-1,0,-11)"
                     id="text58"><tspan
                       style="fill:#000000;fill-opacity:1;fill-rule:nonzero;stroke:none;font-family:Futura Black Narrow;font-variant:normal;font-weight:500;font-size:11;writing-mode:lr;-inkscape-font-specification:Futura-CondensedMedium"
                       x="0 3.6421 5.8278 9.1146 11.5588 13.8358 16.28 20.7328 24.7885 27.0655 30.3523 32.7855 36.8412 41.1807 44.4136 46.6906 51.1434 55.1991 59.2548 63.5943 67.65 71.9895 74.2665 76.4522 80.905 83.182 87.4203 90.4222 94.7617 98.8174 101.7555 104.0325 106.4547 110.693 112.97 116.1116 119.0816 123.1373 127.4768 129.91 133.9657 136.2427 140.2225 144.4608 148.9301 151.8682 154.1452 158.4847 161.4547 165.693 167.8787 171.9344 175.076 177.5202"
                       y="0"
                       sodipodi:role="line"
                       id="tspan60">List the steps needed in order to create your project.</tspan></text>
<text
                     transform="matrix(1,0,0,-1,179.7972,-11)"
                     id="text62"><tspan
                       style="fill:#000000;fill-opacity:1;fill-rule:nonzero;stroke:none;font-family:Futura Black Narrow;font-variant:normal;font-weight:500;font-size:11;writing-mode:lr;-inkscape-font-specification:Futura-CondensedMedium"
                       x="0"
                       y="0"
                       id="tspan64"></tspan></text>
</g><g
                   id="g66"
                   transform="matrix(7.874014e-5,0,0,-7.874014e-5,42.52795,274.955)"><path
                     d="M 0.00325893,0.1083642 3047842,0.1083642 3047842,2978109 0.00325893,2978109 l 0,-2978108.8916358 z"
                     style="fill:none;stroke:#000000;stroke-opacity:1;stroke-width:4156.364;stroke-linecap:butt;stroke-linejoin:round;stroke-miterlimit:10;stroke-dasharray:16625.46,12469.09;stroke-dashoffset:0"
                     id="path68" /></g><g
                   id="g70"
                   transform="matrix(7.874014e-5,0,0,-7.874014e-5,302.0048,274.955)"><path
                     d="M 0.05127883,0.1083642 3047842,0.1083642 3047842,2978109 0.05127883,2978109 l 0,-2978108.8916358 z"
                     style="fill:none;stroke:#000000;stroke-opacity:1;stroke-width:4156.364;stroke-linecap:butt;stroke-linejoin:round;stroke-miterlimit:10;stroke-dasharray:16625.46,12469.09;stroke-dashoffset:0"
                     id="path72" /></g><g
                   id="g74"
                   transform="translate(49.72786,270.6761)"><text
                     transform="matrix(1,0,0,-1,0,-11)"
                     id="text76"><tspan
                       style="fill:#000000;fill-opacity:1;fill-rule:nonzero;stroke:none;font-family:Futura Black Narrow;font-variant:normal;font-weight:500;font-size:11;writing-mode:lr;-inkscape-font-specification:Futura-CondensedMedium"
                       x="0 6.5208 10.9736 15.3131 17.7573 21.4665 24.4365 28.4922 31.7251 35.9634 40.4327 43.4027 46.5443 50.6 53.8329 57.5421 60.7706 64.8263 67.1033 71.4483 73.7253 76.0023 79.7115 84.051 88.1067 92.345 96.6845 98.8757 102.9314 105.2084 108.9176 112.1505 116.49 123.1879 127.5274 129.7186 133.7743 137.4835 141.823 144.793 149.0313 151.217 155.2727 158.4143 160.8585 164.0914 167.3199 171.0291 175.3686 179.6069 183.3161 187.2959 191.5342 196.0035 199.7127 204.0522 206.2434 209.2134 213.2691 217.6086 221.9481 226.0038"
                       y="0"
                       sodipodi:role="line"
                       id="tspan78">What resources (e.g., people, sample projects) do you already </tspan></text>
</g><g
                   id="g80"
                   transform="translate(49.72786,257.6761)"><text
                     transform="matrix(1,0,0,-1,0,-11)"
                     id="text82"><tspan
                       style="fill:#000000;fill-opacity:1;fill-rule:nonzero;stroke:none;font-family:Futura Black Narrow;font-variant:normal;font-weight:500;font-size:11;writing-mode:lr;-inkscape-font-specification:Futura-CondensedMedium"
                       x="0 4.4528 8.8616 12.5334 16.5902"
                       y="0"
                       sodipodi:role="line"
                       id="tspan84">have?</tspan></text>
<text
                     transform="matrix(1,0,0,-1,20.68,-11)"
                     id="text86"><tspan
                       style="fill:#000000;fill-opacity:1;fill-rule:nonzero;stroke:none;font-family:Futura Black Narrow;font-variant:normal;font-weight:500;font-size:11;writing-mode:lr;-inkscape-font-specification:Futura-CondensedMedium"
                       x="0"
                       y="0"
                       id="tspan88"></tspan></text>
</g><g
                   id="g90"
                   transform="translate(309.2048,270.6761)"><text
                     transform="matrix(1,0,0,-1,0,-11)"
                     id="text92"><tspan
                       style="fill:#000000;fill-opacity:1;fill-rule:nonzero;stroke:none;font-family:Futura Black Narrow;font-variant:normal;font-weight:500;font-size:11;writing-mode:lr;-inkscape-font-specification:Futura-CondensedMedium"
                       x="0 6.5208 10.9736 15.3131 17.7573 20.0717 23.0417 27.0974 30.3303 34.5686 39.0379 42.0079 45.1495 49.2052 52.4381 54.7525 57.981 62.0367 64.3137 68.6587 70.9357 73.2127 75.5271 79.8666 83.9223 88.1606 92.5001 94.6913 98.747 101.024 103.3384 106.5713 110.9108 117.6087 121.9482 124.1394 128.1951 130.5095 134.849 137.819 142.0573 144.243 148.2987 151.4403 153.8845 157.1174 160.3459 162.6603 169.3791 171.5648 175.9098 180.3626 182.8068 185.1212 189.101 193.3393 197.8086 200.123 204.5758 208.6315 212.6872 217.0267 219.3411 221.7633 226.0016"
                       y="0"
                       sodipodi:role="line"
                       id="tspan94">What resources (e.g., people, sample projects) might you need to </tspan></text>
</g><g
                   id="g96"
                   transform="translate(309.2048,257.6761)"><text
                     transform="matrix(1,0,0,-1,0,-11)"
                     id="text98"><tspan
                       style="fill:#000000;fill-opacity:1;fill-rule:nonzero;stroke:none;font-family:Futura Black Narrow;font-variant:normal;font-weight:500;font-size:11;writing-mode:lr;-inkscape-font-specification:Futura-CondensedMedium"
                       x="0 4.3395 8.3303 11.9988 16.0545 18.2457 22.484 26.8235 29.1005 33.0803 37.3186 41.7879 44.726 47.003 51.3425 54.3125 58.5508 60.7365 64.7922 67.9338 70.378"
                       y="0"
                       sodipodi:role="line"
                       id="tspan100">develop your project?</tspan></text>
<text
                     transform="matrix(1,0,0,-1,74.4656,-11)"
                     id="text102"><tspan
                       style="fill:#000000;fill-opacity:1;fill-rule:nonzero;stroke:none;font-family:Futura Black Narrow;font-variant:normal;font-weight:500;font-size:11;writing-mode:lr;-inkscape-font-specification:Futura-CondensedMedium"
                       x="0"
                       y="0"
                       id="tspan104"></tspan></text>
</g><g
                   id="g106"
                   transform="matrix(7.874014e-5,0,0,-7.874014e-5,163.268,728.6674)"><path
                     d="m -0.01290429,0.1251614 4986033.012904291,0 0,353942.7748386 -4986033.012904291,0 0,-353942.7748386 z"
                     style="fill:none;stroke:#000000;stroke-opacity:1;stroke-width:6350;stroke-linecap:butt;stroke-linejoin:round;stroke-miterlimit:10;stroke-dasharray:25400,19050;stroke-dashoffset:0"
                     id="path108" /></g><g
                   id="g110"
                   transform="translate(170.468,721.3326)"><text
                     transform="matrix(1,0,0,-1,0,-11)"
                     id="text112"><tspan
                       style="fill:#000000;fill-opacity:1;fill-rule:nonzero;stroke:none;font-family:Futura Black Narrow;font-variant:normal;font-weight:500;font-size:11;writing-mode:lr;-inkscape-font-specification:Futura-CondensedMedium"
                       x="0 4.3615 8.9001 14.1581 17.3756 21.3719 25.5662 29.1599 31.4369 35.7984 39.8805 44.3652 49.511 53.614 55.891 60.3548 64.3511 66.6281 68.9051 75.1245 81.3439 87.5633 93.7827 100.0021 106.2215 112.4409 118.6603 124.8797 131.0991 137.3185 143.5379 149.7573 155.9767 162.1961 168.4155 174.6349 180.8543 187.0737 193.2931 199.5125 205.7319 211.9513 218.1707 224.3901 230.6095 236.8289 243.0483 249.2677 255.4871 261.7065 267.9259 274.1453 280.3647 286.5841 292.8035 299.0229 305.2423 311.4617 317.6811 323.9005 330.1199 336.3393 342.5587 348.7781 354.9975 361.2169 367.4363"
                       y="0"
                       sodipodi:role="line"
                       id="tspan114">PROJECT PLANS BY: _________________________________________________</tspan></text>
<text
                     transform="matrix(1,0,0,-1,373.6557,-11)"
                     id="text116"><tspan
                       style="fill:#000000;fill-opacity:1;fill-rule:nonzero;stroke:none;font-family:Futura Black Narrow;font-variant:normal;font-weight:500;font-size:11;writing-mode:lr;-inkscape-font-specification:Futura-CondensedMedium"
                       x="0"
                       y="0"
                       id="tspan118"></tspan></text>
</g><g
                   id="g120"
                   transform="translate(43.19999,741.4833)"><text
                     transform="matrix(1,0,0,-1,0,-34)"
                     id="text122"><tspan
                       style="fill:#000000;fill-opacity:1;fill-rule:nonzero;stroke:none;font-family:Futura Black Narrow;font-variant:normal;font-weight:500;font-size:34;writing-mode:lr;-inkscape-font-specification:Futura-CondensedMedium"
                       x="0 13.481 27.5094 43.7614 53.7064 66.0586 79.0228"
                       y="0"
                       sodipodi:role="line"
                       id="tspan124">PROJECT</tspan></text>
<text
                     transform="matrix(1,0,0,-1,90.1306,-34)"
                     id="text126"><tspan
                       style="fill:#000000;fill-opacity:1;fill-rule:nonzero;stroke:none;font-family:Futura Black Narrow;font-variant:normal;font-weight:500;font-size:34;writing-mode:lr;-inkscape-font-specification:Futura-CondensedMedium"
                       x="0"
                       y="0"
                       id="tspan128"></tspan></text>
</g><g
                   id="g130"
                   transform="translate(43.19999,701.4833)"><text
                     transform="matrix(1,0,0,-1,0,-34)"
                     id="text132"><tspan
                       style="fill:#000000;fill-opacity:1;fill-rule:nonzero;stroke:none;font-family:Futura Black Narrow;font-variant:normal;font-weight:500;font-size:34;writing-mode:lr;-inkscape-font-specification:Futura-CondensedMedium"
                       x="0 13.481 26.112 39.967 55.862 71.757 79.152 95.047"
                       y="0"
                       sodipodi:role="line"
                       id="tspan134">PLANNING</tspan></text>
<text
                     transform="matrix(1,0,0,-1,110.908,-34)"
                     id="text136"><tspan
                       style="fill:#000000;fill-opacity:1;fill-rule:nonzero;stroke:none;font-family:Futura Black Narrow;font-variant:normal;font-weight:500;font-size:34;writing-mode:lr;-inkscape-font-specification:Futura-CondensedMedium"
                       x="0"
                       y="0"
                       id="tspan138"></tspan></text>
</g><path
                   d="m 611.9999,624.3725 -598.106,0 c -0.23299,-0.529 19.74405,-18.308 19.25846,-18.837 0.65398,0.1916 -19.6598,-18.8669 -19.25846,-18.9253 l 598.106,0 0,37.7623 z"
                   style="fill:#f07f02;fill-opacity:1;fill-rule:evenodd;stroke:none"
                   id="path140" /><g
                   id="g142"
                   transform="translate(42.79984,620.5967)"><text
                     transform="matrix(1,0,0,-1,0,-24)"
                     id="text144"><tspan
                       style="fill:#ffffff;fill-opacity:1;fill-rule:nonzero;stroke:none;font-family:Futura Black Narrow;font-variant:normal;font-weight:500;font-size:24;writing-mode:lr;-inkscape-font-specification:Futura-CondensedMedium"
                       x="0 13.6872 22.956 27.924 37.44 47.3424 58.8144 65.8344 74.5536 83.7048"
                       y="0"
                       sodipodi:role="line"
                       id="tspan146">MY PROJECT</tspan></text>
<text
                     transform="matrix(1,0,0,-1,91.5456,-24)"
                     id="text148"><tspan
                       style="fill:#ffffff;fill-opacity:1;fill-rule:nonzero;stroke:none;font-family:Futura Black Narrow;font-variant:normal;font-weight:500;font-size:24;writing-mode:lr;-inkscape-font-specification:Futura-CondensedMedium"
                       x="0"
                       y="0"
                       id="tspan150"></tspan></text>
</g><path
                   d="m 611.9999,325.8226 -598.106,0 c -0.23299,-0.5289 19.74405,-18.308 19.25846,-18.837 0.65398,0.1916 -19.6598,-18.8669 -19.25846,-18.9253 l 598.106,0 0,37.7623 z"
                   style="fill:#f07f02;fill-opacity:1;fill-rule:evenodd;stroke:none"
                   id="path152" /><g
                   id="g154"
                   transform="translate(42.79984,322.0468)"><text
                     transform="matrix(1,0,0,-1,0,-24)"
                     id="text156"><tspan
                       style="fill:#ffffff;fill-opacity:1;fill-rule:nonzero;stroke:none;font-family:Futura Black Narrow;font-variant:normal;font-weight:500;font-size:24;writing-mode:lr;-inkscape-font-specification:Futura-CondensedMedium"
                       x="0 13.6872 22.956 27.924 38.0376 46.7568 55.7088 67.1808 78.2904 88.1352 97.2864 106.0056"
                       y="0"
                       sodipodi:role="line"
                       id="tspan158">MY RESOURCES</tspan></text>
<text
                     transform="matrix(1,0,0,-1,114.9576,-24)"
                     id="text160"><tspan
                       style="fill:#ffffff;fill-opacity:1;fill-rule:nonzero;stroke:none;font-family:Futura Black Narrow;font-variant:normal;font-weight:500;font-size:24;writing-mode:lr;-inkscape-font-specification:Futura-CondensedMedium"
                       x="0"
                       y="0"
                       id="tspan162"></tspan></text>
</g></g></g></g></g></g></g></g></svg>