<?xml version="1.0" encoding="UTF-8" standalone="no"?>
<!-- Created with Inkscape (http://www.inkscape.org/) -->

<svg
   xmlns:dc="http://purl.org/dc/elements/1.1/"
   xmlns:cc="http://creativecommons.org/ns#"
   xmlns:rdf="http://www.w3.org/1999/02/22-rdf-syntax-ns#"
   xmlns:svg="http://www.w3.org/2000/svg"
   xmlns="http://www.w3.org/2000/svg"
   xmlns:sodipodi="http://sodipodi.sourceforge.net/DTD/sodipodi-0.dtd"
   xmlns:inkscape="http://www.inkscape.org/namespaces/inkscape"
   id="svg2"
   version="1.1"
   inkscape:version="0.48.5 r10040"
   width="744.095"
   height="1052.3625"
   xml:space="preserve"
   sodipodi:docname="tmp.pdf"><metadata
     id="metadata8"><rdf:RDF><cc:Work
         rdf:about=""><dc:format>image/svg+xml</dc:format><dc:type
           rdf:resource="http://purl.org/dc/dcmitype/StillImage" /><dc:title></dc:title></cc:Work></rdf:RDF></metadata><defs
     id="defs6"><clipPath
       clipPathUnits="userSpaceOnUse"
       id="clipPath20"><path
         d="M 0,0 612,0 612,792 0,792 0,0 z"
         id="path22" /></clipPath><clipPath
       clipPathUnits="userSpaceOnUse"
       id="clipPath30"><path
         d="m 0,-2.69413e-5 612,0 0,791.9998969413 -612,0 L 0,-2.69413e-5 z"
         id="path32" /></clipPath><clipPath
       clipPathUnits="userSpaceOnUse"
       id="clipPath62"><path
         d="m 641.619,776.6953 -508.5604,0 0,-804.77495 508.5604,0 0,804.77495 z"
         id="path64" /></clipPath><clipPath
       clipPathUnits="userSpaceOnUse"
       id="clipPath68"><path
         d="m 805.9298,771.7685 -726.55643,0 0,-940.2346 726.55643,0 0,940.2346 z"
         id="path70" /></clipPath><clipPath
       clipPathUnits="userSpaceOnUse"
       id="clipPath74"><path
         d="m 133.0586,-2.69413e-5 478.9414,0 0,771.7684969413 -478.9414,0 0,-771.7684969413 z"
         id="path76" /></clipPath><clipPath
       clipPathUnits="userSpaceOnUse"
       id="clipPath164"><path
         d="m 0,-2.69413e-5 612,0 0,791.9998969413 -612,0 L 0,-2.69413e-5 z"
         id="path166" /></clipPath></defs><sodipodi:namedview
     pagecolor="#ffffff"
     bordercolor="#666666"
     borderopacity="1"
     objecttolerance="10"
     gridtolerance="10"
     guidetolerance="10"
     inkscape:pageopacity="0"
     inkscape:pageshadow="2"
     inkscape:window-width="640"
     inkscape:window-height="480"
     id="namedview4"
     showgrid="false"
     inkscape:zoom="0.22425732"
     inkscape:cx="372.04749"
     inkscape:cy="526.18127"
     inkscape:window-x="0"
     inkscape:window-y="31"
     inkscape:window-maximized="0"
     inkscape:current-layer="g10" /><g
     id="g10"
     inkscape:groupmode="layer"
     inkscape:label="tmp"
     transform="matrix(1.25,0,0,-1.25,-0.17375,1007.8787)"><g
       id="g12"
       transform="scale(0.97313,0.97313)"><g
         id="g14"><g
           id="g16"><g
             id="g18"
             clip-path="url(#clipPath20)"><g
               id="g24" /><g
               id="g26"><g
                 id="g28"
                 clip-path="url(#clipPath30)"><path
                   d="m 0,791.9999 611.9999,0 0,-791.9998873878 -611.9999,0 L 0,791.9999 z"
                   style="fill:#ffffff;fill-opacity:1;fill-rule:evenodd;stroke:none"
                   id="path34" /><g
                   id="g36"
                   transform="translate(57.16795,118.2741)"><text
                     transform="matrix(1,0,0,-1,3.859375,-20)"
                     id="text38"><tspan
                       style="fill:#ffffff;fill-opacity:1;fill-rule:nonzero;stroke:none;font-family:Futura Black Narrow;font-variant:normal;font-weight:500;font-size:20;writing-mode:lr;-inkscape-font-specification:Futura-CondensedMedium"
                       x="0"
                       y="0"
                       id="tspan40">0</tspan></text>
</g><g
                   id="g42"
                   transform="translate(57.16795,118.2741)"><text
                     transform="matrix(1,0,0,-1,12.14062,-20)"
                     id="text44"><tspan
                       style="fill:#ffffff;fill-opacity:1;fill-rule:nonzero;stroke:none;font-family:Futura Black Narrow;font-variant:normal;font-weight:500;font-size:44;writing-mode:lr;-inkscape-font-specification:Futura-CondensedMedium"
                       x="0"
                       y="0"
                       id="tspan46"></tspan></text>
</g><g
                   id="g48"
                   transform="translate(43.19991,751.864)"><text
                     transform="matrix(1,0,0,-1,0,-53)"
                     id="text50"><tspan
                       style="fill:#000000;fill-opacity:1;fill-rule:nonzero;stroke:none;font-family:Futura Black Narrow;font-variant:normal;font-weight:500;font-size:53;writing-mode:lr;-inkscape-font-specification:Futura-CondensedMedium"
                       x="0 21.6081 42.6332 63.6583 82.9344 107.7225 132.4046 143.9427"
                       y="0"
                       sodipodi:role="line"
                       id="tspan52">APPENDIX</tspan></text>
<text
                     transform="matrix(1,0,0,-1,163.8548,-53)"
                     id="text54"><tspan
                       style="fill:#000000;fill-opacity:1;fill-rule:nonzero;stroke:none;font-family:Futura Black Narrow;font-variant:normal;font-weight:500;font-size:53;writing-mode:lr;-inkscape-font-specification:Futura-CondensedMedium"
                       x="0"
                       y="0"
                       id="tspan56"></tspan></text>
</g></g></g><g
               id="g58"><g
                 id="g60"
                 clip-path="url(#clipPath62)"><g
                   id="g66"
                   clip-path="url(#clipPath68)"><g
                     id="g72"
                     clip-path="url(#clipPath74)"><path
                       d="m 143.683,327.2876 c 5.0242,27.8272 25.8403,45.9908 42.4418,56.3001 6.5319,4.1302 12.5094,7.1123 16.9673,9.1246 1.1468,12.7015 5.5322,40.0395 22.82,71.8603 12.2589,22.6725 48.3754,53.3393 59.0386,62.173 1.4104,6.7217 20.9989,100.148 20.9989,100.148 0,0 0.6993,-0.6327 0.7587,-0.6636 0.0202,0.1793 0.2861,1.3475 0.2861,1.3475 0,0 64.5827,-58.1557 68.4506,-61.589 4.2727,-0.9628 26.0314,-5.8741 28.807,-6.5069 12.2161,1.3724 23.4172,2.0111 34.0936,1.8912 28.4686,-0.3538 55.9662,-6.6338 66.9227,-9.4439 7.4377,5.182 87.9763,61.1544 87.9763,61.1544 -0.0725,-0.1163 0.9248,0.5521 0.9248,0.5521 l 18.5782,13.1348 c 0,0 -12.3586,-150.6109 -13.0104,-158.3916 11.3091,-14.7564 46.8487,-65.6241 46.8214,-123.1173 -0.008,-20.5415 -4.6039,-41.9865 -16.5399,-62.8343 -15.8275,-27.7416 -37.8936,-51.1775 -65.5871,-69.8231 15.2304,-4.7178 28.1018,-15.3358 41.4885,-26.4714 l 13.6835,-11.0489 c 3.1958,-2.5061 6.9201,-4.7712 10.7701,-7.1824 12.0072,-7.434 27.8549,-17.2661 27.8454,-37.4123 -0.001,-3.3573 -0.4464,-6.9781 -1.4032,-10.9338 -1.1552,-4.7285 -3.767,-14.3362 -8.1572,-25.69141 11.4896,4.5599 21.5474,10.93501 29.999,19.11571 14.4955,14.0276 25.065,31.727 34.3345,47.4047 7.5445,12.7656 14.1014,23.7623 21.7657,31.2711 13.2503,12.9283 26.0802,10.6346 34.4973,6.4689 14.9228,-7.3984 24.0986,-27.8438 24.0868,-52.9749 -0.001,-1.795 -0.0665,-3.5971 -0.1591,-5.4431 -1.9007,-36.6205 -24.3124,-83.37345 -81.4159,-104.62369 -14.4741,-5.4301 -28.3618,-8.50842 -41.5348,-10.40195 6.5651,-2.24017 12.3313,-3.98175 16.0282,-5.03002 8.1701,4.20258 25.5636,10.27968 44.5146,-1.10644 16.2027,-9.744225 17.8184,-32.89869 4.5517,-63.56198 -16.0223,-37.01105 -55.7359,-87.26612 -89.9399,-77.55512 -15.5568,4.3581 -25.5755,12.3845 -29.803,23.76704 -1.5196,4.0316 -2.1512,8.18668 -2.1489,12.33111 0.006,14.14743 7.4413,28.35305 13.9981,38.92356 C 580.341,-33.84676 534.0089,-7.059571 516.9763,3.406486 505.1425,-8.1387 493.4985,-19.81685 482.4922,-31.48547 448.2324,-67.9184 397.9124,-111.6512 395.7791,-113.4901 l -2.3174,-2.0277 -3.0297,-0.4523 c -2.0645,-0.2718 -50.1953,-7.5634 -91.2018,-9.1744 -43.4106,-1.7036 -61.5626,3.0914 -64.8748,17.2661 -4.0032,16.9468 -1.5529,31.40885 7.1789,42.8828 12.3562,16.1965 36.3954,25.12042 71.5563,26.50587 14.9894,0.5888 28.1267,-0.39892 34.9744,-1.05544 20.2676,18.61119 35.9645,33.153959 44.3389,41.029614 9.5545,9.022456 24.7172,24.509026 45.0525,45.951596 -7.2169,6.75022 -14.9146,15.96144 -24.4999,29.24937 -1.9173,2.64382 -3.9795,5.83135 -6.1081,9.42967 -4.617,-3.44517 -12.0001,-9.77035 -22.7856,-21.38204 -13.4116,-14.38131 -27.1034,-21.20988 -41.9587,-20.92141 -12.4393,0.21725 -23.765,5.36717 -34.782,10.35445 l -0.9415,0.47131 c -13.8188,6.31571 -58.9805,29.08554 -64.0854,58.19361 -1.2964,7.5183 -0.5401,18.7549 10.5957,29.6993 8.6379,8.3897 17.2568,12.8748 26.3637,13.6952 14.4765,1.2952 26.3496,-7.2085 36.8419,-14.7375 6.7397,-4.8947 13.1362,-9.4688 19.7821,-11.614 2.074,-0.6375 4.034,-0.9771 5.8397,-0.9794 8.3863,-0.002 14.4706,7.6251 22.8236,19.2558 3.0653,4.1812 6.1603,8.5903 9.5901,12.2444 1.7986,1.9232 3.6411,3.7075 5.4123,5.455 -19.7155,0.6043 -39.7421,2.4966 -59.872,5.696 -91.8477,14.9061 -135.5016,52.4787 -155.9674,81.3232 -13.8331,19.5229 -21.196,41.1388 -21.1865,61.12 0.002,4.5112 0.3609,8.9667 1.1646,13.2986"
                       style="fill:#211d1d;fill-opacity:1;fill-rule:nonzero;stroke:none"
                       id="path78" /><path
                       d="m 321.3374,182.0918 c -139.0643,22.4695 -174.8116,100.9138 -167.2088,143.2873 7.668,42.3604 59.2357,59.82 59.2357,59.82 0,0 -0.52,32.9913 21.8904,74.2786 13.2989,24.5541 59.3497,61.393 59.3497,61.393 l 18.0096,85.8202 56.7177,-51.1158 31.8604,-7.18 c 11.2866,1.4626 24.0156,2.5073 37.0473,2.3529 34.8676,-0.4356 69.0359,-10.3413 69.0359,-10.3413 l 92.059,63.9383 -11.4682,-139.8646 c -5.0147,5.6592 81.0443,-91.5008 31.9424,-177.4206 -23.0029,-40.3435 -59.6406,-70.729 -106.1996,-89.4577 0,0 -6.9924,-2.6723 -6.3597,-3.3086 2.727,-2.7245 16.2513,2.3173 20.3258,3.92 36.6341,14.6104 54.9713,-7.9647 85.387,-31.5157 16.4176,-12.6884 39.7742,-18.4853 33.4619,-44.5946 -2.5251,-10.2334 -8.0206,-27.7037 -16.8722,-43.94056 l 0.9319,-0.53185 c 17.6594,3.42142 38.3318,11.07744 55.597,27.68941 38.8376,37.5572 49.5566,97.6372 78.4633,83.3046 C 793.4982,174.2458 796.3902,77.89909 708.0483,45.08348 683.1127,35.75 659.6978,33.38515 639.5074,32.7239 c -17.0705,0.0083 -24.069,3.03558 -8.8137,-3.0605 L 687.7379,8.146032 c 0,0 17.7496,13.188208 37.5364,1.280945 32.4089,-19.502737 -37.2728,-133.014677 -76.9675,-121.775777 -48.1094,13.61198 -10.909,59.60396 -4.0317,71.37112 -61.3809,14.01212 -128.2645,57.48609 -128.2645,57.48609 l 1.0388,-0.40006 -1.5493,0.77639 C 503.5773,5.476089 489.5447,-8.419679 474.623,-24.22915 c -34.306,-36.37948 -85.8737,-81.22225 -85.8737,-81.22225 0,0 -139.1344,-21.1019 -144.0719,0.0249 -16.7286,71.55757 107.0151,54.73782 107.0151,54.73782 0,0 32.8874,30.14449 47.9908,44.448653 13.4436,12.714544 35.53,35.774017 53.0077,54.313967 l -1.3831,1.6288 c -8.7851,6.44037 -17.968,16.93253 -29.7294,33.1967 -3.8809,5.35886 -7.9815,12.58513 -11.473,19.46826 l 0.0119,-2.0549 c 0,0 -9.0155,-1.56471 -33.9273,-28.32341 -24.8965,-26.73733 -43.8594,-17.50475 -65.4578,-7.66909 -21.5355,9.88789 -79.1792,42.3402 -50.3508,70.5758 28.8569,28.2391 46.033,-6.7799 72.1689,-15.153 26.1596,-8.341 36.5866,19.65 49.3809,33.3759 10.896,11.7874 22.4556,19.1277 25.5505,21.02 l -0.3027,2.2865 c -27.0452,-0.9189 -55.7418,0.7669 -85.8417,5.6663"
                       style="fill:#f79a13;fill-opacity:1;fill-rule:nonzero;stroke:none"
                       id="path80" /><path
                       d="m 738.9403,107.2785 c -16.3226,12.781 -43.6681,6.159 -45.5902,5.671 33.0464,37.4622 44.1763,89.073 71.193,75.6747 23.5751,-11.7067 29.8683,-77.7463 -16.281,-119.59739 -3.0072,4.37233 4.0483,27.79153 -9.3218,38.25169"
                       style="fill:#ffffff;fill-opacity:1;fill-rule:nonzero;stroke:none"
                       id="path82" /><path
                       d="m 415.8796,92.491 c 0,0 -18.8738,18.9377 16.7916,39.7866 35.6903,20.912 53.1193,2.055 64.7359,-8.8859 20.2153,-18.8249 -21.8739,-54.00055 -21.8739,-54.00055 L 452.0567,50.28373 c 0,0 -14.0313,10.8032 -19.9744,20.35513 C 426.131,80.25134 415.8796,92.491 415.8796,92.491"
                       style="fill:#ffffff;fill-opacity:1;fill-rule:nonzero;stroke:none"
                       id="path84" /><path
                       d="m 478.7679,351.3283 c 0,0 62.3486,-4.6133 65.9208,-42.4566 8.9514,-94.9352 -147.9326,-132.7452 -147.9326,-132.7452 0,0 -72.3921,-4.2512 -142.3872,24.6289 -65.941,27.2039 -108.3947,75.8433 -99.2533,123.6943 9.1911,47.8392 67.5709,59.7536 67.5709,59.7536 l 14.7448,18.705 67.8333,-17.1629 c 0,0 0.8797,-25.2059 33.3005,-31.0349 32.4434,-5.8479 81.9655,19.7189 81.9655,19.7189 l 58.2373,-23.1011 z"
                       style="fill:#ffffff;fill-opacity:1;fill-rule:nonzero;stroke:none"
                       id="path86" /><g
                       id="g88"
                       transform="matrix(-1.187184,0,0,1.187165,508.6162,195.7407)"><path
                         d="M -9.988687e-6,8.612929e-6 C -41.688,15.567 -74.24699,42.02202 -94.47499,77.44102 -135.844,149.83 -63.35902,231.642 -67.55201,226.927 l -9.68602,117.749 91.18101,-64.24"
                         style="fill:none;stroke:#211d1d;stroke-opacity:1;stroke-width:2.696;stroke-linecap:round;stroke-linejoin:round;stroke-miterlimit:4;stroke-dasharray:none"
                         id="path90" /></g><g
                       id="g92"
                       transform="matrix(-1.187184,0,0,1.187165,370.3458,561.1365)"><path
                         d="M -7.990517e-6,1.448033e-5 47.842,38.921 62.992,-33.37999 c 0,0 38.798,-31.00101 49.998,-51.71201 18.891,-34.761 18.425,-62.587 18.425,-62.587 0,0 43.458,-14.641 49.895,-50.377 6.417,-35.704 -23.706,-101.749 -140.88101,-120.711 -29.69999,-4.801 -57.83801,-6.14 -83.97501,-4.28"
                         style="fill:none;stroke:#211d1d;stroke-opacity:1;stroke-width:2.696;stroke-linecap:round;stroke-linejoin:round;stroke-miterlimit:4;stroke-dasharray:none"
                         id="path94" /></g><g
                       id="g96"
                       transform="matrix(-1.187184,0,0,1.187165,361.7272,541.2781)"><path
                         d="M 8.392446e-6,1.6864e-6 C 8.392446e-6,1.6864e-6 -31.669,8.89 -65.27201,8.505023 -94.629,8.177988 -123.424,-0.2120236 -123.424,-0.2120236"
                         style="fill:none;stroke:#211d1d;stroke-opacity:1;stroke-width:2.696;stroke-linecap:round;stroke-linejoin:round;stroke-miterlimit:4;stroke-dasharray:none"
                         id="path98" /></g><path
                       d="m 429.7699,442.1006 c -20.3471,-33.7357 -16.706,-73.3074 8.1714,-88.2978 24.8584,-15.0081 61.5318,0.2006 81.8943,33.9648 20.4184,33.7665 16.731,73.2861 -8.1262,88.2883 -24.9012,15.0117 -61.5888,-0.1852 -81.9395,-33.9553"
                       style="fill:#ffffff;fill-opacity:1;fill-rule:nonzero;stroke:none"
                       id="path100" /><g
                       id="g102"
                       transform="matrix(-1.187184,0,0,1.187165,429.7699,442.1006)"><path
                         d="M -1.215112e-6,-7.774332e-6 C 17.139,-28.417 14.072,-61.75001 -6.883003,-74.37701 c -20.938987,-12.642 -51.830007,0.16899 -68.982017,28.61 C -93.06399,-17.324 -89.958,15.965 -69.02001,28.60199 -48.045,41.24698 -17.14201,28.44598 -1.215112e-6,-7.774332e-6 z"
                         style="fill:none;stroke:#211d1d;stroke-opacity:1;stroke-width:2.696;stroke-linecap:round;stroke-linejoin:round;stroke-miterlimit:4;stroke-dasharray:none"
                         id="path104" /></g><path
                       d="m 252.3927,459.7494 c -20.3709,-33.7214 -19.8058,-71.4198 1.2074,-84.1047 21.0606,-12.7146 54.5617,4.3949 74.9516,38.1412 20.403,33.7666 19.8865,71.4104 -1.2061,84.1308 -21.0203,12.6635 -54.6081,-4.3877 -74.9529,-38.1673"
                       style="fill:#ffffff;fill-opacity:1;fill-rule:nonzero;stroke:none"
                       id="path106" /><g
                       id="g108"
                       transform="matrix(-1.187184,0,0,1.187165,252.3927,459.7494)"><path
                         d="M 7.251081e-6,5.001304e-6 C 17.159,-28.40498 16.68301,-60.15999 -1.016994,-70.845 -18.75699,-81.55501 -46.97599,-67.14299 -64.151,-38.717 -81.33699,-10.27399 -80.90199,21.435 -63.135,32.15001 -45.42899,42.81701 -17.13699,28.45402 7.251081e-6,5.001304e-6 z"
                         style="fill:none;stroke:#211d1d;stroke-opacity:1;stroke-width:2.696;stroke-linecap:round;stroke-linejoin:round;stroke-miterlimit:4;stroke-dasharray:none"
                         id="path110" /></g><path
                       d="m 452.5182,397.7918 c 0.1662,-6.1828 4.9292,-10.954 10.579,-10.7403 5.6475,0.1793 10.0258,5.3458 9.7729,11.4692 -0.2125,6.0949 -4.9588,10.8792 -10.5766,10.6619 -5.638,-0.1685 -9.9795,-5.3006 -9.7753,-11.3908"
                       style="fill:#211d1d;fill-opacity:1;fill-rule:nonzero;stroke:none"
                       id="path112" /><path
                       d="m 265.3484,415.0833 c 0.2422,-6.115 4.9482,-10.9516 10.6075,-10.7438 5.581,0.2196 10.0376,5.3256 9.8073,11.4348 -0.2421,6.1447 -5.0075,10.9468 -10.6336,10.7308 -5.651,-0.1781 -10.0044,-5.3126 -9.7812,-11.4218"
                       style="fill:#211d1d;fill-opacity:1;fill-rule:nonzero;stroke:none"
                       id="path114" /><path
                       d="m 344.6196,370.4464 c -13.6929,-0.5105 -33.6982,0.8655 -34.4758,-5.4158 -0.8192,-6.3419 13.6906,-30.503 23.1572,-31.2403 9.4666,-0.6897 44.485,18.9341 44.5811,30.4829 0.1105,11.5475 -20.7033,6.6065 -33.2625,6.1732"
                       style="fill:#59423c;fill-opacity:1;fill-rule:nonzero;stroke:none"
                       id="path116" /><g
                       id="g118"
                       transform="matrix(-1.187184,0,0,1.187165,621.2654,350.926)"><path
                         d="M -2.832648e-5,9.117426e-6 C -2.832648e-5,9.117426e-6 -14.39305,11.59102 -37.14001,22.65101 -62.41602,34.912 -76.37502,38.35302 -76.37502,38.35302"
                         style="fill:none;stroke:#211d1d;stroke-opacity:1;stroke-width:2.696;stroke-linecap:round;stroke-linejoin:round;stroke-miterlimit:4;stroke-dasharray:none"
                         id="path120" /></g><g
                       id="g122"
                       transform="matrix(-1.187184,0,0,1.187165,708.2775,322.7465)"><path
                         d="M 1.762706e-5,1.802121e-5 C 1.762706e-5,1.802121e-5 25.41602,-3.227969 37.009,-3.001986 c 11.59505,0.250996 34.22901,2.4519927 34.22901,2.4519927"
                         style="fill:none;stroke:#211d1d;stroke-opacity:1;stroke-width:2.696;stroke-linecap:round;stroke-linejoin:round;stroke-miterlimit:4;stroke-dasharray:none"
                         id="path124" /></g><g
                       id="g126"
                       transform="matrix(-1.187184,0,0,1.187165,526.9509,200.1196)"><path
                         d="M 8.118306e-6,1.475837e-6 C -30.85597,12.258 -46.91201,-8.313996 -72.506,-28.152 c -13.815,-10.689 -33.568,-15.57201 -28.214,-37.565 5.42699,-21.99401 27.198,-84.225 70.89298,-65.675 43.69704,18.543 -9.119,57.29299 -16.519,69.852"
                         style="fill:none;stroke:#211d1d;stroke-opacity:1;stroke-width:2.696;stroke-linecap:round;stroke-linejoin:round;stroke-miterlimit:4;stroke-dasharray:none"
                         id="path128" /></g><g
                       id="g130"
                       transform="matrix(-1.187184,0,0,1.187165,574.3757,117.8168)"><path
                         d="M 1.417836e-5,2.687525e-6 C 1.417836e-5,2.687525e-6 16.11702,11.47701 31.56003,22.093 c 7.364,5.056 16.60197,13.208 20.94498,21.689"
                         style="fill:none;stroke:#211d1d;stroke-opacity:1;stroke-width:2.696;stroke-linecap:round;stroke-linejoin:round;stroke-miterlimit:4;stroke-dasharray:none"
                         id="path132" /></g><g
                       id="g134"
                       transform="matrix(-1.187184,0,0,1.187165,408.4041,174.6269)"><path
                         d="M 8.831776e-6,-3.047888e-6 C 8.831776e-6,-3.047888e-6 11.515,-6.549999 22.229,-18.09701 c 10.78901,-11.582 19.56501,-35.16 41.58802,-28.13299 22.04098,7.052 36.46998,36.549993 60.80698,12.76299 24.28,-23.784 -24.302,-51.12 -42.45299,-59.44901 -18.188,-8.28498 -34.09199,-16.06198 -55.078,6.46002 -21.012999,22.53999 -28.620006,23.85799 -28.620006,23.85799"
                         style="fill:none;stroke:#3b231b;stroke-opacity:1;stroke-width:0.212;stroke-linecap:butt;stroke-linejoin:miter;stroke-miterlimit:4;stroke-dasharray:none"
                         id="path136" /></g><g
                       id="g138"
                       transform="matrix(-1.187184,0,0,1.187165,400.3187,123.2646)"><path
                         d="M 3.511428e-6,1.482378e-6 C 3.511428e-6,1.482378e-6 -9.515998,-22.315 -17.96701,-34.001 -28.099,-47.95901 -35.946,-56.945 -43.52,-62.351"
                         style="fill:none;stroke:#211d1d;stroke-opacity:1;stroke-width:2.696;stroke-linecap:round;stroke-linejoin:round;stroke-miterlimit:4;stroke-dasharray:none"
                         id="path140" /></g><g
                       id="g142"
                       transform="matrix(-1.187184,0,0,1.187165,477.5361,71.15218)"><path
                         d="m 0,0 c 0,0 44.60001,-45.487 65.47,-65.18999 12.77301,-12.03801 40.428,-37.44201 40.428,-37.44201 0,0 104.219,14.168 90.145,-46.108 -4.154,-17.796 -121.303,-0.021 -121.303,-0.021 0,0 -43.48699,37.774 -72.353005,68.417 -35.107985,37.277 -64.658005,62.173 -64.658005,62.173"
                         style="fill:none;stroke:#211d1d;stroke-opacity:1;stroke-width:2.696;stroke-linecap:round;stroke-linejoin:round;stroke-miterlimit:4;stroke-dasharray:none"
                         id="path144" /></g><g
                       id="g146"
                       transform="matrix(-1.187184,0,0,1.187165,184.1099,344.4842)"><path
                         d="M 1.654037e-6,1.014269e-5 C 1.654037e-6,1.014269e-5 28.38501,3.569017 42.93,8.070004 59.93601,13.35501 71.64501,22.869 71.64501,22.869"
                         style="fill:none;stroke:#211d1d;stroke-opacity:1;stroke-width:2.696;stroke-linecap:round;stroke-linejoin:round;stroke-miterlimit:4;stroke-dasharray:none"
                         id="path148" /></g><g
                       id="g150"
                       transform="matrix(-1.187184,0,0,1.187165,182.2665,300.5533)"><path
                         d="M 7.387389e-6,1.143526e-6 C 7.387389e-6,1.143526e-6 16.64,-7.461988 33.994,-9.844008 51.14601,-12.14099 62.81301,-11.537 62.81301,-11.537"
                         style="fill:none;stroke:#211d1d;stroke-opacity:1;stroke-width:2.696;stroke-linecap:round;stroke-linejoin:round;stroke-miterlimit:4;stroke-dasharray:none"
                         id="path152" /></g><g
                       id="g154"
                       transform="matrix(-1.187184,0,0,1.187165,442.1849,320.0291)"><path
                         d="M 9.024025e-6,0 C 9.024025e-6,0 63.50701,-21.237 87.35801,-27.33499 111.146,-33.37201 154.25,-40.17101 154.25,-40.17101 c 0,0 -51.801,-61.78899 -109.14998,-43.575 C -12.24698,-65.54601 -9.898984,-29.10399 9.024025e-6,0 z"
                         style="fill:none;stroke:#211d1d;stroke-opacity:1;stroke-width:2.696;stroke-linecap:round;stroke-linejoin:round;stroke-miterlimit:4;stroke-dasharray:none"
                         id="path156" /></g><path
                       d="m 169.5171,218.5346 -0.0154,0 0.0154,0 z"
                       style="fill:#3b231b;fill-opacity:1;fill-rule:nonzero;stroke:none"
                       id="path158" /></g></g></g></g><g
               id="g160"><g
                 id="g162"
                 clip-path="url(#clipPath164)"><g
                   id="g168"
                   transform="translate(313.2757,28.67525)"><text
                     transform="matrix(1,0,0,-1,266.7011,-12)"
                     id="text170"><tspan
                       style="fill:#ffffff;fill-opacity:1;fill-rule:nonzero;stroke:none;font-family:Futura Black Narrow;font-variant:normal;font-weight:500;font-size:12;writing-mode:lr;-inkscape-font-specification:Futura-CondensedMedium"
                       x="0 4.236 9.204"
                       y="0"
                       sodipodi:role="line"
                       id="tspan172">133</tspan></text>
<text
                     transform="matrix(1,0,0,-1,280.8731,-12)"
                     id="text174"><tspan
                       style="fill:#ffffff;fill-opacity:1;fill-rule:nonzero;stroke:none;font-family:Futura Black Narrow;font-variant:normal;font-weight:500;font-size:12;writing-mode:lr;-inkscape-font-specification:Futura-CondensedMedium"
                       x="0"
                       y="0"
                       id="tspan176"></tspan></text>
</g></g></g></g></g></g></g></g></svg>