<?xml version="1.0" encoding="UTF-8" standalone="no"?>
<!-- Created with Inkscape (http://www.inkscape.org/) -->

<svg
   xmlns:dc="http://purl.org/dc/elements/1.1/"
   xmlns:cc="http://creativecommons.org/ns#"
   xmlns:rdf="http://www.w3.org/1999/02/22-rdf-syntax-ns#"
   xmlns:svg="http://www.w3.org/2000/svg"
   xmlns="http://www.w3.org/2000/svg"
   xmlns:sodipodi="http://sodipodi.sourceforge.net/DTD/sodipodi-0.dtd"
   xmlns:inkscape="http://www.inkscape.org/namespaces/inkscape"
   id="svg2"
   version="1.1"
   inkscape:version="0.48.5 r10040"
   width="744.095"
   height="1052.3625"
   xml:space="preserve"
   sodipodi:docname="tmp.pdf"><metadata
     id="metadata8"><rdf:RDF><cc:Work
         rdf:about=""><dc:format>image/svg+xml</dc:format><dc:type
           rdf:resource="http://purl.org/dc/dcmitype/StillImage" /><dc:title></dc:title></cc:Work></rdf:RDF></metadata><defs
     id="defs6"><clipPath
       clipPathUnits="userSpaceOnUse"
       id="clipPath20"><path
         d="M 0,0 612,0 612,792 0,792 0,0 z"
         id="path22" /></clipPath><clipPath
       clipPathUnits="userSpaceOnUse"
       id="clipPath30"><path
         d="m 0,-2.69413e-5 612,0 0,791.9998969413 -612,0 L 0,-2.69413e-5 z"
         id="path32" /></clipPath></defs><sodipodi:namedview
     pagecolor="#ffffff"
     bordercolor="#666666"
     borderopacity="1"
     objecttolerance="10"
     gridtolerance="10"
     guidetolerance="10"
     inkscape:pageopacity="0"
     inkscape:pageshadow="2"
     inkscape:window-width="640"
     inkscape:window-height="480"
     id="namedview4"
     showgrid="false"
     inkscape:zoom="0.22425732"
     inkscape:cx="372.04749"
     inkscape:cy="526.18127"
     inkscape:window-x="0"
     inkscape:window-y="31"
     inkscape:window-maximized="0"
     inkscape:current-layer="g10" /><g
     id="g10"
     inkscape:groupmode="layer"
     inkscape:label="tmp"
     transform="matrix(1.25,0,0,-1.25,-0.17375,1007.8787)"><g
       id="g12"
       transform="scale(0.97313,0.97313)"><g
         id="g14"><g
           id="g16"><g
             id="g18"
             clip-path="url(#clipPath20)"><g
               id="g24" /><g
               id="g26"><g
                 id="g28"
                 clip-path="url(#clipPath30)"><path
                   d="m 0,791.9999 611.9999,0 0,-791.9998873878 -611.9999,0 L 0,791.9999 z"
                   style="fill:#ffffff;fill-opacity:1;fill-rule:evenodd;stroke:none"
                   id="path34" /><path
                   d="m 0.1389304,739.8171 596.8739696,0 c 0.2454,-0.529 -20.7927,-18.3081 -20.2813,-18.837 -0.6887,0.1915 20.7041,-18.8669 20.2813,-18.9254 l -596.8739696,0 c -0.08329005,12.5875 0.0832901,25.1749 0,37.7624 z"
                   style="fill:#000000;fill-opacity:1;fill-rule:evenodd;stroke:none"
                   id="path36" /><g
                   id="g38"
                   transform="translate(43.11716,677.7903)"><text
                     transform="matrix(1,0,0,-1,0,-13.2)"
                     id="text40"><tspan
                       style="fill:#000000;fill-opacity:1;fill-rule:nonzero;stroke:none;font-family:Futura Black Narrow;font-variant:normal;font-weight:800;font-size:12;writing-mode:lr;-inkscape-font-specification:Futura-CondensedExtraBold"
                       x="0 7.4004 15.0348 18.744 23.9352 28.3116 35.5308 39.9072 47.1324 51.5088 57.1104 62.3604 70.0536 77.2956 81.0048 86.5884 92.0724 96.4488 100.0584 104.4348 108.0444 112.4208 116.0304 120.4068 124.0164 128.3928 132.0024 136.3788 139.9884 144.3648 147.9744 152.3508 155.9604 160.3368 163.9464 168.3228 171.9324 176.3088 179.9184 184.2948 187.9044 192.2808 195.8904 200.2668 203.8764 208.2528 211.8624 216.2388 219.8484 224.2248 227.8344 232.2108 235.8204 240.1968 243.8064 248.1828 251.7924 256.1688 259.7784 264.1548 267.7644 272.1408 275.7504 280.1268 283.7364 288.1128 291.7224 296.0988 299.7084 304.0848 307.6944 312.0708 315.6804 320.0568 323.6664 328.0428 331.6524 336.0288 339.6384 344.0148 347.6244 352.0008 355.6104 359.9868 363.5964 367.9728 371.5824 375.9588 379.5684 383.9448 387.5544 391.9308 395.5404 399.9168 403.5264 407.9028 411.5124 415.8888 419.4984 423.8748 427.4844 431.8608 435.4704 439.8468 443.4564 447.8328 451.4424 455.8188 459.4284 463.8048 467.4144 471.7908 475.4004 479.7768 483.3864 487.7628 491.3724 495.7488 499.3584 503.7348 507.3444 511.7208 518.94"
                       y="0"
                       sodipodi:role="line"
                       id="tspan42">UNIT 3 – STORIES . . . . . . . . . . . . . . . . . . . . . . . . . . . . . . . . . . . . . . . . . . . . . . . . . . . . 55</tspan></text>
<text
                     transform="matrix(1,0,0,-1,526.1592,-13.2)"
                     id="text44"><tspan
                       style="fill:#000000;fill-opacity:1;fill-rule:nonzero;stroke:none;font-family:Futura Black Narrow;font-variant:normal;font-weight:800;font-size:12;writing-mode:lr;-inkscape-font-specification:Futura-CondensedExtraBold"
                       x="0"
                       y="0"
                       id="tspan46"></tspan></text>
</g><g
                   id="g48"
                   transform="translate(79.11716,662.7903)"><text
                     transform="matrix(1,0,0,-1,0,-13.2)"
                     id="text50"><tspan
                       style="fill:#000000;fill-opacity:1;fill-rule:nonzero;stroke:none;font-family:Futura Black Narrow;font-variant:normal;font-weight:500;font-size:12;writing-mode:lr;-inkscape-font-specification:Futura-CondensedMedium"
                       x="0 4.5756 9.4332 14.1672 17.442 22.176 25.6032 28.2576 32.682 36.0576 39.5844 43.254 45.738 49.4076 51.8916 55.5612 58.0452 61.7148 64.1988 67.8684 70.3524 74.022 76.506 80.1756 82.6596 86.3292 88.8132 92.4828 94.9668 98.6364 101.1204 104.79 107.274 110.9436 113.4276 117.0972 119.5812 123.2508 125.7348 129.4044 131.8884 135.558 138.042 141.7116 144.1956 147.8652 150.3492 154.0188 156.5028 160.1724 162.6564 166.326 168.81 172.4796 174.9636 178.6332 181.1172 184.7868 187.2708 190.9404 193.4244 197.094 199.578 203.2476 205.7316 209.4012 211.8852 215.5548 218.0388 221.7084 224.1924 227.862 230.346 234.0156 236.4996 240.1692 242.6532 246.3228 248.8068 252.4764 254.9604 258.63 261.114 264.7836 267.2676 270.9372 273.4212 277.0908 279.5748 283.2444 285.7284 289.398 291.882 295.5516 298.0356 301.7052 304.1892 307.8588 310.3428 314.0124 316.4964 320.166 322.65 326.3196 328.8036 332.4732 334.9572 338.6268 341.1108 344.7804 347.2644 350.934 353.418 357.0876 359.5716 363.2412 365.7252 369.3948 371.8788 375.5484 378.0324 381.702 384.186 387.8556 390.3396 394.0092 396.4932 400.1628 402.6468 406.3164 408.8004 412.47 414.954 418.6236 421.1076 424.7772 427.2612 430.9308 433.4148 437.0844 439.5684 443.238 445.722 449.3916 451.8756 455.5452 458.0292 461.6988 464.1828 467.8524 470.3364 474.006 476.49 480.1596 485.1288"
                       y="0"
                       sodipodi:role="line"
                       id="tspan52">Characters . . . . . . . . . . . . . . . . . . . . . . . . . . . . . . . . . . . . . . . . . . . . . . . . . . . . . . . . . . . . . . . . . . . . . . . 58</tspan></text>
<text
                     transform="matrix(1,0,0,-1,490.098,-13.2)"
                     id="text54"><tspan
                       style="fill:#000000;fill-opacity:1;fill-rule:nonzero;stroke:none;font-family:Futura Black Narrow;font-variant:normal;font-weight:500;font-size:12;writing-mode:lr;-inkscape-font-specification:Futura-CondensedMedium"
                       x="0"
                       y="0"
                       id="tspan56"></tspan></text>
</g><g
                   id="g58"
                   transform="translate(79.11716,646.7903)"><text
                     transform="matrix(1,0,0,-1,0,-13.2)"
                     id="text60"><tspan
                       style="fill:#000000;fill-opacity:1;fill-rule:nonzero;stroke:none;font-family:Futura Black Narrow;font-variant:normal;font-weight:500;font-size:12;writing-mode:lr;-inkscape-font-specification:Futura-CondensedMedium"
                       x="0 4.5756 9.1992 13.998 18 22.4244 25.8 29.3268 34.0608 36.7272 39.1116 43.7352 48.5928 52.1196 55.6152 58.0992 61.5948 64.0788 67.5744 70.0584 73.554 76.038 79.5336 82.0176 85.5132 87.9972 91.4928 93.9768 97.4724 99.9564 103.452 105.936 109.4316 111.9156 115.4112 117.8952 121.3908 123.8748 127.3704 129.8544 133.35 135.834 139.3296 141.8136 145.3092 147.7932 151.2888 153.7728 157.2684 159.7524 163.248 165.732 169.2276 171.7116 175.2072 177.6912 181.1868 183.6708 187.1664 189.6504 193.146 195.63 199.1256 201.6096 205.1052 207.5892 211.0848 213.5688 217.0644 219.5484 223.044 225.528 229.0236 231.5076 235.0032 237.4872 240.9828 243.4668 246.9624 249.4464 252.942 255.426 258.9216 261.4056 264.9012 267.3852 270.8808 273.3648 276.8604 279.3444 282.84 285.324 288.8196 291.3036 294.7992 297.2832 300.7788 303.2628 306.7584 309.2424 312.738 315.222 318.7176 321.2016 324.6972 327.1812 330.6768 333.1608 336.6564 339.1404 342.636 345.12 348.6156 351.0996 354.5952 357.0792 360.5748 363.0588 366.5544 369.0384 372.534 375.018 378.5136 380.9976 384.4932 386.9772 390.4728 392.9568 396.4524 398.9364 402.432 404.916 408.4116 410.8956 414.3912 416.8752 420.3708 422.8548 426.3504 428.8344 432.33 434.814 438.3096 440.7936 444.2892 446.7732 450.2688 452.7528 456.2484 458.7324 462.228 464.712 468.2076 470.6916 474.1872 476.6712 480.1668 485.136"
                       y="0"
                       sodipodi:role="line"
                       id="tspan62">Conversations . . . . . . . . . . . . . . . . . . . . . . . . . . . . . . . . . . . . . . . . . . . . . . . . . . . . . . . . . . . . . . . . . . . . . . . 60</tspan></text>
<text
                     transform="matrix(1,0,0,-1,490.1052,-13.2)"
                     id="text64"><tspan
                       style="fill:#000000;fill-opacity:1;fill-rule:nonzero;stroke:none;font-family:Futura Black Narrow;font-variant:normal;font-weight:500;font-size:12;writing-mode:lr;-inkscape-font-specification:Futura-CondensedMedium"
                       x="0"
                       y="0"
                       id="tspan66"></tspan></text>
</g><g
                   id="g68"
                   transform="translate(79.11716,630.7903)"><text
                     transform="matrix(1,0,0,-1,0,-13.2)"
                     id="text70"><tspan
                       style="fill:#000000;fill-opacity:1;fill-rule:nonzero;stroke:none;font-family:Futura Black Narrow;font-variant:normal;font-weight:500;font-size:12;writing-mode:lr;-inkscape-font-specification:Futura-CondensedMedium"
                       x="0 4.476 7.9032 12.3276 17.1852 21.6096 25.1364 29.0064 31.4904 35.3604 37.8444 41.7144 44.1984 48.0684 50.5524 54.4224 56.9064 60.7764 63.2604 67.1304 69.6144 73.4844 75.9684 79.8384 82.3224 86.1924 88.6764 92.5464 95.0304 98.9004 101.3844 105.2544 107.7384 111.6084 114.0924 117.9624 120.4464 124.3164 126.8004 130.6704 133.1544 137.0244 139.5084 143.3784 145.8624 149.7324 152.2164 156.0864 158.5704 162.4404 164.9244 168.7944 171.2784 175.1484 177.6324 181.5024 183.9864 187.8564 190.3404 194.2104 196.6944 200.5644 203.0484 206.9184 209.4024 213.2724 215.7564 219.6264 222.1104 225.9804 228.4644 232.3344 234.8184 238.6884 241.1724 245.0424 247.5264 251.3964 253.8804 257.7504 260.2344 264.1044 266.5884 270.4584 272.9424 276.8124 279.2964 283.1664 285.6504 289.5204 292.0044 295.8744 298.3584 302.2284 304.7124 308.5824 311.0664 314.9364 317.4204 321.2904 323.7744 327.6444 330.1284 333.9984 336.4824 340.3524 342.8364 346.7064 349.1904 353.0604 355.5444 359.4144 361.8984 365.7684 368.2524 372.1224 374.6064 378.4764 380.9604 384.8304 387.3144 391.1844 393.6684 397.5384 400.0224 403.8924 406.3764 410.2464 412.7304 416.6004 419.0844 422.9544 425.4384 429.3084 431.7924 435.6624 438.1464 442.0164 444.5004 448.3704 450.8544 454.7244 457.2084 461.0784 463.5624 467.4324 469.9164 473.7864 476.2704 480.1404 485.1096"
                       y="0"
                       sodipodi:role="line"
                       id="tspan72">Scenes . . . . . . . . . . . . . . . . . . . . . . . . . . . . . . . . . . . . . . . . . . . . . . . . . . . . . . . . . . . . . . . . . . . . . . . 62</tspan></text>
<text
                     transform="matrix(1,0,0,-1,490.0788,-13.2)"
                     id="text74"><tspan
                       style="fill:#000000;fill-opacity:1;fill-rule:nonzero;stroke:none;font-family:Futura Black Narrow;font-variant:normal;font-weight:500;font-size:12;writing-mode:lr;-inkscape-font-specification:Futura-CondensedMedium"
                       x="0"
                       y="0"
                       id="tspan76"></tspan></text>
</g><g
                   id="g78"
                   transform="translate(79.11716,614.7903)"><text
                     transform="matrix(1,0,0,-1,0,-13.2)"
                     id="text80"><tspan
                       style="fill:#000000;fill-opacity:1;fill-rule:nonzero;stroke:none;font-family:Futura Black Narrow;font-variant:normal;font-weight:500;font-size:12;writing-mode:lr;-inkscape-font-specification:Futura-CondensedMedium"
                       x="0 5.5836 10.008 14.742 19.6176 24.3576 27.6708 30.2844 32.9508 36.2964 39.6096 42.0936 45.4068 47.8908 51.204 53.688 57.0012 59.4852 62.7984 65.2824 68.5956 71.0796 74.3928 76.8768 80.19 82.674 85.9872 88.4712 91.7844 94.2684 97.5816 100.0656 103.3788 105.8628 109.176 111.66 114.9732 117.4572 120.7704 123.2544 126.5676 129.0516 132.3648 134.8488 138.162 140.646 143.9592 146.4432 149.7564 152.2404 155.5536 158.0376 161.3508 163.8348 167.148 169.632 172.9452 175.4292 178.7424 181.2264 184.5396 187.0236 190.3368 192.8208 196.134 198.618 201.9312 204.4152 207.7284 210.2124 213.5256 216.0096 219.3228 221.8068 225.12 227.604 230.9172 233.4012 236.7144 239.1984 242.5116 244.9956 248.3088 250.7928 254.106 256.59 259.9032 262.3872 265.7004 268.1844 271.4976 273.9816 277.2948 279.7788 283.092 285.576 288.8892 291.3732 294.6864 297.1704 300.4836 302.9676 306.2808 308.7648 312.078 314.562 317.8752 320.3592 323.6724 326.1564 329.4696 331.9536 335.2668 337.7508 341.064 343.548 346.8612 349.3452 352.6584 355.1424 358.4556 360.9396 364.2528 366.7368 370.05 372.534 375.8472 378.3312 381.6444 384.1284 387.4416 389.9256 393.2388 395.7228 399.036 401.52 404.8332 407.3172 410.6304 413.1144 416.4276 418.9116 422.2248 424.7088 428.022 430.506 433.8192 436.3032 439.6164 442.1004 445.4136 447.8976 451.2108 453.6948 457.008 459.492 462.8052 465.2892 468.6024 471.0864 474.3996 476.8836 480.1968 485.154"
                       y="0"
                       sodipodi:role="line"
                       id="tspan82">Debug It! . . . . . . . . . . . . . . . . . . . . . . . . . . . . . . . . . . . . . . . . . . . . . . . . . . . . . . . . . . . . . . . . . . . . . . . . . . . . 64</tspan></text>
</g><g
                   id="g84"
                   transform="translate(79.11716,614.7903)"><text
                     transform="matrix(1,0,0,-1,490.1243,-13.2)"
                     id="text86"><tspan
                       style="fill:#000000;fill-opacity:1;fill-rule:nonzero;stroke:none;font-family:Futura Black Narrow;font-variant:normal;font-weight:800;font-size:7;writing-mode:lr;-inkscape-font-specification:Futura-CondensedExtraBold"
                       x="0"
                       y="0"
                       id="tspan88"></tspan></text>
</g><g
                   id="g90"
                   transform="translate(79.11716,598.7903)"><text
                     transform="matrix(1,0,0,-1,0,-13.2)"
                     id="text92"><tspan
                       style="fill:#000000;fill-opacity:1;fill-rule:nonzero;stroke:none;font-family:Futura Black Narrow;font-variant:normal;font-weight:500;font-size:12;writing-mode:lr;-inkscape-font-specification:Futura-CondensedMedium"
                       x="0 4.5756 7.8156 12.24 16.974 19.6404 24.516 27.756 32.1804 35.2656 39.8412 44.4648 49.3224 52.908 55.5744 58.8024 63.678 67.1052 69.7716 72.156 76.7796 81.6372 84.7224 87.2064 90.2916 92.7756 95.8608 98.3448 101.43 103.914 106.9992 109.4832 112.5684 115.0524 118.1376 120.6216 123.7068 126.1908 129.276 131.76 134.8452 137.3292 140.4144 142.8984 145.9836 148.4676 151.5528 154.0368 157.122 159.606 162.6912 165.1752 168.2604 170.7444 173.8296 176.3136 179.3988 181.8828 184.968 187.452 190.5372 193.0212 196.1064 198.5904 201.6756 204.1596 207.2448 209.7288 212.814 215.298 218.3832 220.8672 223.9524 226.4364 229.5216 232.0056 235.0908 237.5748 240.66 243.144 246.2292 248.7132 251.7984 254.2824 257.3676 259.8516 262.9368 265.4208 268.506 270.99 274.0752 276.5592 279.6444 282.1284 285.2136 287.6976 290.7828 293.2668 296.352 298.836 301.9212 304.4052 307.4904 309.9744 313.0596 315.5436 318.6288 321.1128 324.198 326.682 329.7672 332.2512 335.3364 337.8204 340.9056 343.3896 346.4748 348.9588 352.044 354.528 357.6132 360.0972 363.1824 365.6664 368.7516 371.2356 374.3208 376.8048 379.89 382.374 385.4592 387.9432 391.0284 393.5124 396.5976 399.0816 402.1668 404.6508 407.736 410.22 413.3052 415.7892 418.8744 421.3584 424.4436 426.9276 430.0128 432.4968 435.582 438.066 441.1512 443.6352 446.7204 449.2044 452.2896 454.7736 457.8588 460.3428 463.428 465.912 468.9972 471.4812 474.5664 477.0504 480.1356 485.1048"
                       y="0"
                       sodipodi:role="line"
                       id="tspan94">Creature Construction . . . . . . . . . . . . . . . . . . . . . . . . . . . . . . . . . . . . . . . . . . . . . . . . . . . . . . . . . . . . . . . . . . . . . . . 66</tspan></text>
<text
                     transform="matrix(1,0,0,-1,490.074,-13.2)"
                     id="text96"><tspan
                       style="fill:#000000;fill-opacity:1;fill-rule:nonzero;stroke:none;font-family:Futura Black Narrow;font-variant:normal;font-weight:500;font-size:12;writing-mode:lr;-inkscape-font-specification:Futura-CondensedMedium"
                       x="0"
                       y="0"
                       id="tspan98"></tspan></text>
</g><g
                   id="g100"
                   transform="translate(79.11716,582.7903)"><text
                     transform="matrix(1,0,0,-1,0,-13.2)"
                     id="text102"><tspan
                       style="fill:#000000;fill-opacity:1;fill-rule:nonzero;stroke:none;font-family:Futura Black Narrow;font-variant:normal;font-weight:500;font-size:12;writing-mode:lr;-inkscape-font-specification:Futura-CondensedMedium"
                       x="0 4.6752 9.4092 12.936 16.4628 20.1312 22.7448 25.4112 29.0796 34.8156 39.6732 43.3416 45.8256 49.494 51.978 55.6464 58.1304 61.7988 64.2828 67.9512 70.4352 74.1036 76.5876 80.256 82.74 86.4084 88.8924 92.5608 95.0448 98.7132 101.1972 104.8656 107.3496 111.018 113.502 117.1704 119.6544 123.3228 125.8068 129.4752 131.9592 135.6276 138.1116 141.78 144.264 147.9324 150.4164 154.0848 156.5688 160.2372 162.7212 166.3896 168.8736 172.542 175.026 178.6944 181.1784 184.8468 187.3308 190.9992 193.4832 197.1516 199.6356 203.304 205.788 209.4564 211.9404 215.6088 218.0928 221.7612 224.2452 227.9136 230.3976 234.066 236.55 240.2184 242.7024 246.3708 248.8548 252.5232 255.0072 258.6756 261.1596 264.828 267.312 270.9804 273.4644 277.1328 279.6168 283.2852 285.7692 289.4376 291.9216 295.59 298.074 301.7424 304.2264 307.8948 310.3788 314.0472 316.5312 320.1996 322.6836 326.352 328.836 332.5044 334.9884 338.6568 341.1408 344.8092 347.2932 350.9616 353.4456 357.114 359.598 363.2664 365.7504 369.4188 371.9028 375.5712 378.0552 381.7236 384.2076 387.876 390.36 394.0284 396.5124 400.1808 402.6648 406.3332 408.8172 412.4856 414.9696 418.638 421.122 424.7904 427.2744 430.9428 433.4268 437.0952 439.5792 443.2476 445.7316 449.4 451.884 455.5524 458.0364 461.7048 464.1888 467.8572 470.3412 474.0096 476.4936 480.162 485.1312"
                       y="0"
                       sodipodi:role="line"
                       id="tspan104">Pass It On . . . . . . . . . . . . . . . . . . . . . . . . . . . . . . . . . . . . . . . . . . . . . . . . . . . . . . . . . . . . . . . . . . . . . . . 68</tspan></text>
</g><g
                   id="g106"
                   transform="translate(79.11716,582.7903)"><text
                     transform="matrix(1,0,0,-1,490.1239,-13.2)"
                     id="text108"><tspan
                       style="fill:#000000;fill-opacity:1;fill-rule:nonzero;stroke:none;font-family:Futura Black Narrow;font-variant:normal;font-weight:800;font-size:7;writing-mode:lr;-inkscape-font-specification:Futura-CondensedExtraBold"
                       x="0"
                       y="0"
                       id="tspan110"></tspan></text>
</g><g
                   id="g112"
                   transform="translate(43.11716,567.7903)"><text
                     transform="matrix(1,0,0,-1,263.0625,-13.2)"
                     id="text114"><tspan
                       style="fill:#000000;fill-opacity:1;fill-rule:nonzero;stroke:none;font-family:Futura Black Narrow;font-variant:normal;font-weight:800;font-size:12;writing-mode:lr;-inkscape-font-specification:Futura-CondensedExtraBold"
                       x="0"
                       y="0"
                       id="tspan116"></tspan></text>
</g><g
                   id="g118"
                   transform="translate(43.11716,551.7903)"><text
                     transform="matrix(1,0,0,-1,0,-13.2)"
                     id="text120"><tspan
                       style="fill:#000000;fill-opacity:1;fill-rule:nonzero;stroke:none;font-family:Futura Black Narrow;font-variant:normal;font-weight:800;font-size:12;writing-mode:lr;-inkscape-font-specification:Futura-CondensedExtraBold"
                       x="0 7.4004 15.0348 18.744 23.9352 28.4004 35.6196 40.0848 47.31 51.7752 59.1816 66.4068 76.8012 82.3848 87.8688 92.334 95.9436 100.4088 104.0184 108.4836 112.0932 116.5584 120.168 124.6332 128.2428 132.708 136.3176 140.7828 144.3924 148.8576 152.4672 156.9324 160.542 165.0072 168.6168 173.082 176.6916 181.1568 184.7664 189.2316 192.8412 197.3064 200.916 205.3812 208.9908 213.456 217.0656 221.5308 225.1404 229.6056 233.2152 237.6804 241.29 245.7552 249.3648 253.83 257.4396 261.9048 265.5144 269.9796 273.5892 278.0544 281.664 286.1292 289.7388 294.204 297.8136 302.2788 305.8884 310.3536 313.9632 318.4284 322.038 326.5032 330.1128 334.578 338.1876 342.6528 346.2624 350.7276 354.3372 358.8024 362.412 366.8772 370.4868 374.952 378.5616 383.0268 386.6364 391.1016 394.7112 399.1764 402.786 407.2512 410.8608 415.326 418.9356 423.4008 427.0104 431.4756 435.0852 439.5504 443.16 447.6252 451.2348 455.7 459.3096 463.7748 467.3844 471.8496 475.4592 479.9244 483.534 487.9992 491.6088 496.074 499.6836 504.1488 507.7584 512.2236 518.9496"
                       y="0"
                       sodipodi:role="line"
                       id="tspan122">UNIT 4 – GAMES . . . . . . . . . . . . . . . . . . . . . . . . . . . . . . . . . . . . . . . . . . . . . . . . . . . . 71</tspan></text>
<text
                     transform="matrix(1,0,0,-1,526.1688,-13.2)"
                     id="text124"><tspan
                       style="fill:#000000;fill-opacity:1;fill-rule:nonzero;stroke:none;font-family:Futura Black Narrow;font-variant:normal;font-weight:800;font-size:12;writing-mode:lr;-inkscape-font-specification:Futura-CondensedExtraBold"
                       x="0"
                       y="0"
                       id="tspan126"></tspan></text>
</g><g
                   id="g128"
                   transform="translate(79.11716,535.7903)"><text
                     transform="matrix(1,0,0,-1,0,-13.2)"
                     id="text130"><tspan
                       style="fill:#000000;fill-opacity:1;fill-rule:nonzero;stroke:none;font-family:Futura Black Narrow;font-variant:normal;font-weight:500;font-size:12;writing-mode:lr;-inkscape-font-specification:Futura-CondensedMedium"
                       x="0 5.5836 8.8236 13.248 17.982 25.3116 28.6164 34.212 38.946 46.2756 50.7 54.0048 57.978 60.3624 63.948 66.6144 69.9192 72.4032 75.708 78.192 81.4968 83.9808 87.2856 89.7696 93.0744 95.5584 98.8632 101.3472 104.652 107.136 110.4408 112.9248 116.2296 118.7136 122.0184 124.5024 127.8072 130.2912 133.596 136.08 139.3848 141.8688 145.1736 147.6576 150.9624 153.4464 156.7512 159.2352 162.54 165.024 168.3288 170.8128 174.1176 176.6016 179.9064 182.3904 185.6952 188.1792 191.484 193.968 197.2728 199.7568 203.0616 205.5456 208.8504 211.3344 214.6392 217.1232 220.428 222.912 226.2168 228.7008 232.0056 234.4896 237.7944 240.2784 243.5832 246.0672 249.372 251.856 255.1608 257.6448 260.9496 263.4336 266.7384 269.2224 272.5272 275.0112 278.316 280.8 284.1048 286.5888 289.8936 292.3776 295.6824 298.1664 301.4712 303.9552 307.26 309.744 313.0488 315.5328 318.8376 321.3216 324.6264 327.1104 330.4152 332.8992 336.204 338.688 341.9928 344.4768 347.7816 350.2656 353.5704 356.0544 359.3592 361.8432 365.148 367.632 370.9368 373.4208 376.7256 379.2096 382.5144 384.9984 388.3032 390.7872 394.092 396.576 399.8808 402.3648 405.6696 408.1536 411.4584 413.9424 417.2472 419.7312 423.036 425.52 428.8248 431.3088 434.6136 437.0976 440.4024 442.8864 446.1912 448.6752 451.98 454.464 457.7688 460.2528 463.5576 466.0416 469.3464 471.8304 475.1352 477.6192 480.924 485.1492"
                       y="0"
                       sodipodi:role="line"
                       id="tspan132">Dream Game List . . . . . . . . . . . . . . . . . . . . . . . . . . . . . . . . . . . . . . . . . . . . . . . . . . . . . . . . . . . . . . . . . . . . . . . 74</tspan></text>
<text
                     transform="matrix(1,0,0,-1,490.1184,-13.2)"
                     id="text134"><tspan
                       style="fill:#000000;fill-opacity:1;fill-rule:nonzero;stroke:none;font-family:Futura Black Narrow;font-variant:normal;font-weight:500;font-size:12;writing-mode:lr;-inkscape-font-specification:Futura-CondensedMedium"
                       x="0"
                       y="0"
                       id="tspan136"></tspan></text>
</g><g
                   id="g138"
                   transform="translate(79.11716,519.7903)"><text
                     transform="matrix(1,0,0,-1,0,-13.2)"
                     id="text140"><tspan
                       style="fill:#000000;fill-opacity:1;fill-rule:nonzero;stroke:none;font-family:Futura Black Narrow;font-variant:normal;font-weight:500;font-size:12;writing-mode:lr;-inkscape-font-specification:Futura-CondensedMedium"
                       x="0 4.3824 7.0596 11.7936 15.2508 17.9052 22.3296 25.5348 29.0052 34.6008 39.3348 46.6644 51.0888 54.6156 58.086 60.57 64.0404 66.5244 69.9948 72.4788 75.9492 78.4332 81.9036 84.3876 87.858 90.342 93.8124 96.2964 99.7668 102.2508 105.7212 108.2052 111.6756 114.1596 117.63 120.114 123.5844 126.0684 129.5388 132.0228 135.4932 137.9772 141.4476 143.9316 147.402 149.886 153.3564 155.8404 159.3108 161.7948 165.2652 167.7492 171.2196 173.7036 177.174 179.658 183.1284 185.6124 189.0828 191.5668 195.0372 197.5212 200.9916 203.4756 206.946 209.43 212.9004 215.3844 218.8548 221.3388 224.8092 227.2932 230.7636 233.2476 236.718 239.202 242.6724 245.1564 248.6268 251.1108 254.5812 257.0652 260.5356 263.0196 266.49 268.974 272.4444 274.9284 278.3988 280.8828 284.3532 286.8372 290.3076 292.7916 296.262 298.746 302.2164 304.7004 308.1708 310.6548 314.1252 316.6092 320.0796 322.5636 326.034 328.518 331.9884 334.4724 337.9428 340.4268 343.8972 346.3812 349.8516 352.3356 355.806 358.29 361.7604 364.2444 367.7148 370.1988 373.6692 376.1532 379.6236 382.1076 385.578 388.062 391.5324 394.0164 397.4868 399.9708 403.4412 405.9252 409.3956 411.8796 415.35 417.834 421.3044 423.7884 427.2588 429.7428 433.2132 435.6972 439.1676 441.6516 445.122 447.606 451.0764 453.5604 457.0308 459.5148 462.9852 465.4692 468.9396 471.4236 474.894 477.378 480.8484 485.1204"
                       y="0"
                       sodipodi:role="line"
                       id="tspan142">Starter Games . . . . . . . . . . . . . . . . . . . . . . . . . . . . . . . . . . . . . . . . . . . . . . . . . . . . . . . . . . . . . . . . . . . . . . . 76</tspan></text>
<text
                     transform="matrix(1,0,0,-1,490.0896,-13.2)"
                     id="text144"><tspan
                       style="fill:#000000;fill-opacity:1;fill-rule:nonzero;stroke:none;font-family:Futura Black Narrow;font-variant:normal;font-weight:500;font-size:12;writing-mode:lr;-inkscape-font-specification:Futura-CondensedMedium"
                       x="0"
                       y="0"
                       id="tspan146"></tspan></text>
</g><g
                   id="g148"
                   transform="translate(79.11716,503.7903)"><text
                     transform="matrix(1,0,0,-1,0,-13.2)"
                     id="text150"><tspan
                       style="fill:#000000;fill-opacity:1;fill-rule:nonzero;stroke:none;font-family:Futura Black Narrow;font-variant:normal;font-weight:500;font-size:12;writing-mode:lr;-inkscape-font-specification:Futura-CondensedMedium"
                       x="0 4.476 7.9032 12.5268 15.7668 20.1912 23.7924 26.2764 29.8776 32.3616 35.9628 38.4468 42.048 44.532 48.1332 50.6172 54.2184 56.7024 60.3036 62.7876 66.3888 68.8728 72.474 74.958 78.5592 81.0432 84.6444 87.1284 90.7296 93.2136 96.8148 99.2988 102.9 105.384 108.9852 111.4692 115.0704 117.5544 121.1556 123.6396 127.2408 129.7248 133.326 135.81 139.4112 141.8952 145.4964 147.9804 151.5816 154.0656 157.6668 160.1508 163.752 166.236 169.8372 172.3212 175.9224 178.4064 182.0076 184.4916 188.0928 190.5768 194.178 196.662 200.2632 202.7472 206.3484 208.8324 212.4336 214.9176 218.5188 221.0028 224.604 227.088 230.6892 233.1732 236.7744 239.2584 242.8596 245.3436 248.9448 251.4288 255.03 257.514 261.1152 263.5992 267.2004 269.6844 273.2856 275.7696 279.3708 281.8548 285.456 287.94 291.5412 294.0252 297.6264 300.1104 303.7116 306.1956 309.7968 312.2808 315.882 318.366 321.9672 324.4512 328.0524 330.5364 334.1376 336.6216 340.2228 342.7068 346.308 348.792 352.3932 354.8772 358.4784 360.9624 364.5636 367.0476 370.6488 373.1328 376.734 379.218 382.8192 385.3032 388.9044 391.3884 394.9896 397.4736 401.0748 403.5588 407.16 409.644 413.2452 415.7292 419.3304 421.8144 425.4156 427.8996 431.5008 433.9848 437.586 440.07 443.6712 446.1552 449.7564 452.2404 455.8416 458.3256 461.9268 464.4108 468.012 470.496 474.0972 476.5812 480.1824 485.1516"
                       y="0"
                       sodipodi:role="line"
                       id="tspan152">Score . . . . . . . . . . . . . . . . . . . . . . . . . . . . . . . . . . . . . . . . . . . . . . . . . . . . . . . . . . . . . . . . . . . . . . . . . . . 80</tspan></text>
<text
                     transform="matrix(1,0,0,-1,490.1208,-13.2)"
                     id="text154"><tspan
                       style="fill:#000000;fill-opacity:1;fill-rule:nonzero;stroke:none;font-family:Futura Black Narrow;font-variant:normal;font-weight:500;font-size:12;writing-mode:lr;-inkscape-font-specification:Futura-CondensedMedium"
                       x="0"
                       y="0"
                       id="tspan156"></tspan></text>
</g><g
                   id="g158"
                   transform="translate(79.11716,487.7903)"><text
                     transform="matrix(1,0,0,-1,0,-13.2)"
                     id="text160"><tspan
                       style="fill:#000000;fill-opacity:1;fill-rule:nonzero;stroke:none;font-family:Futura Black Narrow;font-variant:normal;font-weight:500;font-size:12;writing-mode:lr;-inkscape-font-specification:Futura-CondensedMedium"
                       x="0 4.3596 8.8716 11.526 15.9504 20.808 24.3348 26.7192 31.3428 36.2004 39.7272 43.3944 45.8784 49.5456 52.0296 55.6968 58.1808 61.848 64.332 67.9992 70.4832 74.1504 76.6344 80.3016 82.7856 86.4528 88.9368 92.604 95.088 98.7552 101.2392 104.9064 107.3904 111.0576 113.5416 117.2088 119.6928 123.36 125.844 129.5112 131.9952 135.6624 138.1464 141.8136 144.2976 147.9648 150.4488 154.116 156.6 160.2672 162.7512 166.4184 168.9024 172.5696 175.0536 178.7208 181.2048 184.872 187.356 191.0232 193.5072 197.1744 199.6584 203.3256 205.8096 209.4768 211.9608 215.628 218.112 221.7792 224.2632 227.9304 230.4144 234.0816 236.5656 240.2328 242.7168 246.384 248.868 252.5352 255.0192 258.6864 261.1704 264.8376 267.3216 270.9888 273.4728 277.14 279.624 283.2912 285.7752 289.4424 291.9264 295.5936 298.0776 301.7448 304.2288 307.896 310.38 314.0472 316.5312 320.1984 322.6824 326.3496 328.8336 332.5008 334.9848 338.652 341.136 344.8032 347.2872 350.9544 353.4384 357.1056 359.5896 363.2568 365.7408 369.408 371.892 375.5592 378.0432 381.7104 384.1944 387.8616 390.3456 394.0128 396.4968 400.164 402.648 406.3152 408.7992 412.4664 414.9504 418.6176 421.1016 424.7688 427.2528 430.92 433.404 437.0712 439.5552 443.2224 445.7064 449.3736 451.8576 455.5248 458.0088 461.676 464.16 467.8272 470.3112 473.9784 476.4624 480.1296 485.0988"
                       y="0"
                       sodipodi:role="line"
                       id="tspan162">Extensions . . . . . . . . . . . . . . . . . . . . . . . . . . . . . . . . . . . . . . . . . . . . . . . . . . . . . . . . . . . . . . . . . . . . . . . 82</tspan></text>
<text
                     transform="matrix(1,0,0,-1,490.068,-13.2)"
                     id="text164"><tspan
                       style="fill:#000000;fill-opacity:1;fill-rule:nonzero;stroke:none;font-family:Futura Black Narrow;font-variant:normal;font-weight:500;font-size:12;writing-mode:lr;-inkscape-font-specification:Futura-CondensedMedium"
                       x="0"
                       y="0"
                       id="tspan166"></tspan></text>
</g><g
                   id="g168"
                   transform="translate(79.11716,472.7903)"><text
                     transform="matrix(1,0,0,-1,0,-13.2)"
                     id="text170"><tspan
                       style="fill:#000000;fill-opacity:1;fill-rule:nonzero;stroke:none;font-family:Futura Black Narrow;font-variant:normal;font-weight:500;font-size:12;writing-mode:lr;-inkscape-font-specification:Futura-CondensedMedium"
                       x="0 2.6136 7.4712 10.1256 14.55 17.8248 22.5588 25.986 28.6524 31.0368 35.6604 40.518 44.0448 47.6532 50.1372 53.7456 56.2296 59.838 62.322 65.9304 68.4144 72.0228 74.5068 78.1152 80.5992 84.2076 86.6916 90.3 92.784 96.3924 98.8764 102.4848 104.9688 108.5772 111.0612 114.6696 117.1536 120.762 123.246 126.8544 129.3384 132.9468 135.4308 139.0392 141.5232 145.1316 147.6156 151.224 153.708 157.3164 159.8004 163.4088 165.8928 169.5012 171.9852 175.5936 178.0776 181.686 184.17 187.7784 190.2624 193.8708 196.3548 199.9632 202.4472 206.0556 208.5396 212.148 214.632 218.2404 220.7244 224.3328 226.8168 230.4252 232.9092 236.5176 239.0016 242.61 245.094 248.7024 251.1864 254.7948 257.2788 260.8872 263.3712 266.9796 269.4636 273.072 275.556 279.1644 281.6484 285.2568 287.7408 291.3492 293.8332 297.4416 299.9256 303.534 306.018 309.6264 312.1104 315.7188 318.2028 321.8112 324.2952 327.9036 330.3876 333.996 336.48 340.0884 342.5724 346.1808 348.6648 352.2732 354.7572 358.3656 360.8496 364.458 366.942 370.5504 373.0344 376.6428 379.1268 382.7352 385.2192 388.8276 391.3116 394.92 397.404 401.0124 403.4964 407.1048 409.5888 413.1972 415.6812 419.2896 421.7736 425.382 427.866 431.4744 433.9584 437.5668 440.0508 443.6592 446.1432 449.7516 452.2356 455.844 458.328 461.9364 464.4204 468.0288 470.5128 474.1212 476.6052 480.2136 485.1708"
                       y="0"
                       sodipodi:role="line"
                       id="tspan172">Interactions . . . . . . . . . . . . . . . . . . . . . . . . . . . . . . . . . . . . . . . . . . . . . . . . . . . . . . . . . . . . . . . . . . . . . . . 84</tspan></text>
<text
                     transform="matrix(1,0,0,-1,490.14,-13.2)"
                     id="text174"><tspan
                       style="fill:#000000;fill-opacity:1;fill-rule:nonzero;stroke:none;font-family:Futura Black Narrow;font-variant:normal;font-weight:500;font-size:12;writing-mode:lr;-inkscape-font-specification:Futura-CondensedMedium"
                       x="0"
                       y="0"
                       id="tspan176"></tspan></text>
</g><g
                   id="g178"
                   transform="translate(79.11716,456.7903)"><text
                     transform="matrix(1,0,0,-1,0,-13.2)"
                     id="text180"><tspan
                       style="fill:#000000;fill-opacity:1;fill-rule:nonzero;stroke:none;font-family:Futura Black Narrow;font-variant:normal;font-weight:500;font-size:12;writing-mode:lr;-inkscape-font-specification:Futura-CondensedMedium"
                       x="0 5.5836 10.008 14.742 19.6176 24.3576 27.6708 30.2844 32.9508 36.2964 39.6096 42.0936 45.4068 47.8908 51.204 53.688 57.0012 59.4852 62.7984 65.2824 68.5956 71.0796 74.3928 76.8768 80.19 82.674 85.9872 88.4712 91.7844 94.2684 97.5816 100.0656 103.3788 105.8628 109.176 111.66 114.9732 117.4572 120.7704 123.2544 126.5676 129.0516 132.3648 134.8488 138.162 140.646 143.9592 146.4432 149.7564 152.2404 155.5536 158.0376 161.3508 163.8348 167.148 169.632 172.9452 175.4292 178.7424 181.2264 184.5396 187.0236 190.3368 192.8208 196.134 198.618 201.9312 204.4152 207.7284 210.2124 213.5256 216.0096 219.3228 221.8068 225.12 227.604 230.9172 233.4012 236.7144 239.1984 242.5116 244.9956 248.3088 250.7928 254.106 256.59 259.9032 262.3872 265.7004 268.1844 271.4976 273.9816 277.2948 279.7788 283.092 285.576 288.8892 291.3732 294.6864 297.1704 300.4836 302.9676 306.2808 308.7648 312.078 314.562 317.8752 320.3592 323.6724 326.1564 329.4696 331.9536 335.2668 337.7508 341.064 343.548 346.8612 349.3452 352.6584 355.1424 358.4556 360.9396 364.2528 366.7368 370.05 372.534 375.8472 378.3312 381.6444 384.1284 387.4416 389.9256 393.2388 395.7228 399.036 401.52 404.8332 407.3172 410.6304 413.1144 416.4276 418.9116 422.2248 424.7088 428.022 430.506 433.8192 436.3032 439.6164 442.1004 445.4136 447.8976 451.2108 453.6948 457.008 459.492 462.8052 465.2892 468.6024 471.0864 474.3996 476.8836 480.1968 485.166"
                       y="0"
                       sodipodi:role="line"
                       id="tspan182">Debug It! . . . . . . . . . . . . . . . . . . . . . . . . . . . . . . . . . . . . . . . . . . . . . . . . . . . . . . . . . . . . . . . . . . . . . . . . . . . . 86</tspan></text>
</g><g
                   id="g184"
                   transform="translate(79.11716,456.7903)"><text
                     transform="matrix(1,0,0,-1,490.1241,-13.2)"
                     id="text186"><tspan
                       style="fill:#000000;fill-opacity:1;fill-rule:nonzero;stroke:none;font-family:Futura Black Narrow;font-variant:normal;font-weight:800;font-size:7;writing-mode:lr;-inkscape-font-specification:Futura-CondensedExtraBold"
                       x="0"
                       y="0"
                       id="tspan188"></tspan></text>
</g><g
                   id="g190"
                   transform="translate(43.11716,440.7903)"><text
                     transform="matrix(1,0,0,-1,263.0625,-13.2)"
                     id="text192"><tspan
                       style="fill:#000000;fill-opacity:1;fill-rule:nonzero;stroke:none;font-family:Futura Black Narrow;font-variant:normal;font-weight:800;font-size:12;writing-mode:lr;-inkscape-font-specification:Futura-CondensedExtraBold"
                       x="0"
                       y="0"
                       id="tspan194"></tspan></text>
</g><g
                   id="g196"
                   transform="translate(43.11716,424.7903)"><text
                     transform="matrix(1,0,0,-1,0,-13.2)"
                     id="text198"><tspan
                       style="fill:#000000;fill-opacity:1;fill-rule:nonzero;stroke:none;font-family:Futura Black Narrow;font-variant:normal;font-weight:800;font-size:12;writing-mode:lr;-inkscape-font-specification:Futura-CondensedExtraBold"
                       x="0 7.4004 15.0408 18.7452 23.9376 28.038 35.2584 39.3588 46.5792 50.6796 57.972 61.6764 68.7048 72.4092 80.1456 87.75 91.8504 99.1428 104.7312 110.3196 117.18 122.7684 130.0128 134.1132 137.7216 141.822 145.4304 149.5308 153.1392 157.2396 160.848 164.9484 168.5568 172.6572 176.2656 180.366 183.9744 188.0748 191.6832 195.7836 199.392 203.4924 207.1008 211.2012 214.8096 218.91 222.5184 226.6188 230.2272 234.3276 237.936 242.0364 245.6448 249.7452 253.3536 257.454 261.0624 265.1628 268.7712 272.8716 276.48 280.5804 284.1888 288.2892 291.8976 295.998 299.6064 303.7068 307.3152 311.4156 315.024 319.1244 322.7328 326.8332 330.4416 334.542 338.1504 342.2508 345.8592 349.9596 353.568 357.6684 361.2768 365.3772 368.9856 373.086 376.6944 380.7948 384.4032 388.5036 392.112 396.2124 399.8208 403.9212 407.5296 411.63 415.2384 419.3388 422.9472 427.0476 430.656 434.7564 438.3648 442.4652 446.0736 450.174 453.7824 457.8828 461.4912 465.5916 469.2 473.3004 476.9088 481.0092 484.6176 488.718 492.3264 496.4268 500.0352 504.1356 507.744 511.8444 519.0648"
                       y="0"
                       sodipodi:role="line"
                       id="tspan200">UNIT 5 – DIVING DEEPER . . . . . . . . . . . . . . . . . . . . . . . . . . . . . . . . . . . . . . . . . . . . . . . . . 89</tspan></text>
<text
                     transform="matrix(1,0,0,-1,526.2852,-13.2)"
                     id="text202"><tspan
                       style="fill:#000000;fill-opacity:1;fill-rule:nonzero;stroke:none;font-family:Futura Black Narrow;font-variant:normal;font-weight:800;font-size:12;writing-mode:lr;-inkscape-font-specification:Futura-CondensedExtraBold"
                       x="0"
                       y="0"
                       id="tspan204"></tspan></text>
</g><g
                   id="g206"
                   transform="translate(79.11716,408.7903)"><text
                     transform="matrix(1,0,0,-1,0,-13.2)"
                     id="text208"><tspan
                       style="fill:#000000;fill-opacity:1;fill-rule:nonzero;stroke:none;font-family:Futura Black Narrow;font-variant:normal;font-weight:500;font-size:12;writing-mode:lr;-inkscape-font-specification:Futura-CondensedMedium"
                       x="0 5.0508 9.9084 14.4492 20.5368 23.8188 30.7392 35.4732 40.3308 42.9972 46.2792 50.2524 54.6768 59.4108 62.6388 67.4964 70.7784 73.2624 76.5444 79.0284 82.3104 84.7944 88.0764 90.5604 93.8424 96.3264 99.6084 102.0924 105.3744 107.8584 111.1404 113.6244 116.9064 119.3904 122.6724 125.1564 128.4384 130.9224 134.2044 136.6884 139.9704 142.4544 145.7364 148.2204 151.5024 153.9864 157.2684 159.7524 163.0344 165.5184 168.8004 171.2844 174.5664 177.0504 180.3324 182.8164 186.0984 188.5824 191.8644 194.3484 197.6304 200.1144 203.3964 205.8804 209.1624 211.6464 214.9284 217.4124 220.6944 223.1784 226.4604 228.9444 232.2264 234.7104 237.9924 240.4764 243.7584 246.2424 249.5244 252.0084 255.2904 257.7744 261.0564 263.5404 266.8224 269.3064 272.5884 275.0724 278.3544 280.8384 284.1204 286.6044 289.8864 292.3704 295.6524 298.1364 301.4184 303.9024 307.1844 309.6684 312.9504 315.4344 318.7164 321.2004 324.4824 326.9664 330.2484 332.7324 336.0144 338.4984 341.7804 344.2644 347.5464 350.0304 353.3124 355.7964 359.0784 361.5624 364.8444 367.3284 370.6104 373.0944 376.3764 378.8604 382.1424 384.6264 387.9084 390.3924 393.6744 396.1584 399.4404 401.9244 405.2064 407.6904 410.9724 413.4564 416.7384 419.2224 422.5044 424.9884 428.2704 430.7544 434.0364 436.5204 439.8024 442.2864 445.5684 448.0524 451.3344 453.8184 457.1004 459.5844 462.8664 465.3504 468.6324 471.1164 474.3984 476.8824 480.1644 485.1336"
                       y="0"
                       sodipodi:role="line"
                       id="tspan210">Know Want Learn . . . . . . . . . . . . . . . . . . . . . . . . . . . . . . . . . . . . . . . . . . . . . . . . . . . . . . . . . . . . . . . . . . . . . . . 92</tspan></text>
<text
                     transform="matrix(1,0,0,-1,490.1028,-13.2)"
                     id="text212"><tspan
                       style="fill:#000000;fill-opacity:1;fill-rule:nonzero;stroke:none;font-family:Futura Black Narrow;font-variant:normal;font-weight:500;font-size:12;writing-mode:lr;-inkscape-font-specification:Futura-CondensedMedium"
                       x="0"
                       y="0"
                       id="tspan214"></tspan></text>
</g><g
                   id="g216"
                   transform="translate(79.11716,392.7903)"><text
                     transform="matrix(1,0,0,-1,0,-13.2)"
                     id="text218"><tspan
                       style="fill:#000000;fill-opacity:1;fill-rule:nonzero;stroke:none;font-family:Futura Black Narrow;font-variant:normal;font-weight:500;font-size:12;writing-mode:lr;-inkscape-font-specification:Futura-CondensedMedium"
                       x="0 4.8744 9.498 14.3736 19.2312 23.9652 27.6048 31.2732 37.2792 41.9028 45.5424 48.0264 51.666 54.15 57.7896 60.2736 63.9132 66.3972 70.0368 72.5208 76.1604 78.6444 82.284 84.768 88.4076 90.8916 94.5312 97.0152 100.6548 103.1388 106.7784 109.2624 112.902 115.386 119.0256 121.5096 125.1492 127.6332 131.2728 133.7568 137.3964 139.8804 143.52 146.004 149.6436 152.1276 155.7672 158.2512 161.8908 164.3748 168.0144 170.4984 174.138 176.622 180.2616 182.7456 186.3852 188.8692 192.5088 194.9928 198.6324 201.1164 204.756 207.24 210.8796 213.3636 217.0032 219.4872 223.1268 225.6108 229.2504 231.7344 235.374 237.858 241.4976 243.9816 247.6212 250.1052 253.7448 256.2288 259.8684 262.3524 265.992 268.476 272.1156 274.5996 278.2392 280.7232 284.3628 286.8468 290.4864 292.9704 296.61 299.094 302.7336 305.2176 308.8572 311.3412 314.9808 317.4648 321.1044 323.5884 327.228 329.712 333.3516 335.8356 339.4752 341.9592 345.5988 348.0828 351.7224 354.2064 357.846 360.33 363.9696 366.4536 370.0932 372.5772 376.2168 378.7008 382.3404 384.8244 388.464 390.948 394.5876 397.0716 400.7112 403.1952 406.8348 409.3188 412.9584 415.4424 419.082 421.566 425.2056 427.6896 431.3292 433.8132 437.4528 439.9368 443.5764 446.0604 449.7 452.184 455.8236 458.3076 461.9472 464.4312 468.0708 470.5548 474.1944 476.6784 480.318 485.1048"
                       y="0"
                       sodipodi:role="line"
                       id="tspan220">Round Two . . . . . . . . . . . . . . . . . . . . . . . . . . . . . . . . . . . . . . . . . . . . . . . . . . . . . . . . . . . . . . . . . . . . . . . 94</tspan></text>
<text
                     transform="matrix(1,0,0,-1,490.074,-13.2)"
                     id="text222"><tspan
                       style="fill:#000000;fill-opacity:1;fill-rule:nonzero;stroke:none;font-family:Futura Black Narrow;font-variant:normal;font-weight:500;font-size:12;writing-mode:lr;-inkscape-font-specification:Futura-CondensedMedium"
                       x="0"
                       y="0"
                       id="tspan224"></tspan></text>
</g><g
                   id="g226"
                   transform="translate(79.11716,377.7903)"><text
                     transform="matrix(1,0,0,-1,0,-13.2)"
                     id="text228"><tspan
                       style="fill:#000000;fill-opacity:1;fill-rule:nonzero;stroke:none;font-family:Futura Black Narrow;font-variant:normal;font-weight:500;font-size:12;writing-mode:lr;-inkscape-font-specification:Futura-CondensedMedium"
                       x="0 4.9512 9.6852 13.722 18.456 23.3136 26.7408 31.1652 35.8992 39.1188 43.6944 48.318 53.1756 56.6028 61.0272 65.7732 68.4396 71.9664 75.186 77.67 80.8896 83.3736 86.5932 89.0772 92.2968 94.7808 98.0004 100.4844 103.704 106.188 109.4076 111.8916 115.1112 117.5952 120.8148 123.2988 126.5184 129.0024 132.222 134.706 137.9256 140.4096 143.6292 146.1132 149.3328 151.8168 155.0364 157.5204 160.74 163.224 166.4436 168.9276 172.1472 174.6312 177.8508 180.3348 183.5544 186.0384 189.258 191.742 194.9616 197.4456 200.6652 203.1492 206.3688 208.8528 212.0724 214.5564 217.776 220.26 223.4796 225.9636 229.1832 231.6672 234.8868 237.3708 240.5904 243.0744 246.294 248.778 251.9976 254.4816 257.7012 260.1852 263.4048 265.8888 269.1084 271.5924 274.812 277.296 280.5156 282.9996 286.2192 288.7032 291.9228 294.4068 297.6264 300.1104 303.33 305.814 309.0336 311.5176 314.7372 317.2212 320.4408 322.9248 326.1444 328.6284 331.848 334.332 337.5516 340.0356 343.2552 345.7392 348.9588 351.4428 354.6624 357.1464 360.366 362.85 366.0696 368.5536 371.7732 374.2572 377.4768 379.9608 383.1804 385.6644 388.884 391.368 394.5876 397.0716 400.2912 402.7752 405.9948 408.4788 411.6984 414.1824 417.402 419.886 423.1056 425.5896 428.8092 431.2932 434.5128 436.9968 440.2164 442.7004 445.92 448.404 451.6236 454.1076 457.3272 459.8112 463.0308 465.5148 468.7344 471.2184 474.438 476.922 480.1416 485.1108"
                       y="0"
                       sodipodi:role="line"
                       id="tspan230">Advanced Concepts . . . . . . . . . . . . . . . . . . . . . . . . . . . . . . . . . . . . . . . . . . . . . . . . . . . . . . . . . . . . . . . . . . . . . . . 96</tspan></text>
<text
                     transform="matrix(1,0,0,-1,490.08,-13.2)"
                     id="text232"><tspan
                       style="fill:#000000;fill-opacity:1;fill-rule:nonzero;stroke:none;font-family:Futura Black Narrow;font-variant:normal;font-weight:500;font-size:12;writing-mode:lr;-inkscape-font-specification:Futura-CondensedMedium"
                       x="0"
                       y="0"
                       id="tspan234"></tspan></text>
</g><g
                   id="g236"
                   transform="translate(79.11716,361.7903)"><text
                     transform="matrix(1,0,0,-1,0,-13.2)"
                     id="text238"><tspan
                       style="fill:#000000;fill-opacity:1;fill-rule:nonzero;stroke:none;font-family:Futura Black Narrow;font-variant:normal;font-weight:500;font-size:12;writing-mode:lr;-inkscape-font-specification:Futura-CondensedMedium"
                       x="0 5.6196 10.3536 13.6284 18.3624 24.3912 29.1252 32.3652 36.7896 39.7188 45.8772 48.8064 53.166 57.678 60.3324 64.7568 69.6144 73.1412 75.5256 80.1492 85.0068 88.5336 91.4628 93.9468 96.876 99.36 102.2892 104.7732 107.7024 110.1864 113.1156 115.5996 118.5288 121.0128 123.942 126.426 129.3552 131.8392 134.7684 137.2524 140.1816 142.6656 145.5948 148.0788 151.008 153.492 156.4212 158.9052 161.8344 164.3184 167.2476 169.7316 172.6608 175.1448 178.074 180.558 183.4872 185.9712 188.9004 191.3844 194.3136 196.7976 199.7268 202.2108 205.14 207.624 210.5532 213.0372 215.9664 218.4504 221.3796 223.8636 226.7928 229.2768 232.206 234.69 237.6192 240.1032 243.0324 245.5164 248.4456 250.9296 253.8588 256.3428 259.272 261.756 264.6852 267.1692 270.0984 272.5824 275.5116 277.9956 280.9248 283.4088 286.338 288.822 291.7512 294.2352 297.1644 299.6484 302.5776 305.0616 307.9908 310.4748 313.404 315.888 318.8172 321.3012 324.2304 326.7144 329.6436 332.1276 335.0568 337.5408 340.47 342.954 345.8832 348.3672 351.2964 353.7804 356.7096 359.1936 362.1228 364.6068 367.536 370.02 372.9492 375.4332 378.3624 380.8464 383.7756 386.2596 389.1888 391.6728 394.602 397.086 400.0152 402.4992 405.4284 407.9124 410.8416 413.3256 416.2548 418.7388 421.668 424.152 427.0812 429.5652 432.4944 434.9784 437.9076 440.3916 443.3208 445.8048 448.734 451.218 454.1472 456.6312 459.5604 462.0444 464.9736 467.4576 470.3868 472.8708 475.8 480.1596 485.1288"
                       y="0"
                       sodipodi:role="line"
                       id="tspan240">Hardware &amp; Extensions . . . . . . . . . . . . . . . . . . . . . . . . . . . . . . . . . . . . . . . . . . . . . . . . . . . . . . . . . . . . . . . . . . . . . . . 100</tspan></text>
<text
                     transform="matrix(1,0,0,-1,490.098,-13.2)"
                     id="text242"><tspan
                       style="fill:#000000;fill-opacity:1;fill-rule:nonzero;stroke:none;font-family:Futura Black Narrow;font-variant:normal;font-weight:500;font-size:12;writing-mode:lr;-inkscape-font-specification:Futura-CondensedMedium"
                       x="0"
                       y="0"
                       id="tspan244"></tspan></text>
</g><g
                   id="g246"
                   transform="translate(79.11716,345.7903)"><text
                     transform="matrix(1,0,0,-1,0,-13.2)"
                     id="text248"><tspan
                       style="fill:#000000;fill-opacity:1;fill-rule:nonzero;stroke:none;font-family:Futura Black Narrow;font-variant:normal;font-weight:500;font-size:12;writing-mode:lr;-inkscape-font-specification:Futura-CondensedMedium"
                       x="0 4.9272 8.3544 11.0208 13.4052 17.478 19.8624 22.5288 26.9532 30.336 35.9196 40.344 43.8708 46.2552 50.9952 55.8528 59.2356 61.7196 65.1024 67.5864 70.9692 73.4532 76.836 79.32 82.7028 85.1868 88.5696 91.0536 94.4364 96.9204 100.3032 102.7872 106.17 108.654 112.0368 114.5208 117.9036 120.3876 123.7704 126.2544 129.6372 132.1212 135.504 137.988 141.3708 143.8548 147.2376 149.7216 153.1044 155.5884 158.9712 161.4552 164.838 167.322 170.7048 173.1888 176.5716 179.0556 182.4384 184.9224 188.3052 190.7892 194.172 196.656 200.0388 202.5228 205.9056 208.3896 211.7724 214.2564 217.6392 220.1232 223.506 225.99 229.3728 231.8568 235.2396 237.7236 241.1064 243.5904 246.9732 249.4572 252.84 255.324 258.7068 261.1908 264.5736 267.0576 270.4404 272.9244 276.3072 278.7912 282.174 284.658 288.0408 290.5248 293.9076 296.3916 299.7744 302.2584 305.6412 308.1252 311.508 313.992 317.3748 319.8588 323.2416 325.7256 329.1084 331.5924 334.9752 337.4592 340.842 343.326 346.7088 349.1928 352.5756 355.0596 358.4424 360.9264 364.3092 366.7932 370.176 372.66 376.0428 378.5268 381.9096 384.3936 387.7764 390.2604 393.6432 396.1272 399.51 401.994 405.3768 407.8608 411.2436 413.7276 417.1104 419.5944 422.9772 425.4612 428.844 431.328 434.7108 437.1948 440.5776 443.0616 446.4444 448.9284 452.3112 454.7952 458.178 460.662 464.0448 466.5288 469.9116 472.3956 475.7784 480.138 485.1072"
                       y="0"
                       sodipodi:role="line"
                       id="tspan250">Activity Design . . . . . . . . . . . . . . . . . . . . . . . . . . . . . . . . . . . . . . . . . . . . . . . . . . . . . . . . . . . . . . . . . . . . . . . 102</tspan></text>
<text
                     transform="matrix(1,0,0,-1,490.0764,-13.2)"
                     id="text252"><tspan
                       style="fill:#000000;fill-opacity:1;fill-rule:nonzero;stroke:none;font-family:Futura Black Narrow;font-variant:normal;font-weight:500;font-size:12;writing-mode:lr;-inkscape-font-specification:Futura-CondensedMedium"
                       x="0"
                       y="0"
                       id="tspan254"></tspan></text>
</g><g
                   id="g256"
                   transform="translate(79.11716,329.7903)"><text
                     transform="matrix(1,0,0,-1,0,-13.2)"
                     id="text258"><tspan
                       style="fill:#000000;fill-opacity:1;fill-rule:nonzero;stroke:none;font-family:Futura Black Narrow;font-variant:normal;font-weight:500;font-size:12;writing-mode:lr;-inkscape-font-specification:Futura-CondensedMedium"
                       x="0 6.8436 11.268 14.3412 19.9248 24.3492 29.0832 33.9588 38.6988 41.772 44.3856 47.052 50.3976 53.4708 55.9548 59.028 61.512 64.5852 67.0692 70.1424 72.6264 75.6996 78.1836 81.2568 83.7408 86.814 89.298 92.3712 94.8552 97.9284 100.4124 103.4856 105.9696 109.0428 111.5268 114.6 117.084 120.1572 122.6412 125.7144 128.1984 131.2716 133.7556 136.8288 139.3128 142.386 144.87 147.9432 150.4272 153.5004 155.9844 159.0576 161.5416 164.6148 167.0988 170.172 172.656 175.7292 178.2132 181.2864 183.7704 186.8436 189.3276 192.4008 194.8848 197.958 200.442 203.5152 205.9992 209.0724 211.5564 214.6296 217.1136 220.1868 222.6708 225.744 228.228 231.3012 233.7852 236.8584 239.3424 242.4156 244.8996 247.9728 250.4568 253.53 256.014 259.0872 261.5712 264.6444 267.1284 270.2016 272.6856 275.7588 278.2428 281.316 283.8 286.8732 289.3572 292.4304 294.9144 297.9876 300.4716 303.5448 306.0288 309.102 311.586 314.6592 317.1432 320.2164 322.7004 325.7736 328.2576 331.3308 333.8148 336.888 339.372 342.4452 344.9292 348.0024 350.4864 353.5596 356.0436 359.1168 361.6008 364.674 367.158 370.2312 372.7152 375.7884 378.2724 381.3456 383.8296 386.9028 389.3868 392.46 394.944 398.0172 400.5012 403.5744 406.0584 409.1316 411.6156 414.6888 417.1728 420.246 422.73 425.8032 428.2872 431.3604 433.8444 436.9176 439.4016 442.4748 444.9588 448.032 450.516 453.5892 456.0732 459.1464 461.6304 464.7036 467.1876 470.2608 472.7448 475.818 480.1776 485.1468"
                       y="0"
                       sodipodi:role="line"
                       id="tspan260">My Debug It! . . . . . . . . . . . . . . . . . . . . . . . . . . . . . . . . . . . . . . . . . . . . . . . . . . . . . . . . . . . . . . . . . . . . . . . . . . . . 106</tspan></text>
</g><g
                   id="g262"
                   transform="translate(79.11716,329.7903)"><text
                     transform="matrix(1,0,0,-1,490.1238,-13.2)"
                     id="text264"><tspan
                       style="fill:#000000;fill-opacity:1;fill-rule:nonzero;stroke:none;font-family:Futura Black Narrow;font-variant:normal;font-weight:800;font-size:7;writing-mode:lr;-inkscape-font-specification:Futura-CondensedExtraBold"
                       x="0"
                       y="0"
                       id="tspan266"></tspan></text>
</g><g
                   id="g268"
                   transform="translate(43.11716,313.7903)"><text
                     transform="matrix(1,0,0,-1,263.0625,-13.2)"
                     id="text270"><tspan
                       style="fill:#000000;fill-opacity:1;fill-rule:nonzero;stroke:none;font-family:Futura Black Narrow;font-variant:normal;font-weight:800;font-size:12;writing-mode:lr;-inkscape-font-specification:Futura-CondensedExtraBold"
                       x="0"
                       y="0"
                       id="tspan272"></tspan></text>
</g><g
                   id="g274"
                   transform="translate(43.11716,297.7903)"><text
                     transform="matrix(1,0,0,-1,0,-13.2)"
                     id="text276"><tspan
                       style="fill:#000000;fill-opacity:1;fill-rule:nonzero;stroke:none;font-family:Futura Black Narrow;font-variant:normal;font-weight:800;font-size:12;writing-mode:lr;-inkscape-font-specification:Futura-CondensedExtraBold"
                       x="0 7.4004 15.0408 18.7452 23.9376 28.218 35.4384 39.7188 46.9392 51.2196 58.536 65.7564 72.0048 79.3452 86.5656 91.758 99.0744 106.7628 114.4032 118.6836 122.292 126.5724 130.1808 134.4612 138.0696 142.35 145.9584 150.2388 153.8472 158.1276 161.736 166.0164 169.6248 173.9052 177.5136 181.794 185.4024 189.6828 193.2912 197.5716 201.18 205.4604 209.0688 213.3492 216.9576 221.238 224.8464 229.1268 232.7352 237.0156 240.624 244.9044 248.5128 252.7932 256.4016 260.682 264.2904 268.5708 272.1792 276.4596 280.068 284.3484 287.9568 292.2372 295.8456 300.126 303.7344 308.0148 311.6232 315.9036 319.512 323.7924 327.4008 331.6812 335.2896 339.57 343.1784 347.4588 351.0672 355.3476 358.956 363.2364 366.8448 371.1252 374.7336 379.014 382.6224 386.9028 390.5112 394.7916 398.4 402.6804 406.2888 410.5692 414.1776 418.458 422.0664 426.3468 429.9552 434.2356 437.844 442.1244 445.7328 450.0132 453.6216 457.902 461.5104 465.7908 469.3992 473.6796 477.288 481.5684 485.1768 489.4572 493.0656 497.346 500.9544 505.2348 511.8912 519.1116"
                       y="0"
                       sodipodi:role="line"
                       id="tspan278">UNIT 6 – HACKATHON . . . . . . . . . . . . . . . . . . . . . . . . . . . . . . . . . . . . . . . . . . . . . . . . . 109</tspan></text>
<text
                     transform="matrix(1,0,0,-1,526.332,-13.2)"
                     id="text280"><tspan
                       style="fill:#000000;fill-opacity:1;fill-rule:nonzero;stroke:none;font-family:Futura Black Narrow;font-variant:normal;font-weight:800;font-size:12;writing-mode:lr;-inkscape-font-specification:Futura-CondensedExtraBold"
                       x="0"
                       y="0"
                       id="tspan282"></tspan></text>
</g><g
                   id="g284"
                   transform="translate(79.11716,281.7903)"><text
                     transform="matrix(1,0,0,-1,0,-13.2)"
                     id="text286"><tspan
                       style="fill:#000000;fill-opacity:1;fill-rule:nonzero;stroke:none;font-family:Futura Black Narrow;font-variant:normal;font-weight:500;font-size:12;writing-mode:lr;-inkscape-font-specification:Futura-CondensedMedium"
                       x="0 4.758 7.998 12.6216 15.006 19.4304 22.8576 25.524 29.0436 33.8016 36.186 38.8524 42.21 47.0676 50.5872 53.0712 56.5908 59.0748 62.5944 65.0784 68.598 71.082 74.6016 77.0856 80.6052 83.0892 86.6088 89.0928 92.6124 95.0964 98.616 101.1 104.6196 107.1036 110.6232 113.1072 116.6268 119.1108 122.6304 125.1144 128.634 131.118 134.6376 137.1216 140.6412 143.1252 146.6448 149.1288 152.6484 155.1324 158.652 161.136 164.6556 167.1396 170.6592 173.1432 176.6628 179.1468 182.6664 185.1504 188.67 191.154 194.6736 197.1576 200.6772 203.1612 206.6808 209.1648 212.6844 215.1684 218.688 221.172 224.6916 227.1756 230.6952 233.1792 236.6988 239.1828 242.7024 245.1864 248.706 251.19 254.7096 257.1936 260.7144 263.1984 266.718 269.202 272.7216 275.2056 278.7264 281.2104 284.7312 287.2152 290.7348 293.2188 296.7384 299.2224 302.7432 305.2272 308.748 311.232 314.7516 317.2356 320.7552 323.2392 326.76 329.244 332.7648 335.2488 338.7684 341.2524 344.772 347.256 350.7768 353.2608 356.7816 359.2656 362.7852 365.2692 368.7888 371.2728 374.7936 377.2776 380.7984 383.2824 386.802 389.286 392.8056 395.2896 398.8104 401.2944 404.8152 407.2992 410.8188 413.3028 416.8224 419.3064 422.8272 425.3112 428.832 431.316 434.8356 437.3196 440.8392 443.3232 446.844 449.328 452.8488 455.3328 458.8524 461.3364 464.856 467.34 470.8608 473.3448 476.8656 480.8028 485.1096"
                       y="0"
                       sodipodi:role="line"
                       id="tspan288">Project Pitch . . . . . . . . . . . . . . . . . . . . . . . . . . . . . . . . . . . . . . . . . . . . . . . . . . . . . . . . . . . . . . . . . . . . . . . 114</tspan></text>
<text
                     transform="matrix(1,0,0,-1,490.0788,-13.2)"
                     id="text290"><tspan
                       style="fill:#000000;fill-opacity:1;fill-rule:nonzero;stroke:none;font-family:Futura Black Narrow;font-variant:normal;font-weight:500;font-size:12;writing-mode:lr;-inkscape-font-specification:Futura-CondensedMedium"
                       x="0"
                       y="0"
                       id="tspan292"></tspan></text>
</g><g
                   id="g294"
                   transform="translate(79.11716,266.7903)"><text
                     transform="matrix(1,0,0,-1,0,-13.2)"
                     id="text296"><tspan
                       style="fill:#000000;fill-opacity:1;fill-rule:nonzero;stroke:none;font-family:Futura Black Narrow;font-variant:normal;font-weight:500;font-size:12;writing-mode:lr;-inkscape-font-specification:Futura-CondensedMedium"
                       x="0 4.758 7.998 12.6216 15.006 19.4304 22.8576 25.524 28.8324 33.5904 35.9808 40.7148 45.5724 50.43 52.8144 57.672 62.412 65.7204 68.2044 71.5128 73.9968 77.3052 79.7892 83.0976 85.5816 88.89 91.374 94.6824 97.1664 100.4748 102.9588 106.2672 108.7512 112.0596 114.5436 117.852 120.336 123.6444 126.1284 129.4368 131.9208 135.2292 137.7132 141.0216 143.5056 146.814 149.298 152.6064 155.0904 158.3988 160.8828 164.1912 166.6752 169.9836 172.4676 175.776 178.26 181.5684 184.0524 187.3608 189.8448 193.1532 195.6372 198.9456 201.4296 204.738 207.222 210.5304 213.0144 216.3228 218.8068 222.1152 224.5992 227.9076 230.3916 233.7 236.184 239.4924 241.9764 245.2848 247.7688 251.0772 253.5612 256.8696 259.3536 262.662 265.146 268.4544 270.9384 274.2468 276.7308 280.0392 282.5232 285.8316 288.3156 291.624 294.108 297.4164 299.9004 303.2088 305.6928 309.0012 311.4852 314.7936 317.2776 320.586 323.07 326.3784 328.8624 332.1708 334.6548 337.9632 340.4472 343.7556 346.2396 349.548 352.032 355.3404 357.8244 361.1328 363.6168 366.9252 369.4092 372.7176 375.2016 378.51 380.994 384.3024 386.7864 390.0948 392.5788 395.8872 398.3712 401.6796 404.1636 407.472 409.956 413.2644 415.7484 419.0568 421.5408 424.8492 427.3332 430.6416 433.1256 436.434 438.918 442.2264 444.7104 448.0188 450.5028 453.8112 456.2952 459.6036 462.0876 465.396 467.88 471.1884 473.6724 476.9808 480.918 485.1432"
                       y="0"
                       sodipodi:role="line"
                       id="tspan298">Project Planning . . . . . . . . . . . . . . . . . . . . . . . . . . . . . . . . . . . . . . . . . . . . . . . . . . . . . . . . . . . . . . . . . . . . . . . 116</tspan></text>
<text
                     transform="matrix(1,0,0,-1,490.1124,-13.2)"
                     id="text300"><tspan
                       style="fill:#000000;fill-opacity:1;fill-rule:nonzero;stroke:none;font-family:Futura Black Narrow;font-variant:normal;font-weight:500;font-size:12;writing-mode:lr;-inkscape-font-specification:Futura-CondensedMedium"
                       x="0"
                       y="0"
                       id="tspan302"></tspan></text>
</g><g
                   id="g304"
                   transform="translate(79.11716,250.7903)"><text
                     transform="matrix(1,0,0,-1,0,-13.2)"
                     id="text306"><tspan
                       style="fill:#000000;fill-opacity:1;fill-rule:nonzero;stroke:none;font-family:Futura Black Narrow;font-variant:normal;font-weight:500;font-size:12;writing-mode:lr;-inkscape-font-specification:Futura-CondensedMedium"
                       x="0 5.5836 10.008 13.5348 15.9192 20.6592 25.5168 28.7304 33.2064 37.9404 41.1684 43.5528 48.4104 51.0768 54.2904 56.7744 59.988 62.472 65.6856 68.1696 71.3832 73.8672 77.0808 79.5648 82.7784 85.2624 88.476 90.96 94.1736 96.6576 99.8712 102.3552 105.5688 108.0528 111.2664 113.7504 116.964 119.448 122.6616 125.1456 128.3592 130.8432 134.0568 136.5408 139.7544 142.2384 145.452 147.936 151.1496 153.6336 156.8472 159.3312 162.5448 165.0288 168.2424 170.7264 173.94 176.424 179.6376 182.1216 185.3352 187.8192 191.0328 193.5168 196.7304 199.2144 202.428 204.912 208.1256 210.6096 213.8232 216.3072 219.5208 222.0048 225.2184 227.7024 230.916 233.4 236.6136 239.0976 242.3112 244.7952 248.0088 250.4928 253.7064 256.1904 259.404 261.888 265.1016 267.5856 270.7992 273.2832 276.4968 278.9808 282.1944 284.6784 287.892 290.376 293.5896 296.0736 299.2872 301.7712 304.9848 307.4688 310.6824 313.1664 316.38 318.864 322.0776 324.5616 327.7752 330.2592 333.4728 335.9568 339.1704 341.6544 344.868 347.352 350.5656 353.0496 356.2632 358.7472 361.9608 364.4448 367.6584 370.1424 373.356 375.84 379.0536 381.5376 384.7512 387.2352 390.4488 392.9328 396.1464 398.6304 401.844 404.328 407.5416 410.0256 413.2392 415.7232 418.9368 421.4208 424.6344 427.1184 430.332 432.816 436.0296 438.5136 441.7272 444.2112 447.4248 449.9088 453.1224 455.6064 458.82 461.304 464.5176 467.0016 470.2152 472.6992 475.9128 480.1608 485.13"
                       y="0"
                       sodipodi:role="line"
                       id="tspan308">Design Sprint . . . . . . . . . . . . . . . . . . . . . . . . . . . . . . . . . . . . . . . . . . . . . . . . . . . . . . . . . . . . . . . . . . . . . . . . . . 120</tspan></text>
<text
                     transform="matrix(1,0,0,-1,490.0992,-13.2)"
                     id="text310"><tspan
                       style="fill:#000000;fill-opacity:1;fill-rule:nonzero;stroke:none;font-family:Futura Black Narrow;font-variant:normal;font-weight:500;font-size:12;writing-mode:lr;-inkscape-font-specification:Futura-CondensedMedium"
                       x="0"
                       y="0"
                       id="tspan312"></tspan></text>
</g><g
                   id="g314"
                   transform="translate(79.11716,234.7903)"><text
                     transform="matrix(1,0,0,-1,0,-13.2)"
                     id="text316"><tspan
                       style="fill:#000000;fill-opacity:1;fill-rule:nonzero;stroke:none;font-family:Futura Black Narrow;font-variant:normal;font-weight:500;font-size:12;writing-mode:lr;-inkscape-font-specification:Futura-CondensedMedium"
                       x="0 4.758 7.998 12.6216 15.006 19.4304 22.8576 25.524 28.794 33.0012 37.4256 41.85 46.584 51.318 56.052 59.4096 64.1028 67.3728 69.8568 73.1268 75.6108 78.8808 81.3648 84.6348 87.1188 90.3888 92.8728 96.1428 98.6268 101.8968 104.3808 107.6508 110.1348 113.4048 115.8888 119.1588 121.6428 124.9128 127.3968 130.6668 133.1508 136.4208 138.9048 142.1748 144.6588 147.9288 150.4128 153.6828 156.1668 159.4368 161.9208 165.1908 167.6748 170.9448 173.4288 176.6988 179.1828 182.4528 184.9368 188.2068 190.6908 193.9608 196.4448 199.7148 202.1988 205.4688 207.9528 211.2228 213.7068 216.9768 219.4608 222.7308 225.2148 228.4848 230.9688 234.2388 236.7228 239.9928 242.4768 245.7468 248.2308 251.5008 253.9848 257.2548 259.7388 263.0088 265.4928 268.7628 271.2468 274.5168 277.0008 280.2708 282.7548 286.0248 288.5088 291.7788 294.2628 297.5328 300.0168 303.2868 305.7708 309.0408 311.5248 314.7948 317.2788 320.5488 323.0328 326.3028 328.7868 332.0568 334.5408 337.8108 340.2948 343.5648 346.0488 349.3188 351.8028 355.0728 357.5568 360.8268 363.3108 366.5808 369.0648 372.3348 374.8188 378.0888 380.5728 383.8428 386.3268 389.5968 392.0808 395.3508 397.8348 401.1048 403.5888 406.8588 409.3428 412.6128 415.0968 418.3668 420.8508 424.1208 426.6048 429.8748 432.3588 435.6288 438.1128 441.3828 443.8668 447.1368 449.6208 452.8908 455.3748 458.6448 461.1288 464.3988 466.8828 470.1528 472.6368 475.9068 480.1548 485.124"
                       y="0"
                       sodipodi:role="line"
                       id="tspan318">Project Feedback . . . . . . . . . . . . . . . . . . . . . . . . . . . . . . . . . . . . . . . . . . . . . . . . . . . . . . . . . . . . . . . . . . . . . . . 122</tspan></text>
<text
                     transform="matrix(1,0,0,-1,490.0932,-13.2)"
                     id="text320"><tspan
                       style="fill:#000000;fill-opacity:1;fill-rule:nonzero;stroke:none;font-family:Futura Black Narrow;font-variant:normal;font-weight:500;font-size:12;writing-mode:lr;-inkscape-font-specification:Futura-CondensedMedium"
                       x="0"
                       y="0"
                       id="tspan322"></tspan></text>
</g><g
                   id="g324"
                   transform="translate(79.11716,218.7904)"><text
                     transform="matrix(1,0,0,-1,0,-13.2)"
                     id="text326"><tspan
                       style="fill:#000000;fill-opacity:1;fill-rule:nonzero;stroke:none;font-family:Futura Black Narrow;font-variant:normal;font-weight:500;font-size:12;writing-mode:lr;-inkscape-font-specification:Futura-CondensedMedium"
                       x="0 4.758 7.998 12.6216 15.006 19.4304 22.8576 25.524 28.854 33.4296 38.2872 42.7116 46.0692 50.6688 52.8012 55.4148 60.2724 63.6024 66.0864 69.4164 71.9004 75.2304 77.7144 81.0444 83.5284 86.8584 89.3424 92.6724 95.1564 98.4864 100.9704 104.3004 106.7844 110.1144 112.5984 115.9284 118.4124 121.7424 124.2264 127.5564 130.0404 133.3704 135.8544 139.1844 141.6684 144.9984 147.4824 150.8124 153.2964 156.6264 159.1104 162.4404 164.9244 168.2544 170.7384 174.0684 176.5524 179.8824 182.3664 185.6964 188.1804 191.5104 193.9944 197.3244 199.8084 203.1384 205.6224 208.9524 211.4364 214.7664 217.2504 220.5804 223.0644 226.3944 228.8784 232.2084 234.6924 238.0224 240.5064 243.8364 246.3204 249.6504 252.1344 255.4644 257.9484 261.2784 263.7624 267.0924 269.5764 272.9064 275.3904 278.7204 281.2044 284.5344 287.0184 290.3484 292.8324 296.1624 298.6464 301.9764 304.4604 307.7904 310.2744 313.6044 316.0884 319.4184 321.9024 325.2324 327.7164 331.0464 333.5304 336.8604 339.3444 342.6744 345.1584 348.4884 350.9724 354.3024 356.7864 360.1164 362.6004 365.9304 368.4144 371.7444 374.2284 377.5584 380.0424 383.3724 385.8564 389.1864 391.6704 395.0004 397.4844 400.8144 403.2984 406.6284 409.1124 412.4424 414.9264 418.2564 420.7404 424.0704 426.5544 429.8844 432.3684 435.6984 438.1824 441.5124 443.9964 447.3264 449.8104 453.1404 455.6244 458.9544 461.4384 464.7684 467.2524 470.5824 473.0664 476.3964 480.6444 485.1684"
                       y="0"
                       sodipodi:role="line"
                       id="tspan328">Project Check-In . . . . . . . . . . . . . . . . . . . . . . . . . . . . . . . . . . . . . . . . . . . . . . . . . . . . . . . . . . . . . . . . . . . . . . . 124</tspan></text>
<text
                     transform="matrix(1,0,0,-1,490.1376,-13.2)"
                     id="text330"><tspan
                       style="fill:#000000;fill-opacity:1;fill-rule:nonzero;stroke:none;font-family:Futura Black Narrow;font-variant:normal;font-weight:500;font-size:12;writing-mode:lr;-inkscape-font-specification:Futura-CondensedMedium"
                       x="0"
                       y="0"
                       id="tspan332"></tspan></text>
</g><g
                   id="g334"
                   transform="translate(79.11716,202.7904)"><text
                     transform="matrix(1,0,0,-1,0,-13.2)"
                     id="text336"><tspan
                       style="fill:#000000;fill-opacity:1;fill-rule:nonzero;stroke:none;font-family:Futura Black Narrow;font-variant:normal;font-weight:500;font-size:12;writing-mode:lr;-inkscape-font-specification:Futura-CondensedMedium"
                       x="0 5.5428 10.4016 13.3524 17.9712 21.402 26.2728"
                       y="0"
                       sodipodi:role="line"
                       id="tspan338">Unfocus</tspan></text>
</g><g
                   id="g340"
                   transform="translate(79.11716,202.7904)"><text
                     transform="matrix(1,0,0,-1,32.95424,-13.2)"
                     id="text342"><tspan
                       style="fill:#000000;fill-opacity:1;fill-rule:nonzero;stroke:none;font-family:Futura Black Narrow;font-variant:normal;font-weight:500;font-size:12;writing-mode:lr;-inkscape-font-specification:Futura-CondensedMedium"
                       x="0 5.5956 8.8356 13.4592 18.3348 23.0688 26.2164 28.7004 31.848 34.332 37.4796 39.9636 43.1112 45.5952 48.7428 51.2268 54.3744 56.8584 60.006 62.49 65.6376 68.1216 71.2692 73.7532 76.9008 79.3848 82.5324 85.0164 88.164 90.648 93.7956 96.2796 99.4272 101.9112 105.0588 107.5428 110.6904 113.1744 116.322 118.806 121.9536 124.4376 127.5852 130.0692 133.2168 135.7008 138.8484 141.3324 144.48 146.964 150.1116 152.5956 155.7432 158.2272 161.3748 163.8588 167.0064 169.4904 172.638 175.122 178.2696 180.7536 183.9012 186.3852 189.5328 192.0168 195.1644 197.6484 200.796 203.28 206.4276 208.9116 212.0592 214.5432 217.6908 220.1748 223.3224 225.8064 228.954 231.438 234.5856 237.0696 240.2172 242.7012 245.8488 248.3328 251.4804 253.9644 257.112 259.596 262.7436 265.2276 268.3752 270.8592 274.0068 276.4908 279.6384 282.1224 285.27 287.754 290.9016 293.3856 296.5332 299.0172 302.1648 304.6488 307.7964 310.2804 313.428 315.912 319.0596 321.5436 324.6912 327.1752 330.3228 332.8068 335.9544 338.4384 341.586 344.07 347.2176 349.7016 352.8492 355.3332 358.4808 360.9648 364.1124 366.5964 369.744 372.228 375.3756 377.8596 381.0072 383.4912 386.6388 389.1228 392.2704 394.7544 397.902 400.386 403.5336 406.0176 409.1652 411.6492 414.7968 417.2808 420.4284 422.9124 426.06 428.544 431.6916 434.1756 437.3232 439.8072 442.9548 447.2028 452.172"
                       y="0"
                       sodipodi:role="line"
                       id="tspan344">Group . . . . . . . . . . . . . . . . . . . . . . . . . . . . . . . . . . . . . . . . . . . . . . . . . . . . . . . . . . . . . . . . . . . . . . . . . . 126</tspan></text>
</g><g
                   id="g346"
                   transform="translate(79.11716,202.7904)"><text
                     transform="matrix(1,0,0,-1,490.1241,-13.2)"
                     id="text348"><tspan
                       style="fill:#000000;fill-opacity:1;fill-rule:nonzero;stroke:none;font-family:Futura Black Narrow;font-variant:normal;font-weight:800;font-size:7;writing-mode:lr;-inkscape-font-specification:Futura-CondensedExtraBold"
                       x="0"
                       y="0"
                       id="tspan350"></tspan></text>
</g><g
                   id="g352"
                   transform="translate(79.11716,186.7903)"><text
                     transform="matrix(1,0,0,-1,0,-13.2)"
                     id="text354"><tspan
                       style="fill:#000000;fill-opacity:1;fill-rule:nonzero;stroke:none;font-family:Futura Black Narrow;font-variant:normal;font-weight:500;font-size:12;writing-mode:lr;-inkscape-font-specification:Futura-CondensedMedium"
                       x="0 4.476 9.3336 13.8744 19.8804 23.3076 28.0416 31.5684 35.9928 39.1368 43.8948 47.1348 51.5592 56.2932 59.4372 61.9212 65.0652 67.5492 70.6932 73.1772 76.3212 78.8052 81.9492 84.4332 87.5772 90.0612 93.2052 95.6892 98.8332 101.3172 104.4612 106.9452 110.0892 112.5732 115.7172 118.2012 121.3452 123.8292 126.9732 129.4572 132.6012 135.0852 138.2292 140.7132 143.8572 146.3412 149.4852 151.9692 155.1132 157.5972 160.7412 163.2252 166.3692 168.8532 171.9972 174.4812 177.6252 180.1092 183.2532 185.7372 188.8812 191.3652 194.5092 196.9932 200.1372 202.6212 205.7652 208.2492 211.3932 213.8772 217.0212 219.5052 222.6492 225.1332 228.2772 230.7612 233.9052 236.3892 239.5332 242.0172 245.1612 247.6452 250.7892 253.2732 256.4172 258.9012 262.0452 264.5292 267.6732 270.1572 273.3012 275.7852 278.9292 281.4132 284.5572 287.0412 290.1852 292.6692 295.8132 298.2972 301.4412 303.9252 307.0692 309.5532 312.6972 315.1812 318.3252 320.8092 323.9532 326.4372 329.5812 332.0652 335.2092 337.6932 340.8372 343.3212 346.4652 348.9492 352.0932 354.5772 357.7212 360.2052 363.3492 365.8332 368.9772 371.4612 374.6052 377.0892 380.2332 382.7172 385.8612 388.3452 391.4892 393.9732 397.1172 399.6012 402.7452 405.2292 408.3732 410.8572 414.0012 416.4852 419.6292 422.1132 425.2572 427.7412 430.8852 433.3692 436.5132 438.9972 442.1412 444.6252 447.7692 450.2532 453.3972 455.8812 459.0252 461.5092 464.6532 467.1372 470.2812 472.7652 475.9092 480.1572 485.1264"
                       y="0"
                       sodipodi:role="line"
                       id="tspan356">Showcase Prep . . . . . . . . . . . . . . . . . . . . . . . . . . . . . . . . . . . . . . . . . . . . . . . . . . . . . . . . . . . . . . . . . . . . . . . . . . 128</tspan></text>
<text
                     transform="matrix(1,0,0,-1,490.0956,-13.2)"
                     id="text358"><tspan
                       style="fill:#000000;fill-opacity:1;fill-rule:nonzero;stroke:none;font-family:Futura Black Narrow;font-variant:normal;font-weight:500;font-size:12;writing-mode:lr;-inkscape-font-specification:Futura-CondensedMedium"
                       x="0"
                       y="0"
                       id="tspan360"></tspan></text>
</g><g
                   id="g362"
                   transform="translate(79.11716,171.7903)"><text
                     transform="matrix(1,0,0,-1,0,-13.2)"
                     id="text364"><tspan
                       style="fill:#000000;fill-opacity:1;fill-rule:nonzero;stroke:none;font-family:Futura Black Narrow;font-variant:normal;font-weight:500;font-size:12;writing-mode:lr;-inkscape-font-specification:Futura-CondensedMedium"
                       x="0 4.476 9.3336 13.8744 19.8804 23.3076 28.0416 31.5684 35.9928 39.2544 41.7384 45 47.484 50.7456 53.2296 56.4912 58.9752 62.2368 64.7208 67.9824 70.4664 73.728 76.212 79.4736 81.9576 85.2192 87.7032 90.9648 93.4488 96.7104 99.1944 102.456 104.94 108.2016 110.6856 113.9472 116.4312 119.6928 122.1768 125.4384 127.9224 131.184 133.668 136.9296 139.4136 142.6752 145.1592 148.4208 150.9048 154.1664 156.6504 159.912 162.396 165.6576 168.1416 171.4032 173.8872 177.1488 179.6328 182.8944 185.3784 188.64 191.124 194.3856 196.8696 200.1312 202.6152 205.8768 208.3608 211.6224 214.1064 217.368 219.852 223.1136 225.5976 228.8592 231.3432 234.6048 237.0888 240.3504 242.8344 246.096 248.58 251.8416 254.3256 257.5872 260.0712 263.3328 265.8168 269.0784 271.5624 274.824 277.308 280.5696 283.0536 286.3152 288.7992 292.0608 294.5448 297.8064 300.2904 303.552 306.036 309.2976 311.7816 315.0432 317.5272 320.7888 323.2728 326.5344 329.0184 332.28 334.764 338.0256 340.5096 343.7712 346.2552 349.5168 352.0008 355.2624 357.7464 361.008 363.492 366.7536 369.2376 372.4992 374.9832 378.2448 380.7288 383.9904 386.4744 389.736 392.22 395.4816 397.9656 401.2272 403.7112 406.9728 409.4568 412.7184 415.2024 418.464 420.948 424.2096 426.6936 429.9552 432.4392 435.7008 438.1848 441.4464 443.9304 447.192 449.676 452.9376 455.4216 458.6832 461.1672 464.4288 466.9128 470.1744 472.6584 475.92 480.156 485.1252"
                       y="0"
                       sodipodi:role="line"
                       id="tspan366">Showcase . . . . . . . . . . . . . . . . . . . . . . . . . . . . . . . . . . . . . . . . . . . . . . . . . . . . . . . . . . . . . . . . . . . . . . . . . . . . 130</tspan></text>
</g><g
                   id="g368"
                   transform="translate(79.11716,171.7903)"><text
                     transform="matrix(1,0,0,-1,490.1246,-13.2)"
                     id="text370"><tspan
                       style="fill:#000000;fill-opacity:1;fill-rule:nonzero;stroke:none;font-family:Futura Black Narrow;font-variant:normal;font-weight:800;font-size:7;writing-mode:lr;-inkscape-font-specification:Futura-CondensedExtraBold"
                       x="0"
                       y="0"
                       id="tspan372"></tspan></text>
</g><g
                   id="g374"
                   transform="translate(43.11716,155.7904)"><text
                     transform="matrix(1,0,0,-1,263.0625,-13.2)"
                     id="text376"><tspan
                       style="fill:#000000;fill-opacity:1;fill-rule:nonzero;stroke:none;font-family:Futura Black Narrow;font-variant:normal;font-weight:800;font-size:12;writing-mode:lr;-inkscape-font-specification:Futura-CondensedExtraBold"
                       x="0"
                       y="0"
                       id="tspan378"></tspan></text>
</g><g
                   id="g380"
                   transform="translate(43.11716,139.7904)"><text
                     transform="matrix(1,0,0,-1,0,-13.2)"
                     id="text382"><tspan
                       style="fill:#000000;fill-opacity:1;fill-rule:nonzero;stroke:none;font-family:Futura Black Narrow;font-variant:normal;font-weight:800;font-size:12;writing-mode:lr;-inkscape-font-specification:Futura-CondensedExtraBold"
                       x="0 7.2252 14.0784 20.9316 26.5128 34.146 41.4432 45.1524 52.1616 56.0388 59.652 63.5292 67.1424 71.0196 74.6328 78.51 82.1232 86.0004 89.6136 93.4908 97.104 100.9812 104.5944 108.4716 112.0848 115.962 119.5752 123.4524 127.0656 130.9428 134.556 138.4332 142.0464 145.9236 149.5368 153.414 157.0272 160.9044 164.5176 168.3948 172.008 175.8852 179.4984 183.3756 186.9888 190.866 194.4792 198.3564 201.9696 205.8468 209.46 213.3372 216.9504 220.8276 224.4408 228.318 231.9312 235.8084 239.4216 243.2988 246.912 250.7892 254.4024 258.2796 261.8928 265.77 269.3832 273.2604 276.8736 280.7508 284.364 288.2412 291.8544 295.7316 299.3448 303.222 306.8352 310.7124 314.3256 318.2028 321.816 325.6932 329.3064 333.1836 336.7968 340.674 344.2872 348.1644 351.7776 355.6548 359.268 363.1452 366.7584 370.6356 374.2488 378.126 381.7392 385.6164 389.2296 393.1068 396.72 400.5972 404.2104 408.0876 411.7008 415.578 419.1912 423.0684 426.6816 430.5588 434.172 438.0492 441.6624 445.5396 449.1528 453.03 456.6432 460.5204 464.1336 468.0108 471.624 475.5012 479.1144 482.9916 486.6048 490.482 494.0952 497.9724 501.5856 505.4628 511.944 519.1572"
                       y="0"
                       sodipodi:role="line"
                       id="tspan384">APPENDIX . . . . . . . . . . . . . . . . . . . . . . . . . . . . . . . . . . . . . . . . . . . . . . . . . . . . . . . . . . . . 133</tspan></text>
<text
                     transform="matrix(1,0,0,-1,526.3704,-13.2)"
                     id="text386"><tspan
                       style="fill:#000000;fill-opacity:1;fill-rule:nonzero;stroke:none;font-family:Futura Black Narrow;font-variant:normal;font-weight:800;font-size:12;writing-mode:lr;-inkscape-font-specification:Futura-CondensedExtraBold"
                       x="0"
                       y="0"
                       id="tspan388"></tspan></text>
</g><g
                   id="g390"
                   transform="translate(79.11716,123.7904)"><text
                     transform="matrix(1,0,0,-1,0,-13.2)"
                     id="text392"><tspan
                       style="fill:#000000;fill-opacity:1;fill-rule:nonzero;stroke:none;font-family:Futura Black Narrow;font-variant:normal;font-weight:500;font-size:12;writing-mode:lr;-inkscape-font-specification:Futura-CondensedMedium"
                       x="0 5.5956 7.986 12.6096 16.1364 19.6632 24.3972 27.9132 32.3376 34.9224 37.4064 39.9912 42.4752 45.06 47.544 50.1288 52.6128 55.1976 57.6816 60.2664 62.7504 65.3352 67.8192 70.404 72.888 75.4728 77.9568 80.5416 83.0256 85.6104 88.0944 90.6792 93.1632 95.748 98.232 100.8168 103.3008 105.8856 108.3696 110.9544 113.4384 116.0232 118.5072 121.092 123.576 126.1608 128.6448 131.2296 133.7136 136.2984 138.7824 141.3672 143.8512 146.436 148.92 151.5048 153.9888 156.5736 159.0576 161.6424 164.1264 166.7112 169.1952 171.78 174.264 176.8488 179.3328 181.9176 184.4016 186.9864 189.4704 192.0552 194.5392 197.124 199.608 202.1928 204.6768 207.2616 209.7456 212.3304 214.8144 217.3992 219.8832 222.468 224.952 227.5368 230.0208 232.6056 235.0896 237.6744 240.1584 242.7432 245.2272 247.812 250.296 252.8808 255.3648 257.9496 260.4336 263.0184 265.5024 268.0872 270.5712 273.156 275.64 278.2248 280.7088 283.2936 285.7776 288.3624 290.8464 293.4312 295.9152 298.5 300.984 303.5688 306.0528 308.6376 311.1216 313.7064 316.1904 318.7752 321.2592 323.844 326.328 328.9128 331.3968 333.9816 336.4656 339.0504 341.5344 344.1192 346.6032 349.188 351.672 354.2568 356.7408 359.3256 361.8096 364.3944 366.8784 369.4632 371.9472 374.532 377.016 379.6008 382.0848 384.6696 387.1536 389.7384 392.2224 394.8072 397.2912 399.876 402.36 404.9448 407.4288 410.0136 412.4976 415.0824 417.5664 420.1512 422.6352 425.22 427.704 430.2888 432.7728 435.3576 437.8416 440.4264 442.9104 445.4952 447.9792 450.564 453.048 455.6328 458.1168 460.7016 463.1856 465.7704 468.2544 470.8392 473.3232 475.908 480.144 485.1132"
                       y="0"
                       sodipodi:role="line"
                       id="tspan394">Glossary . . . . . . . . . . . . . . . . . . . . . . . . . . . . . . . . . . . . . . . . . . . . . . . . . . . . . . . . . . . . . . . . . . . . . . . . . . . . . . . . . . . . . . . 135</tspan></text>
<text
                     transform="matrix(1,0,0,-1,490.0824,-13.2)"
                     id="text396"><tspan
                       style="fill:#000000;fill-opacity:1;fill-rule:nonzero;stroke:none;font-family:Futura Black Narrow;font-variant:normal;font-weight:500;font-size:12;writing-mode:lr;-inkscape-font-specification:Futura-CondensedMedium"
                       x="0"
                       y="0"
                       id="tspan398"></tspan></text>
</g><g
                   id="g400"
                   transform="translate(79.11716,107.7904)"><text
                     transform="matrix(1,0,0,-1,0,-13.2)"
                     id="text402"><tspan
                       style="fill:#000000;fill-opacity:1;fill-rule:nonzero;stroke:none;font-family:Futura Black Narrow;font-variant:normal;font-weight:500;font-size:12;writing-mode:lr;-inkscape-font-specification:Futura-CondensedMedium"
                       x="0 4.3824 7.0596 11.7936 16.6512 21.3852 26.1192 29.394 34.128 37.6548 41.8488 44.3328 48.5268 51.0108 55.2048 57.6888 61.8828 64.3668 68.5608 71.0448 75.2388 77.7228 81.9168 84.4008 88.5948 91.0788 95.2728 97.7568 101.9508 104.4348 108.6288 111.1128 115.3068 117.7908 121.9848 124.4688 128.6628 131.1468 135.3408 137.8248 142.0188 144.5028 148.6968 151.1808 155.3748 157.8588 162.0528 164.5368 168.7308 171.2148 175.4088 177.8928 182.0868 184.5708 188.7648 191.2488 195.4428 197.9268 202.1208 204.6048 208.7988 211.2828 215.4768 217.9608 222.1548 224.6388 228.8328 231.3168 235.5108 237.9948 242.1888 244.6728 248.8668 251.3508 255.5448 258.0288 262.2228 264.7068 268.9008 271.3848 275.5788 278.0628 282.2568 284.7408 288.9348 291.4188 295.6128 298.0968 302.2908 304.7748 308.9688 311.4528 315.6468 318.1308 322.3248 324.8088 329.0028 331.4868 335.6808 338.1648 342.3588 344.8428 349.0368 351.5208 355.7148 358.1988 362.3928 364.8768 369.0708 371.5548 375.7488 378.2328 382.4268 384.9108 389.1048 391.5888 395.7828 398.2668 402.4608 404.9448 409.1388 411.6228 415.8168 418.3008 422.4948 424.9788 429.1728 431.6568 435.8508 438.3348 442.5288 445.0128 449.2068 451.6908 455.8848 458.3688 462.5628 465.0468 469.2408 471.7248 475.9188 480.1548 485.124"
                       y="0"
                       sodipodi:role="line"
                       id="tspan404">Standards . . . . . . . . . . . . . . . . . . . . . . . . . . . . . . . . . . . . . . . . . . . . . . . . . . . . . . . . . . . . . . . . . 139</tspan></text>
<text
                     transform="matrix(1,0,0,-1,490.0932,-13.2)"
                     id="text406"><tspan
                       style="fill:#000000;fill-opacity:1;fill-rule:nonzero;stroke:none;font-family:Futura Black Narrow;font-variant:normal;font-weight:500;font-size:12;writing-mode:lr;-inkscape-font-specification:Futura-CondensedMedium"
                       x="0"
                       y="0"
                       id="tspan408"></tspan></text>
</g><g
                   id="g410"
                   transform="translate(79.11716,91.79038)"><text
                     transform="matrix(1,0,0,-1,0,-13.2)"
                     id="text412"><tspan
                       style="fill:#000000;fill-opacity:1;fill-rule:nonzero;stroke:none;font-family:Futura Black Narrow;font-variant:normal;font-weight:500;font-size:12;writing-mode:lr;-inkscape-font-specification:Futura-CondensedMedium"
                       x="0 4.5756 9.1992 16.506 21.24 26.1156 28.7928 33.5268 36.1932 38.5776 43.2012 48.0588 52.7928 55.1832 58.242 62.1624 67.02 69.4044 74.262 78.9552 81.3396 86.1972 90.9372 93.996 96.48 99.5388 102.0228 105.0816 107.5656 110.6244 113.1084 116.1672 118.6512 121.71 124.194 127.2528 129.7368 132.7956 135.2796 138.3384 140.8224 143.8812 146.3652 149.424 151.908 154.9668 157.4508 160.5096 162.9936 166.0524 168.5364 171.5952 174.0792 177.138 179.622 182.6808 185.1648 188.2236 190.7076 193.7664 196.2504 199.3092 201.7932 204.852 207.336 210.3948 212.8788 215.9376 218.4216 221.4804 223.9644 227.0232 229.5072 232.566 235.05 238.1088 240.5928 243.6516 246.1356 249.1944 251.6784 254.7372 257.2212 260.28 262.764 265.8228 268.3068 271.3656 273.8496 276.9084 279.3924 282.4512 284.9352 287.994 290.478 293.5368 296.0208 299.0796 301.5636 304.6224 307.1064 310.1652 312.6492 315.708 318.192 321.2508 323.7348 326.7936 329.2776 332.3364 334.8204 337.8792 340.3632 343.422 345.906 348.9648 351.4488 354.5076 356.9916 360.0504 362.5344 365.5932 368.0772 371.136 373.62 376.6788 379.1628 382.2216 384.7056 387.7644 390.2484 393.3072 395.7912 398.85 401.334 404.3928 406.8768 409.9356 412.4196 415.4784 417.9624 421.0212 423.5052 426.564 429.048 432.1068 434.5908 437.6496 440.1336 443.1924 445.6764 448.7352 451.2192 454.278 456.762 459.8208 462.3048 465.3636 467.8476 470.9064 473.3904 476.4492 480.756 485.1156"
                       y="0"
                       sodipodi:role="line"
                       id="tspan414">Computational Thinking . . . . . . . . . . . . . . . . . . . . . . . . . . . . . . . . . . . . . . . . . . . . . . . . . . . . . . . . . . . . . . . . . . . . . 141</tspan></text>
<text
                     transform="matrix(1,0,0,-1,490.0848,-13.2)"
                     id="text416"><tspan
                       style="fill:#000000;fill-opacity:1;fill-rule:nonzero;stroke:none;font-family:Futura Black Narrow;font-variant:normal;font-weight:500;font-size:12;writing-mode:lr;-inkscape-font-specification:Futura-CondensedMedium"
                       x="0"
                       y="0"
                       id="tspan418"></tspan></text>
</g><g
                   id="g420"
                   transform="translate(79.11716,76.79041)"><text
                     transform="matrix(1,0,0,-1,0,-13.2)"
                     id="text422"><tspan
                       style="fill:#000000;fill-opacity:1;fill-rule:nonzero;stroke:none;font-family:Futura Black Narrow;font-variant:normal;font-weight:500;font-size:12;writing-mode:lr;-inkscape-font-specification:Futura-CondensedMedium"
                       x="0 4.2072 8.8308 12.036 14.5308 18.6444 23.52 26.9772 29.6436 34.5012 38.9256 42.1308 44.6256 49.512 53.9364 58.6704 63.4044 65.7888 70.6464 75.3864 77.8812 80.3652 82.86 85.344 87.8388 90.3228 92.8176 95.3016 97.7964 100.2804 102.7752 105.2592 107.754 110.238 112.7328 115.2168 117.7116 120.1956 122.6904 125.1744 127.6692 130.1532 132.648 135.132 137.6268 140.1108 142.6056 145.0896 147.5844 150.0684 152.5632 155.0472 157.542 160.026 162.5208 165.0048 167.4996 169.9836 172.4784 174.9624 177.4572 179.9412 182.436 184.92 187.4148 189.8988 192.3936 194.8776 197.3724 199.8564 202.3512 204.8352 207.33 209.814 212.3088 214.7928 217.2876 219.7716 222.2664 224.7504 227.2452 229.7292 232.224 234.708 237.2028 239.6868 242.1816 244.6656 247.1604 249.6444 252.1392 254.6232 257.118 259.602 262.0968 264.5808 267.0756 269.5596 272.0544 274.5384 277.0332 279.5172 282.012 284.496 286.9908 289.4748 291.9696 294.4536 296.9484 299.4324 301.9272 304.4112 306.906 309.39 311.8848 314.3688 316.8636 319.3476 321.8424 324.3264 326.8212 329.3052 331.8 334.284 336.7788 339.2628 341.7576 344.2416 346.7364 349.2204 351.7152 354.1992 356.694 359.178 361.6728 364.1568 366.6516 369.1356 371.6304 374.1144 376.6092 379.0932 381.588 384.072 386.5668 389.0508 391.5456 394.0296 396.5244 399.0084 401.5032 403.9872 406.482 408.966 411.4608 413.9448 416.4396 418.9236 421.4184 423.9024 426.3972 428.8812 431.376 433.86 436.3548 438.8388 441.3336 443.8176 446.3124 448.7964 451.2912 453.7752 456.27 458.754 461.2488 463.7328 466.2276 468.7116 471.2064 473.6904 476.1852 480.492 485.0916"
                       y="0"
                       sodipodi:role="line"
                       id="tspan424">For Further Reading . . . . . . . . . . . . . . . . . . . . . . . . . . . . . . . . . . . . . . . . . . . . . . . . . . . . . . . . . . . . . . . . . . . . . . . . . . . . . . . . 147</tspan></text>
<text
                     transform="matrix(1,0,0,-1,490.0608,-13.2)"
                     id="text426"><tspan
                       style="fill:#000000;fill-opacity:1;fill-rule:nonzero;stroke:none;font-family:Futura Black Narrow;font-variant:normal;font-weight:500;font-size:12;writing-mode:lr;-inkscape-font-specification:Futura-CondensedMedium"
                       x="0"
                       y="0"
                       id="tspan428"></tspan></text>
</g><g
                   id="g430"
                   transform="translate(79.11716,60.79041)"><text
                     transform="matrix(1,0,0,-1,0,-13.2)"
                     id="text432"><tspan
                       style="fill:#000000;fill-opacity:1;fill-rule:nonzero;stroke:none;font-family:Futura Black Narrow;font-variant:normal;font-weight:500;font-size:12;writing-mode:lr;-inkscape-font-specification:Futura-CondensedMedium"
                       x="0 3.9732 6.3576 11.2152 16.002 19.5288 22.572 25.056 28.0992 30.5832 33.6264 36.1104 39.1536 41.6376 44.6808 47.1648 50.208 52.692 55.7352 58.2192 61.2624 63.7464 66.7896 69.2736 72.3168 74.8008 77.844 80.328 83.3712 85.8552 88.8984 91.3824 94.4256 96.9096 99.9528 102.4368 105.48 107.964 111.0072 113.4912 116.5344 119.0184 122.0616 124.5456 127.5888 130.0728 133.116 135.6 138.6432 141.1272 144.1704 146.6544 149.6976 152.1816 155.2248 157.7088 160.752 163.236 166.2792 168.7632 171.8064 174.2904 177.3336 179.8176 182.8608 185.3448 188.388 190.872 193.9152 196.3992 199.4424 201.9264 204.9696 207.4536 210.4968 212.9808 216.024 218.508 221.5512 224.0352 227.0784 229.5624 232.6056 235.0896 238.1328 240.6168 243.66 246.144 249.1872 251.6712 254.7144 257.1984 260.2416 262.7256 265.7688 268.2528 271.296 273.78 276.8232 279.3072 282.3504 284.8344 287.8776 290.3616 293.4048 295.8888 298.932 301.416 304.4592 306.9432 309.9864 312.4704 315.5136 317.9976 321.0408 323.5248 326.568 329.052 332.0952 334.5792 337.6224 340.1064 343.1496 345.6336 348.6768 351.1608 354.204 356.688 359.7312 362.2152 365.2584 367.7424 370.7856 373.2696 376.3128 378.7968 381.84 384.324 387.3672 389.8512 392.8944 395.3784 398.4216 400.9056 403.9488 406.4328 409.476 411.96 415.0032 417.4872 420.5304 423.0144 426.0576 428.5416 431.5848 434.0688 437.112 439.596 442.6392 445.1232 448.1664 450.6504 453.6936 456.1776 459.2208 461.7048 464.748 467.232 470.2752 472.7592 475.8024 480.1092 485.0784"
                       y="0"
                       sodipodi:role="line"
                       id="tspan434">Links . . . . . . . . . . . . . . . . . . . . . . . . . . . . . . . . . . . . . . . . . . . . . . . . . . . . . . . . . . . . . . . . . . . . . . . . . . . . . . . . . . 149</tspan></text>
<text
                     transform="matrix(1,0,0,-1,490.0476,-13.2)"
                     id="text436"><tspan
                       style="fill:#000000;fill-opacity:1;fill-rule:nonzero;stroke:none;font-family:Futura Black Narrow;font-variant:normal;font-weight:500;font-size:12;writing-mode:lr;-inkscape-font-specification:Futura-CondensedMedium"
                       x="0"
                       y="0"
                       id="tspan438"></tspan></text>
</g></g></g></g></g></g></g></g></svg>