<?xml version="1.0" encoding="UTF-8" standalone="no"?>
<!-- Created with Inkscape (http://www.inkscape.org/) -->

<svg
   xmlns:dc="http://purl.org/dc/elements/1.1/"
   xmlns:cc="http://creativecommons.org/ns#"
   xmlns:rdf="http://www.w3.org/1999/02/22-rdf-syntax-ns#"
   xmlns:svg="http://www.w3.org/2000/svg"
   xmlns="http://www.w3.org/2000/svg"
   xmlns:sodipodi="http://sodipodi.sourceforge.net/DTD/sodipodi-0.dtd"
   xmlns:inkscape="http://www.inkscape.org/namespaces/inkscape"
   id="svg2"
   version="1.1"
   inkscape:version="0.48.5 r10040"
   width="744.095"
   height="1052.3625"
   xml:space="preserve"
   sodipodi:docname="tmp.pdf"><metadata
     id="metadata8"><rdf:RDF><cc:Work
         rdf:about=""><dc:format>image/svg+xml</dc:format><dc:type
           rdf:resource="http://purl.org/dc/dcmitype/StillImage" /><dc:title></dc:title></cc:Work></rdf:RDF></metadata><defs
     id="defs6"><clipPath
       clipPathUnits="userSpaceOnUse"
       id="clipPath20"><path
         d="M 0,0 612,0 612,792 0,792 0,0 z"
         id="path22" /></clipPath><clipPath
       clipPathUnits="userSpaceOnUse"
       id="clipPath30"><path
         d="m 0,-2.69413e-5 612,0 0,791.9998969413 -612,0 L 0,-2.69413e-5 z"
         id="path32" /></clipPath></defs><sodipodi:namedview
     pagecolor="#ffffff"
     bordercolor="#666666"
     borderopacity="1"
     objecttolerance="10"
     gridtolerance="10"
     guidetolerance="10"
     inkscape:pageopacity="0"
     inkscape:pageshadow="2"
     inkscape:window-width="640"
     inkscape:window-height="480"
     id="namedview4"
     showgrid="false"
     inkscape:zoom="0.22425732"
     inkscape:cx="372.04749"
     inkscape:cy="526.18127"
     inkscape:window-x="0"
     inkscape:window-y="31"
     inkscape:window-maximized="0"
     inkscape:current-layer="g10" /><g
     id="g10"
     inkscape:groupmode="layer"
     inkscape:label="tmp"
     transform="matrix(1.25,0,0,-1.25,-0.17375,1007.8787)"><g
       id="g12"
       transform="scale(0.97313,0.97313)"><g
         id="g14"><g
           id="g16"><g
             id="g18"
             clip-path="url(#clipPath20)"><g
               id="g24" /><g
               id="g26"><g
                 id="g28"
                 clip-path="url(#clipPath30)"><path
                   d="m 0,791.9999 611.9999,0 0,-791.9998873878 -611.9999,0 L 0,791.9999 z"
                   style="fill:#ffffff;fill-opacity:1;fill-rule:evenodd;stroke:none"
                   id="path34" /><g
                   id="g36"
                   transform="translate(45.41472,740.8386)"><text
                     transform="matrix(1,0,0,-1,0,-12)"
                     id="text38"><tspan
                       style="fill:#000000;fill-opacity:1;fill-rule:nonzero;stroke:none;font-family:Futura Black Narrow;font-variant:normal;font-weight:800;font-size:12;writing-mode:lr;-inkscape-font-specification:Futura-CondensedExtraBold"
                       x="0 5.3556 11.9712 18.7548 25.4064 32.142 35.7456"
                       y="0"
                       sodipodi:role="line"
                       id="tspan40">sound: </tspan></text>
</g><g
                   id="g42"
                   transform="translate(45.41472,740.8386)"><text
                     transform="matrix(1,0,0,-1,39.36328,-12)"
                     id="text44"><tspan
                       style="fill:#000000;fill-opacity:1;fill-rule:nonzero;stroke:none;font-family:Futura Black Narrow;font-variant:normal;font-weight:500;font-size:12;writing-mode:lr;-inkscape-font-specification:Futura-CondensedMedium"
                       x="0 4.8924 9.75 12.234 16.968 21.8436 26.5776 28.962 33.5856 36.0696 41.1264 43.5168 47.9412 50.4252 53.0916 57.9492 62.6832 65.3496 67.8336 71.2608 75.9948 80.8524 83.3364 88.0704 92.4948 94.9788 99.7128 102.1032 106.908 111.2496 115.674 120.408 122.892 125.2764 130.134 132.618 137.352 139.836 144.312 147.7392 151.014 155.748 158.4144 161.772 166.6296 169.1136 173.8476 177.0876 181.7112 184.0956 188.52 191.9472 194.6136 197.0976 199.5816 204.3864 208.4232 213.1572 215.5416 217.932 222.666 227.4 229.7904 234.2148 236.6988 241.398 245.8224 248.3064 250.6908 257.9976 262.7316 267.3552 270.8124 273.4788 275.8632 280.7208 285.4608 287.9448 290.886 294.126 298.7496 306.0792 308.5632 313.0392 316.4664 319.7412 324.4752 327.1416 330.4992 335.3568 337.806 341.3328 343.8168 348.5508 353.4264 355.8108 358.2012 360.8676 363 365.3844 370.242 372.726 376.2528 380.8764 385.752 390.6096 395.3436 397.8276 400.218 402.6024 407.3364 410.6112 415.3452 418.8612 422.8044 425.2884 427.7724 432.396 435.6012 438.0852 441.5124 444.7524 449.1768 453.9108 456.5772 458.9616 463.8192 468.5592 471.0432 475.7772"
                       y="0"
                       sodipodi:role="line"
                       id="tspan46">An audio fle that can be played in a Scratch project, available by importing from Scratch's built-in sound library, or creating a </tspan></text>
</g><g
                   id="g48"
                   transform="translate(62.41471,726.8386)"><text
                     transform="matrix(1,0,0,-1,0,-12)"
                     id="text50"><tspan
                       style="fill:#000000;fill-opacity:1;fill-rule:nonzero;stroke:none;font-family:Futura Black Narrow;font-variant:normal;font-weight:500;font-size:12;writing-mode:lr;-inkscape-font-specification:Futura-CondensedMedium"
                       x="0 4.8576 9.2112 15.2988 17.7828 21.0228 25.4472 28.8744 33.498 36.7728 41.5068 43.8912 48.7488 53.4888 55.9728 58.4568 62.9328 67.5564 72.432 77.2896 82.0236 85.5504 88.0344 92.7684 96.0084 100.4328 102.9168 107.6508 110.0412 114.846 119.1876 123.612 128.346 130.83 135.5292 139.9536 142.4376 147.3132 150.84 153.2244 158.082 162.822 165.306 168.8328 173.4564 178.332 183.1896 187.9236 190.4076 195.1416 197.532 202.1556 205.5132 210.3 213.8268 216.3108 218.7948 224.8824 229.74 232.1244 235.482 240.3396 242.8236 246.2508 250.8744 255.732 258.3984 261.6384 266.262 268.6524 271.1364 275.8704 278.3544 281.8812 286.5048 291.3804 296.238 300.972 303.4212 306.948 309.432 313.434 318.0576 320.448 325.3236 332.6532 337.0776 339.5616 342.0456 344.7 349.1244 356.4312 361.1652 365.7888 368.2728 370.7568 375.4908 380.3484 385.0824 387.5664 394.896 399.5196 402.7596 407.184"
                       y="0"
                       sodipodi:role="line"
                       id="tspan52">new recording. Sounds are played by using sound blocks, which control a sound's volume, tempo, and more.</tspan></text>
<text
                     transform="matrix(1,0,0,-1,409.668,-12)"
                     id="text54"><tspan
                       style="fill:#000000;fill-opacity:1;fill-rule:nonzero;stroke:none;font-family:Futura Black Narrow;font-variant:normal;font-weight:500;font-size:12;writing-mode:lr;-inkscape-font-specification:Futura-CondensedMedium"
                       x="0"
                       y="0"
                       id="tspan56"></tspan></text>
</g><g
                   id="g58"
                   transform="translate(45.41472,706.8386)"><text
                     transform="matrix(1,0,0,-1,0,-12)"
                     id="text60"><tspan
                       style="fill:#000000;fill-opacity:1;fill-rule:nonzero;stroke:none;font-family:Futura Black Narrow;font-variant:normal;font-weight:800;font-size:12;writing-mode:lr;-inkscape-font-specification:Futura-CondensedExtraBold"
                       x="0 5.3556 12.0672 16.7628 20.1984 24.354 30.8856 34.4892"
                       y="0"
                       sodipodi:role="line"
                       id="tspan62">sprite: </tspan></text>
</g><g
                   id="g64"
                   transform="translate(45.41472,706.8386)"><text
                     transform="matrix(1,0,0,-1,38.10938,-12)"
                     id="text66"><tspan
                       style="fill:#000000;fill-opacity:1;fill-rule:nonzero;stroke:none;font-family:Futura Black Narrow;font-variant:normal;font-weight:500;font-size:12;writing-mode:lr;-inkscape-font-specification:Futura-CondensedMedium"
                       x="0 4.8924 7.3764 14.706 19.1304 23.8644 26.2488 30.9828 33.4668 38.0904 42.8244 45.2088 49.6332 53.0604 55.7268 58.2108 60.8772 65.7348 70.4688 73.1352 75.6192 80.3532 84.7776 88.2108 91.164 95.7876 99.0156 106.3452 109.872 112.356 117.09 120.5172 123.1836 125.568 130.1916 135.0492 138.576 141.06 145.6836 150.5412 153.0252 155.6916 160.5492 164.9736 167.4576 171.0432 173.7204 178.4544 183.1944 187.6188 190.1028 192.4872 197.3448 199.8288 204.5628 207.0468 211.5228 214.95 218.2248 222.9588 225.6252 228.9828 233.8404 236.3244 241.0584 244.2984 248.922 251.3064 255.7308 259.158 261.8244"
                       y="0"
                       sodipodi:role="line"
                       id="tspan68">A media object that performs actions on the stage in a Scratch project.</tspan></text>
<text
                     transform="matrix(1,0,0,-1,302.41778,-12)"
                     id="text70"><tspan
                       style="fill:#000000;fill-opacity:1;fill-rule:nonzero;stroke:none;font-family:Futura Black Narrow;font-variant:normal;font-weight:500;font-size:12;writing-mode:lr;-inkscape-font-specification:Futura-CondensedMedium"
                       x="0"
                       y="0"
                       id="tspan72"></tspan></text>
</g><g
                   id="g74"
                   transform="translate(45.41472,685.8386)"><text
                     transform="matrix(1,0,0,-1,0,-12)"
                     id="text76"><tspan
                       style="fill:#000000;fill-opacity:1;fill-rule:nonzero;stroke:none;font-family:Futura Black Narrow;font-variant:normal;font-weight:800;font-size:12;writing-mode:lr;-inkscape-font-specification:Futura-CondensedExtraBold"
                       x="0 5.4492 9.6384 16.3716 23.1528 29.682 33.2952"
                       y="0"
                       sodipodi:role="line"
                       id="tspan78">stage: </tspan></text>
</g><g
                   id="g80"
                   transform="translate(45.41472,685.8386)"><text
                     transform="matrix(1,0,0,-1,36.9082,-12)"
                     id="text82"><tspan
                       style="fill:#000000;fill-opacity:1;fill-rule:nonzero;stroke:none;font-family:Futura Black Narrow;font-variant:normal;font-weight:500;font-size:12;writing-mode:lr;-inkscape-font-specification:Futura-CondensedMedium"
                       x="0 3.9204 8.778 13.2024 15.6864 20.4204 25.1544 28.512 33.0876 37.8048 41.0448 45.6684 50.544 55.4016 60.1356 62.6196 67.2432 70.1844 72.6684 77.4024 79.8864 84.3624 87.7896 91.0644 95.7984 98.4648 101.8224 106.68 109.164 113.898 117.138 121.7616 124.146 128.5704 131.9976 134.664 137.148 139.632 143.5524 148.41 152.8344 155.3184 158.904 161.5812 166.3152 171.0552 175.4796 177.9636 181.3908 186.1248 190.9824 193.4664 198.324 203.1288 207.1308 211.5552 214.0392 217.566 220.9932 224.2212 226.6056 231.3516 234.018 237.5448 240.0288 242.5128 247.2468 251.9808 255.3384 260.0316 264.7656 268.0056 272.6292 277.3632 280.89 283.374 286.896 290.3232 294.9468 298.5324 301.1988 306.0744 313.404 317.8284 321.3552 324.8772 327.3612 329.8452 334.5792 339.4368 344.1708 346.6548 350.1816 354.8052 359.6808 364.5384 369.2724 372.7992 375.2832 377.7672 381.294 383.6784 391.008 393.3924 395.7828 400.5168 403.722 406.206 408.8484 413.472 415.956 420.69 423.174 426.7008 431.4348 434.6628 437.0472 439.7016 444.126"
                       y="0"
                       sodipodi:role="line"
                       id="tspan84">The background of a Scratch project. The stage can have scripts, backdrops (costumes), and sounds, similar to a sprite.</tspan></text>
<text
                     transform="matrix(1,0,0,-1,483.5182,-12)"
                     id="text86"><tspan
                       style="fill:#000000;fill-opacity:1;fill-rule:nonzero;stroke:none;font-family:Futura Black Narrow;font-variant:normal;font-weight:500;font-size:12;writing-mode:lr;-inkscape-font-specification:Futura-CondensedMedium"
                       x="0"
                       y="0"
                       id="tspan88"></tspan></text>
</g><g
                   id="g90"
                   transform="translate(45.41472,665.8386)"><text
                     transform="matrix(1,0,0,-1,0,-12)"
                     id="text92"><tspan
                       style="fill:#000000;fill-opacity:1;fill-rule:nonzero;stroke:none;font-family:Futura Black Narrow;font-variant:normal;font-weight:800;font-size:12;writing-mode:lr;-inkscape-font-specification:Futura-CondensedExtraBold"
                       x="0 5.4492 9.5304 16.3116 23.0448 26.478 33.0912 36.7044"
                       y="0"
                       sodipodi:role="line"
                       id="tspan94">studio: </tspan></text>
</g><g
                   id="g96"
                   transform="translate(45.41472,665.8386)"><text
                     transform="matrix(1,0,0,-1,40.32422,-12)"
                     id="text98"><tspan
                       style="fill:#000000;fill-opacity:1;fill-rule:nonzero;stroke:none;font-family:Futura Black Narrow;font-variant:normal;font-weight:500;font-size:12;writing-mode:lr;-inkscape-font-specification:Futura-CondensedMedium"
                       x="0 4.8924 7.3764 12.252 15.7788 20.2032 23.3268 25.4592 28.8864 32.1264 36.5508 41.2848 43.9392 48.3636 53.0976 55.5816 60.3336 65.0676 67.458 69.8484 74.2728 77.7888 82.2132 84.6972 87.0816 91.9392 94.4232 97.0896 101.9472 106.3716 108.8556 113.3316 116.7588 120.0336 124.7676 127.434 130.7916 135.6492 138.1332 142.7568 147.6144 150.0048 152.3892 157.2468 161.6712 164.1552 167.5824 172.206 179.5356 186.8652 191.7408 196.5984 198.9828 201.6492 206.0736 208.5576 211.224 216.0816 220.8156 223.482 225.966 229.3932 234.1272 238.9848 241.4688 246.2028 250.6272 253.1112 257.9868 261.5136 265.938 270.672 273.156 275.7984 280.422 282.906 287.7636 290.148 294.888 299.7456 302.136 304.5204 309.2604 314.118 316.7844 319.2684 324.0024 327.2424 331.866 334.2504 338.6748 342.102 344.7684 348.2952 350.7792 354.2064 358.83 363.6876 366.354 369.582 371.9664 376.7004 381.576 384.2304 388.6548 393.3888 395.8728 400.572 404.9964 407.4804 412.104 416.9616 421.386 423.87 428.4936 431.6988 434.1828 441.5124 446.2464 451.0452 455.4696 457.9536 462.8292 466.356 470.7804 474.156 477.6828"
                       y="0"
                       sodipodi:role="line"
                       id="tspan100">A user-created gallery in the Scratch online community that can be used to highlight projects contributed by one or many users.</tspan></text>
<text
                     transform="matrix(1,0,0,-1,520.49102,-12)"
                     id="text102"><tspan
                       style="fill:#000000;fill-opacity:1;fill-rule:nonzero;stroke:none;font-family:Futura Black Narrow;font-variant:normal;font-weight:500;font-size:12;writing-mode:lr;-inkscape-font-specification:Futura-CondensedMedium"
                       x="0"
                       y="0"
                       id="tspan104"></tspan></text>
</g><g
                   id="g106"
                   transform="translate(45.41472,644.8386)"><text
                     transform="matrix(1,0,0,-1,0,-12)"
                     id="text108"><tspan
                       style="fill:#000000;fill-opacity:1;fill-rule:nonzero;stroke:none;font-family:Futura Black Narrow;font-variant:normal;font-weight:800;font-size:12;writing-mode:lr;-inkscape-font-specification:Futura-CondensedExtraBold"
                       x="0 4.1544 10.6848 16.1352 20.2176 23.652 30.3024 36.9888 40.6032 47.3376 53.988 60.7224 64.3368 71.0712 77.6016 84.336 91.1184 97.8048 104.4912 107.9256 114.576 121.2624 124.8768"
                       y="0"
                       sodipodi:role="line"
                       id="tspan110">testing and debugging: </tspan></text>
</g><g
                   id="g112"
                   transform="translate(45.41472,644.8386)"><text
                     transform="matrix(1,0,0,-1,128.5137,-12)"
                     id="text114"><tspan
                       style="fill:#000000;fill-opacity:1;fill-rule:nonzero;stroke:none;font-family:Futura Black Narrow;font-variant:normal;font-weight:500;font-size:12;writing-mode:lr;-inkscape-font-specification:Futura-CondensedMedium"
                       x="0 3.9204 8.778 13.2024 15.6864 19.1136 23.7372 31.044 35.778 40.6536 43.3308 48.0648 50.7312 53.1156 57.7392 62.5968 67.3308 69.7212 72.2052 76.9392 80.214 84.948 88.3752 91.0416 93.426 96.8532 101.2776 103.7616 108.3852 111.3264 113.8104 121.14 125.874 130.5672 132.9516 137.8092 142.5492 145.0332 148.56 153.4356 156.6756 161.1 163.584 166.2504 171.108 173.4924 178.35 183.09 186.6168 189.1008 195.1068 199.7304 202.9584 207.6516 210.1356 215.28 217.764 222.498 227.3556 232.0896 234.5736 239.6304 244.488 249.222 251.6064 256.464 261.204 263.688 268.422 273.2796 278.0136 280.4976 284.0244 288.648 291.1092 295.182 297.5664 302.424 307.164 309.648 314.382 317.622 322.2456 326.9796 329.37 333.7944 341.124 344.6508 347.1348 353.2224 358.08 362.5044 367.362 369.846 372.5124 377.37 381.7236 386.148"
                       y="0"
                       sodipodi:role="line"
                       id="tspan116">The computational practice of making sure things work – and fnding and solving problems when they </tspan></text>
</g><g
                   id="g118"
                   transform="translate(62.41471,630.8386)"><text
                     transform="matrix(1,0,0,-1,0,-12)"
                     id="text120"><tspan
                       style="fill:#000000;fill-opacity:1;fill-rule:nonzero;stroke:none;font-family:Futura Black Narrow;font-variant:normal;font-weight:500;font-size:12;writing-mode:lr;-inkscape-font-specification:Futura-CondensedMedium"
                       x="0 4.734 7.962 10.3464 13.8732 18.2976"
                       y="0"
                       sodipodi:role="line"
                       id="tspan122">arise.</tspan></text>
<text
                     transform="matrix(1,0,0,-1,20.7816,-12)"
                     id="text124"><tspan
                       style="fill:#000000;fill-opacity:1;fill-rule:nonzero;stroke:none;font-family:Futura Black Narrow;font-variant:normal;font-weight:500;font-size:12;writing-mode:lr;-inkscape-font-specification:Futura-CondensedMedium"
                       x="0"
                       y="0"
                       id="tspan126"></tspan></text>
</g><g
                   id="g128"
                   transform="translate(45.41472,610.8386)"><text
                     transform="matrix(1,0,0,-1,0,-12)"
                     id="text130"><tspan
                       style="fill:#000000;fill-opacity:1;fill-rule:nonzero;stroke:none;font-family:Futura Black Narrow;font-variant:normal;font-weight:800;font-size:12;writing-mode:lr;-inkscape-font-specification:Futura-CondensedExtraBold"
                       x="0 4.3128 10.9656 17.4984 24.2352 28.32 33.0888 39.6216 43.2264 53.1792 59.736 63.9288 70.6656 77.3784 84.0312 90.648 95.5128 99.1176"
                       y="0"
                       sodipodi:role="line"
                       id="tspan132">theatre metaphor: </tspan></text>
</g><g
                   id="g134"
                   transform="translate(45.41472,610.8386)"><text
                     transform="matrix(1,0,0,-1,102.7383,-12)"
                     id="text136"><tspan
                       style="fill:#000000;fill-opacity:1;fill-rule:nonzero;stroke:none;font-family:Futura Black Narrow;font-variant:normal;font-weight:500;font-size:12;writing-mode:lr;-inkscape-font-specification:Futura-CondensedMedium"
                       x="0 4.8924 7.3764 13.4052 18.21 22.6344 25.1184 29.742 32.6832 35.1672 39.9012 44.3256 47.8524 51.2796 54.5076 56.892 61.626 64.0104 68.868 73.608 76.092 78.7584 83.616 88.0404 90.5244 95.2584 99.6828 103.2096 105.594 110.334 115.1916 117.6756 122.2992 125.2404 127.7244 132.2004 135.6276 138.9024 143.6364 146.3028 149.6604 154.518 157.002 159.6684 164.526 169.26 171.9264 174.4104 178.8348 186.1416 190.8756 195.7332 200.4672 203.994 206.3784 210.4272 214.8516 218.3784 220.8624 223.2468 225.9132 229.44 231.924 234.3084 239.166 241.8204 246.2448 251.1024 253.7688 256.1532 260.7768 265.6344 270.3684 272.7588 275.2428 278.7696 281.154 288.4836 290.868 293.2584 297.9924 301.2204 303.6048 306.2712 310.6956 313.1796 315.822 320.4456 322.9296 325.596 330.4536 334.878 339.612 342.2784 345.5184 349.9428 352.4268 354.9108 360.9984 363.3828 366.0492 370.9068 373.3908 378.1248 381.552 384.1944 388.818 392.1936 395.7204"
                       y="0"
                       sodipodi:role="line"
                       id="tspan138">A way of describing the design of Scratch that emphasizes its intentional similarity to theatre, with actors </tspan></text>
</g><g
                   id="g140"
                   transform="translate(62.41471,595.8386)"><text
                     transform="matrix(1,0,0,-1,0,-12)"
                     id="text142"><tspan
                       style="fill:#000000;fill-opacity:1;fill-rule:nonzero;stroke:none;font-family:Futura Black Narrow;font-variant:normal;font-weight:500;font-size:12;writing-mode:lr;-inkscape-font-specification:Futura-CondensedMedium"
                       x="0 3.522 7.0488 11.7828 15.0108 17.3952 20.0496 24.474 28.0008 31.5228 34.0068 36.4908 39.918 44.5416 48.1272 50.7936 55.6692 62.9988 67.4232 70.95 73.434 75.918 80.652 85.386 88.7436 93.4368 98.1708 101.4108 106.0344 110.7684 114.2952 116.7792 119.2632 122.79 126.2172 129.4452 131.8296 136.5756 139.242 142.7688 145.2528 147.7368 152.4708 157.3284 162.0624 164.5464 169.2804 171.7644 175.35 178.0272 182.7612 187.5012 191.9256"
                       y="0"
                       sodipodi:role="line"
                       id="tspan144">(sprites), costumes, backdrops, scripts, and a stage.</tspan></text>
<text
                     transform="matrix(1,0,0,-1,194.4096,-12)"
                     id="text146"><tspan
                       style="fill:#000000;fill-opacity:1;fill-rule:nonzero;stroke:none;font-family:Futura Black Narrow;font-variant:normal;font-weight:500;font-size:12;writing-mode:lr;-inkscape-font-specification:Futura-CondensedMedium"
                       x="0"
                       y="0"
                       id="tspan148"></tspan></text>
</g><g
                   id="g150"
                   transform="translate(45.41472,575.8386)"><text
                     transform="matrix(1,0,0,-1,0,-12)"
                     id="text152"><tspan
                       style="fill:#000000;fill-opacity:1;fill-rule:nonzero;stroke:none;font-family:Futura Black Narrow;font-variant:normal;font-weight:800;font-size:12;writing-mode:lr;-inkscape-font-specification:Futura-CondensedExtraBold"
                       x="0 4.0836 7.5192 14.2308 19.5864 23.19 32.4456 35.8812 42.5328 49.2684 55.824 65.2476 68.8512"
                       y="0"
                       sodipodi:role="line"
                       id="tspan154">tips window: </tspan></text>
</g><g
                   id="g156"
                   transform="translate(45.41472,575.8386)"><text
                     transform="matrix(1,0,0,-1,72.49805,-12)"
                     id="text158"><tspan
                       style="fill:#000000;fill-opacity:1;fill-rule:nonzero;stroke:none;font-family:Futura Black Narrow;font-variant:normal;font-weight:500;font-size:12;writing-mode:lr;-inkscape-font-specification:Futura-CondensedMedium"
                       x="0 4.9392 9.8148 12.1992 14.5896 17.256 19.74 24.474 26.8584 30.0984 34.5228 37.95 40.6164 43.0776 47.502 49.986 52.3704 57.228 59.8704 64.494 66.978 69.6444 74.502 78.9264 81.4104 86.1684 89.4084 94.032 96.4164 100.8408 104.268 106.9344 109.4184 113.778 118.512 120.8964 123.5388 128.1624 130.9344 133.4184 135.9024 138.5688 143.4264 147.8508 150.3348 154.542 156.9264 161.6604 165.1872 167.6712 174.966 177.3504 182.208 186.942 191.4828 197.5704 200.0544 202.4388 205.9656 208.4496 213.1836 215.6676 218.6208 223.2444 226.4724 233.802 236.286 240.9096 243.8508 246.3348 251.0748 255.4992 258.1656 260.832 263.2164 268.074 272.814 275.298 280.1556 284.58 286.9704 291.7044 294.1884 296.5728 301.4304 303.9144 308.3904 311.8176 315.0924 319.8264 322.4928 325.8504 330.708"
                       y="0"
                       sodipodi:role="line"
                       id="tspan160">Built directly into the Project Editor, the Tips Window is a form of getting help in Scratch.</tspan></text>
<text
                     transform="matrix(1,0,0,-1,405.69005,-12)"
                     id="text162"><tspan
                       style="fill:#000000;fill-opacity:1;fill-rule:nonzero;stroke:none;font-family:Futura Black Narrow;font-variant:normal;font-weight:500;font-size:12;writing-mode:lr;-inkscape-font-specification:Futura-CondensedMedium"
                       x="0"
                       y="0"
                       id="tspan164"></tspan></text>
</g><g
                   id="g166"
                   transform="translate(45.41472,555.8387)"><text
                     transform="matrix(1,0,0,-1,0,-12)"
                     id="text168"><tspan
                       style="fill:#000000;fill-opacity:1;fill-rule:nonzero;stroke:none;font-family:Futura Black Narrow;font-variant:normal;font-weight:800;font-size:12;writing-mode:lr;-inkscape-font-specification:Futura-CondensedExtraBold"
                       x="0 6.7788 13.4376 17.6004 24.2112 28.314 35.0928"
                       y="0"
                       sodipodi:role="line"
                       id="tspan170">unfocus</tspan></text>
</g><g
                   id="g172"
                   transform="translate(45.41472,555.8387)"><text
                     transform="matrix(1,0,0,-1,44.06858,-12)"
                     id="text174"><tspan
                       style="fill:#000000;fill-opacity:1;fill-rule:nonzero;stroke:none;font-family:Futura Black Narrow;font-variant:normal;font-weight:800;font-size:12;writing-mode:lr;-inkscape-font-specification:Futura-CondensedExtraBold"
                       x="0 6.8736 11.6352 18.2568 25.0344 31.752 35.3616"
                       y="0"
                       sodipodi:role="line"
                       id="tspan176">group: </tspan></text>
</g><g
                   id="g178"
                   transform="translate(45.41472,555.8387)"><text
                     transform="matrix(1,0,0,-1,83.03906,-12)"
                     id="text180"><tspan
                       style="fill:#000000;fill-opacity:1;fill-rule:nonzero;stroke:none;font-family:Futura Black Narrow;font-variant:normal;font-weight:500;font-size:12;writing-mode:lr;-inkscape-font-specification:Futura-CondensedMedium"
                       x="0 4.8924 9.75 12.234 16.968 20.3952 23.0616 25.446 29.5188 31.9032 34.5696 38.994 41.478 43.8624 48.72 51.204 57.2916 62.1492 64.5336 67.8912 72.7488 75.2328 78.8184 81.4848 86.3604 91.0944 95.5188 100.3764 103.0428 106.5696 109.0536 112.5804 117.438 122.172 125.412 129.8364 132.3204 134.9868 139.8444 144.2688 146.6532 149.8584 152.3424 157.0764 160.3164 164.94 167.3244 171.7488 175.176 177.8424 181.3692 183.5016 185.886 190.7436 192.876 197.61 200.85 205.4736 210.1908 213.4308 217.8552 221.382 224.9088 227.3928 232.1268 236.9844 241.7184 244.2024 247.4424 251.8668 256.566 261.4416 265.866 269.4516 272.118 274.602 277.5552 281.9796 286.404 291.138 295.872 300.606 303.9636 308.6568 311.1408 314.082 317.322 321.9456 329.2752 331.7592 336.4932 338.9772 343.7112 346.0956 350.0976 354.522 357.8976 361.4244 365.8488 368.3328 371.76 376.3836 378.774 381.1644 385.5888 389.016 391.6824 394.0668 398.6904 403.548 406.032 410.6556 413.5968"
                       y="0"
                       sodipodi:role="line"
                       id="tspan182">An activity in which students share their projects-in-progress and request feedback from a diverse collection of </tspan></text>
</g><g
                   id="g184"
                   transform="translate(62.41471,540.8386)"><text
                     transform="matrix(1,0,0,-1,0,-12)"
                     id="text186"><tspan
                       style="fill:#000000;fill-opacity:1;fill-rule:nonzero;stroke:none;font-family:Futura Black Narrow;font-variant:normal;font-weight:500;font-size:12;writing-mode:lr;-inkscape-font-specification:Futura-CondensedMedium"
                       x="0 4.734 9.1584 13.782 18.516 20.9064 25.3308"
                       y="0"
                       sodipodi:role="line"
                       id="tspan188">people.</tspan></text>
<text
                     transform="matrix(1,0,0,-1,27.8148,-12)"
                     id="text190"><tspan
                       style="fill:#000000;fill-opacity:1;fill-rule:nonzero;stroke:none;font-family:Futura Black Narrow;font-variant:normal;font-weight:500;font-size:12;writing-mode:lr;-inkscape-font-specification:Futura-CondensedMedium"
                       x="0"
                       y="0"
                       id="tspan192"></tspan></text>
</g><g
                   id="g194"
                   transform="translate(45.41472,520.8387)"><text
                     transform="matrix(1,0,0,-1,0,-12)"
                     id="text196"><tspan
                       style="fill:#000000;fill-opacity:1;fill-rule:nonzero;stroke:none;font-family:Futura Black Narrow;font-variant:normal;font-weight:800;font-size:12;writing-mode:lr;-inkscape-font-specification:Futura-CondensedExtraBold"
                       x="0 6.012 12.756 17.448 20.892 27.636 34.38 37.824 44.352 49.704 53.316 60.06 66.72 73.464 77.076 80.52 83.964 89.412 93.492 98.844 102.456"
                       y="0"
                       sodipodi:role="line"
                       id="tspan198">variables and lists: </tspan></text>
</g><g
                   id="g200"
                   transform="translate(45.41472,520.8387)"><text
                     transform="matrix(1,0,0,-1,106.0254,-12)"
                     id="text202"><tspan
                       style="fill:#000000;fill-opacity:1;fill-rule:nonzero;stroke:none;font-family:Futura Black Narrow;font-variant:normal;font-weight:500;font-size:12;writing-mode:lr;-inkscape-font-specification:Futura-CondensedMedium"
                       x="0 4.8924 7.3764 10.734 15.5916 20.3256 25.1832 29.9232 34.3476 39.0816 43.8156 46.206 50.6304 53.1144 57.1512 61.8852 64.2756 69.1512 73.5756 76.0596 80.6832 83.8884 86.3724 89.7996 94.4232 96.8136 99.204 103.6284 107.0556 109.722 112.1064 116.73 121.5876 124.0716 128.6952 131.6364 134.1204 138.1572 142.8912 145.2816 150.1572 154.5816 158.1084 160.5924 163.8324 168.2568 171.684 176.3076 179.5824 184.3164 188.7408 193.4748 195.9588 198.3432 203.2008 205.6848 210.1608 213.588 216.8628 221.5968 224.2632 227.6208 232.3956 234.9504 238.4772 240.9612 248.2908 252.7152 260.0448 264.6684 268.1844 272.1864 274.6704 277.1544 281.3844 286.1184 289.3464 291.7308 296.4648 301.1988 303.5892 308.0136 311.5404 314.0244 317.4516 322.1856 327.0432 329.5272 333.1128 335.7552 340.3788 343.6188 348.0432 350.5272 355.1508 360.0084 364.4328 366.9168 370.9536 375.6876 378.078 382.9536 387.378 389.862 394.596 397.2624 399.7464 404.4804"
                       y="0"
                       sodipodi:role="line"
                       id="tspan204">A changeable value or collection of values recorded in Scratch’s memory. Variables can store one value at a </tspan></text>
</g><g
                   id="g206"
                   transform="translate(62.41471,505.8387)"><text
                     transform="matrix(1,0,0,-1,0,-12)"
                     id="text208"><tspan
                       style="fill:#000000;fill-opacity:1;fill-rule:nonzero;stroke:none;font-family:Futura Black Narrow;font-variant:normal;font-weight:500;font-size:12;writing-mode:lr;-inkscape-font-specification:Futura-CondensedMedium"
                       x="0 2.6664 5.0508 12.3804 16.8048 19.2888 21.7728 27.8604 32.718 35.1024 37.4928 41.9172 44.4012 46.7916 49.176 52.7616 55.428 58.9548 61.4388 64.866 69.6 74.4576 76.9416 80.5272 83.1696 87.7932 91.0332 95.4576 97.9416 105.2712 110.1468 112.5372 115.2036 117.588 122.322 124.7124 129.1368 131.6208 135.6576 140.3916 142.782 147.6576 152.082 155.6088"
                       y="0"
                       sodipodi:role="line"
                       id="tspan210">time, while lists can store multiple values.</tspan></text>
<text
                     transform="matrix(1,0,0,-1,158.0928,-12)"
                     id="text212"><tspan
                       style="fill:#000000;fill-opacity:1;fill-rule:nonzero;stroke:none;font-family:Futura Black Narrow;font-variant:normal;font-weight:500;font-size:12;writing-mode:lr;-inkscape-font-specification:Futura-CondensedMedium"
                       x="0"
                       y="0"
                       id="tspan214"></tspan></text>
</g><g
                   id="g216"
                   transform="translate(45.41472,485.8387)"><text
                     transform="matrix(1,0,0,-1,0,-12)"
                     id="text218"><tspan
                       style="fill:#000000;fill-opacity:1;fill-rule:nonzero;stroke:none;font-family:Futura Black Narrow;font-variant:normal;font-weight:800;font-size:12;writing-mode:lr;-inkscape-font-specification:Futura-CondensedExtraBold"
                       x="0 5.9292 12.4584 16.5636 20.7168 27.33 31.9992 35.6124 42.4896 47.2668 54 60.7212 67.3824 70.8276 74.9328"
                       y="0"
                       sodipodi:role="line"
                       id="tspan220">vector graphic:</tspan></text>
</g><g
                   id="g222"
                   transform="translate(45.41472,485.8387)"><text
                     transform="matrix(1,0,0,-1,81.02306,-12)"
                     id="text224"><tspan
                       style="fill:#000000;fill-opacity:1;fill-rule:nonzero;stroke:none;font-family:Futura Black Narrow;font-variant:normal;font-weight:500;font-size:12;writing-mode:lr;-inkscape-font-specification:Futura-CondensedMedium"
                       x="0 4.8924 9.75 12.234 14.6184 21.948 26.682 31.422 35.8464 38.3304 40.9968 45.8544 50.5884 53.2548 55.7388 58.1232 61.65 64.134 68.868 73.2924 78.3492 83.2068 87.6312 92.3652 94.8492 99.5484 103.9728 106.4568 111.1908 113.6748 117.102 121.7256 124.116 126.5064 130.9308 134.358 137.0244 139.4088 144.0324 148.89 151.374 155.9976 158.9388 161.4228 166.1628 170.5872 175.2108 182.5404 186.9648 189.6312 192.8592 195.2436 198.6708 201.1548 204.6816 209.5392 214.2732 219.0072 223.4316 226.9584 229.4424 232.9644 237.3888 239.8728 244.6128 247.0968 249.5808 252.0648 255.492 257.8764 261.1164 264.5436 266.934 271.3584 274.8852 277.3692 279.8532 283.0932 287.5176 290.9448 293.622 298.356 303.2136 307.9308 310.3212 314.7456 318.2724 321.7944 324.2784 329.0124 333.87 338.604 341.088 344.5152 349.1388 351.5292 356.1528 359.5284 363.0552 365.5392 368.0232 372.5988 377.2224 382.08 384.7464 388.0212 392.7552 396.3408 399.0072 401.4912 407.5788 409.9632 412.6296 417.4872"
                       y="0"
                       sodipodi:role="line"
                       id="tspan226">An image that is defned by a collection of geometric shapes (e.g., circles, rectangles) and colors. Contrast with </tspan></text>
</g><g
                   id="g228"
                   transform="translate(62.41471,471.8387)"><text
                     transform="matrix(1,0,0,-1,0,-12)"
                     id="text230"><tspan
                       style="fill:#000000;fill-opacity:1;fill-rule:nonzero;stroke:none;font-family:Futura Black Narrow;font-variant:normal;font-weight:500;font-size:12;writing-mode:lr;-inkscape-font-specification:Futura-CondensedMedium"
                       x="0 4.734 7.1184 9.7848 17.1144 21.8484 26.5824"
                       y="0"
                       sodipodi:role="line"
                       id="tspan232">bitmap.</tspan></text>
<text
                     transform="matrix(1,0,0,-1,29.0664,-12)"
                     id="text234"><tspan
                       style="fill:#000000;fill-opacity:1;fill-rule:nonzero;stroke:none;font-family:Futura Black Narrow;font-variant:normal;font-weight:500;font-size:12;writing-mode:lr;-inkscape-font-specification:Futura-CondensedMedium"
                       x="0"
                       y="0"
                       id="tspan236"></tspan></text>
</g><g
                   id="g238"
                   transform="translate(45.41472,450.8387)"><text
                     transform="matrix(1,0,0,-1,0,-12)"
                     id="text240"><tspan
                       style="fill:#000000;fill-opacity:1;fill-rule:nonzero;stroke:none;font-family:Futura Black Narrow;font-variant:normal;font-weight:800;font-size:12;writing-mode:lr;-inkscape-font-specification:Futura-CondensedExtraBold"
                       x="0 6.0468 9.4896 16.2324 22.7712 29.382 32.9928 38.3436 44.8824 51.5412 56.892 60.3348 66.9936 73.6764 77.2872"
                       y="0"
                       sodipodi:role="line"
                       id="tspan242">video sensing: </tspan></text>
</g><g
                   id="g244"
                   transform="translate(45.41472,450.8387)"><text
                     transform="matrix(1,0,0,-1,80.88281,-12)"
                     id="text246"><tspan
                       style="fill:#000000;fill-opacity:1;fill-rule:nonzero;stroke:none;font-family:Futura Black Narrow;font-variant:normal;font-weight:500;font-size:12;writing-mode:lr;-inkscape-font-specification:Futura-CondensedMedium"
                       x="0 4.8924 7.3764 11.8524 15.2796 18.5544 23.2884 25.9548 29.3124 34.17 36.654 39.6072 44.0316 48.7656 51.432 56.3076 59.5476 63.972 66.456 69.1224 73.98 78.714 81.3804 83.8644 91.194 95.928 100.44 104.8644 108.3912 110.8752 115.7508 119.2776 123.702 126.186 130.8096 133.7508 136.2348 140.3076 142.692 147.426 151.8504 156.474 158.958 161.8992 165.1392 169.7628 177.0924 179.5764 184.3104 186.7944 192.8124 197.2368 201.9708 205.398 210.132 217.4616 219.9456 222.588 227.2116 229.6956 234.4296 238.854 241.5084 245.9328 249.36 252.0264 254.5104 261.84 266.4516 269.118 271.5024 276.126 280.9836 283.4676 288.0912 291.2964 293.7804 298.5144 300.8988 304.4256 309.1596 311.55 316.3548 320.7792 323.2632 327.336 329.7204 334.4544 338.8788 343.5024 345.9864 348.3708 353.2044 357.9384 362.814 365.4804 367.9644 372.588 377.4456 379.9296 382.596 387.4536 391.878 394.362 397.9476 400.6248 405.3588 410.0988 414.5232"
                       y="0"
                       sodipodi:role="line"
                       id="tspan248">A Scratch feature that makes use of video from a webcam to detect motion or display video input on the stage.</tspan></text>
<text
                     transform="matrix(1,0,0,-1,497.89001,-12)"
                     id="text250"><tspan
                       style="fill:#000000;fill-opacity:1;fill-rule:nonzero;stroke:none;font-family:Futura Black Narrow;font-variant:normal;font-weight:500;font-size:12;writing-mode:lr;-inkscape-font-specification:Futura-CondensedMedium"
                       x="0"
                       y="0"
                       id="tspan252"></tspan></text>
</g><g
                   id="g254"
                   transform="translate(313.2757,27.30544)"><text
                     transform="matrix(1,0,0,-1,266.9062,-12)"
                     id="text256"><tspan
                       style="fill:#898989;fill-opacity:1;fill-rule:nonzero;stroke:none;font-family:Futura Black Narrow;font-variant:normal;font-weight:500;font-size:12;writing-mode:lr;-inkscape-font-specification:Futura-CondensedMedium"
                       x="0 4.236 9"
                       y="0"
                       sodipodi:role="line"
                       id="tspan258">137</tspan></text>
<text
                     transform="matrix(1,0,0,-1,280.8742,-12)"
                     id="text260"><tspan
                       style="fill:#898989;fill-opacity:1;fill-rule:nonzero;stroke:none;font-family:Futura Black Narrow;font-variant:normal;font-weight:500;font-size:12;writing-mode:lr;-inkscape-font-specification:Futura-CondensedMedium"
                       x="0"
                       y="0"
                       id="tspan262"></tspan></text>
</g></g></g></g></g></g></g></g></svg>